<svg width="71" height="72" viewBox="0 0 71 72" fill="none" xmlns="http://www.w3.org/2000/svg">
<mask id="path-1-inside-1_279_25" fill="white">
<path d="M20.179 30.2534C20.179 31.1187 20.2722 31.8204 20.4369 32.3334C20.6233 32.8471 20.8574 33.4084 21.1841 34.0153C21.2989 34.2016 21.3466 34.388 21.3466 34.5527C21.3466 34.7846 21.2057 35.0187 20.9029 35.2522L19.4313 36.234C19.2211 36.3727 19.0108 36.4442 18.825 36.4442C18.5909 36.4442 18.3569 36.3272 18.1228 36.117C17.8087 35.7781 17.5271 35.4103 17.2819 35.0187C17.022 34.5693 16.7807 34.1095 16.5586 33.6403C14.7381 35.7897 12.4483 36.8647 9.69154 36.8647C7.73071 36.8647 6.16649 36.3033 5.02051 35.1829C3.87619 34.0607 3.29321 32.5659 3.29321 30.6977C3.29321 28.713 3.99323 27.1011 5.41933 25.888C6.84266 24.6721 8.73414 24.0653 11.1415 24.0653C11.9347 24.0653 12.7512 24.1346 13.6154 24.2517C14.4807 24.3687 15.3688 24.5551 16.3029 24.7653V23.0602C16.3029 21.2852 15.9279 20.0482 15.2046 19.3249C14.4557 18.6011 13.1949 18.2499 11.3966 18.2499C10.5796 18.2499 9.73924 18.3431 8.87448 18.5534C8.01591 18.7579 7.17304 19.0235 6.35232 19.3482C5.97735 19.5107 5.69778 19.6039 5.53526 19.6516C5.37107 19.6971 5.25403 19.721 5.16085 19.721C4.83358 19.721 4.67106 19.4869 4.67106 18.9977V17.8533C4.67106 17.4784 4.71654 17.1988 4.83358 17.0346C4.95006 16.8721 5.16085 16.7096 5.48811 16.5448C6.30461 16.1244 7.28641 15.7738 8.43018 15.4937C9.5745 15.1903 10.7898 15.0499 12.0745 15.0499C14.8523 15.0499 16.8847 15.6801 18.1938 16.9414C19.4784 18.2022 20.1308 20.1176 20.1308 22.6874V30.2534H20.179ZM10.6972 33.805C11.4665 33.805 12.2614 33.6641 13.1023 33.3846C13.9432 33.1028 14.6904 32.5897 15.3211 31.8897C15.6938 31.4459 15.9756 30.9556 16.1143 30.3948C16.2552 29.8335 16.3483 29.1579 16.3483 28.3619V27.3829C15.6408 27.209 14.9239 27.0759 14.2011 26.984C13.4724 26.8921 12.7386 26.8458 12.004 26.8454C10.4398 26.8454 9.29549 27.1488 8.52392 27.7795C7.75457 28.4096 7.38015 29.296 7.38015 30.4641C7.38015 31.5624 7.65971 32.3795 8.24436 32.9403C8.8057 33.5232 9.62275 33.805 10.6972 33.805ZM29.4506 36.3272C29.0302 36.3272 28.7506 36.2579 28.5642 36.0931C28.3756 35.9522 28.2131 35.6272 28.0722 35.1834L22.5841 17.1295C22.4455 16.6619 22.3734 16.3585 22.3734 16.1937C22.3734 15.821 22.5603 15.6113 22.9353 15.6113H25.2233C25.6671 15.6113 25.9705 15.6801 26.1353 15.8448C26.3216 15.9835 26.4625 16.3107 26.6012 16.7545L30.525 32.217L34.1693 16.7551C34.2847 16.2891 34.4256 15.984 34.6114 15.8454C34.8 15.7039 35.1273 15.6107 35.5477 15.6107H37.4154C37.8591 15.6107 38.1631 15.6801 38.3495 15.8448C38.5358 15.9835 38.7006 16.3107 38.7932 16.7545L42.4836 32.4033L46.5245 16.7551C46.6631 16.2891 46.8279 15.984 46.9904 15.8454C47.1768 15.7039 47.4824 15.6107 47.9023 15.6107H50.0734C50.4483 15.6107 50.6586 15.7971 50.6586 16.1937C50.6586 16.3102 50.6347 16.4278 50.6108 16.5687C50.587 16.7096 50.5415 16.8959 50.4483 17.1511L44.8194 35.2067C44.6785 35.6727 44.5159 35.9761 44.3273 36.1164C44.141 36.2579 43.8376 36.351 43.441 36.351H41.433C40.9887 36.351 40.6853 36.2789 40.4989 36.117C40.3103 35.9522 40.1478 35.6488 40.0546 35.1829L36.4341 20.1176L32.837 35.159C32.7205 35.6272 32.5818 35.9306 32.3932 36.0931C32.2063 36.2579 31.8796 36.3272 31.4591 36.3272H29.4506ZM59.462 36.9579C58.2489 36.9579 57.033 36.817 55.8654 36.5374C54.6972 36.2579 53.7875 35.9522 53.1807 35.6033C52.8057 35.3931 52.55 35.1596 52.4568 34.9488C52.3648 34.7428 52.3168 34.5199 52.316 34.2943V33.1028C52.316 32.6136 52.5023 32.3795 52.854 32.3795C52.9927 32.3795 53.133 32.4033 53.2739 32.451C53.4126 32.4965 53.6228 32.5897 53.8563 32.6829C54.6819 33.0455 55.5435 33.3199 56.4267 33.5016C57.3603 33.688 58.2705 33.7812 59.2063 33.7812C60.6779 33.7812 61.8216 33.5232 62.6148 33.0102C63.4097 32.4965 63.8302 31.7488 63.8302 30.7914C63.8302 30.1369 63.6199 29.6016 63.2 29.1573C62.7796 28.7136 61.9842 28.3164 60.8404 27.942L57.4535 26.8909C55.7484 26.3534 54.487 25.5607 53.7182 24.5096C52.9472 23.4806 52.55 22.3363 52.55 21.1232C52.55 20.1414 52.7608 19.2772 53.1807 18.5295C53.5977 17.7781 54.171 17.125 54.862 16.6142C55.562 16.0789 56.3574 15.6801 57.2915 15.4005C58.225 15.1209 59.2063 15.0039 60.2336 15.0039C60.7472 15.0039 61.2841 15.0278 61.7978 15.0971C62.3353 15.1664 62.8251 15.2596 63.3165 15.3528C63.7825 15.4698 64.2268 15.5869 64.6472 15.7278C65.0677 15.8687 65.3949 16.0073 65.629 16.1482C65.9563 16.3346 66.1898 16.521 66.3285 16.7306C66.4694 16.9192 66.5387 17.1755 66.5387 17.5022V18.6005C66.5387 19.0908 66.3523 19.3482 66.0012 19.3482C65.8148 19.3482 65.5114 19.2534 65.1154 19.067C63.7825 18.4602 62.2876 18.1567 60.6302 18.1567C59.2995 18.1567 58.2489 18.367 57.525 18.8113C56.7989 19.2534 56.4267 19.9317 56.4267 20.8891C56.4267 21.5437 56.6603 22.1045 57.1262 22.5465C57.5944 22.9903 58.4591 23.4352 59.6961 23.8312L63.0131 24.8823C64.6949 25.4198 65.9086 26.167 66.6319 27.1249C67.3558 28.0829 67.7069 29.1812 67.7069 30.3948C67.7069 31.3999 67.4961 32.3101 67.1 33.1028C66.6796 33.8982 66.1182 34.5982 65.3949 35.159C64.6711 35.742 63.8063 36.1625 62.8034 36.4681C61.7523 36.7931 60.654 36.9579 59.462 36.9579Z"/>
</mask>
<path d="M20.179 30.2534C20.179 31.1187 20.2722 31.8204 20.4369 32.3334C20.6233 32.8471 20.8574 33.4084 21.1841 34.0153C21.2989 34.2016 21.3466 34.388 21.3466 34.5527C21.3466 34.7846 21.2057 35.0187 20.9029 35.2522L19.4313 36.234C19.2211 36.3727 19.0108 36.4442 18.825 36.4442C18.5909 36.4442 18.3569 36.3272 18.1228 36.117C17.8087 35.7781 17.5271 35.4103 17.2819 35.0187C17.022 34.5693 16.7807 34.1095 16.5586 33.6403C14.7381 35.7897 12.4483 36.8647 9.69154 36.8647C7.73071 36.8647 6.16649 36.3033 5.02051 35.1829C3.87619 34.0607 3.29321 32.5659 3.29321 30.6977C3.29321 28.713 3.99323 27.1011 5.41933 25.888C6.84266 24.6721 8.73414 24.0653 11.1415 24.0653C11.9347 24.0653 12.7512 24.1346 13.6154 24.2517C14.4807 24.3687 15.3688 24.5551 16.3029 24.7653V23.0602C16.3029 21.2852 15.9279 20.0482 15.2046 19.3249C14.4557 18.6011 13.1949 18.2499 11.3966 18.2499C10.5796 18.2499 9.73924 18.3431 8.87448 18.5534C8.01591 18.7579 7.17304 19.0235 6.35232 19.3482C5.97735 19.5107 5.69778 19.6039 5.53526 19.6516C5.37107 19.6971 5.25403 19.721 5.16085 19.721C4.83358 19.721 4.67106 19.4869 4.67106 18.9977V17.8533C4.67106 17.4784 4.71654 17.1988 4.83358 17.0346C4.95006 16.8721 5.16085 16.7096 5.48811 16.5448C6.30461 16.1244 7.28641 15.7738 8.43018 15.4937C9.5745 15.1903 10.7898 15.0499 12.0745 15.0499C14.8523 15.0499 16.8847 15.6801 18.1938 16.9414C19.4784 18.2022 20.1308 20.1176 20.1308 22.6874V30.2534H20.179ZM10.6972 33.805C11.4665 33.805 12.2614 33.6641 13.1023 33.3846C13.9432 33.1028 14.6904 32.5897 15.3211 31.8897C15.6938 31.4459 15.9756 30.9556 16.1143 30.3948C16.2552 29.8335 16.3483 29.1579 16.3483 28.3619V27.3829C15.6408 27.209 14.9239 27.0759 14.2011 26.984C13.4724 26.8921 12.7386 26.8458 12.004 26.8454C10.4398 26.8454 9.29549 27.1488 8.52392 27.7795C7.75457 28.4096 7.38015 29.296 7.38015 30.4641C7.38015 31.5624 7.65971 32.3795 8.24436 32.9403C8.8057 33.5232 9.62275 33.805 10.6972 33.805ZM29.4506 36.3272C29.0302 36.3272 28.7506 36.2579 28.5642 36.0931C28.3756 35.9522 28.2131 35.6272 28.0722 35.1834L22.5841 17.1295C22.4455 16.6619 22.3734 16.3585 22.3734 16.1937C22.3734 15.821 22.5603 15.6113 22.9353 15.6113H25.2233C25.6671 15.6113 25.9705 15.6801 26.1353 15.8448C26.3216 15.9835 26.4625 16.3107 26.6012 16.7545L30.525 32.217L34.1693 16.7551C34.2847 16.2891 34.4256 15.984 34.6114 15.8454C34.8 15.7039 35.1273 15.6107 35.5477 15.6107H37.4154C37.8591 15.6107 38.1631 15.6801 38.3495 15.8448C38.5358 15.9835 38.7006 16.3107 38.7932 16.7545L42.4836 32.4033L46.5245 16.7551C46.6631 16.2891 46.8279 15.984 46.9904 15.8454C47.1768 15.7039 47.4824 15.6107 47.9023 15.6107H50.0734C50.4483 15.6107 50.6586 15.7971 50.6586 16.1937C50.6586 16.3102 50.6347 16.4278 50.6108 16.5687C50.587 16.7096 50.5415 16.8959 50.4483 17.1511L44.8194 35.2067C44.6785 35.6727 44.5159 35.9761 44.3273 36.1164C44.141 36.2579 43.8376 36.351 43.441 36.351H41.433C40.9887 36.351 40.6853 36.2789 40.4989 36.117C40.3103 35.9522 40.1478 35.6488 40.0546 35.1829L36.4341 20.1176L32.837 35.159C32.7205 35.6272 32.5818 35.9306 32.3932 36.0931C32.2063 36.2579 31.8796 36.3272 31.4591 36.3272H29.4506ZM59.462 36.9579C58.2489 36.9579 57.033 36.817 55.8654 36.5374C54.6972 36.2579 53.7875 35.9522 53.1807 35.6033C52.8057 35.3931 52.55 35.1596 52.4568 34.9488C52.3648 34.7428 52.3168 34.5199 52.316 34.2943V33.1028C52.316 32.6136 52.5023 32.3795 52.854 32.3795C52.9927 32.3795 53.133 32.4033 53.2739 32.451C53.4126 32.4965 53.6228 32.5897 53.8563 32.6829C54.6819 33.0455 55.5435 33.3199 56.4267 33.5016C57.3603 33.688 58.2705 33.7812 59.2063 33.7812C60.6779 33.7812 61.8216 33.5232 62.6148 33.0102C63.4097 32.4965 63.8302 31.7488 63.8302 30.7914C63.8302 30.1369 63.6199 29.6016 63.2 29.1573C62.7796 28.7136 61.9842 28.3164 60.8404 27.942L57.4535 26.8909C55.7484 26.3534 54.487 25.5607 53.7182 24.5096C52.9472 23.4806 52.55 22.3363 52.55 21.1232C52.55 20.1414 52.7608 19.2772 53.1807 18.5295C53.5977 17.7781 54.171 17.125 54.862 16.6142C55.562 16.0789 56.3574 15.6801 57.2915 15.4005C58.225 15.1209 59.2063 15.0039 60.2336 15.0039C60.7472 15.0039 61.2841 15.0278 61.7978 15.0971C62.3353 15.1664 62.8251 15.2596 63.3165 15.3528C63.7825 15.4698 64.2268 15.5869 64.6472 15.7278C65.0677 15.8687 65.3949 16.0073 65.629 16.1482C65.9563 16.3346 66.1898 16.521 66.3285 16.7306C66.4694 16.9192 66.5387 17.1755 66.5387 17.5022V18.6005C66.5387 19.0908 66.3523 19.3482 66.0012 19.3482C65.8148 19.3482 65.5114 19.2534 65.1154 19.067C63.7825 18.4602 62.2876 18.1567 60.6302 18.1567C59.2995 18.1567 58.2489 18.367 57.525 18.8113C56.7989 19.2534 56.4267 19.9317 56.4267 20.8891C56.4267 21.5437 56.6603 22.1045 57.1262 22.5465C57.5944 22.9903 58.4591 23.4352 59.6961 23.8312L63.0131 24.8823C64.6949 25.4198 65.9086 26.167 66.6319 27.1249C67.3558 28.0829 67.7069 29.1812 67.7069 30.3948C67.7069 31.3999 67.4961 32.3101 67.1 33.1028C66.6796 33.8982 66.1182 34.5982 65.3949 35.159C64.6711 35.742 63.8063 36.1625 62.8034 36.4681C61.7523 36.7931 60.654 36.9579 59.462 36.9579Z" stroke="white" stroke-width="2" mask="url(#path-1-inside-1_279_25)"/>
<path d="M0.965332 43.073C0.998161 43.069 1.05866 43.0724 1.14502 43.1082L1.23975 43.156L1.24365 43.158C11.2219 48.9483 23.5239 52.4519 36.2476 52.4519C44.5685 52.4519 53.6819 50.7741 62.1343 47.3318L62.9497 46.9929L62.9614 46.988C63.4033 46.7878 63.7311 46.9519 63.8589 47.1365C63.9236 47.23 63.9484 47.3377 63.9243 47.4509C63.9001 47.5646 63.8158 47.7304 63.5786 47.907C55.9984 53.5055 44.9457 56.4957 35.4312 56.4958C22.1041 56.4958 10.1015 51.5683 1.03467 43.3835H1.03564C0.87256 43.2361 0.888171 43.1374 0.891113 43.1248C0.894882 43.1093 0.907542 43.0813 0.966309 43.074L0.965332 43.073ZM65.4604 41.6853C66.6577 41.668 67.739 41.7767 68.562 41.948C68.9742 42.0338 69.3111 42.1333 69.561 42.2351C69.8201 42.3406 69.9282 42.4261 69.9556 42.4568C69.9751 42.4828 70.0345 42.5994 70.0737 42.8767C70.1108 43.1396 70.1223 43.4868 70.1001 43.905C70.0556 44.7405 69.8793 45.8123 69.5493 46.9656C68.9278 49.1379 67.7837 51.526 66.0366 53.1667L65.6792 53.4841L65.6763 53.4871C65.6145 53.5397 65.558 53.5738 65.5112 53.5984C65.9789 52.4424 66.7385 50.5483 67.2583 48.782C67.5185 47.8976 67.7253 47.0241 67.8013 46.281C67.8392 45.9094 67.8465 45.5527 67.8042 45.2351C67.7627 44.9233 67.6678 44.6089 67.4692 44.3572H67.4702C67.2738 44.105 66.9928 43.9343 66.6997 43.8142C66.4026 43.6925 66.056 43.6087 65.687 43.5496C64.9493 43.4313 64.0556 43.4043 63.1372 43.4265C61.299 43.471 59.2759 43.7126 58.0278 43.864C58.0652 43.8206 58.1175 43.7696 58.1909 43.7166L58.1899 43.7156C60.1396 42.3481 62.7099 41.7907 65.0044 41.698L65.4604 41.6853Z" stroke="white"/>
</svg>
