<svg width="68" height="68" viewBox="0 0 68 68" fill="none" xmlns="http://www.w3.org/2000/svg">
<path d="M62.3684 1.21826L57.178 60.23L33.9651 66.7622L10.8157 60.2397L5.6311 1.21826H62.3684Z" stroke="white"/>
<path d="M51.6089 12.9498L51.4829 14.3776L49.7427 34.1696H34.5005V27.8219H44.0386L44.0786 27.3658L44.7397 19.8414L44.7876 19.2975H34.5005V12.9498H51.6089Z" stroke="white"/>
<path d="M24.9756 38.844L25.4512 44.2483L25.4814 44.595L25.8164 44.6868L33.543 46.803V53.4075L19.6484 49.4924L18.7129 38.844H24.9756Z" stroke="white"/>
<path d="M49.6824 34.8586L48.4705 48.595V48.5959L48.3914 49.4924L34.5183 53.3938V46.7913L42.2253 44.6809L42.5603 44.5891L42.5906 44.2424L43.4226 34.8586H49.6824Z" stroke="white"/>
<path d="M33.5005 27.8229V34.1705H26.4976L26.3931 32.9752L26.062 29.2496L25.938 27.8229H33.5005ZM33.5249 12.9498V19.2975H16.9966L16.8911 18.1031V18.1022L16.561 14.3776L16.436 12.9498H33.5249Z" stroke="white"/>
</svg>
