<svg width="56" height="56" viewBox="0 0 56 56" fill="none" xmlns="http://www.w3.org/2000/svg">
<path d="M28.2976 1.00024C43.2207 1.00029 55.2985 13.0771 55.2986 28.0012C55.2986 42.9238 43.221 55.0002 28.2966 55.0002C13.3743 55.0001 1.29877 42.9236 1.29858 28.0012C1.29858 13.0769 13.375 1.00024 28.2976 1.00024ZM18.7976 14.7004C16.4068 14.7005 14.3275 15.3241 12.5632 16.259L12.5437 16.2688L12.5261 16.2805C10.7582 17.4238 9.2892 18.9931 8.34644 21.0852C7.41036 23.0603 6.89822 25.4358 6.89819 28.0012C6.89819 30.6658 7.41112 32.939 8.34546 34.9133V34.9143C9.22864 36.7818 10.5773 38.282 12.2126 39.3274L12.5437 39.5305L12.5544 39.5364C14.4366 40.5825 16.5233 41.0999 18.9978 41.0999C22.1093 41.0998 24.8243 40.1608 27.2156 38.1868L27.571 37.8928L27.3064 37.5149L24.5076 33.5129L24.24 33.1311L23.8406 33.3713C23.1039 33.8134 22.481 34.1426 21.9294 34.4026L21.4001 34.6409C20.7872 34.9029 20.0623 35.0002 19.2966 35.0002C17.7179 35.0002 16.6833 34.5459 15.8972 33.4993L15.8904 33.4905L15.8835 33.4827L15.7419 33.2942C15.0531 32.3074 14.697 30.619 14.697 28.0999C14.697 25.4871 15.1187 23.6275 15.8914 22.4348C16.6393 21.2803 17.7474 20.7014 19.2966 20.7014C19.975 20.7014 20.6875 20.7759 21.2634 20.97L21.5007 21.0598H21.5017C22.1789 21.3499 22.94 21.7316 23.697 22.2991L24.1003 22.6018L24.3992 22.1965L27.2 18.3967L27.3337 18.2151L34.9343 42.5754C34.8635 42.6524 34.7781 42.7456 34.6853 42.843C34.432 43.1088 34.1597 43.3771 33.9978 43.4993C33.0022 44.2206 31.4101 44.7063 29.1335 45.0042L28.6267 45.0706L28.7039 45.5754L29.405 50.177L29.4753 50.6399L29.9421 50.5999C33.2774 50.3131 36.0421 49.4862 38.1921 47.9143L38.614 47.5891C40.8004 45.8172 42.3501 43.4282 43.3738 40.2532L51.1726 16.2551L51.3855 15.6008H43.6101L43.5134 15.9768L38.9128 33.927L34.5837 15.9836L34.491 15.6008H26.5183L26.7205 16.2493L27.199 17.7834L27.1179 17.7161C25.8787 16.6832 24.6317 15.9533 23.2771 15.4338H23.2761C21.9934 14.9014 20.4239 14.7004 18.7976 14.7004Z" stroke="white"/>
</svg>
