<svg width="57" height="56" viewBox="0 0 57 56" fill="none" xmlns="http://www.w3.org/2000/svg">
<path d="M4.56909 27.4719C4.89297 12.3444 19.8723 0.645291 36.1355 5.63599V5.63696C39.4618 6.6692 42.5047 8.42444 45.0388 10.7688L45.5388 11.2454C48.1675 13.8281 50.1243 16.9939 51.2439 20.4749V20.4758C56.3175 36.4571 44.4535 51.1904 28.9998 51.5022V43.1917C38.9517 42.8761 46.6036 33.2431 43.1111 22.8821L42.9333 22.3801C42.2002 20.4055 41.0368 18.6124 39.5251 17.1272C38.108 15.735 36.4168 14.6447 34.5574 13.9211L34.1833 13.7815L34.1824 13.7805L33.6726 13.6077C23.1601 10.2144 13.3416 17.6738 13.0173 27.4719H4.56909ZM28.0281 33.9709V42.2278H19.6062V33.9709H28.0281Z" stroke="white"/>
<path d="M18.6055 43.2278V49.3577H12.3457V43.2278H18.6055ZM11.3457 37.2639V42.2278H6.27832V37.2639H11.3457Z" stroke="white"/>
</svg>
