<svg width="85" height="84" viewBox="0 0 85 84" fill="none" xmlns="http://www.w3.org/2000/svg">
<path d="M48.5074 19.0719V33.8375H56.0114V41.3844H60.2965C61.8603 41.3844 63.4683 41.1247 64.984 40.6998L65.6276 40.5084L65.6334 40.5065C66.457 40.2352 67.4186 39.8283 68.2496 39.3492L68.7448 39.0631L68.3961 38.61C67.4681 37.4062 66.9645 35.9191 66.8004 34.3922L66.7721 34.0865L66.7711 34.0817L66.7438 33.6617C66.6958 32.6636 66.775 31.5543 67.0182 30.4967C67.2795 29.3604 67.7226 28.3136 68.3717 27.526L68.5045 27.3717L68.5104 27.3649L68.9967 26.8033L69.5524 27.236C71.8819 29.0918 73.7035 31.5441 74.0787 34.3873L74.1549 34.9694L74.7174 34.8014C77.3796 34.006 80.4426 34.1673 82.7994 35.4186L83.025 35.5436L83.6119 35.8912L83.2955 36.5182C81.301 40.3372 77.0985 41.6264 72.8776 41.3698L72.5201 41.3483L72.3844 41.6803C65.9684 57.4017 52.1012 64.8629 35.1285 64.8629C26.4228 64.8628 18.5166 61.6353 13.9821 54.0905L13.9313 53.9889L13.2672 52.611H13.2662C11.7212 49.2996 11.2635 45.6578 11.5865 41.9938L11.6666 41.319H18.0973V33.8375H25.6012V26.4879H40.5426V19.0719H48.5074Z" stroke="white"/>
<path d="M69.1483 28.5378C69.9735 29.2283 70.9258 30.1846 71.661 31.3484C72.5143 32.6991 73.0625 34.3044 72.8173 36.0916L72.6893 37.0251L73.5341 36.6072C74.5976 36.0817 76.0892 35.6721 77.6737 35.6091C79.0972 35.5526 80.5662 35.7781 81.8583 36.4226C79.9745 39.5532 76.1538 40.5567 71.9696 40.1248L71.5868 40.0847L71.4501 40.4441C65.3643 56.4818 51.5065 63.6814 35.0624 63.6814C27.876 63.6814 22.1022 61.4418 18.2157 57.6394C18.9178 57.6567 19.5749 57.6589 20.2538 57.6589C21.2392 57.6589 22.1833 57.6596 23.0643 57.5935H23.4559L23.4716 57.5925C25.6871 57.4598 27.4523 57.1939 29.0917 56.7214L29.0907 56.7205C29.2756 56.681 29.4387 56.629 29.5741 56.5818C29.7296 56.5276 29.8327 56.4892 29.9364 56.4636L29.9891 56.45L30.038 56.4265C30.2382 56.3276 30.4445 56.1649 30.5721 55.9285C30.7086 55.6755 30.735 55.3715 30.6122 55.0681L30.6044 55.0496L30.5946 55.03L30.5067 54.8816C30.4065 54.7341 30.2689 54.5956 30.0907 54.5017C29.847 54.3734 29.5581 54.3464 29.2665 54.4519C27.3924 55.0493 24.9851 55.4294 22.036 55.5281L21.4393 55.5437H21.4296C19.861 55.6057 18.1651 55.5478 16.2762 55.4275C15.9166 54.9048 15.597 54.4683 15.3153 53.9685L14.7841 52.9841C13.2345 49.9789 12.5182 46.4958 12.8124 42.697H60.2968C64.3838 42.697 68.2879 41.1549 70.2489 39.4939L70.7108 39.1033L70.2401 38.7234C68.7704 37.5378 68.0659 35.4753 68.0018 33.3552C67.9447 31.4634 68.402 29.6549 69.1483 28.5378Z" stroke="white"/>
<path d="M68.0234 47.6842C60.9013 58.7156 48.9668 63.7467 35.1953 63.7467C28.0075 63.7467 22.176 61.5075 18.2822 57.7057C18.9768 57.7223 19.6517 57.7252 20.3203 57.7252C21.234 57.7252 22.1709 57.7246 23.0469 57.6598H23.3232L23.3389 57.6588C25.5631 57.5256 27.4592 57.1919 29.0918 56.7213L29.0908 56.7203C29.2757 56.6808 29.4388 56.6289 29.5742 56.5817C29.7297 56.5274 29.8328 56.4891 29.9365 56.4635L29.9893 56.4508L30.0381 56.4264C30.2383 56.3274 30.4447 56.1647 30.5723 55.9283C30.7086 55.6755 30.7349 55.3721 30.6123 55.069L30.6045 55.0494L30.5947 55.0309L30.5068 54.8815C30.4066 54.734 30.269 54.5965 30.0908 54.5026C29.8468 54.3739 29.5577 54.3468 29.2656 54.4528V54.4518C27.3916 55.0491 24.9849 55.4292 22.0361 55.528L21.4395 55.5436L21.4297 55.5446C19.8612 55.6066 18.1651 55.5476 16.2764 55.4274C15.9166 54.9045 15.5962 54.4684 15.3145 53.9684H15.3154L14.7842 52.984C13.9126 51.3175 13.3046 49.5514 13.0039 47.6842H68.0234Z" stroke="white"/>
<mask id="path-4-inside-1_216_244" fill="white">
<path fill-rule="evenodd" clip-rule="evenodd" d="M18.8594 34.5844H25.3672V41.0156H18.8594V34.5844ZM19.3906 35.1094H19.9219V40.425H19.3906V35.1094ZM20.3203 35.1094H20.8516V40.425H20.3203V35.1094ZM21.3164 35.1094H21.8477V40.425H21.3164V35.1094ZM22.3125 35.1094H22.8438V40.425H22.3125V35.1094ZM23.3086 35.1094H23.8398V40.425H23.3086V35.1094ZM24.3047 35.1094H24.8359V40.425H24.3047V35.1094ZM26.2969 27.2344H32.8047V33.6656H26.2969V27.2344ZM26.8945 27.7594H27.4258V33.075H26.8945V27.7594ZM27.8242 27.7594H28.3555V33.075H27.8242V27.7594ZM28.8203 27.7594H29.3516V33.075H28.8203V27.7594ZM29.8164 27.7594H30.3477V33.075H29.8164V27.7594ZM30.7461 27.7594H31.2773V33.075H30.7461V27.7594ZM31.7422 27.7594H32.2734V33.075H31.7422V27.7594Z"/>
</mask>
<path d="M18.8594 34.5844V33.5844H17.8594V34.5844H18.8594ZM25.3672 34.5844H26.3672V33.5844H25.3672V34.5844ZM25.3672 41.0156V42.0156H26.3672V41.0156H25.3672ZM18.8594 41.0156H17.8594V42.0156H18.8594V41.0156ZM19.3906 35.1094V34.1094H18.3906V35.1094H19.3906ZM19.9219 35.1094H20.9219V34.1094H19.9219V35.1094ZM19.9219 40.425V41.425H20.9219V40.425H19.9219ZM19.3906 40.425H18.3906V41.425H19.3906V40.425ZM20.3203 35.1094V34.1094H19.3203V35.1094H20.3203ZM20.8516 35.1094H21.8516V34.1094H20.8516V35.1094ZM20.8516 40.425V41.425H21.8516V40.425H20.8516ZM20.3203 40.425H19.3203V41.425H20.3203V40.425ZM21.3164 35.1094V34.1094H20.3164V35.1094H21.3164ZM21.8477 35.1094H22.8477V34.1094H21.8477V35.1094ZM21.8477 40.425V41.425H22.8477V40.425H21.8477ZM21.3164 40.425H20.3164V41.425H21.3164V40.425ZM22.3125 35.1094V34.1094H21.3125V35.1094H22.3125ZM22.8438 35.1094H23.8438V34.1094H22.8438V35.1094ZM22.8438 40.425V41.425H23.8438V40.425H22.8438ZM22.3125 40.425H21.3125V41.425H22.3125V40.425ZM23.3086 35.1094V34.1094H22.3086V35.1094H23.3086ZM23.8398 35.1094H24.8398V34.1094H23.8398V35.1094ZM23.8398 40.425V41.425H24.8398V40.425H23.8398ZM23.3086 40.425H22.3086V41.425H23.3086V40.425ZM24.3047 35.1094V34.1094H23.3047V35.1094H24.3047ZM24.8359 35.1094H25.8359V34.1094H24.8359V35.1094ZM24.8359 40.425V41.425H25.8359V40.425H24.8359ZM24.3047 40.425H23.3047V41.425H24.3047V40.425ZM26.2969 27.2344V26.2344H25.2969V27.2344H26.2969ZM32.8047 27.2344H33.8047V26.2344H32.8047V27.2344ZM32.8047 33.6656V34.6656H33.8047V33.6656H32.8047ZM26.2969 33.6656H25.2969V34.6656H26.2969V33.6656ZM26.8945 27.7594V26.7594H25.8945V27.7594H26.8945ZM27.4258 27.7594H28.4258V26.7594H27.4258V27.7594ZM27.4258 33.075V34.075H28.4258V33.075H27.4258ZM26.8945 33.075H25.8945V34.075H26.8945V33.075ZM27.8242 27.7594V26.7594H26.8242V27.7594H27.8242ZM28.3555 27.7594H29.3555V26.7594H28.3555V27.7594ZM28.3555 33.075V34.075H29.3555V33.075H28.3555ZM27.8242 33.075H26.8242V34.075H27.8242V33.075ZM28.8203 27.7594V26.7594H27.8203V27.7594H28.8203ZM29.3516 27.7594H30.3516V26.7594H29.3516V27.7594ZM29.3516 33.075V34.075H30.3516V33.075H29.3516ZM28.8203 33.075H27.8203V34.075H28.8203V33.075ZM29.8164 27.7594V26.7594H28.8164V27.7594H29.8164ZM30.3477 27.7594H31.3477V26.7594H30.3477V27.7594ZM30.3477 33.075V34.075H31.3477V33.075H30.3477ZM29.8164 33.075H28.8164V34.075H29.8164V33.075ZM30.7461 27.7594V26.7594H29.7461V27.7594H30.7461ZM31.2773 27.7594H32.2773V26.7594H31.2773V27.7594ZM31.2773 33.075V34.075H32.2773V33.075H31.2773ZM30.7461 33.075H29.7461V34.075H30.7461V33.075ZM31.7422 27.7594V26.7594H30.7422V27.7594H31.7422ZM32.2734 27.7594H33.2734V26.7594H32.2734V27.7594ZM32.2734 33.075V34.075H33.2734V33.075H32.2734ZM31.7422 33.075H30.7422V34.075H31.7422V33.075ZM18.8594 34.5844V35.5844H25.3672V34.5844V33.5844H18.8594V34.5844ZM25.3672 34.5844H24.3672V41.0156H25.3672H26.3672V34.5844H25.3672ZM25.3672 41.0156V40.0156H18.8594V41.0156V42.0156H25.3672V41.0156ZM18.8594 41.0156H19.8594V34.5844H18.8594H17.8594V41.0156H18.8594ZM19.3906 35.1094V36.1094H19.9219V35.1094V34.1094H19.3906V35.1094ZM19.9219 35.1094H18.9219V40.425H19.9219H20.9219V35.1094H19.9219ZM19.9219 40.425V39.425H19.3906V40.425V41.425H19.9219V40.425ZM19.3906 40.425H20.3906V35.1094H19.3906H18.3906V40.425H19.3906ZM20.3203 35.1094V36.1094H20.8516V35.1094V34.1094H20.3203V35.1094ZM20.8516 35.1094H19.8516V40.425H20.8516H21.8516V35.1094H20.8516ZM20.8516 40.425V39.425H20.3203V40.425V41.425H20.8516V40.425ZM20.3203 40.425H21.3203V35.1094H20.3203H19.3203V40.425H20.3203ZM21.3164 35.1094V36.1094H21.8477V35.1094V34.1094H21.3164V35.1094ZM21.8477 35.1094H20.8477V40.425H21.8477H22.8477V35.1094H21.8477ZM21.8477 40.425V39.425H21.3164V40.425V41.425H21.8477V40.425ZM21.3164 40.425H22.3164V35.1094H21.3164H20.3164V40.425H21.3164ZM22.3125 35.1094V36.1094H22.8438V35.1094V34.1094H22.3125V35.1094ZM22.8438 35.1094H21.8438V40.425H22.8438H23.8438V35.1094H22.8438ZM22.8438 40.425V39.425H22.3125V40.425V41.425H22.8438V40.425ZM22.3125 40.425H23.3125V35.1094H22.3125H21.3125V40.425H22.3125ZM23.3086 35.1094V36.1094H23.8398V35.1094V34.1094H23.3086V35.1094ZM23.8398 35.1094H22.8398V40.425H23.8398H24.8398V35.1094H23.8398ZM23.8398 40.425V39.425H23.3086V40.425V41.425H23.8398V40.425ZM23.3086 40.425H24.3086V35.1094H23.3086H22.3086V40.425H23.3086ZM24.3047 35.1094V36.1094H24.8359V35.1094V34.1094H24.3047V35.1094ZM24.8359 35.1094H23.8359V40.425H24.8359H25.8359V35.1094H24.8359ZM24.8359 40.425V39.425H24.3047V40.425V41.425H24.8359V40.425ZM24.3047 40.425H25.3047V35.1094H24.3047H23.3047V40.425H24.3047ZM26.2969 27.2344V28.2344H32.8047V27.2344V26.2344H26.2969V27.2344ZM32.8047 27.2344H31.8047V33.6656H32.8047H33.8047V27.2344H32.8047ZM32.8047 33.6656V32.6656H26.2969V33.6656V34.6656H32.8047V33.6656ZM26.2969 33.6656H27.2969V27.2344H26.2969H25.2969V33.6656H26.2969ZM26.8945 27.7594V28.7594H27.4258V27.7594V26.7594H26.8945V27.7594ZM27.4258 27.7594H26.4258V33.075H27.4258H28.4258V27.7594H27.4258ZM27.4258 33.075V32.075H26.8945V33.075V34.075H27.4258V33.075ZM26.8945 33.075H27.8945V27.7594H26.8945H25.8945V33.075H26.8945ZM27.8242 27.7594V28.7594H28.3555V27.7594V26.7594H27.8242V27.7594ZM28.3555 27.7594H27.3555V33.075H28.3555H29.3555V27.7594H28.3555ZM28.3555 33.075V32.075H27.8242V33.075V34.075H28.3555V33.075ZM27.8242 33.075H28.8242V27.7594H27.8242H26.8242V33.075H27.8242ZM28.8203 27.7594V28.7594H29.3516V27.7594V26.7594H28.8203V27.7594ZM29.3516 27.7594H28.3516V33.075H29.3516H30.3516V27.7594H29.3516ZM29.3516 33.075V32.075H28.8203V33.075V34.075H29.3516V33.075ZM28.8203 33.075H29.8203V27.7594H28.8203H27.8203V33.075H28.8203ZM29.8164 27.7594V28.7594H30.3477V27.7594V26.7594H29.8164V27.7594ZM30.3477 27.7594H29.3477V33.075H30.3477H31.3477V27.7594H30.3477ZM30.3477 33.075V32.075H29.8164V33.075V34.075H30.3477V33.075ZM29.8164 33.075H30.8164V27.7594H29.8164H28.8164V33.075H29.8164ZM30.7461 27.7594V28.7594H31.2773V27.7594V26.7594H30.7461V27.7594ZM31.2773 27.7594H30.2773V33.075H31.2773H32.2773V27.7594H31.2773ZM31.2773 33.075V32.075H30.7461V33.075V34.075H31.2773V33.075ZM30.7461 33.075H31.7461V27.7594H30.7461H29.7461V33.075H30.7461ZM31.7422 27.7594V28.7594H32.2734V27.7594V26.7594H31.7422V27.7594ZM32.2734 27.7594H31.2734V33.075H32.2734H33.2734V27.7594H32.2734ZM32.2734 33.075V32.075H31.7422V33.075V34.075H32.2734V33.075ZM31.7422 33.075H32.7422V27.7594H31.7422H30.7422V33.075H31.7422Z" fill="white" mask="url(#path-4-inside-1_216_244)"/>
<mask id="path-6-inside-2_216_244" fill="white">
<path fill-rule="evenodd" clip-rule="evenodd" d="M26.2969 34.5844H32.8047V41.0156H26.2969V34.5844ZM26.8945 35.1094H27.4258V40.425H26.8945V35.1094ZM27.8242 35.1094H28.3555V40.425H27.8242V35.1094ZM28.8203 35.1094H29.3516V40.425H28.8203V35.1094ZM29.8164 35.1094H30.3477V40.425H29.8164V35.1094ZM30.7461 35.1094H31.2773V40.425H30.7461V35.1094ZM31.7422 35.1094H32.2734V40.425H31.7422V35.1094Z"/>
</mask>
<path d="M26.2969 34.5844V33.5844H25.2969V34.5844H26.2969ZM32.8047 34.5844H33.8047V33.5844H32.8047V34.5844ZM32.8047 41.0156V42.0156H33.8047V41.0156H32.8047ZM26.2969 41.0156H25.2969V42.0156H26.2969V41.0156ZM26.8945 35.1094V34.1094H25.8945V35.1094H26.8945ZM27.4258 35.1094H28.4258V34.1094H27.4258V35.1094ZM27.4258 40.425V41.425H28.4258V40.425H27.4258ZM26.8945 40.425H25.8945V41.425H26.8945V40.425ZM27.8242 35.1094V34.1094H26.8242V35.1094H27.8242ZM28.3555 35.1094H29.3555V34.1094H28.3555V35.1094ZM28.3555 40.425V41.425H29.3555V40.425H28.3555ZM27.8242 40.425H26.8242V41.425H27.8242V40.425ZM28.8203 35.1094V34.1094H27.8203V35.1094H28.8203ZM29.3516 35.1094H30.3516V34.1094H29.3516V35.1094ZM29.3516 40.425V41.425H30.3516V40.425H29.3516ZM28.8203 40.425H27.8203V41.425H28.8203V40.425ZM29.8164 35.1094V34.1094H28.8164V35.1094H29.8164ZM30.3477 35.1094H31.3477V34.1094H30.3477V35.1094ZM30.3477 40.425V41.425H31.3477V40.425H30.3477ZM29.8164 40.425H28.8164V41.425H29.8164V40.425ZM30.7461 35.1094V34.1094H29.7461V35.1094H30.7461ZM31.2773 35.1094H32.2773V34.1094H31.2773V35.1094ZM31.2773 40.425V41.425H32.2773V40.425H31.2773ZM30.7461 40.425H29.7461V41.425H30.7461V40.425ZM31.7422 35.1094V34.1094H30.7422V35.1094H31.7422ZM32.2734 35.1094H33.2734V34.1094H32.2734V35.1094ZM32.2734 40.425V41.425H33.2734V40.425H32.2734ZM31.7422 40.425H30.7422V41.425H31.7422V40.425ZM26.2969 34.5844V35.5844H32.8047V34.5844V33.5844H26.2969V34.5844ZM32.8047 34.5844H31.8047V41.0156H32.8047H33.8047V34.5844H32.8047ZM32.8047 41.0156V40.0156H26.2969V41.0156V42.0156H32.8047V41.0156ZM26.2969 41.0156H27.2969V34.5844H26.2969H25.2969V41.0156H26.2969ZM26.8945 35.1094V36.1094H27.4258V35.1094V34.1094H26.8945V35.1094ZM27.4258 35.1094H26.4258V40.425H27.4258H28.4258V35.1094H27.4258ZM27.4258 40.425V39.425H26.8945V40.425V41.425H27.4258V40.425ZM26.8945 40.425H27.8945V35.1094H26.8945H25.8945V40.425H26.8945ZM27.8242 35.1094V36.1094H28.3555V35.1094V34.1094H27.8242V35.1094ZM28.3555 35.1094H27.3555V40.425H28.3555H29.3555V35.1094H28.3555ZM28.3555 40.425V39.425H27.8242V40.425V41.425H28.3555V40.425ZM27.8242 40.425H28.8242V35.1094H27.8242H26.8242V40.425H27.8242ZM28.8203 35.1094V36.1094H29.3516V35.1094V34.1094H28.8203V35.1094ZM29.3516 35.1094H28.3516V40.425H29.3516H30.3516V35.1094H29.3516ZM29.3516 40.425V39.425H28.8203V40.425V41.425H29.3516V40.425ZM28.8203 40.425H29.8203V35.1094H28.8203H27.8203V40.425H28.8203ZM29.8164 35.1094V36.1094H30.3477V35.1094V34.1094H29.8164V35.1094ZM30.3477 35.1094H29.3477V40.425H30.3477H31.3477V35.1094H30.3477ZM30.3477 40.425V39.425H29.8164V40.425V41.425H30.3477V40.425ZM29.8164 40.425H30.8164V35.1094H29.8164H28.8164V40.425H29.8164ZM30.7461 35.1094V36.1094H31.2773V35.1094V34.1094H30.7461V35.1094ZM31.2773 35.1094H30.2773V40.425H31.2773H32.2773V35.1094H31.2773ZM31.2773 40.425V39.425H30.7461V40.425V41.425H31.2773V40.425ZM30.7461 40.425H31.7461V35.1094H30.7461H29.7461V40.425H30.7461ZM31.7422 35.1094V36.1094H32.2734V35.1094V34.1094H31.7422V35.1094ZM32.2734 35.1094H31.2734V40.425H32.2734H33.2734V35.1094H32.2734ZM32.2734 40.425V39.425H31.7422V40.425V41.425H32.2734V40.425ZM31.7422 40.425H32.7422V35.1094H31.7422H30.7422V40.425H31.7422Z" fill="white" mask="url(#path-6-inside-2_216_244)"/>
<mask id="path-8-inside-3_216_244" fill="white">
<path fill-rule="evenodd" clip-rule="evenodd" d="M33.8008 34.5844H40.3086V41.0156H33.8008V34.5844ZM34.332 35.1094H34.8633V40.425H34.332V35.1094ZM35.3281 35.1094H35.8594V40.425H35.3281V35.1094ZM36.3242 35.1094H36.8555V40.425H36.3242V35.1094ZM37.2539 35.1094H37.7852V40.425H37.2539V35.1094ZM38.25 35.1094H38.7812V40.425H38.25V35.1094ZM39.2461 35.1094H39.7773V40.425H39.2461V35.1094Z"/>
</mask>
<path d="M33.8008 34.5844V33.5844H32.8008V34.5844H33.8008ZM40.3086 34.5844H41.3086V33.5844H40.3086V34.5844ZM40.3086 41.0156V42.0156H41.3086V41.0156H40.3086ZM33.8008 41.0156H32.8008V42.0156H33.8008V41.0156ZM34.332 35.1094V34.1094H33.332V35.1094H34.332ZM34.8633 35.1094H35.8633V34.1094H34.8633V35.1094ZM34.8633 40.425V41.425H35.8633V40.425H34.8633ZM34.332 40.425H33.332V41.425H34.332V40.425ZM35.3281 35.1094V34.1094H34.3281V35.1094H35.3281ZM35.8594 35.1094H36.8594V34.1094H35.8594V35.1094ZM35.8594 40.425V41.425H36.8594V40.425H35.8594ZM35.3281 40.425H34.3281V41.425H35.3281V40.425ZM36.3242 35.1094V34.1094H35.3242V35.1094H36.3242ZM36.8555 35.1094H37.8555V34.1094H36.8555V35.1094ZM36.8555 40.425V41.425H37.8555V40.425H36.8555ZM36.3242 40.425H35.3242V41.425H36.3242V40.425ZM37.2539 35.1094V34.1094H36.2539V35.1094H37.2539ZM37.7852 35.1094H38.7852V34.1094H37.7852V35.1094ZM37.7852 40.425V41.425H38.7852V40.425H37.7852ZM37.2539 40.425H36.2539V41.425H37.2539V40.425ZM38.25 35.1094V34.1094H37.25V35.1094H38.25ZM38.7812 35.1094H39.7812V34.1094H38.7812V35.1094ZM38.7812 40.425V41.425H39.7812V40.425H38.7812ZM38.25 40.425H37.25V41.425H38.25V40.425ZM39.2461 35.1094V34.1094H38.2461V35.1094H39.2461ZM39.7773 35.1094H40.7773V34.1094H39.7773V35.1094ZM39.7773 40.425V41.425H40.7773V40.425H39.7773ZM39.2461 40.425H38.2461V41.425H39.2461V40.425ZM33.8008 34.5844V35.5844H40.3086V34.5844V33.5844H33.8008V34.5844ZM40.3086 34.5844H39.3086V41.0156H40.3086H41.3086V34.5844H40.3086ZM40.3086 41.0156V40.0156H33.8008V41.0156V42.0156H40.3086V41.0156ZM33.8008 41.0156H34.8008V34.5844H33.8008H32.8008V41.0156H33.8008ZM34.332 35.1094V36.1094H34.8633V35.1094V34.1094H34.332V35.1094ZM34.8633 35.1094H33.8633V40.425H34.8633H35.8633V35.1094H34.8633ZM34.8633 40.425V39.425H34.332V40.425V41.425H34.8633V40.425ZM34.332 40.425H35.332V35.1094H34.332H33.332V40.425H34.332ZM35.3281 35.1094V36.1094H35.8594V35.1094V34.1094H35.3281V35.1094ZM35.8594 35.1094H34.8594V40.425H35.8594H36.8594V35.1094H35.8594ZM35.8594 40.425V39.425H35.3281V40.425V41.425H35.8594V40.425ZM35.3281 40.425H36.3281V35.1094H35.3281H34.3281V40.425H35.3281ZM36.3242 35.1094V36.1094H36.8555V35.1094V34.1094H36.3242V35.1094ZM36.8555 35.1094H35.8555V40.425H36.8555H37.8555V35.1094H36.8555ZM36.8555 40.425V39.425H36.3242V40.425V41.425H36.8555V40.425ZM36.3242 40.425H37.3242V35.1094H36.3242H35.3242V40.425H36.3242ZM37.2539 35.1094V36.1094H37.7852V35.1094V34.1094H37.2539V35.1094ZM37.7852 35.1094H36.7852V40.425H37.7852H38.7852V35.1094H37.7852ZM37.7852 40.425V39.425H37.2539V40.425V41.425H37.7852V40.425ZM37.2539 40.425H38.2539V35.1094H37.2539H36.2539V40.425H37.2539ZM38.25 35.1094V36.1094H38.7812V35.1094V34.1094H38.25V35.1094ZM38.7812 35.1094H37.7812V40.425H38.7812H39.7812V35.1094H38.7812ZM38.7812 40.425V39.425H38.25V40.425V41.425H38.7812V40.425ZM38.25 40.425H39.25V35.1094H38.25H37.25V40.425H38.25ZM39.2461 35.1094V36.1094H39.7773V35.1094V34.1094H39.2461V35.1094ZM39.7773 35.1094H38.7773V40.425H39.7773H40.7773V35.1094H39.7773ZM39.7773 40.425V39.425H39.2461V40.425V41.425H39.7773V40.425ZM39.2461 40.425H40.2461V35.1094H39.2461H38.2461V40.425H39.2461Z" fill="white" mask="url(#path-8-inside-3_216_244)"/>
<mask id="path-10-inside-4_216_244" fill="white">
<path fill-rule="evenodd" clip-rule="evenodd" d="M33.8008 27.2344H40.3086V33.6656H33.8008V27.2344ZM34.332 27.7594H34.8633V33.075H34.332V27.7594ZM35.3281 27.7594H35.8594V33.075H35.3281V27.7594ZM36.3242 27.7594H36.8555V33.075H36.3242V27.7594ZM37.2539 27.7594H37.7852V33.075H37.2539V27.7594ZM38.25 27.7594H38.7812V33.075H38.25V27.7594ZM39.2461 27.7594H39.7773V33.075H39.2461V27.7594ZM41.3047 34.5844H47.8125V41.0156H41.3047V34.5844ZM41.8359 35.1094H42.3672V40.425H41.8359V35.1094ZM42.832 35.1094H43.3633V40.425H42.832V35.1094ZM43.7617 35.1094H44.293V40.425H43.7617V35.1094ZM44.7578 35.1094H45.2891V40.425H44.7578V35.1094ZM45.7539 35.1094H46.2852V40.425H45.7539V35.1094ZM46.75 35.1094H47.2812V40.425H46.75V35.1094Z"/>
</mask>
<path d="M33.8008 27.2344V26.2344H32.8008V27.2344H33.8008ZM40.3086 27.2344H41.3086V26.2344H40.3086V27.2344ZM40.3086 33.6656V34.6656H41.3086V33.6656H40.3086ZM33.8008 33.6656H32.8008V34.6656H33.8008V33.6656ZM34.332 27.7594V26.7594H33.332V27.7594H34.332ZM34.8633 27.7594H35.8633V26.7594H34.8633V27.7594ZM34.8633 33.075V34.075H35.8633V33.075H34.8633ZM34.332 33.075H33.332V34.075H34.332V33.075ZM35.3281 27.7594V26.7594H34.3281V27.7594H35.3281ZM35.8594 27.7594H36.8594V26.7594H35.8594V27.7594ZM35.8594 33.075V34.075H36.8594V33.075H35.8594ZM35.3281 33.075H34.3281V34.075H35.3281V33.075ZM36.3242 27.7594V26.7594H35.3242V27.7594H36.3242ZM36.8555 27.7594H37.8555V26.7594H36.8555V27.7594ZM36.8555 33.075V34.075H37.8555V33.075H36.8555ZM36.3242 33.075H35.3242V34.075H36.3242V33.075ZM37.2539 27.7594V26.7594H36.2539V27.7594H37.2539ZM37.7852 27.7594H38.7852V26.7594H37.7852V27.7594ZM37.7852 33.075V34.075H38.7852V33.075H37.7852ZM37.2539 33.075H36.2539V34.075H37.2539V33.075ZM38.25 27.7594V26.7594H37.25V27.7594H38.25ZM38.7812 27.7594H39.7812V26.7594H38.7812V27.7594ZM38.7812 33.075V34.075H39.7812V33.075H38.7812ZM38.25 33.075H37.25V34.075H38.25V33.075ZM39.2461 27.7594V26.7594H38.2461V27.7594H39.2461ZM39.7773 27.7594H40.7773V26.7594H39.7773V27.7594ZM39.7773 33.075V34.075H40.7773V33.075H39.7773ZM39.2461 33.075H38.2461V34.075H39.2461V33.075ZM41.3047 34.5844V33.5844H40.3047V34.5844H41.3047ZM47.8125 34.5844H48.8125V33.5844H47.8125V34.5844ZM47.8125 41.0156V42.0156H48.8125V41.0156H47.8125ZM41.3047 41.0156H40.3047V42.0156H41.3047V41.0156ZM41.8359 35.1094V34.1094H40.8359V35.1094H41.8359ZM42.3672 35.1094H43.3672V34.1094H42.3672V35.1094ZM42.3672 40.425V41.425H43.3672V40.425H42.3672ZM41.8359 40.425H40.8359V41.425H41.8359V40.425ZM42.832 35.1094V34.1094H41.832V35.1094H42.832ZM43.3633 35.1094H44.3633V34.1094H43.3633V35.1094ZM43.3633 40.425V41.425H44.3633V40.425H43.3633ZM42.832 40.425H41.832V41.425H42.832V40.425ZM43.7617 35.1094V34.1094H42.7617V35.1094H43.7617ZM44.293 35.1094H45.293V34.1094H44.293V35.1094ZM44.293 40.425V41.425H45.293V40.425H44.293ZM43.7617 40.425H42.7617V41.425H43.7617V40.425ZM44.7578 35.1094V34.1094H43.7578V35.1094H44.7578ZM45.2891 35.1094H46.2891V34.1094H45.2891V35.1094ZM45.2891 40.425V41.425H46.2891V40.425H45.2891ZM44.7578 40.425H43.7578V41.425H44.7578V40.425ZM45.7539 35.1094V34.1094H44.7539V35.1094H45.7539ZM46.2852 35.1094H47.2852V34.1094H46.2852V35.1094ZM46.2852 40.425V41.425H47.2852V40.425H46.2852ZM45.7539 40.425H44.7539V41.425H45.7539V40.425ZM46.75 35.1094V34.1094H45.75V35.1094H46.75ZM47.2812 35.1094H48.2812V34.1094H47.2812V35.1094ZM47.2812 40.425V41.425H48.2812V40.425H47.2812ZM46.75 40.425H45.75V41.425H46.75V40.425ZM33.8008 27.2344V28.2344H40.3086V27.2344V26.2344H33.8008V27.2344ZM40.3086 27.2344H39.3086V33.6656H40.3086H41.3086V27.2344H40.3086ZM40.3086 33.6656V32.6656H33.8008V33.6656V34.6656H40.3086V33.6656ZM33.8008 33.6656H34.8008V27.2344H33.8008H32.8008V33.6656H33.8008ZM34.332 27.7594V28.7594H34.8633V27.7594V26.7594H34.332V27.7594ZM34.8633 27.7594H33.8633V33.075H34.8633H35.8633V27.7594H34.8633ZM34.8633 33.075V32.075H34.332V33.075V34.075H34.8633V33.075ZM34.332 33.075H35.332V27.7594H34.332H33.332V33.075H34.332ZM35.3281 27.7594V28.7594H35.8594V27.7594V26.7594H35.3281V27.7594ZM35.8594 27.7594H34.8594V33.075H35.8594H36.8594V27.7594H35.8594ZM35.8594 33.075V32.075H35.3281V33.075V34.075H35.8594V33.075ZM35.3281 33.075H36.3281V27.7594H35.3281H34.3281V33.075H35.3281ZM36.3242 27.7594V28.7594H36.8555V27.7594V26.7594H36.3242V27.7594ZM36.8555 27.7594H35.8555V33.075H36.8555H37.8555V27.7594H36.8555ZM36.8555 33.075V32.075H36.3242V33.075V34.075H36.8555V33.075ZM36.3242 33.075H37.3242V27.7594H36.3242H35.3242V33.075H36.3242ZM37.2539 27.7594V28.7594H37.7852V27.7594V26.7594H37.2539V27.7594ZM37.7852 27.7594H36.7852V33.075H37.7852H38.7852V27.7594H37.7852ZM37.7852 33.075V32.075H37.2539V33.075V34.075H37.7852V33.075ZM37.2539 33.075H38.2539V27.7594H37.2539H36.2539V33.075H37.2539ZM38.25 27.7594V28.7594H38.7812V27.7594V26.7594H38.25V27.7594ZM38.7812 27.7594H37.7812V33.075H38.7812H39.7812V27.7594H38.7812ZM38.7812 33.075V32.075H38.25V33.075V34.075H38.7812V33.075ZM38.25 33.075H39.25V27.7594H38.25H37.25V33.075H38.25ZM39.2461 27.7594V28.7594H39.7773V27.7594V26.7594H39.2461V27.7594ZM39.7773 27.7594H38.7773V33.075H39.7773H40.7773V27.7594H39.7773ZM39.7773 33.075V32.075H39.2461V33.075V34.075H39.7773V33.075ZM39.2461 33.075H40.2461V27.7594H39.2461H38.2461V33.075H39.2461ZM41.3047 34.5844V35.5844H47.8125V34.5844V33.5844H41.3047V34.5844ZM47.8125 34.5844H46.8125V41.0156H47.8125H48.8125V34.5844H47.8125ZM47.8125 41.0156V40.0156H41.3047V41.0156V42.0156H47.8125V41.0156ZM41.3047 41.0156H42.3047V34.5844H41.3047H40.3047V41.0156H41.3047ZM41.8359 35.1094V36.1094H42.3672V35.1094V34.1094H41.8359V35.1094ZM42.3672 35.1094H41.3672V40.425H42.3672H43.3672V35.1094H42.3672ZM42.3672 40.425V39.425H41.8359V40.425V41.425H42.3672V40.425ZM41.8359 40.425H42.8359V35.1094H41.8359H40.8359V40.425H41.8359ZM42.832 35.1094V36.1094H43.3633V35.1094V34.1094H42.832V35.1094ZM43.3633 35.1094H42.3633V40.425H43.3633H44.3633V35.1094H43.3633ZM43.3633 40.425V39.425H42.832V40.425V41.425H43.3633V40.425ZM42.832 40.425H43.832V35.1094H42.832H41.832V40.425H42.832ZM43.7617 35.1094V36.1094H44.293V35.1094V34.1094H43.7617V35.1094ZM44.293 35.1094H43.293V40.425H44.293H45.293V35.1094H44.293ZM44.293 40.425V39.425H43.7617V40.425V41.425H44.293V40.425ZM43.7617 40.425H44.7617V35.1094H43.7617H42.7617V40.425H43.7617ZM44.7578 35.1094V36.1094H45.2891V35.1094V34.1094H44.7578V35.1094ZM45.2891 35.1094H44.2891V40.425H45.2891H46.2891V35.1094H45.2891ZM45.2891 40.425V39.425H44.7578V40.425V41.425H45.2891V40.425ZM44.7578 40.425H45.7578V35.1094H44.7578H43.7578V40.425H44.7578ZM45.7539 35.1094V36.1094H46.2852V35.1094V34.1094H45.7539V35.1094ZM46.2852 35.1094H45.2852V40.425H46.2852H47.2852V35.1094H46.2852ZM46.2852 40.425V39.425H45.7539V40.425V41.425H46.2852V40.425ZM45.7539 40.425H46.7539V35.1094H45.7539H44.7539V40.425H45.7539ZM46.75 35.1094V36.1094H47.2812V35.1094V34.1094H46.75V35.1094ZM47.2812 35.1094H46.2812V40.425H47.2812H48.2812V35.1094H47.2812ZM47.2812 40.425V39.425H46.75V40.425V41.425H47.2812V40.425ZM46.75 40.425H47.75V35.1094H46.75H45.75V40.425H46.75Z" fill="white" mask="url(#path-10-inside-4_216_244)"/>
<mask id="path-12-inside-5_216_244" fill="white">
<path fill-rule="evenodd" clip-rule="evenodd" d="M41.3047 27.2344H47.8125V33.6656H41.3047V27.2344ZM41.8359 27.7594H42.3672V33.075H41.8359V27.7594ZM42.832 27.7594H43.3633V33.075H42.832V27.7594ZM43.7617 27.7594H44.293V33.075H43.7617V27.7594ZM44.7578 27.7594H45.2891V33.075H44.7578V27.7594ZM45.7539 27.7594H46.2852V33.075H45.7539V27.7594ZM46.75 27.7594H47.2812V33.075H46.75V27.7594Z"/>
</mask>
<path d="M41.3047 27.2344V26.2344H40.3047V27.2344H41.3047ZM47.8125 27.2344H48.8125V26.2344H47.8125V27.2344ZM47.8125 33.6656V34.6656H48.8125V33.6656H47.8125ZM41.3047 33.6656H40.3047V34.6656H41.3047V33.6656ZM41.8359 27.7594V26.7594H40.8359V27.7594H41.8359ZM42.3672 27.7594H43.3672V26.7594H42.3672V27.7594ZM42.3672 33.075V34.075H43.3672V33.075H42.3672ZM41.8359 33.075H40.8359V34.075H41.8359V33.075ZM42.832 27.7594V26.7594H41.832V27.7594H42.832ZM43.3633 27.7594H44.3633V26.7594H43.3633V27.7594ZM43.3633 33.075V34.075H44.3633V33.075H43.3633ZM42.832 33.075H41.832V34.075H42.832V33.075ZM43.7617 27.7594V26.7594H42.7617V27.7594H43.7617ZM44.293 27.7594H45.293V26.7594H44.293V27.7594ZM44.293 33.075V34.075H45.293V33.075H44.293ZM43.7617 33.075H42.7617V34.075H43.7617V33.075ZM44.7578 27.7594V26.7594H43.7578V27.7594H44.7578ZM45.2891 27.7594H46.2891V26.7594H45.2891V27.7594ZM45.2891 33.075V34.075H46.2891V33.075H45.2891ZM44.7578 33.075H43.7578V34.075H44.7578V33.075ZM45.7539 27.7594V26.7594H44.7539V27.7594H45.7539ZM46.2852 27.7594H47.2852V26.7594H46.2852V27.7594ZM46.2852 33.075V34.075H47.2852V33.075H46.2852ZM45.7539 33.075H44.7539V34.075H45.7539V33.075ZM46.75 27.7594V26.7594H45.75V27.7594H46.75ZM47.2812 27.7594H48.2812V26.7594H47.2812V27.7594ZM47.2812 33.075V34.075H48.2812V33.075H47.2812ZM46.75 33.075H45.75V34.075H46.75V33.075ZM41.3047 27.2344V28.2344H47.8125V27.2344V26.2344H41.3047V27.2344ZM47.8125 27.2344H46.8125V33.6656H47.8125H48.8125V27.2344H47.8125ZM47.8125 33.6656V32.6656H41.3047V33.6656V34.6656H47.8125V33.6656ZM41.3047 33.6656H42.3047V27.2344H41.3047H40.3047V33.6656H41.3047ZM41.8359 27.7594V28.7594H42.3672V27.7594V26.7594H41.8359V27.7594ZM42.3672 27.7594H41.3672V33.075H42.3672H43.3672V27.7594H42.3672ZM42.3672 33.075V32.075H41.8359V33.075V34.075H42.3672V33.075ZM41.8359 33.075H42.8359V27.7594H41.8359H40.8359V33.075H41.8359ZM42.832 27.7594V28.7594H43.3633V27.7594V26.7594H42.832V27.7594ZM43.3633 27.7594H42.3633V33.075H43.3633H44.3633V27.7594H43.3633ZM43.3633 33.075V32.075H42.832V33.075V34.075H43.3633V33.075ZM42.832 33.075H43.832V27.7594H42.832H41.832V33.075H42.832ZM43.7617 27.7594V28.7594H44.293V27.7594V26.7594H43.7617V27.7594ZM44.293 27.7594H43.293V33.075H44.293H45.293V27.7594H44.293ZM44.293 33.075V32.075H43.7617V33.075V34.075H44.293V33.075ZM43.7617 33.075H44.7617V27.7594H43.7617H42.7617V33.075H43.7617ZM44.7578 27.7594V28.7594H45.2891V27.7594V26.7594H44.7578V27.7594ZM45.2891 27.7594H44.2891V33.075H45.2891H46.2891V27.7594H45.2891ZM45.2891 33.075V32.075H44.7578V33.075V34.075H45.2891V33.075ZM44.7578 33.075H45.7578V27.7594H44.7578H43.7578V33.075H44.7578ZM45.7539 27.7594V28.7594H46.2852V27.7594V26.7594H45.7539V27.7594ZM46.2852 27.7594H45.2852V33.075H46.2852H47.2852V27.7594H46.2852ZM46.2852 33.075V32.075H45.7539V33.075V34.075H46.2852V33.075ZM45.7539 33.075H46.7539V27.7594H45.7539H44.7539V33.075H45.7539ZM46.75 27.7594V28.7594H47.2812V27.7594V26.7594H46.75V27.7594ZM47.2812 27.7594H46.2812V33.075H47.2812H48.2812V27.7594H47.2812ZM47.2812 33.075V32.075H46.75V33.075V34.075H47.2812V33.075ZM46.75 33.075H47.75V27.7594H46.75H45.75V33.075H46.75Z" fill="white" mask="url(#path-12-inside-5_216_244)"/>
<mask id="path-14-inside-6_216_244" fill="white">
<path fill-rule="evenodd" clip-rule="evenodd" d="M41.3047 19.8187H47.8125V26.25H41.3047V19.8187ZM41.8359 20.3437H42.3672V25.6593H41.8359V20.3437ZM42.832 20.3437H43.3633V25.6593H42.832V20.3437ZM43.7617 20.3437H44.293V25.6593H43.7617V20.3437ZM44.7578 20.3437H45.2891V25.6593H44.7578V20.3437ZM45.7539 20.3437H46.2852V25.6593H45.7539V20.3437ZM46.75 20.3437H47.2812V25.6593H46.75V20.3437Z"/>
</mask>
<path d="M41.3047 19.8187V18.8187H40.3047V19.8187H41.3047ZM47.8125 19.8187H48.8125V18.8187H47.8125V19.8187ZM47.8125 26.25V27.25H48.8125V26.25H47.8125ZM41.3047 26.25H40.3047V27.25H41.3047V26.25ZM41.8359 20.3437V19.3437H40.8359V20.3437H41.8359ZM42.3672 20.3437H43.3672V19.3437H42.3672V20.3437ZM42.3672 25.6593V26.6593H43.3672V25.6593H42.3672ZM41.8359 25.6593H40.8359V26.6593H41.8359V25.6593ZM42.832 20.3437V19.3437H41.832V20.3437H42.832ZM43.3633 20.3437H44.3633V19.3437H43.3633V20.3437ZM43.3633 25.6593V26.6593H44.3633V25.6593H43.3633ZM42.832 25.6593H41.832V26.6593H42.832V25.6593ZM43.7617 20.3437V19.3437H42.7617V20.3437H43.7617ZM44.293 20.3437H45.293V19.3437H44.293V20.3437ZM44.293 25.6593V26.6593H45.293V25.6593H44.293ZM43.7617 25.6593H42.7617V26.6593H43.7617V25.6593ZM44.7578 20.3437V19.3437H43.7578V20.3437H44.7578ZM45.2891 20.3437H46.2891V19.3437H45.2891V20.3437ZM45.2891 25.6593V26.6593H46.2891V25.6593H45.2891ZM44.7578 25.6593H43.7578V26.6593H44.7578V25.6593ZM45.7539 20.3437V19.3437H44.7539V20.3437H45.7539ZM46.2852 20.3437H47.2852V19.3437H46.2852V20.3437ZM46.2852 25.6593V26.6593H47.2852V25.6593H46.2852ZM45.7539 25.6593H44.7539V26.6593H45.7539V25.6593ZM46.75 20.3437V19.3437H45.75V20.3437H46.75ZM47.2812 20.3437H48.2812V19.3437H47.2812V20.3437ZM47.2812 25.6593V26.6593H48.2812V25.6593H47.2812ZM46.75 25.6593H45.75V26.6593H46.75V25.6593ZM41.3047 19.8187V20.8187H47.8125V19.8187V18.8187H41.3047V19.8187ZM47.8125 19.8187H46.8125V26.25H47.8125H48.8125V19.8187H47.8125ZM47.8125 26.25V25.25H41.3047V26.25V27.25H47.8125V26.25ZM41.3047 26.25H42.3047V19.8187H41.3047H40.3047V26.25H41.3047ZM41.8359 20.3437V21.3437H42.3672V20.3437V19.3437H41.8359V20.3437ZM42.3672 20.3437H41.3672V25.6593H42.3672H43.3672V20.3437H42.3672ZM42.3672 25.6593V24.6593H41.8359V25.6593V26.6593H42.3672V25.6593ZM41.8359 25.6593H42.8359V20.3437H41.8359H40.8359V25.6593H41.8359ZM42.832 20.3437V21.3437H43.3633V20.3437V19.3437H42.832V20.3437ZM43.3633 20.3437H42.3633V25.6593H43.3633H44.3633V20.3437H43.3633ZM43.3633 25.6593V24.6593H42.832V25.6593V26.6593H43.3633V25.6593ZM42.832 25.6593H43.832V20.3437H42.832H41.832V25.6593H42.832ZM43.7617 20.3437V21.3437H44.293V20.3437V19.3437H43.7617V20.3437ZM44.293 20.3437H43.293V25.6593H44.293H45.293V20.3437H44.293ZM44.293 25.6593V24.6593H43.7617V25.6593V26.6593H44.293V25.6593ZM43.7617 25.6593H44.7617V20.3437H43.7617H42.7617V25.6593H43.7617ZM44.7578 20.3437V21.3437H45.2891V20.3437V19.3437H44.7578V20.3437ZM45.2891 20.3437H44.2891V25.6593H45.2891H46.2891V20.3437H45.2891ZM45.2891 25.6593V24.6593H44.7578V25.6593V26.6593H45.2891V25.6593ZM44.7578 25.6593H45.7578V20.3437H44.7578H43.7578V25.6593H44.7578ZM45.7539 20.3437V21.3437H46.2852V20.3437V19.3437H45.7539V20.3437ZM46.2852 20.3437H45.2852V25.6593H46.2852H47.2852V20.3437H46.2852ZM46.2852 25.6593V24.6593H45.7539V25.6593V26.6593H46.2852V25.6593ZM45.7539 25.6593H46.7539V20.3437H45.7539H44.7539V25.6593H45.7539ZM46.75 20.3437V21.3437H47.2812V20.3437V19.3437H46.75V20.3437ZM47.2812 20.3437H46.2812V25.6593H47.2812H48.2812V20.3437H47.2812ZM47.2812 25.6593V24.6593H46.75V25.6593V26.6593H47.2812V25.6593ZM46.75 25.6593H47.75V20.3437H46.75H45.75V25.6593H46.75Z" fill="white" mask="url(#path-14-inside-6_216_244)"/>
<mask id="path-16-inside-7_216_244" fill="white">
<path fill-rule="evenodd" clip-rule="evenodd" d="M48.8086 34.5844H55.3164V41.0156H48.8086V34.5844ZM49.3398 35.1094H49.8711V40.425H49.3398V35.1094ZM50.2695 35.1094H50.8008V40.425H50.2695V35.1094ZM51.2656 35.1094H51.7969V40.425H51.2656V35.1094ZM52.2617 35.1094H52.793V40.425H52.2617V35.1094ZM53.2578 35.1094H53.7891V40.425H53.2578V35.1094ZM54.2539 35.1094H54.7852V40.425H54.2539V35.1094Z"/>
</mask>
<path d="M48.8086 34.5844V33.5844H47.8086V34.5844H48.8086ZM55.3164 34.5844H56.3164V33.5844H55.3164V34.5844ZM55.3164 41.0156V42.0156H56.3164V41.0156H55.3164ZM48.8086 41.0156H47.8086V42.0156H48.8086V41.0156ZM49.3398 35.1094V34.1094H48.3398V35.1094H49.3398ZM49.8711 35.1094H50.8711V34.1094H49.8711V35.1094ZM49.8711 40.425V41.425H50.8711V40.425H49.8711ZM49.3398 40.425H48.3398V41.425H49.3398V40.425ZM50.2695 35.1094V34.1094H49.2695V35.1094H50.2695ZM50.8008 35.1094H51.8008V34.1094H50.8008V35.1094ZM50.8008 40.425V41.425H51.8008V40.425H50.8008ZM50.2695 40.425H49.2695V41.425H50.2695V40.425ZM51.2656 35.1094V34.1094H50.2656V35.1094H51.2656ZM51.7969 35.1094H52.7969V34.1094H51.7969V35.1094ZM51.7969 40.425V41.425H52.7969V40.425H51.7969ZM51.2656 40.425H50.2656V41.425H51.2656V40.425ZM52.2617 35.1094V34.1094H51.2617V35.1094H52.2617ZM52.793 35.1094H53.793V34.1094H52.793V35.1094ZM52.793 40.425V41.425H53.793V40.425H52.793ZM52.2617 40.425H51.2617V41.425H52.2617V40.425ZM53.2578 35.1094V34.1094H52.2578V35.1094H53.2578ZM53.7891 35.1094H54.7891V34.1094H53.7891V35.1094ZM53.7891 40.425V41.425H54.7891V40.425H53.7891ZM53.2578 40.425H52.2578V41.425H53.2578V40.425ZM54.2539 35.1094V34.1094H53.2539V35.1094H54.2539ZM54.7852 35.1094H55.7852V34.1094H54.7852V35.1094ZM54.7852 40.425V41.425H55.7852V40.425H54.7852ZM54.2539 40.425H53.2539V41.425H54.2539V40.425ZM48.8086 34.5844V35.5844H55.3164V34.5844V33.5844H48.8086V34.5844ZM55.3164 34.5844H54.3164V41.0156H55.3164H56.3164V34.5844H55.3164ZM55.3164 41.0156V40.0156H48.8086V41.0156V42.0156H55.3164V41.0156ZM48.8086 41.0156H49.8086V34.5844H48.8086H47.8086V41.0156H48.8086ZM49.3398 35.1094V36.1094H49.8711V35.1094V34.1094H49.3398V35.1094ZM49.8711 35.1094H48.8711V40.425H49.8711H50.8711V35.1094H49.8711ZM49.8711 40.425V39.425H49.3398V40.425V41.425H49.8711V40.425ZM49.3398 40.425H50.3398V35.1094H49.3398H48.3398V40.425H49.3398ZM50.2695 35.1094V36.1094H50.8008V35.1094V34.1094H50.2695V35.1094ZM50.8008 35.1094H49.8008V40.425H50.8008H51.8008V35.1094H50.8008ZM50.8008 40.425V39.425H50.2695V40.425V41.425H50.8008V40.425ZM50.2695 40.425H51.2695V35.1094H50.2695H49.2695V40.425H50.2695ZM51.2656 35.1094V36.1094H51.7969V35.1094V34.1094H51.2656V35.1094ZM51.7969 35.1094H50.7969V40.425H51.7969H52.7969V35.1094H51.7969ZM51.7969 40.425V39.425H51.2656V40.425V41.425H51.7969V40.425ZM51.2656 40.425H52.2656V35.1094H51.2656H50.2656V40.425H51.2656ZM52.2617 35.1094V36.1094H52.793V35.1094V34.1094H52.2617V35.1094ZM52.793 35.1094H51.793V40.425H52.793H53.793V35.1094H52.793ZM52.793 40.425V39.425H52.2617V40.425V41.425H52.793V40.425ZM52.2617 40.425H53.2617V35.1094H52.2617H51.2617V40.425H52.2617ZM53.2578 35.1094V36.1094H53.7891V35.1094V34.1094H53.2578V35.1094ZM53.7891 35.1094H52.7891V40.425H53.7891H54.7891V35.1094H53.7891ZM53.7891 40.425V39.425H53.2578V40.425V41.425H53.7891V40.425ZM53.2578 40.425H54.2578V35.1094H53.2578H52.2578V40.425H53.2578ZM54.2539 35.1094V36.1094H54.7852V35.1094V34.1094H54.2539V35.1094ZM54.7852 35.1094H53.7852V40.425H54.7852H55.7852V35.1094H54.7852ZM54.7852 40.425V39.425H54.2539V40.425V41.425H54.7852V40.425ZM54.2539 40.425H55.2539V35.1094H54.2539H53.2539V40.425H54.2539Z" fill="white" mask="url(#path-16-inside-7_216_244)"/>
<path d="M32.4062 51.8844C33.1317 51.8844 33.699 52.4534 33.6992 53.1559C33.6992 53.8586 33.1318 54.4283 32.4062 54.4283C31.6807 54.4283 31.1133 53.8586 31.1133 53.1559C31.1135 52.4534 31.6808 51.8844 32.4062 51.8844Z" stroke="white"/>
<path d="M28.6787 56.762C29.9301 59.3577 31.901 61.7515 35.1719 63.6809H35.1328C26.7687 63.6214 21.9309 61.055 18.1719 57.6409C18.9027 57.6572 19.6144 57.6594 20.3203 57.6594C21.2425 57.6594 22.1883 57.6586 23.0713 57.592L23.0723 57.593C25.1801 57.4705 27.0662 57.1748 28.6787 56.762Z" stroke="white"/>
</svg>
