<svg width="128" height="128" viewBox="0 0 128 128" fill="none" xmlns="http://www.w3.org/2000/svg">
<path d="M4.01196 51.0452C9.92562 29.9236 34.1291 21.2055 50.7209 34.2434V34.2424C60.3134 41.7905 62.8208 52.394 62.4163 64.5002H6.61841L6.60083 64.9807C6.17624 76.2072 10.0053 85.277 16.5911 90.6702C22.978 95.9004 31.8848 97.6131 41.8245 94.5637L42.7893 94.2542C50.1331 91.7891 54.4344 86.0337 56.5774 78.925L56.5784 78.926C57.0983 77.2204 57.7481 76.376 58.5413 76.0139C59.2792 75.6771 60.264 75.6996 61.6575 76.0754C59.9966 84.2715 56.4084 91.0921 49.1946 95.5178L48.4719 95.9456C36.8425 102.594 20.3098 100.564 11.3635 91.5793L10.9436 91.1467L10.9426 91.1458L10.4622 90.6262C5.74244 85.3967 3.59706 78.9936 2.59204 72.0227L2.49536 71.3245C2.3443 70.1185 2.03112 68.9042 1.80005 67.7678C1.81954 65.7743 1.82919 63.7808 1.82935 61.7874C2.5074 58.3769 2.96291 54.9987 3.8313 51.7063L4.01099 51.0461L4.01196 51.0452ZM119.13 30.2395C120.329 29.7608 121.726 29.6841 123.482 30.094C121.175 33.1544 118.903 36.1797 116.631 39.1848L114.212 42.3772C110.392 47.3978 106.644 52.4569 102.742 57.3967L101.061 59.5061C100.219 60.552 99.7988 61.4966 99.8518 62.4827C99.8975 63.3295 100.289 64.124 100.878 64.9543L101.142 65.3127C109.349 76.1021 117.459 86.9961 125.808 98.1243C123.934 98.5107 122.427 98.4526 121.132 97.9583C119.763 97.4356 118.567 96.4025 117.407 94.7512L117.176 94.4124C112.199 86.9558 106.766 79.7915 101.439 72.5862L99.1633 69.4944C98.3797 68.4195 97.5644 67.3628 96.5579 66.0374L96.1555 65.5071L95.7581 66.0422C89.0543 75.0867 82.3403 83.7527 75.9944 92.6917L74.7307 94.4827C73.5539 96.1597 72.3889 97.3019 71.0208 97.8977C69.819 98.421 68.4049 98.5448 66.593 98.1604L93.0608 62.6389L93.2874 62.3352L93.0569 62.0354L68.4963 30.0569C70.2634 29.7723 71.7423 29.7595 73.0471 30.1516C74.4337 30.5684 75.6796 31.4611 76.8782 33.1038L77.1174 33.4426C82.955 41.9737 89.4008 50.1049 95.7991 58.6692L96.1985 59.2024L96.5989 58.6711C102.639 50.6642 108.607 43.0156 114.278 35.1301L115.407 33.55L115.408 33.5481C116.586 31.8776 117.767 30.7841 119.13 30.2395ZM33.634 32.1799C26.003 32.1189 19.4239 34.9251 14.6731 39.8674C9.92526 44.8068 7.02952 51.8519 6.70044 60.2307L6.67993 60.7502H58.1409L58.1301 60.2395C57.8012 44.235 47.956 32.6494 34.2874 32.1936L33.634 32.1799Z" stroke="white"/>
</svg>
