<svg width="128" height="128" viewBox="0 0 128 128" fill="none" xmlns="http://www.w3.org/2000/svg">
<g clip-path="url(#clip0_279_7)">
<path d="M45.5 86.5H66.5V107.5C66.5 119.124 57.1239 128.5 45.5 128.5C33.8761 128.5 24.5 119.124 24.5 107.5C24.5 95.8761 33.8761 86.5 45.5 86.5Z" stroke="white"/>
<path d="M45.5 43.5H66.5V85.5H45.5C33.8761 85.5 24.5 76.1239 24.5 64.5C24.5 52.8761 33.8761 43.5 45.5 43.5Z" stroke="white"/>
<path d="M45.5 0.5H66.5V42.5H45.5C33.8761 42.5 24.5 33.1239 24.5 21.5C24.5 9.87614 33.8761 0.5 45.5 0.5Z" stroke="white"/>
<path d="M88.5 0.5C100.124 0.5 109.5 9.87614 109.5 21.5C109.5 33.1239 100.124 42.5 88.5 42.5H67.5V0.5H88.5Z" stroke="white"/>
<path d="M88.5 43.5C100.124 43.5 109.5 52.8761 109.5 64.5C109.5 76.1239 100.124 85.5 88.5 85.5C76.8761 85.5 67.5 76.1239 67.5 64.5C67.5 52.8761 76.8761 43.5 88.5 43.5Z" stroke="white"/>
</g>
<defs>
<clipPath id="clip0_279_7">
<rect width="128" height="128" fill="white"/>
</clipPath>
</defs>
</svg>
