<svg width="68" height="68" viewBox="0 0 68 68" fill="none" xmlns="http://www.w3.org/2000/svg">
<path d="M47.5979 17.7568C48.0296 17.3256 48.7655 17.5315 48.9387 18.084L48.9651 18.1992L48.9661 18.2002L54.3225 51.3438L35.5813 61.7715C35.071 62.0523 34.4978 62.1992 33.9153 62.1992C33.3329 62.1992 32.7596 62.0522 32.2493 61.7715H32.2483L13.9465 51.4971L47.5979 17.7568ZM33.302 14.3076C33.5855 13.7591 34.3266 13.725 34.6672 14.2051L34.7297 14.3076L34.7317 14.3105L38.9319 22.2988L15.8655 45.3936L33.2942 14.3223L33.2981 14.3154L33.302 14.3076ZM20.6975 6.49609C20.8144 5.76004 21.7288 5.58196 22.1311 6.11035L22.2043 6.22559L22.2063 6.22852L28.175 17.3975L15.4524 40.1055L20.6975 6.49609Z" stroke="white"/>
</svg>
