<svg width="56" height="56" viewBox="0 0 56 56" fill="none" xmlns="http://www.w3.org/2000/svg">
<path d="M22.1289 8.33691C25.4021 7.36726 28.8676 7.2401 32.2031 7.9668C35.5254 8.69066 38.6117 10.2387 41.1787 12.4678L41.9951 13.4863L35.9951 18.2559L35.3799 18.0518C30.64 14.2996 23.8058 14.769 19.5527 18.9805L19.1475 19.4023H19.1465C19.0248 19.5356 18.8556 19.7094 18.7129 19.8525C18.6614 19.9042 18.6135 19.9504 18.5742 19.9893L9.6875 21.4473C9.46783 21.417 9.24661 21.4545 9.08203 21.4922C8.97168 21.5175 8.85914 21.55 8.75293 21.583C9.63197 18.7748 11.1157 16.1929 13.1016 14.0205L13.5391 13.5566C15.9145 11.1179 18.8701 9.32183 22.1289 8.33691Z" stroke="white"/>
<path d="M41.5483 12.8074C44.1239 15.1871 46.0263 18.2017 47.062 21.5496H46.0796L47.4478 22.4656C49.8334 24.062 51.6755 26.3413 52.7368 28.9988L52.939 29.5349C53.9587 32.4214 54.0177 35.5602 53.1079 38.4832C52.2433 41.2284 50.5733 43.6452 48.3208 45.4226L47.8628 45.7693C45.5336 47.4603 42.7524 48.407 39.8843 48.4939L39.3101 48.4998H27.9438L27.2681 48.3894V40.488L27.9312 40.4177L39.3042 40.4275H39.3052C42.7282 40.4274 45.5102 37.6661 45.5103 34.2615C45.5103 31.0176 42.995 28.3652 39.8052 28.1121V27.4705C39.8378 25.6798 39.4621 23.9048 38.7065 22.281C38.029 20.8249 37.0611 19.5254 35.8657 18.4587L41.5483 12.8074Z" stroke="white"/>
<path d="M14.1038 39.8853C14.8376 40.1962 15.6472 40.4174 16.4846 40.4175H27.3948V48.4966H16.6956L16.6926 48.4937L16.4875 48.4927L15.9026 48.478C13.0929 48.35 10.3814 47.3989 8.10278 45.7437L8.38501 44.6392L12.7932 40.2856L14.1038 39.8853Z" stroke="white"/>
<path d="M16.491 20.002C18.5583 19.9921 20.5986 20.4296 22.4783 21.2822L22.8523 21.458C24.7017 22.3619 26.3332 23.6531 27.6375 25.2412L21.8181 31.0234C21.2527 30.0849 20.4472 29.3085 19.4783 28.7793C18.3756 28.1771 17.1178 27.9241 15.8718 28.0518L15.6267 28.082C14.3826 28.2517 13.2216 28.7972 12.2986 29.6426L12.1169 29.8154C11.2262 30.7005 10.6294 31.8356 10.4021 33.0664L10.3611 33.3135C10.1835 34.5564 10.3908 35.8221 10.9509 36.9414L11.0671 37.1641C11.5991 38.1269 12.3774 38.9255 13.3162 39.4824L7.50073 45.2793C5.45605 43.6167 3.91258 41.4203 3.04468 38.9336L2.87183 38.4043C2.00287 35.5615 2.04661 32.5178 2.99683 29.7012C3.8977 27.0582 5.55011 24.7402 7.74585 23.0283L8.19312 22.6943C10.4606 21.0645 13.1515 20.1355 15.9333 20.0156L16.491 20.002Z" stroke="white"/>
</svg>
