<svg width="68" height="68" viewBox="0 0 68 68" fill="none" xmlns="http://www.w3.org/2000/svg">
<g clip-path="url(#clip0_218_2744)">
<path d="M31.2317 2.0874C32.6778 0.642752 34.9929 0.597843 36.4905 1.95166L36.6321 2.0874H36.6331L65.9133 31.3667C66.6294 32.0832 67.0314 33.0549 67.0315 34.0679L67.0266 34.2573C66.983 35.1386 66.6361 35.978 66.0442 36.6323L65.9133 36.77L36.7698 65.9126C35.3227 67.3571 33.0094 67.4021 31.511 66.0483L31.3684 65.9126L2.08716 36.6333C1.37114 35.9169 0.968994 34.945 0.968994 33.9321C0.969064 32.9824 1.32293 32.0694 1.95728 31.3687L2.08716 31.231L21.8098 11.5083L28.8323 18.5308C28.1433 20.5091 28.5846 22.7928 30.1672 24.3755V24.3765C30.6142 24.8256 31.134 25.1939 31.7034 25.4683V43.2349C31.2186 43.4689 30.7694 43.7706 30.3704 44.1323L30.1672 44.3257C28.034 46.4594 27.9685 49.8742 29.968 52.0903L30.1672 52.3013H30.1682C32.3003 54.4344 35.7168 54.5008 37.9309 52.5015L38.1418 52.3022V52.3013C40.2747 50.1644 40.3424 46.749 38.342 44.5356L38.1418 44.3257L38.1409 44.3247L37.9749 44.1655C37.6565 43.8735 37.3051 43.6199 36.929 43.4077V26.6704L42.7805 32.522C42.48 33.3986 42.3998 34.3364 42.5481 35.2524L42.5852 35.4575C42.7899 36.4807 43.2737 37.4262 43.9817 38.189L44.1262 38.3384C44.6499 38.8623 45.272 39.2785 45.9563 39.562C46.6405 39.8455 47.3739 39.9917 48.1145 39.9917C48.7626 39.9917 49.405 39.8795 50.0139 39.6616L50.2727 39.562C50.9569 39.2785 51.5782 38.8622 52.1018 38.3384L52.1028 38.3394C54.2373 36.2054 54.3043 32.788 52.303 30.5747L52.1028 30.3647C50.6061 28.865 48.4779 28.3962 46.5803 28.9331L39.5725 21.9243C40.0915 20.0886 39.6682 18.041 38.2864 16.5532L38.1418 16.4028C36.6528 14.9138 34.5445 14.4397 32.6536 14.9624L25.5051 7.81396L31.2317 2.0874Z" stroke="white"/>
</g>
<defs>
<clipPath id="clip0_218_2744">
<rect width="68" height="68" fill="white"/>
</clipPath>
</defs>
</svg>
