<svg width="68" height="68" viewBox="0 0 68 68" fill="none" xmlns="http://www.w3.org/2000/svg">
<path d="M62.2268 1.38245L57.0608 60.0992L33.9651 66.5973L10.9329 60.108L5.77368 1.38245H62.2268Z" stroke="white"/>
<path d="M24.9746 39.3348L25.4473 44.7089L25.4775 45.0555L25.8135 45.1473L33.5 47.2538V53.8202L19.6777 49.9257L18.7461 39.3348H24.9746ZM33.5 13.5682V19.8798H23.2627L23.3105 20.4227L23.9688 27.911L24.0088 28.3671H33.5V34.6786H18.3369L16.6064 14.9862L16.4814 13.5682H33.5Z" stroke="white"/>
<path d="M50.1731 28.3671L50.0471 29.786L48.3538 49.035L48.2747 49.9257L34.4749 53.8075V47.2421L42.1418 45.1425L42.4768 45.0507L42.5081 44.705L43.344 35.2225L43.3918 34.6786H34.4749V28.3671H50.1731ZM51.4758 13.5682L51.3508 14.9852L51.0227 18.6923V18.6932L50.9182 19.8798H34.4749V13.5682H51.4758Z" stroke="white"/>
</svg>
