<svg width="85" height="84" viewBox="0 0 85 84" fill="none" xmlns="http://www.w3.org/2000/svg">
<g clip-path="url(#clip0_216_258)">
<path d="M42.4995 9.94092H42.5005C50.6186 9.93978 57.9975 13.1651 63.437 18.4097L63.9575 18.9233C69.4454 24.4691 72.839 32.1331 72.8384 40.5894L72.8286 41.3804C72.6309 49.2593 69.4871 56.407 64.4663 61.729L63.9575 62.2554C58.4729 67.8017 50.8801 71.2388 42.5005 71.2388C34.3827 71.2387 27.0032 68.0132 21.563 62.769L21.0435 62.2554H21.0425C15.5559 56.7095 12.1636 49.045 12.1636 40.5894C12.1637 32.3968 15.3476 24.9491 20.5347 19.4497L21.0425 18.9233C26.3575 13.5497 33.6483 10.157 41.7163 9.95068L42.4995 9.94092ZM42.4995 10.9702C34.7569 10.971 27.7225 14.0073 22.4819 18.9722V18.9468L21.7974 19.6392C16.4959 25.0007 13.2154 32.4021 13.2153 40.5894C13.2153 48.519 16.2938 55.7154 21.3062 61.0308L21.7974 61.5386C27.1016 66.8981 34.4145 70.2084 42.4995 70.2085C50.3319 70.2085 57.4398 67.1024 62.6987 62.0356L63.2026 61.5386C68.5041 56.1783 71.7856 48.7746 71.7856 40.5894C71.7856 32.6581 68.706 25.4637 63.6938 20.1479L63.2026 19.6392C58.064 14.4482 51.0401 11.1797 43.2554 10.98L42.5005 10.9702H42.4995Z" stroke="white" stroke-width="0.8"/>
<mask id="path-2-inside-1_216_258" fill="white">
<path d="M55.0494 40.6442L50.5065 41.3175L44.3739 41.9908L40.3988 42.103L36.5373 41.9915L33.5849 41.0931L30.9724 38.2876L28.9285 32.5638L28.4742 31.3294L25.7483 30.4316L24.1585 27.8499L23.0229 24.1461L24.2721 20.8911L27.2245 19.8817L29.6098 21.0039L30.7453 23.4727L32.1087 23.2483L32.5622 22.6872L32.1087 20.1062L31.9944 16.8512L32.6758 12.3624L32.6492 9.79781L34.7204 6.5264L38.3542 3.94472L44.7146 1.25146L51.7556 2.26143L57.8882 6.63862L60.7278 11.1274L62.5446 14.3824L62.9989 22.4628L61.6355 29.4217L59.1373 35.5937L56.7527 38.8487"/>
</mask>
<path d="M55.0494 40.6442L50.5065 41.3175L44.3739 41.9908L40.3988 42.103L36.5373 41.9915L33.5849 41.0931L30.9724 38.2876L28.9285 32.5638L28.4742 31.3294L25.7483 30.4316L24.1585 27.8499L23.0229 24.1461L24.2721 20.8911L27.2245 19.8817L29.6098 21.0039L30.7453 23.4727L32.1087 23.2483L32.5622 22.6872L32.1087 20.1062L31.9944 16.8512L32.6758 12.3624L32.6492 9.79781L34.7204 6.5264L38.3542 3.94472L44.7146 1.25146L51.7556 2.26143L57.8882 6.63862L60.7278 11.1274L62.5446 14.3824L62.9989 22.4628L61.6355 29.4217L59.1373 35.5937L56.7527 38.8487" fill="#1E1E1E"/>
<path d="M50.5065 41.3175L50.5938 42.1127L50.6088 42.1111L50.6238 42.1088L50.5065 41.3175ZM44.3739 41.9908L44.3965 42.7905L44.4289 42.7896L44.4612 42.786L44.3739 41.9908ZM40.3988 42.103L40.3757 42.9027L40.3985 42.9034L40.4214 42.9027L40.3988 42.103ZM36.5373 41.9915L36.3044 42.7568L36.407 42.788L36.5142 42.7911L36.5373 41.9915ZM33.5849 41.0931L32.9994 41.6382L33.1461 41.7958L33.352 41.8584L33.5849 41.0931ZM30.9724 38.2876L30.219 38.5566L30.2745 38.712L30.387 38.8328L30.9724 38.2876ZM28.9285 32.5638L29.6819 32.2947L29.6792 32.2875L28.9285 32.5638ZM28.4742 31.3294L29.225 31.0531L29.0916 30.6904L28.7245 30.5695L28.4742 31.3294ZM25.7483 30.4316L25.0671 30.8511L25.2203 31.1L25.498 31.1915L25.7483 30.4316ZM24.1585 27.8499L23.3936 28.0844L23.4236 28.1823L23.4773 28.2694L24.1585 27.8499ZM23.0229 24.1461L22.2761 23.8594L22.1773 24.1169L22.2581 24.3806L23.0229 24.1461ZM24.2721 20.8911L24.0133 20.1341L23.6592 20.2551L23.5252 20.6044L24.2721 20.8911ZM27.2245 19.8817L27.565 19.1579L27.2721 19.02L26.9657 19.1248L27.2245 19.8817ZM29.6098 21.0039L30.3366 20.6696L30.2146 20.4043L29.9503 20.28L29.6098 21.0039ZM30.7453 23.4727L30.0185 23.807L30.2734 24.3612L30.8753 24.2621L30.7453 23.4727ZM32.1087 23.2483L32.2386 24.0377L32.5393 23.9882L32.7308 23.7512L32.1087 23.2483ZM32.5622 22.6872L33.1844 23.1901L33.4131 22.9071L33.3501 22.5488L32.5622 22.6872ZM32.1087 20.1062L31.3091 20.1342L31.3111 20.1898L31.3207 20.2446L32.1087 20.1062ZM31.9944 16.8512L31.2035 16.7311L31.1923 16.8048L31.1949 16.8792L31.9944 16.8512ZM32.6758 12.3624L33.4667 12.4825L33.4764 12.4187L33.4757 12.3541L32.6758 12.3624ZM32.6492 9.79781L31.9733 9.36987L31.8468 9.56965L31.8492 9.80609L32.6492 9.79781ZM34.7204 6.5264L34.2571 5.87424L34.1287 5.96543L34.0445 6.09846L34.7204 6.5264ZM38.3542 3.94472L38.0422 3.20804L37.9619 3.24204L37.8908 3.29255L38.3542 3.94472ZM44.7146 1.25146L44.8281 0.45957L44.6077 0.427949L44.4026 0.514787L44.7146 1.25146ZM51.7556 2.26143L52.2204 1.61028L52.0619 1.49718L51.8692 1.46954L51.7556 2.26143ZM57.8882 6.63862L58.5643 6.21094L58.4805 6.07851L58.353 5.98747L57.8882 6.63862ZM60.7278 11.1274L61.4263 10.7375L61.4156 10.7183L61.4038 10.6997L60.7278 11.1274ZM62.5446 14.3824L63.3434 14.3375L63.333 14.1534L63.2432 13.9925L62.5446 14.3824ZM62.9989 22.4628L63.7839 22.6166L63.8032 22.5181L63.7976 22.4179L62.9989 22.4628ZM61.6355 29.4217L62.3771 29.7218L62.4059 29.6507L62.4206 29.5755L61.6355 29.4217ZM59.1373 35.5937L59.7827 36.0665L59.8415 35.9861L59.8789 35.8938L59.1373 35.5937ZM55.0494 40.6442L54.9321 39.8528L50.3892 40.5261L50.5065 41.3175L50.6238 42.1088L55.1666 41.4355L55.0494 40.6442ZM50.5065 41.3175L50.4192 40.5223L44.2866 41.1956L44.3739 41.9908L44.4612 42.786L50.5938 42.1127L50.5065 41.3175ZM44.3739 41.9908L44.3513 41.1911L40.3762 41.3033L40.3988 42.103L40.4214 42.9027L44.3965 42.7905L44.3739 41.9908ZM40.3988 42.103L40.4219 41.3034L36.5604 41.1918L36.5373 41.9915L36.5142 42.7911L40.3757 42.9027L40.3988 42.103ZM36.5373 41.9915L36.7702 41.2261L33.8178 40.3277L33.5849 41.0931L33.352 41.8584L36.3044 42.7568L36.5373 41.9915ZM33.5849 41.0931L34.1703 40.5479L31.5579 37.7424L30.9724 38.2876L30.387 38.8328L32.9994 41.6382L33.5849 41.0931ZM30.9724 38.2876L31.7258 38.0185L29.6819 32.2947L28.9285 32.5638L28.1751 32.8328L30.219 38.5566L30.9724 38.2876ZM28.9285 32.5638L29.6792 32.2875L29.225 31.0531L28.4742 31.3294L27.7235 31.6056L28.1777 32.84L28.9285 32.5638ZM28.4742 31.3294L28.7245 30.5695L25.9985 29.6718L25.7483 30.4316L25.498 31.1915L28.224 32.0892L28.4742 31.3294ZM25.7483 30.4316L26.4295 30.0121L24.8397 27.4305L24.1585 27.8499L23.4773 28.2694L25.0671 30.8511L25.7483 30.4316ZM24.1585 27.8499L24.9234 27.6154L23.7878 23.9116L23.0229 24.1461L22.2581 24.3806L23.3936 28.0844L24.1585 27.8499ZM23.0229 24.1461L23.7698 24.4327L25.0189 21.1777L24.2721 20.8911L23.5252 20.6044L22.2761 23.8594L23.0229 24.1461ZM24.2721 20.8911L24.5308 21.648L27.4833 20.6387L27.2245 19.8817L26.9657 19.1248L24.0133 20.1341L24.2721 20.8911ZM27.2245 19.8817L26.8839 20.6056L29.2692 21.7278L29.6098 21.0039L29.9503 20.28L27.565 19.1579L27.2245 19.8817ZM29.6098 21.0039L28.883 21.3382L30.0185 23.807L30.7453 23.4727L31.4721 23.1384L30.3366 20.6696L29.6098 21.0039ZM30.7453 23.4727L30.8753 24.2621L32.2386 24.0377L32.1087 23.2483L31.9787 22.4589L30.6154 22.6834L30.7453 23.4727ZM32.1087 23.2483L32.7308 23.7512L33.1844 23.1901L32.5622 22.6872L31.9401 22.1843L31.4865 22.7454L32.1087 23.2483ZM32.5622 22.6872L33.3501 22.5488L32.8966 19.9677L32.1087 20.1062L31.3207 20.2446L31.7743 22.8257L32.5622 22.6872ZM32.1087 20.1062L32.9082 20.0781L32.7939 16.8231L31.9944 16.8512L31.1949 16.8792L31.3091 20.1342L32.1087 20.1062ZM31.9944 16.8512L32.7854 16.9712L33.4667 12.4825L32.6758 12.3624L31.8848 12.2424L31.2035 16.7311L31.9944 16.8512ZM32.6758 12.3624L33.4757 12.3541L33.4492 9.78952L32.6492 9.79781L31.8492 9.80609L31.8758 12.3707L32.6758 12.3624ZM32.6492 9.79781L33.3251 10.2257L35.3963 6.95434L34.7204 6.5264L34.0445 6.09846L31.9733 9.36987L32.6492 9.79781ZM34.7204 6.5264L35.1838 7.17856L38.8175 4.59688L38.3542 3.94472L37.8908 3.29255L34.2571 5.87424L34.7204 6.5264ZM38.3542 3.94472L38.6661 4.68139L45.0265 1.98814L44.7146 1.25146L44.4026 0.514787L38.0422 3.20804L38.3542 3.94472ZM44.7146 1.25146L44.601 2.04336L51.642 3.05333L51.7556 2.26143L51.8692 1.46954L44.8281 0.45957L44.7146 1.25146ZM51.7556 2.26143L51.2908 2.91258L57.4235 7.28977L57.8882 6.63862L58.353 5.98747L52.2204 1.61028L51.7556 2.26143ZM57.8882 6.63862L57.2121 7.0663L60.0517 11.5551L60.7278 11.1274L61.4038 10.6997L58.5643 6.21094L57.8882 6.63862ZM60.7278 11.1274L60.0292 11.5173L61.8461 14.7723L62.5446 14.3824L63.2432 13.9925L61.4263 10.7375L60.7278 11.1274ZM62.5446 14.3824L61.7459 14.4273L62.2001 22.5077L62.9989 22.4628L63.7976 22.4179L63.3434 14.3375L62.5446 14.3824ZM62.9989 22.4628L62.2138 22.309L60.8505 29.2678L61.6355 29.4217L62.4206 29.5755L63.7839 22.6166L62.9989 22.4628ZM61.6355 29.4217L60.894 29.1215L58.3958 35.2935L59.1373 35.5937L59.8789 35.8938L62.3771 29.7218L61.6355 29.4217ZM59.1373 35.5937L58.492 35.1209L56.1073 38.3759L56.7527 38.8487L57.398 39.3215L59.7827 36.0665L59.1373 35.5937Z" fill="white" mask="url(#path-2-inside-1_216_258)"/>
<path d="M33.2759 42.3583L33.2954 42.3827L33.3198 42.4032L35.478 44.3104L35.5415 44.3671L35.6226 44.3925L38.1206 45.1786L38.1274 45.1805L39.0405 45.451L40.3501 51.0604L40.3716 51.1522L40.4321 51.2245L41.4546 52.4589L41.6304 52.6718L41.8921 52.5819L43.5552 52.0106L42.2026 54.5995L42.0093 54.9706L42.3882 55.1473L51.5444 59.412L51.0786 59.663L34.9312 60.3339L34.5474 60.3505V63.455L34.5522 63.4843L35.8892 72.7294L35.5015 73.1757L24.5405 69.4911L23.8667 68.3524L22.7407 55.7596L22.7368 55.7108L22.7212 55.6659L20.1089 48.035L19.6333 46.5311L28.436 40.5497L30.9624 39.5507L33.2759 42.3583ZM59.1958 38.5721L64.1479 43.6796C64.1353 43.7303 64.1207 43.7895 64.104 43.8563C64.0418 44.1056 63.9537 44.4626 63.8472 44.8915C63.6341 45.7491 63.35 46.896 63.0659 48.0536C62.7818 49.2112 62.4971 50.3809 62.2837 51.2821C62.1771 51.7323 62.0877 52.1176 62.0249 52.4012C61.9936 52.5426 61.9682 52.6611 61.9507 52.7509C61.9419 52.7955 61.9346 52.8362 61.9292 52.87C61.9253 52.8945 61.9175 52.943 61.9175 52.9891L61.9194 52.951C61.917 52.962 61.9122 52.9816 61.9038 53.0106C61.8872 53.0681 61.8615 53.1484 61.8267 53.2509C61.7571 53.4556 61.6566 53.7338 61.5347 54.0614C61.2911 54.7158 60.9653 55.5584 60.6392 56.3925C60.3132 57.2262 59.9873 58.0498 59.7427 58.6649C59.6204 58.9723 59.5191 59.2277 59.4478 59.4061C59.4419 59.4207 59.4356 59.4346 59.4302 59.4481L54.4644 59.7128L54.4956 60.5116L54.5054 60.5106L54.5063 60.5116L54.5171 60.5106L56.0503 60.4696L56.9966 70.0389L53.481 70.495L52.644 60.5604L53.3647 60.5409L53.6685 60.5331L53.7417 60.2372L56.1196 50.6171L56.1313 50.5692V40.2499L58.4722 37.9354L59.1958 38.5721Z" fill="#1E1E1E" stroke="white" stroke-width="0.8"/>
<path d="M37.8013 3.87085L33.6782 7.10913L33.6489 7.13257L33.6235 7.16187L31.5786 9.51831L31.4546 9.66089L31.4868 9.84741L32.0454 13.1589L31.3706 19.2771L31.3618 19.3503L31.3813 19.4226L32.0366 21.9021L31.7847 22.8953L30.981 23.0281L29.9731 20.8367L29.9126 20.7039L29.7798 20.6423L27.395 19.5193L27.2485 19.45L27.0952 19.5027L24.6108 20.3523L24.2222 17.0867L24.8745 13.6492L27.0903 10.6941L27.1147 10.6609L27.1323 10.6238L28.5669 7.56909L31.0728 5.63159L36.981 2.76636L37.8013 3.87085Z" fill="#231F20" stroke="white" stroke-width="0.8"/>
<path d="M51.2073 71.9375L51.2053 71.9697L51.2092 72.0029L52.2278 81.0605L52.1399 82.3594L43.9114 83.002L38.9895 81.9443L36.7014 72.7666L35.5383 65.8545L35.3616 61.1123L45.6106 60.5732L45.6096 60.5723H51.7883L51.2073 71.9375ZM69.1399 57.7324L71.2874 63.9922L70.1653 67.4189L62.0344 67.8545L61.9905 67.8564L61.9485 67.8691L57.9651 68.9795L56.8479 60.3193L57.8928 59.9141L59.635 60.2295L59.7629 60.252L59.8792 60.1963L63.3342 58.5273L66.8606 57.4385L69.1399 57.7324ZM49.3372 48.1162H51.8792L54.0315 48.8896L53.8225 52.7158L52.9329 57.8125L50.9583 52.8428L50.9407 52.7988L50.9133 52.7607L48.427 49.2354C48.4314 49.2254 48.436 49.2147 48.4407 49.2041C48.5017 49.0672 48.589 48.8875 48.6975 48.7109C48.8079 48.5313 48.9304 48.3709 49.0549 48.2598C49.1812 48.1471 49.2746 48.1162 49.3372 48.1162ZM36.4211 42.374L36.4573 42.3848L36.4944 42.3887L39.2717 42.6875L39.1897 45.0879L35.2649 43.3418L33.9846 41.9473V41.6338L36.4211 42.374Z" fill="#1E1E1E" stroke="white" stroke-width="0.8"/>
<mask id="path-7-inside-2_216_258" fill="white">
<path d="M44.8675 0.00394195C42.4835 0.048567 40.152 0.440348 38.2089 1.14713C36.7646 1.67213 35.3654 2.142 34.0971 2.87832C30.703 4.84707 27.0998 6.16482 26.0938 10.1279C23.6142 11.2252 22.8664 14.3614 22.9913 18.0009C23.0152 18.7103 23.405 19.5969 23.2702 20.2643C23.2011 20.603 22.7363 21.0368 22.6433 21.2573C21.4546 24.0575 22.4076 27.7384 23.7809 29.7288C24.6109 30.931 25.9855 31.9974 27.7984 32.2803C27.8708 33.3533 28.1318 34.2766 28.6332 35.364C28.9506 36.0518 30.1359 37.2881 29.6996 38.1655C29.4805 38.6078 27.5501 39.5679 26.9099 39.9479C24.7484 41.2289 23.1819 42.0144 21.1864 43.4339C19.8954 44.3527 17.876 44.4708 18.1948 46.5892C18.4093 48.0185 19.2327 49.7904 19.7035 51.2236C20.2135 52.7704 20.944 54.1872 21.3637 55.7924C22.2967 59.3696 22.4912 62.7401 22.7184 66.234C22.8073 67.6023 22.6599 69.05 23.0192 69.8053C23.3897 70.5863 24.763 70.8356 25.7551 71.2911C28.6205 72.6003 31.6606 74.5999 35.4186 74.2029C36.3144 77.1796 37.1611 80.3499 38.2362 82.9572C42.0897 84.3262 48.1732 84.1122 52.1795 83.6364C53.3974 83.4908 54.6823 82.8969 54.9686 81.8534C54.8829 81.2103 54.7879 80.5737 54.8291 79.8131C56.0815 79.5572 57.7862 79.3459 58.0618 77.9756C58.4482 76.0541 56.8339 73.3012 57.3725 71.1926C58.0976 70.9603 58.8719 70.7785 58.7564 69.6472C59.9782 69.0185 61.4279 68.878 62.9752 68.9371C63.1744 69.3177 63.4579 69.6839 63.7129 69.8933C65.8804 70.3238 67.9795 70.3592 69.7791 69.7791C71.8158 69.1215 72.7873 65.0049 72.3218 63.0459C71.9911 61.658 71.2434 59.3841 70.6059 58.0401C68.8787 54.3913 63.7309 56.6816 60.9757 58.0348C62.3124 54.56 63.4619 50.9572 64.6413 47.059C64.9932 45.8909 65.6892 44.2352 65.5331 43.0251C65.387 41.8871 63.5914 40.6914 62.6464 39.7898C62.1212 39.2897 59.6721 37.4522 59.53 36.7644C59.3925 36.099 60.5288 34.5916 60.894 33.8376C61.4186 32.7587 61.7945 31.4383 62.0528 30.5399C63.9786 23.8488 64.1745 14.656 61.4212 9.15535C60.3787 7.07175 57.4634 4.1941 55.6406 2.83107C52.9525 0.822942 48.8393 -0.0695581 44.8675 0.00394195ZM45.1849 1.86769C48.4036 1.83685 51.9829 2.95904 54.4068 4.31025C56.4321 5.439 57.9263 7.623 59.3514 9.44016C57.3532 8.85413 55.6525 9.86147 55.9627 11.4903C57.6354 9.97501 60.4929 11.4739 61.3382 13.1493C62.1464 14.7505 62.1411 17.1242 62.2653 19.5051C62.5661 25.2788 61.1961 31.2355 58.2603 35.4086C57.4754 36.5229 56.8166 37.7409 55.713 38.5081C53.0527 40.3541 49.0093 42.0276 45.5468 40.8798C40.9714 39.3625 38.8929 36.3497 36.3761 32.8998C36.4445 34.795 37.7932 36.3503 39.1254 37.8C40.2841 39.0633 41.6827 40.4906 43.1874 41.0799C41.9323 40.7886 40.0052 40.6973 39.482 41.811C36.5534 41.6187 33.8321 41.3228 32.4469 39.3612C31.3552 37.8151 30.2462 35.1855 29.7488 33.1544C29.6472 32.737 29.4732 31.8485 29.5157 31.6208C29.6791 30.7394 31.2675 30.3522 30.6426 29.1204C29.4898 29.1099 29.2302 30.1573 28.1723 30.261C25.433 30.5288 23.5006 26.6733 23.6248 24.3469C23.7304 22.3689 25.4224 20.4763 27.7367 20.7263C29.3723 20.9035 29.9281 22.6675 30.2455 24.2373C31.1885 24.2872 32.5505 24.1973 32.9967 23.4701C32.9323 21.6963 32.0989 20.2735 32.156 18.6434C32.2636 15.58 33.9523 12.8159 32.6494 9.79847C34.0439 6.6721 38.1352 4.2046 41.1614 2.71294C42.3334 2.13544 43.722 1.88344 45.1856 1.869L45.1849 1.86769ZM36.8589 3.40725C36.9904 3.42825 37.1113 3.52932 37.2281 3.65269C37.2082 4.18491 36.677 4.17375 36.3184 4.34438C35.7605 5.02229 34.9451 5.33925 34.2664 6.08213C33.5698 6.84338 32.7909 8.88825 31.8678 9.114C31.405 9.22819 30.8764 9.03525 30.4733 9.0615C29.4075 9.12779 28.6571 9.66722 27.576 9.8221C28.9718 6.80663 33.3261 4.36669 36.7228 3.41579C36.767 3.40301 36.8134 3.4001 36.8589 3.40725ZM42.6628 9.95204C40.9117 9.954 38.9175 11.804 38.3975 13.2156C38.1864 13.7891 37.853 14.9153 38.6904 15.1154C39.6287 13.0489 41.1667 11.0565 44.2619 11.7685C44.8562 10.8032 43.7937 10.0938 43.0088 9.97697C42.894 9.96007 42.7788 9.95173 42.6628 9.95204ZM31.6022 10.267C32.7988 13.2766 30.7436 16.8532 31.5092 20.1443C31.7436 21.1523 32.5545 22.7168 31.2595 22.7509C31.2934 19.8831 27.6935 18.0633 24.9808 19.7492C24.7995 17.5744 24.4854 14.5169 25.9862 12.8855C27.3708 11.3787 29.2793 10.4409 31.6022 10.267ZM59.3441 15.2526C59.2451 16.9043 59.866 17.8986 60.297 19.0667C59.5519 19.53 58.1023 19.2413 57.2622 19.6042C57.2025 22.0474 61.0872 20.8432 61.6782 19.4828C60.795 18.2149 60.1901 16.6937 59.4902 15.2585L59.3441 15.2519V15.2526ZM45.847 15.29C45.3875 16.5788 46.6359 18.7668 47.3358 19.8732C46.4241 20.748 44.7845 20.0215 43.5646 19.9651C42.4005 21.7823 45.8377 22.1242 47.3126 21.6937C47.7163 21.5762 48.4149 20.9783 48.5112 20.7093C48.9209 19.572 48.0948 19.0733 47.6698 18.6638C46.7269 17.7555 46.5104 16.4916 45.847 15.29ZM52.8522 16.4778C52.7632 16.466 52.6563 16.4975 52.5281 16.5893C52.4451 19.6186 54.7228 22.1261 56.4215 24.1493C57.2516 25.137 58.2517 25.7014 57.3306 27.2357C55.8458 27.7935 53.4425 29.3915 51.378 29.0423C50.2823 28.8573 50.5293 27.6281 50.1362 26.9601C49.3805 27.9425 49.6766 29.4289 50.4549 30.0969C54.0933 30.4526 56.5696 28.9196 58.7902 27.5093C58.7019 26.9568 59.4623 25.9606 59.2511 25.1298C59.178 24.8437 58.5193 24.4289 58.1195 23.9964C56.4906 22.241 54.2587 19.6179 53.3715 17.5665C53.2918 17.3828 53.238 16.5283 52.8522 16.4778ZM26.967 22.1445C26.1257 22.1314 25.3633 22.6793 25.1834 23.9708C25.5566 23.7293 25.8574 23.0423 26.5301 23.3691C25.9391 24.509 26.0812 26.7291 26.8854 27.4509C26.8807 26.0978 26.6675 23.7845 27.835 23.8547C28.6524 23.9033 28.8178 25.6331 29.5137 26.0256C29.9938 23.7431 28.3702 22.1655 26.967 22.1445ZM60.204 28.9433C58.429 29.7439 56.9966 30.91 54.6777 31.1299C54.5655 31.5085 54.6133 32.464 54.675 33.0921C57.7078 33.0297 59.1707 30.8877 60.204 28.9433ZM45.6717 30.2039C46.5582 32.5487 50.5545 33.3756 53.9346 33.2089C53.9293 32.5146 53.9326 31.8111 53.7918 31.2414C51.1621 31.3176 47.6061 31.2086 45.6717 30.2039ZM45.3045 32.0795C43.5958 32.0814 45.0368 33.0205 45.3264 33.388C45.9253 34.1493 46.6279 35.448 47.7223 36.0229C49.4475 36.9285 52.8741 36.5485 54.1172 36.0491C54.5768 35.8654 54.9473 35.3555 55.118 34.925C51.2398 35.0168 46.6425 35.3988 45.3045 32.0795ZM58.2112 38.5304C59.5393 39.5876 60.3415 40.5825 61.6152 41.7132C62.3058 42.3255 63.6658 43.0592 63.8032 44.0495C63.8796 44.602 63.537 45.9559 63.4108 46.5774C62.853 49.3034 61.5979 52.9049 60.4026 55.7616C59.9683 56.7998 59.5526 58.0978 58.9795 58.3223C57.4096 58.9365 55.5045 58.2625 54.1703 59.0835C55.9633 56.009 57.9157 53.1044 59.6728 49.9931C59.4052 49.3763 58.7491 49.1131 58.5585 48.426C59.7923 46.1232 59.2252 38.974 56.0762 40.4834C56.5165 39.8442 57.6726 39.3166 58.2112 38.5304ZM30.5038 40.1579C30.79 40.0463 32.8792 42.7324 33.188 42.9503C34.8813 44.1381 36.9837 45.0765 38.95 46.0038C39.0702 46.8956 39.3485 48.0513 39.8386 49.5974C40.3784 51.305 40.824 53.7147 43.1071 52.4836C42.8899 53.4588 41.6216 54.0638 41.9715 55.2011C42.1907 55.9145 44.5879 56.7958 45.3476 57.2198C46.7495 58.0007 48.0284 58.4325 49.1055 58.8893C44.2114 59.0218 39.6154 59.4156 35.0925 60.0239C34.5506 59.1944 34.7691 57.916 34.712 56.595C34.6496 55.1604 35.2532 51.9264 34.6828 51.7256C34.038 51.4992 33.9171 52.7907 33.8939 53.0755C33.773 54.5902 34.6237 57.7973 33.785 59.6105C32.8672 59.3539 32.415 58.672 31.555 58.3623C31.2177 59.4123 32.2536 59.4628 32.1474 60.1296C32.0066 61.0109 30.3166 60.2739 30.3259 61.5845C31.4262 61.759 33.1143 61.2465 34.2903 61.7367C34.5978 65.3021 35.0918 68.6805 35.633 72.4677C30.9527 72.2275 27.9233 69.9294 24.4735 68.3353C24.259 60.795 23.0431 52.9725 20.0322 46.5872C23.1905 44.1788 26.7246 41.6312 30.5045 40.1586L30.5038 40.1579ZM56.4567 41.8812C56.6666 41.8911 56.8638 41.9429 57.0438 42.0466C57.7291 42.4417 58.0206 44.6952 58.0737 45.7912C58.1182 46.7001 57.99 47.6175 57.6155 48.0992C55.6884 48.0434 53.9472 47.817 52.4225 47.3918C52.5268 46.7749 52.3329 46.1678 52.4889 45.7229C52.9133 45.421 53.6252 45.4263 54.2673 45.3554C53.7121 45.085 52.9325 44.9781 52.2917 45.1343C52.2764 44.7051 52.0819 44.4399 51.9643 44.1039C52.912 43.7699 54.9885 41.8097 56.4567 41.8812ZM53.0036 41.9646C52.1948 42.4856 51.5061 43.1373 50.7298 43.6938C49.0079 43.7784 48.0683 43.5763 46.8032 42.5992C46.8232 42.5204 46.9507 42.5558 46.956 42.4594C48.7987 43.2712 51.1429 42.1286 53.0036 41.9646ZM34.8435 41.9967C35.8044 42.6563 37.6637 42.4935 39.0789 42.7389C39.1519 43.1872 38.7854 43.7758 38.792 44.3999C37.6013 44.3277 33.86 42.9824 34.8435 41.9967ZM41.3327 42.3728C41.4356 42.3701 41.5459 42.38 41.6647 42.4023C43.1947 42.691 44.9744 43.388 46.1591 44.0278C46.8829 44.4189 47.302 44.9019 48.4003 44.9859C48.3957 45.1303 48.389 45.2747 48.3837 45.4204C47.7821 45.8108 46.8105 45.8063 46.1505 46.1344C47.124 46.1764 47.8903 46.408 48.553 46.7348L48.5099 47.8236C47.4069 48.5697 46.3995 49.6808 45.1012 50.3803C44.487 50.7111 42.3321 51.5629 41.6793 51.4119C41.3095 51.3273 41.2762 50.8738 41.1282 50.4473C40.8141 49.5318 40.0896 48.0756 40.0258 46.6988C39.9508 45.068 39.7894 42.4036 41.3327 42.3728ZM50.1607 44.6453C50.2517 44.6381 50.338 44.6408 50.4197 44.6526C51.8315 44.858 51.7293 47.7514 49.4953 47.061C49.3273 46.1134 49.1328 45.843 49.2078 45.0168C49.5677 44.7799 49.8865 44.667 50.1607 44.6453ZM51.4464 47.9358C52.2552 48.0211 52.8953 49.1236 54.0495 49.0514C53.8642 52.0255 53.9612 55.0102 53.1211 57.7349C51.5559 54.8986 50.6349 51.4743 48.6088 49.0613C48.8227 48.8368 49.0139 48.5881 49.2237 48.3584C50.1415 48.7377 50.7405 47.861 51.4464 47.9358ZM56.1001 48.8821C57.2144 48.8736 58.1268 49.5935 58.6282 50.3895C57.0584 53.0473 55.5563 55.776 53.6942 58.1201C54.4745 55.8508 54.8092 52.0531 54.9274 49.1577C55.2934 48.9829 55.6936 48.8889 56.1001 48.8821ZM47.62 49.8947C49.4794 52.227 50.611 55.2267 51.8568 58.1221C48.9136 57.2453 45.9068 55.8226 43.3275 54.3802C43.8336 52.2119 45.8178 51.0884 47.62 49.8947ZM67.2172 57.5912C68.0254 57.6109 68.8282 58.2593 69.1795 58.7849C69.8143 59.7325 70.4073 62.5223 70.74 64.0034C71.2361 66.2078 70.1211 68.3537 68.3474 68.7789C67.0565 69.0887 65.0763 69.1707 64.2309 68.7671C65.2655 68.2087 66.8201 68.2054 68.0174 67.8221C66.3021 67.0924 63.7641 67.7801 61.7015 67.6528C61.4525 65.1361 61.2645 62.4074 60.6609 60.4209C61.8648 59.1563 64.7734 58.8525 66.425 57.8084C66.6606 57.6581 66.9369 57.5823 67.2172 57.5912ZM67.0771 59.9393C64.9634 60.0009 63.3118 60.5542 62.3689 61.8673C64.0841 61.9756 65.3193 60.2871 67.0771 59.9393ZM58.7497 60.4544C58.8991 60.461 59.0466 60.4774 59.188 60.5089C60.3116 62.4186 60.5533 65.5942 60.5161 67.8989C59.8155 68.0328 59.3607 68.4292 58.5107 68.4029C58.2935 65.7773 57.6766 63.0164 57.4229 60.5148C57.828 60.5069 58.3002 60.436 58.7497 60.4544ZM45.7321 60.4826C47.9501 60.4472 50.1016 60.5758 51.9643 60.9591C52.4192 63.8814 52.2499 66.7636 52.5819 69.6281C53.0215 73.4396 52.6922 77.7879 53.4452 81.3593C49.3459 82.6147 43.7565 82.4933 39.1187 81.102C37.0289 74.7738 35.8894 68.7671 35.1031 61.6212C38.1492 61.0582 42.0339 60.5417 45.7321 60.4826ZM55.5762 60.7346C56.3086 63.3511 56.2648 66.6803 56.6247 69.638C55.5171 69.8782 54.7069 69.9956 53.5149 70.1728C53.2779 67.1003 53.0966 64.073 53.1391 61.0043C53.9838 60.7248 54.7288 60.7418 55.5762 60.7346ZM65.1958 62.2414C64.3591 62.2519 63.606 62.4317 63.2833 62.9186C64.7376 63.0368 66.419 62.8071 67.852 62.6574C67.1986 62.4343 66.1441 62.2289 65.1958 62.2414ZM64.9561 64.3676C64.207 64.3768 63.5462 64.5173 63.2069 64.8775C64.7369 65.0042 66.7384 65.0357 68.3488 65.0016C67.696 64.701 66.2045 64.3519 64.9561 64.3676ZM55.1824 71.4131C55.3391 71.3888 55.4812 71.3836 55.5987 71.4144C55.8298 73.4127 56.6314 75.4379 56.5311 77.6265C55.6412 77.9231 55.1299 78.183 53.9366 78.181C53.8529 76.3212 53.6006 73.4783 53.6763 71.7052C54.1159 71.734 54.7129 71.486 55.1824 71.4131Z"/>
</mask>
<path d="M44.8675 0.00394195C42.4835 0.048567 40.152 0.440348 38.2089 1.14713C36.7646 1.67213 35.3654 2.142 34.0971 2.87832C30.703 4.84707 27.0998 6.16482 26.0938 10.1279C23.6142 11.2252 22.8664 14.3614 22.9913 18.0009C23.0152 18.7103 23.405 19.5969 23.2702 20.2643C23.2011 20.603 22.7363 21.0368 22.6433 21.2573C21.4546 24.0575 22.4076 27.7384 23.7809 29.7288C24.6109 30.931 25.9855 31.9974 27.7984 32.2803C27.8708 33.3533 28.1318 34.2766 28.6332 35.364C28.9506 36.0518 30.1359 37.2881 29.6996 38.1655C29.4805 38.6078 27.5501 39.5679 26.9099 39.9479C24.7484 41.2289 23.1819 42.0144 21.1864 43.4339C19.8954 44.3527 17.876 44.4708 18.1948 46.5892C18.4093 48.0185 19.2327 49.7904 19.7035 51.2236C20.2135 52.7704 20.944 54.1872 21.3637 55.7924C22.2967 59.3696 22.4912 62.7401 22.7184 66.234C22.8073 67.6023 22.6599 69.05 23.0192 69.8053C23.3897 70.5863 24.763 70.8356 25.7551 71.2911C28.6205 72.6003 31.6606 74.5999 35.4186 74.2029C36.3144 77.1796 37.1611 80.3499 38.2362 82.9572C42.0897 84.3262 48.1732 84.1122 52.1795 83.6364C53.3974 83.4908 54.6823 82.8969 54.9686 81.8534C54.8829 81.2103 54.7879 80.5737 54.8291 79.8131C56.0815 79.5572 57.7862 79.3459 58.0618 77.9756C58.4482 76.0541 56.8339 73.3012 57.3725 71.1926C58.0976 70.9603 58.8719 70.7785 58.7564 69.6472C59.9782 69.0185 61.4279 68.878 62.9752 68.9371C63.1744 69.3177 63.4579 69.6839 63.7129 69.8933C65.8804 70.3238 67.9795 70.3592 69.7791 69.7791C71.8158 69.1215 72.7873 65.0049 72.3218 63.0459C71.9911 61.658 71.2434 59.3841 70.6059 58.0401C68.8787 54.3913 63.7309 56.6816 60.9757 58.0348C62.3124 54.56 63.4619 50.9572 64.6413 47.059C64.9932 45.8909 65.6892 44.2352 65.5331 43.0251C65.387 41.8871 63.5914 40.6914 62.6464 39.7898C62.1212 39.2897 59.6721 37.4522 59.53 36.7644C59.3925 36.099 60.5288 34.5916 60.894 33.8376C61.4186 32.7587 61.7945 31.4383 62.0528 30.5399C63.9786 23.8488 64.1745 14.656 61.4212 9.15535C60.3787 7.07175 57.4634 4.1941 55.6406 2.83107C52.9525 0.822942 48.8393 -0.0695581 44.8675 0.00394195ZM45.1849 1.86769C48.4036 1.83685 51.9829 2.95904 54.4068 4.31025C56.4321 5.439 57.9263 7.623 59.3514 9.44016C57.3532 8.85413 55.6525 9.86147 55.9627 11.4903C57.6354 9.97501 60.4929 11.4739 61.3382 13.1493C62.1464 14.7505 62.1411 17.1242 62.2653 19.5051C62.5661 25.2788 61.1961 31.2355 58.2603 35.4086C57.4754 36.5229 56.8166 37.7409 55.713 38.5081C53.0527 40.3541 49.0093 42.0276 45.5468 40.8798C40.9714 39.3625 38.8929 36.3497 36.3761 32.8998C36.4445 34.795 37.7932 36.3503 39.1254 37.8C40.2841 39.0633 41.6827 40.4906 43.1874 41.0799C41.9323 40.7886 40.0052 40.6973 39.482 41.811C36.5534 41.6187 33.8321 41.3228 32.4469 39.3612C31.3552 37.8151 30.2462 35.1855 29.7488 33.1544C29.6472 32.737 29.4732 31.8485 29.5157 31.6208C29.6791 30.7394 31.2675 30.3522 30.6426 29.1204C29.4898 29.1099 29.2302 30.1573 28.1723 30.261C25.433 30.5288 23.5006 26.6733 23.6248 24.3469C23.7304 22.3689 25.4224 20.4763 27.7367 20.7263C29.3723 20.9035 29.9281 22.6675 30.2455 24.2373C31.1885 24.2872 32.5505 24.1973 32.9967 23.4701C32.9323 21.6963 32.0989 20.2735 32.156 18.6434C32.2636 15.58 33.9523 12.8159 32.6494 9.79847C34.0439 6.6721 38.1352 4.2046 41.1614 2.71294C42.3334 2.13544 43.722 1.88344 45.1856 1.869L45.1849 1.86769ZM36.8589 3.40725C36.9904 3.42825 37.1113 3.52932 37.2281 3.65269C37.2082 4.18491 36.677 4.17375 36.3184 4.34438C35.7605 5.02229 34.9451 5.33925 34.2664 6.08213C33.5698 6.84338 32.7909 8.88825 31.8678 9.114C31.405 9.22819 30.8764 9.03525 30.4733 9.0615C29.4075 9.12779 28.6571 9.66722 27.576 9.8221C28.9718 6.80663 33.3261 4.36669 36.7228 3.41579C36.767 3.40301 36.8134 3.4001 36.8589 3.40725ZM42.6628 9.95204C40.9117 9.954 38.9175 11.804 38.3975 13.2156C38.1864 13.7891 37.853 14.9153 38.6904 15.1154C39.6287 13.0489 41.1667 11.0565 44.2619 11.7685C44.8562 10.8032 43.7937 10.0938 43.0088 9.97697C42.894 9.96007 42.7788 9.95173 42.6628 9.95204ZM31.6022 10.267C32.7988 13.2766 30.7436 16.8532 31.5092 20.1443C31.7436 21.1523 32.5545 22.7168 31.2595 22.7509C31.2934 19.8831 27.6935 18.0633 24.9808 19.7492C24.7995 17.5744 24.4854 14.5169 25.9862 12.8855C27.3708 11.3787 29.2793 10.4409 31.6022 10.267ZM59.3441 15.2526C59.2451 16.9043 59.866 17.8986 60.297 19.0667C59.5519 19.53 58.1023 19.2413 57.2622 19.6042C57.2025 22.0474 61.0872 20.8432 61.6782 19.4828C60.795 18.2149 60.1901 16.6937 59.4902 15.2585L59.3441 15.2519V15.2526ZM45.847 15.29C45.3875 16.5788 46.6359 18.7668 47.3358 19.8732C46.4241 20.748 44.7845 20.0215 43.5646 19.9651C42.4005 21.7823 45.8377 22.1242 47.3126 21.6937C47.7163 21.5762 48.4149 20.9783 48.5112 20.7093C48.9209 19.572 48.0948 19.0733 47.6698 18.6638C46.7269 17.7555 46.5104 16.4916 45.847 15.29ZM52.8522 16.4778C52.7632 16.466 52.6563 16.4975 52.5281 16.5893C52.4451 19.6186 54.7228 22.1261 56.4215 24.1493C57.2516 25.137 58.2517 25.7014 57.3306 27.2357C55.8458 27.7935 53.4425 29.3915 51.378 29.0423C50.2823 28.8573 50.5293 27.6281 50.1362 26.9601C49.3805 27.9425 49.6766 29.4289 50.4549 30.0969C54.0933 30.4526 56.5696 28.9196 58.7902 27.5093C58.7019 26.9568 59.4623 25.9606 59.2511 25.1298C59.178 24.8437 58.5193 24.4289 58.1195 23.9964C56.4906 22.241 54.2587 19.6179 53.3715 17.5665C53.2918 17.3828 53.238 16.5283 52.8522 16.4778ZM26.967 22.1445C26.1257 22.1314 25.3633 22.6793 25.1834 23.9708C25.5566 23.7293 25.8574 23.0423 26.5301 23.3691C25.9391 24.509 26.0812 26.7291 26.8854 27.4509C26.8807 26.0978 26.6675 23.7845 27.835 23.8547C28.6524 23.9033 28.8178 25.6331 29.5137 26.0256C29.9938 23.7431 28.3702 22.1655 26.967 22.1445ZM60.204 28.9433C58.429 29.7439 56.9966 30.91 54.6777 31.1299C54.5655 31.5085 54.6133 32.464 54.675 33.0921C57.7078 33.0297 59.1707 30.8877 60.204 28.9433ZM45.6717 30.2039C46.5582 32.5487 50.5545 33.3756 53.9346 33.2089C53.9293 32.5146 53.9326 31.8111 53.7918 31.2414C51.1621 31.3176 47.6061 31.2086 45.6717 30.2039ZM45.3045 32.0795C43.5958 32.0814 45.0368 33.0205 45.3264 33.388C45.9253 34.1493 46.6279 35.448 47.7223 36.0229C49.4475 36.9285 52.8741 36.5485 54.1172 36.0491C54.5768 35.8654 54.9473 35.3555 55.118 34.925C51.2398 35.0168 46.6425 35.3988 45.3045 32.0795ZM58.2112 38.5304C59.5393 39.5876 60.3415 40.5825 61.6152 41.7132C62.3058 42.3255 63.6658 43.0592 63.8032 44.0495C63.8796 44.602 63.537 45.9559 63.4108 46.5774C62.853 49.3034 61.5979 52.9049 60.4026 55.7616C59.9683 56.7998 59.5526 58.0978 58.9795 58.3223C57.4096 58.9365 55.5045 58.2625 54.1703 59.0835C55.9633 56.009 57.9157 53.1044 59.6728 49.9931C59.4052 49.3763 58.7491 49.1131 58.5585 48.426C59.7923 46.1232 59.2252 38.974 56.0762 40.4834C56.5165 39.8442 57.6726 39.3166 58.2112 38.5304ZM30.5038 40.1579C30.79 40.0463 32.8792 42.7324 33.188 42.9503C34.8813 44.1381 36.9837 45.0765 38.95 46.0038C39.0702 46.8956 39.3485 48.0513 39.8386 49.5974C40.3784 51.305 40.824 53.7147 43.1071 52.4836C42.8899 53.4588 41.6216 54.0638 41.9715 55.2011C42.1907 55.9145 44.5879 56.7958 45.3476 57.2198C46.7495 58.0007 48.0284 58.4325 49.1055 58.8893C44.2114 59.0218 39.6154 59.4156 35.0925 60.0239C34.5506 59.1944 34.7691 57.916 34.712 56.595C34.6496 55.1604 35.2532 51.9264 34.6828 51.7256C34.038 51.4992 33.9171 52.7907 33.8939 53.0755C33.773 54.5902 34.6237 57.7973 33.785 59.6105C32.8672 59.3539 32.415 58.672 31.555 58.3623C31.2177 59.4123 32.2536 59.4628 32.1474 60.1296C32.0066 61.0109 30.3166 60.2739 30.3259 61.5845C31.4262 61.759 33.1143 61.2465 34.2903 61.7367C34.5978 65.3021 35.0918 68.6805 35.633 72.4677C30.9527 72.2275 27.9233 69.9294 24.4735 68.3353C24.259 60.795 23.0431 52.9725 20.0322 46.5872C23.1905 44.1788 26.7246 41.6312 30.5045 40.1586L30.5038 40.1579ZM56.4567 41.8812C56.6666 41.8911 56.8638 41.9429 57.0438 42.0466C57.7291 42.4417 58.0206 44.6952 58.0737 45.7912C58.1182 46.7001 57.99 47.6175 57.6155 48.0992C55.6884 48.0434 53.9472 47.817 52.4225 47.3918C52.5268 46.7749 52.3329 46.1678 52.4889 45.7229C52.9133 45.421 53.6252 45.4263 54.2673 45.3554C53.7121 45.085 52.9325 44.9781 52.2917 45.1343C52.2764 44.7051 52.0819 44.4399 51.9643 44.1039C52.912 43.7699 54.9885 41.8097 56.4567 41.8812ZM53.0036 41.9646C52.1948 42.4856 51.5061 43.1373 50.7298 43.6938C49.0079 43.7784 48.0683 43.5763 46.8032 42.5992C46.8232 42.5204 46.9507 42.5558 46.956 42.4594C48.7987 43.2712 51.1429 42.1286 53.0036 41.9646ZM34.8435 41.9967C35.8044 42.6563 37.6637 42.4935 39.0789 42.7389C39.1519 43.1872 38.7854 43.7758 38.792 44.3999C37.6013 44.3277 33.86 42.9824 34.8435 41.9967ZM41.3327 42.3728C41.4356 42.3701 41.5459 42.38 41.6647 42.4023C43.1947 42.691 44.9744 43.388 46.1591 44.0278C46.8829 44.4189 47.302 44.9019 48.4003 44.9859C48.3957 45.1303 48.389 45.2747 48.3837 45.4204C47.7821 45.8108 46.8105 45.8063 46.1505 46.1344C47.124 46.1764 47.8903 46.408 48.553 46.7348L48.5099 47.8236C47.4069 48.5697 46.3995 49.6808 45.1012 50.3803C44.487 50.7111 42.3321 51.5629 41.6793 51.4119C41.3095 51.3273 41.2762 50.8738 41.1282 50.4473C40.8141 49.5318 40.0896 48.0756 40.0258 46.6988C39.9508 45.068 39.7894 42.4036 41.3327 42.3728ZM50.1607 44.6453C50.2517 44.6381 50.338 44.6408 50.4197 44.6526C51.8315 44.858 51.7293 47.7514 49.4953 47.061C49.3273 46.1134 49.1328 45.843 49.2078 45.0168C49.5677 44.7799 49.8865 44.667 50.1607 44.6453ZM51.4464 47.9358C52.2552 48.0211 52.8953 49.1236 54.0495 49.0514C53.8642 52.0255 53.9612 55.0102 53.1211 57.7349C51.5559 54.8986 50.6349 51.4743 48.6088 49.0613C48.8227 48.8368 49.0139 48.5881 49.2237 48.3584C50.1415 48.7377 50.7405 47.861 51.4464 47.9358ZM56.1001 48.8821C57.2144 48.8736 58.1268 49.5935 58.6282 50.3895C57.0584 53.0473 55.5563 55.776 53.6942 58.1201C54.4745 55.8508 54.8092 52.0531 54.9274 49.1577C55.2934 48.9829 55.6936 48.8889 56.1001 48.8821ZM47.62 49.8947C49.4794 52.227 50.611 55.2267 51.8568 58.1221C48.9136 57.2453 45.9068 55.8226 43.3275 54.3802C43.8336 52.2119 45.8178 51.0884 47.62 49.8947ZM67.2172 57.5912C68.0254 57.6109 68.8282 58.2593 69.1795 58.7849C69.8143 59.7325 70.4073 62.5223 70.74 64.0034C71.2361 66.2078 70.1211 68.3537 68.3474 68.7789C67.0565 69.0887 65.0763 69.1707 64.2309 68.7671C65.2655 68.2087 66.8201 68.2054 68.0174 67.8221C66.3021 67.0924 63.7641 67.7801 61.7015 67.6528C61.4525 65.1361 61.2645 62.4074 60.6609 60.4209C61.8648 59.1563 64.7734 58.8525 66.425 57.8084C66.6606 57.6581 66.9369 57.5823 67.2172 57.5912ZM67.0771 59.9393C64.9634 60.0009 63.3118 60.5542 62.3689 61.8673C64.0841 61.9756 65.3193 60.2871 67.0771 59.9393ZM58.7497 60.4544C58.8991 60.461 59.0466 60.4774 59.188 60.5089C60.3116 62.4186 60.5533 65.5942 60.5161 67.8989C59.8155 68.0328 59.3607 68.4292 58.5107 68.4029C58.2935 65.7773 57.6766 63.0164 57.4229 60.5148C57.828 60.5069 58.3002 60.436 58.7497 60.4544ZM45.7321 60.4826C47.9501 60.4472 50.1016 60.5758 51.9643 60.9591C52.4192 63.8814 52.2499 66.7636 52.5819 69.6281C53.0215 73.4396 52.6922 77.7879 53.4452 81.3593C49.3459 82.6147 43.7565 82.4933 39.1187 81.102C37.0289 74.7738 35.8894 68.7671 35.1031 61.6212C38.1492 61.0582 42.0339 60.5417 45.7321 60.4826ZM55.5762 60.7346C56.3086 63.3511 56.2648 66.6803 56.6247 69.638C55.5171 69.8782 54.7069 69.9956 53.5149 70.1728C53.2779 67.1003 53.0966 64.073 53.1391 61.0043C53.9838 60.7248 54.7288 60.7418 55.5762 60.7346ZM65.1958 62.2414C64.3591 62.2519 63.606 62.4317 63.2833 62.9186C64.7376 63.0368 66.419 62.8071 67.852 62.6574C67.1986 62.4343 66.1441 62.2289 65.1958 62.2414ZM64.9561 64.3676C64.207 64.3768 63.5462 64.5173 63.2069 64.8775C64.7369 65.0042 66.7384 65.0357 68.3488 65.0016C67.696 64.701 66.2045 64.3519 64.9561 64.3676ZM55.1824 71.4131C55.3391 71.3888 55.4812 71.3836 55.5987 71.4144C55.8298 73.4127 56.6314 75.4379 56.5311 77.6265C55.6412 77.9231 55.1299 78.183 53.9366 78.181C53.8529 76.3212 53.6006 73.4783 53.6763 71.7052C54.1159 71.734 54.7129 71.486 55.1824 71.4131Z" stroke="white" stroke-width="1.6" mask="url(#path-7-inside-2_216_258)"/>
</g>
<defs>
<clipPath id="clip0_216_258">
<rect width="85" height="84" fill="white"/>
</clipPath>
</defs>
</svg>
