<svg width="49" height="48" viewBox="0 0 49 48" fill="none" xmlns="http://www.w3.org/2000/svg">
<g clip-path="url(#clip0_211_5)">
<mask id="path-1-inside-1_211_5" fill="white">
<path d="M47.3466 23.6325C47.3466 20.748 45.1611 18.3206 42.2271 17.628L48.7983 0.0423584H16.2333L22.8194 17.6835C19.9776 18.432 17.8829 20.817 17.8829 23.6471C17.8829 25.7269 19.0296 27.5711 20.7715 28.7081C20.0845 29.5957 19.2891 30.4144 18.388 31.1906C16.6919 32.6336 14.8109 33.7425 12.7791 34.4779C10.9454 33.3544 10.1511 31.371 10.8689 29.5954C13.6653 28.8191 15.6989 26.4476 15.6989 23.6602C15.6989 20.2354 12.6269 17.4607 8.86639 17.4607C5.09164 17.4607 2.02152 20.2485 2.02152 23.6745C2.02152 25.3669 2.78464 26.9194 4.00789 28.0282C3.90064 28.2232 3.79414 28.4164 3.68689 28.6245C2.66314 30.5392 1.50139 32.7026 1.05739 35.13C0.171265 39.9829 1.62289 43.881 5.12239 46.0856C7.09414 47.3205 9.26501 47.9445 11.6031 47.9445C15.6209 47.9445 19.702 46.1134 23.644 44.3377C26.4565 43.0766 29.3598 41.7581 32.2176 41.121C33.2725 40.8851 34.3724 40.746 35.5341 40.5937C37.8865 40.2889 40.3169 39.9697 42.5024 38.8185C45.0543 37.4737 46.7961 35.2264 47.3013 32.6471C47.6819 30.6634 47.3013 28.6669 46.3225 26.9194C46.9911 25.9538 47.3487 24.8069 47.3466 23.6325ZM44.3673 23.6325C44.3673 25.56 42.64 27.1275 40.516 27.1275C38.392 27.1275 36.6648 25.56 36.6648 23.6325C36.6648 23.0081 36.8481 22.4122 37.1688 21.8992C37.2906 21.7042 37.4444 21.5111 37.5963 21.3442C37.7573 21.1726 37.9367 21.0193 38.1314 20.8871L38.1475 20.8725C38.269 20.7892 38.4066 20.7056 38.5443 20.6235C38.5443 20.6235 38.5593 20.6235 38.5593 20.6089C38.6204 20.5811 38.6819 20.5399 38.7438 20.5121C38.7584 20.5121 38.773 20.4975 38.7888 20.4975C38.8506 20.4712 38.9268 20.4435 39.0025 20.4154C39.0748 20.3901 39.1463 20.3623 39.2166 20.3321C39.2316 20.3321 39.2474 20.3171 39.262 20.3171C39.3235 20.3044 39.385 20.2762 39.4454 20.2631C39.4615 20.2631 39.4923 20.2485 39.5069 20.2485C39.583 20.2354 39.6445 20.2207 39.7206 20.2072H39.7368L39.9655 20.1649C39.9813 20.1649 40.0105 20.1649 40.0266 20.1517C40.0881 20.1517 40.1485 20.1371 40.21 20.1371H40.2861C40.3623 20.1371 40.4399 20.124 40.5306 20.124H40.7298C40.7898 20.124 40.837 20.124 40.897 20.1371H40.9278C41.0508 20.1521 41.1723 20.1649 41.2953 20.193C43.0371 20.5252 44.3673 21.9405 44.3673 23.6325ZM20.4959 2.81548H44.5341L39.0175 17.5856C38.7888 17.628 38.5589 17.6966 38.3305 17.7656L32.524 7.01811L26.701 17.6962C26.4711 17.6276 26.2266 17.5852 25.9833 17.544L20.4959 2.81548ZM31.4223 22.425C31.1324 21.1211 30.3985 19.9567 29.3598 19.0969L32.524 13.3005L35.7171 19.2214C34.7695 20.0812 34.0821 21.177 33.8069 22.425H31.4223ZM23.767 20.235C23.8431 20.22 23.9046 20.2072 23.9808 20.1926H24.0261C24.0876 20.1795 24.1495 20.1795 24.2095 20.1645H24.271C24.3325 20.1645 24.3779 20.1514 24.4394 20.1514H25.0356C25.0956 20.1514 25.1425 20.1645 25.1879 20.1645C25.2186 20.1645 25.2333 20.1645 25.264 20.1795C25.3255 20.1926 25.3709 20.1926 25.4328 20.2072C25.447 20.2072 25.4631 20.2072 25.4939 20.2204C25.5704 20.235 25.6465 20.2481 25.7076 20.2627H25.7226C25.7841 20.2759 25.8456 20.289 25.9056 20.3171C25.9218 20.3171 25.9364 20.3317 25.9671 20.3317C26.0125 20.3449 26.074 20.3595 26.1194 20.3872C26.1355 20.3872 26.1501 20.4004 26.1663 20.4004C26.2263 20.4285 26.2881 20.4431 26.3496 20.4709H26.3643C26.4404 20.4971 26.5019 20.5249 26.5634 20.5676H26.5784C26.6395 20.5954 26.701 20.6362 26.7625 20.664C26.7775 20.664 26.7775 20.679 26.7918 20.679C26.8533 20.7052 26.899 20.7476 26.9605 20.7754L26.9766 20.7885C27.1596 20.9134 27.328 21.0525 27.4949 21.1916L27.511 21.2047C27.6636 21.357 27.8159 21.5239 27.9389 21.7042C28.336 22.2592 28.5659 22.9114 28.5659 23.6186C28.5659 25.5465 26.8386 27.1125 24.7146 27.1125C22.5906 27.1125 20.8634 25.5465 20.8634 23.6186C20.8476 21.9956 22.0855 20.6231 23.767 20.235ZM8.72877 20.1367C10.8531 20.1367 12.58 21.7042 12.58 23.6317C12.58 25.5596 10.8531 27.1267 8.72877 27.1267C6.60477 27.1267 4.87752 25.5596 4.87752 23.6317C4.87752 21.7042 6.60477 20.1367 8.72877 20.1367ZM44.275 32.1619C43.9394 33.9356 42.7308 35.49 40.9585 36.4185C39.2928 37.293 37.2449 37.5697 35.0901 37.8469C33.9141 37.9991 32.6763 38.166 31.4838 38.4296C28.3053 39.1372 25.2494 40.5244 22.2846 41.8545C18.4949 43.5611 14.9178 45.1695 11.6031 45.1695C9.87589 45.1695 8.33202 44.7259 6.86577 43.797C3.50389 41.6891 3.67077 37.737 4.06939 35.5732C4.43539 33.5475 5.45952 31.6477 6.43789 29.8312C6.49789 29.7199 6.54476 29.6231 6.60476 29.5117C6.94189 29.6231 7.29327 29.7067 7.65964 29.7622C7.07952 32.7022 8.72877 35.739 11.9384 37.2375L12.5196 37.5142L13.1455 37.3061C15.8204 36.4462 18.2958 35.046 20.4813 33.1736C21.7191 32.1191 22.774 30.9825 23.6601 29.7476C24.0115 29.8035 24.3633 29.8181 24.7146 29.8181C27.8935 29.8181 30.5669 27.8344 31.3315 25.1715H33.898C34.6626 27.8479 37.3371 29.8177 40.516 29.8177C41.7846 29.8177 42.961 29.499 43.9686 28.9582C44.3673 29.9981 44.4888 31.0792 44.275 32.1619Z"/>
</mask>
<path d="M47.3466 23.6325C47.3466 20.748 45.1611 18.3206 42.2271 17.628L48.7983 0.0423584H16.2333L22.8194 17.6835C19.9776 18.432 17.8829 20.817 17.8829 23.6471C17.8829 25.7269 19.0296 27.5711 20.7715 28.7081C20.0845 29.5957 19.2891 30.4144 18.388 31.1906C16.6919 32.6336 14.8109 33.7425 12.7791 34.4779C10.9454 33.3544 10.1511 31.371 10.8689 29.5954C13.6653 28.8191 15.6989 26.4476 15.6989 23.6602C15.6989 20.2354 12.6269 17.4607 8.86639 17.4607C5.09164 17.4607 2.02152 20.2485 2.02152 23.6745C2.02152 25.3669 2.78464 26.9194 4.00789 28.0282C3.90064 28.2232 3.79414 28.4164 3.68689 28.6245C2.66314 30.5392 1.50139 32.7026 1.05739 35.13C0.171265 39.9829 1.62289 43.881 5.12239 46.0856C7.09414 47.3205 9.26501 47.9445 11.6031 47.9445C15.6209 47.9445 19.702 46.1134 23.644 44.3377C26.4565 43.0766 29.3598 41.7581 32.2176 41.121C33.2725 40.8851 34.3724 40.746 35.5341 40.5937C37.8865 40.2889 40.3169 39.9697 42.5024 38.8185C45.0543 37.4737 46.7961 35.2264 47.3013 32.6471C47.6819 30.6634 47.3013 28.6669 46.3225 26.9194C46.9911 25.9538 47.3487 24.8069 47.3466 23.6325ZM44.3673 23.6325C44.3673 25.56 42.64 27.1275 40.516 27.1275C38.392 27.1275 36.6648 25.56 36.6648 23.6325C36.6648 23.0081 36.8481 22.4122 37.1688 21.8992C37.2906 21.7042 37.4444 21.5111 37.5963 21.3442C37.7573 21.1726 37.9367 21.0193 38.1314 20.8871L38.1475 20.8725C38.269 20.7892 38.4066 20.7056 38.5443 20.6235C38.5443 20.6235 38.5593 20.6235 38.5593 20.6089C38.6204 20.5811 38.6819 20.5399 38.7438 20.5121C38.7584 20.5121 38.773 20.4975 38.7888 20.4975C38.8506 20.4712 38.9268 20.4435 39.0025 20.4154C39.0748 20.3901 39.1463 20.3623 39.2166 20.3321C39.2316 20.3321 39.2474 20.3171 39.262 20.3171C39.3235 20.3044 39.385 20.2762 39.4454 20.2631C39.4615 20.2631 39.4923 20.2485 39.5069 20.2485C39.583 20.2354 39.6445 20.2207 39.7206 20.2072H39.7368L39.9655 20.1649C39.9813 20.1649 40.0105 20.1649 40.0266 20.1517C40.0881 20.1517 40.1485 20.1371 40.21 20.1371H40.2861C40.3623 20.1371 40.4399 20.124 40.5306 20.124H40.7298C40.7898 20.124 40.837 20.124 40.897 20.1371H40.9278C41.0508 20.1521 41.1723 20.1649 41.2953 20.193C43.0371 20.5252 44.3673 21.9405 44.3673 23.6325ZM20.4959 2.81548H44.5341L39.0175 17.5856C38.7888 17.628 38.5589 17.6966 38.3305 17.7656L32.524 7.01811L26.701 17.6962C26.4711 17.6276 26.2266 17.5852 25.9833 17.544L20.4959 2.81548ZM31.4223 22.425C31.1324 21.1211 30.3985 19.9567 29.3598 19.0969L32.524 13.3005L35.7171 19.2214C34.7695 20.0812 34.0821 21.177 33.8069 22.425H31.4223ZM23.767 20.235C23.8431 20.22 23.9046 20.2072 23.9808 20.1926H24.0261C24.0876 20.1795 24.1495 20.1795 24.2095 20.1645H24.271C24.3325 20.1645 24.3779 20.1514 24.4394 20.1514H25.0356C25.0956 20.1514 25.1425 20.1645 25.1879 20.1645C25.2186 20.1645 25.2333 20.1645 25.264 20.1795C25.3255 20.1926 25.3709 20.1926 25.4328 20.2072C25.447 20.2072 25.4631 20.2072 25.4939 20.2204C25.5704 20.235 25.6465 20.2481 25.7076 20.2627H25.7226C25.7841 20.2759 25.8456 20.289 25.9056 20.3171C25.9218 20.3171 25.9364 20.3317 25.9671 20.3317C26.0125 20.3449 26.074 20.3595 26.1194 20.3872C26.1355 20.3872 26.1501 20.4004 26.1663 20.4004C26.2263 20.4285 26.2881 20.4431 26.3496 20.4709H26.3643C26.4404 20.4971 26.5019 20.5249 26.5634 20.5676H26.5784C26.6395 20.5954 26.701 20.6362 26.7625 20.664C26.7775 20.664 26.7775 20.679 26.7918 20.679C26.8533 20.7052 26.899 20.7476 26.9605 20.7754L26.9766 20.7885C27.1596 20.9134 27.328 21.0525 27.4949 21.1916L27.511 21.2047C27.6636 21.357 27.8159 21.5239 27.9389 21.7042C28.336 22.2592 28.5659 22.9114 28.5659 23.6186C28.5659 25.5465 26.8386 27.1125 24.7146 27.1125C22.5906 27.1125 20.8634 25.5465 20.8634 23.6186C20.8476 21.9956 22.0855 20.6231 23.767 20.235ZM8.72877 20.1367C10.8531 20.1367 12.58 21.7042 12.58 23.6317C12.58 25.5596 10.8531 27.1267 8.72877 27.1267C6.60477 27.1267 4.87752 25.5596 4.87752 23.6317C4.87752 21.7042 6.60477 20.1367 8.72877 20.1367ZM44.275 32.1619C43.9394 33.9356 42.7308 35.49 40.9585 36.4185C39.2928 37.293 37.2449 37.5697 35.0901 37.8469C33.9141 37.9991 32.6763 38.166 31.4838 38.4296C28.3053 39.1372 25.2494 40.5244 22.2846 41.8545C18.4949 43.5611 14.9178 45.1695 11.6031 45.1695C9.87589 45.1695 8.33202 44.7259 6.86577 43.797C3.50389 41.6891 3.67077 37.737 4.06939 35.5732C4.43539 33.5475 5.45952 31.6477 6.43789 29.8312C6.49789 29.7199 6.54476 29.6231 6.60476 29.5117C6.94189 29.6231 7.29327 29.7067 7.65964 29.7622C7.07952 32.7022 8.72877 35.739 11.9384 37.2375L12.5196 37.5142L13.1455 37.3061C15.8204 36.4462 18.2958 35.046 20.4813 33.1736C21.7191 32.1191 22.774 30.9825 23.6601 29.7476C24.0115 29.8035 24.3633 29.8181 24.7146 29.8181C27.8935 29.8181 30.5669 27.8344 31.3315 25.1715H33.898C34.6626 27.8479 37.3371 29.8177 40.516 29.8177C41.7846 29.8177 42.961 29.499 43.9686 28.9582C44.3673 29.9981 44.4888 31.0792 44.275 32.1619Z" stroke="white" stroke-width="1.6" mask="url(#path-1-inside-1_211_5)"/>
</g>
<defs>
<clipPath id="clip0_211_5">
<rect width="48" height="48" fill="white" transform="translate(0.79834)"/>
</clipPath>
</defs>
</svg>
