<svg width="83" height="82" viewBox="0 0 83 82" fill="none" xmlns="http://www.w3.org/2000/svg">
<rect x="1" y="0.5" width="81" height="81" stroke="white"/>
<path d="M44.5002 38.2599C44.5015 43.2693 44.5203 48.2624 44.5149 53.2531L44.4983 58.4093V58.4142C44.5061 60.5528 44.6012 62.5163 44.4827 64.3673C44.3651 66.204 44.0383 67.8635 43.2327 69.3488L43.2278 69.3575L43.2239 69.3663C42.1217 71.6072 40.0049 73.1083 37.4963 73.8429C33.5871 74.7378 29.8875 74.218 27.1614 72.5831H27.1624C25.4674 71.5435 24.1054 69.9715 23.134 68.132L28.425 64.8927L28.5715 65.1466L28.5764 65.1554C29.3662 66.4797 30.0988 67.5065 31.552 68.2208L31.5813 68.2355L31.6116 68.2452C32.3179 68.4861 33.4357 68.6833 34.5432 68.5089C35.6665 68.3321 36.8212 67.7618 37.4602 66.4347L37.4592 66.4337C37.6679 66.0551 37.787 65.5322 37.8606 64.9562C37.9383 64.3477 37.9741 63.6159 37.9895 62.8068C38.0201 61.1986 37.9671 59.193 37.967 57.1544L37.9973 38.2599H44.5002ZM61.6975 37.7872C66.1118 37.7024 68.7869 38.8655 70.7444 41.0519L70.7522 41.0616L70.761 41.0704C71.243 41.5589 71.6492 42.0879 72.3547 43.1613C70.4538 44.3718 70.1794 44.5407 67.3723 46.3575C66.5623 44.9314 65.3589 44.0055 64.0784 43.5763L64.0715 43.5734L64.0647 43.5714L63.8567 43.5128C62.8075 43.2403 61.6455 43.2735 60.6487 43.6456C59.5798 44.0448 58.6754 44.8486 58.3616 46.0958C58.1433 46.8766 58.206 47.5888 58.5051 48.7072L58.5149 48.7443L58.5295 48.7784C59.0084 49.8709 60.0277 50.6058 61.1438 51.1935C62.2454 51.7735 63.6141 52.2895 64.7864 52.8282L64.7961 52.8331L64.8069 52.838C68.3061 54.2569 70.6001 55.7094 72.0872 57.2257C73.4707 58.6365 74.172 60.1187 74.4836 61.7277L74.5413 62.0509L74.5422 62.0597C75.0863 65.0952 74.408 67.0468 74.3186 67.3058L74.3147 67.3165L74.3118 67.3282C73.0887 71.5119 69.0472 73.7423 64.467 74.1827C59.8893 74.6229 54.9732 73.2463 52.2014 70.4415C51.0779 69.1727 50.3949 68.5091 49.762 67.2726C52.3188 65.8021 52.564 65.6605 55.0432 64.2257C55.7849 65.3184 56.5328 66.2105 57.4104 66.9054C58.3987 67.6879 59.5285 68.203 60.9524 68.4991L60.9729 68.504L60.9934 68.506C62.8909 68.7377 64.8627 68.5395 66.2766 67.714C66.9926 67.2959 67.5757 66.7102 67.9133 65.9347C68.2508 65.1595 68.3246 64.2379 68.0999 63.1798L68.094 63.1544L68.0403 62.9767C67.7506 62.1039 67.0986 61.4227 66.2883 60.8527C65.425 60.2454 64.3252 59.7257 63.1506 59.215C60.7665 58.1783 58.0355 57.1586 55.8206 55.4962L55.8098 55.4884L55.7991 55.4816L55.5979 55.3419C53.545 53.8669 52.2536 51.42 51.9065 48.8077C51.5484 46.1127 52.204 43.3044 53.9895 41.2784L53.9973 41.2687L54.0061 41.2579C55.178 39.7826 57.2113 38.6431 59.3928 38.0861L61.6975 37.7872Z" stroke="white"/>
</svg>
