<svg width="65" height="64" viewBox="0 0 65 64" fill="none" xmlns="http://www.w3.org/2000/svg">
<g clip-path="url(#clip0_216_146)">
<path d="M64.5078 63.6001H0.625L21.7949 17.7866L34.4346 27.2134L34.7812 27.4722L35.0117 27.1069L51.4844 1.04932L64.5078 63.6001ZM41.6973 34.7651L40.4043 36.7007L40.4004 36.7065L37.0986 41.8237C36.6715 42.4622 36.2935 43.048 36.0039 43.5259L35.7451 43.9663L35.7432 43.9692C35.5066 44.3952 35.2953 44.8349 35.1094 45.2856L34.9346 45.731C34.669 46.4051 34.5322 47.1244 34.5312 47.8501C34.524 48.602 34.6537 49.3481 34.9121 50.0513L35.0303 50.3501C35.3677 51.1389 35.8658 51.8475 36.4912 52.4292V52.4282C37.7085 53.6272 39.3398 54.2982 41.0391 54.2954H41.0547L41.0713 54.2944L41.1768 54.2856H41.3066V54.2847C43.0166 54.2877 44.6592 53.6183 45.8916 52.4194L45.8926 52.4204C46.5282 51.8352 47.0331 51.1194 47.375 50.3218C47.7144 49.5298 47.885 48.6741 47.876 47.811C47.9009 47.0738 47.7829 46.3398 47.5303 45.6499L47.4141 45.3569C47.123 44.6805 46.7046 44.0686 46.1826 43.5562L45.9521 43.3423C44.9282 42.3106 43.5642 41.7011 42.123 41.6294L45.0977 37.144L45.3115 36.8208L44.9951 36.5962L42.2617 34.6606L41.9258 34.4233L41.6973 34.7651ZM41.1738 45.5981H41.1963C41.4851 45.5985 41.7712 45.6586 42.0371 45.7739C42.3029 45.8892 42.5435 46.0576 42.7441 46.27L42.7529 46.2798L42.7627 46.2886C42.9195 46.4347 43.0526 46.6048 43.1572 46.7925L43.252 46.9858C43.3653 47.2505 43.423 47.5368 43.4209 47.8257C43.4135 48.4292 43.1723 49.0047 42.751 49.4272C42.3298 49.8494 41.7625 50.085 41.1729 50.0854H41.0547C40.5867 50.0598 40.1389 49.8857 39.7764 49.5845L39.6143 49.4351C39.1995 49.0142 38.9648 48.4419 38.9648 47.8442C38.965 47.3214 39.1441 46.818 39.4668 46.4185L39.6143 46.2544C40.0289 45.8338 40.5901 45.5981 41.1738 45.5981ZM27.0303 36.2456L26.8848 36.1255L23.3379 33.1909L22.6826 32.6489V54.1499H27.0303V49.5806L30.0957 53.98L30.2148 54.1519H35.2461L34.7998 53.521L30.5068 47.4448L34.3008 42.1021L34.5332 41.7739L34.2041 41.5435L31.5781 39.6987L31.2598 39.4761L31.0273 39.7866L29.8682 41.3394L29.8613 41.3491L27.0303 45.3979V36.2456Z" stroke="white" stroke-width="0.8"/>
</g>
<defs>
<clipPath id="clip0_216_146">
<rect width="65" height="64" fill="white"/>
</clipPath>
</defs>
</svg>
