<svg width="85" height="84" viewBox="0 0 85 84" fill="none" xmlns="http://www.w3.org/2000/svg">
<path d="M42.4604 51.7847C42.5978 51.7809 42.7337 51.8048 42.8599 51.855L42.9839 51.9146C43.1429 52.0047 43.2729 52.136 43.3599 52.2935L43.4097 52.2798L43.394 52.2896L47.3628 59.3823C47.1472 59.4454 46.9294 59.5068 46.7085 59.562L46.2847 59.6626H46.2837C43.4275 60.3101 40.4535 60.2107 37.6538 59.3794L41.4741 52.5591H41.4839L41.6265 52.2993C41.7977 51.9869 42.1191 51.7984 42.4604 51.7847ZM49.8364 48.2329C49.8935 48.2296 49.963 48.2365 50.0601 48.2534L50.3599 48.3052L50.3813 48.2769L58.2183 49.5894C56.9983 52.6194 54.894 55.2599 52.1333 57.1372L49.104 49.9058L49.1206 49.8901L48.9839 49.5757C48.8975 49.3771 48.8821 49.1566 48.938 48.9497L48.9663 48.8618C49.0538 48.6306 49.2286 48.4385 49.4565 48.3296L49.4575 48.3306C49.5529 48.2852 49.6475 48.2551 49.7368 48.2417L49.8247 48.2339L49.8364 48.2329ZM34.9253 48.2915C35.1749 48.2443 35.4335 48.2952 35.645 48.4321C35.8296 48.5517 35.9657 48.7281 36.0337 48.9312L36.0591 49.02V49.022C36.1059 49.224 36.082 49.4268 36.0034 49.6187L35.8911 49.8921L35.9155 49.9224L32.9038 57.1099C30.1833 55.254 28.0751 52.6501 26.8413 49.6216L34.5845 48.3257L34.6021 48.3521L34.9253 48.2915ZM43.605 41.1333L44.981 42.8325L44.4927 44.9507L42.4956 45.894L40.4966 44.9438L40.0034 42.8325L41.3853 41.1333H43.605ZM33.7065 40.3696L33.6997 40.4087L33.9233 40.6001C34.3155 40.9361 34.3717 41.5117 34.0483 41.9165C33.9439 42.043 33.8155 42.1389 33.6763 42.2007L33.5337 42.2505L33.2358 42.3315L33.228 42.3687L25.647 44.5278C25.4041 41.2575 26.1467 37.9888 27.7817 35.1343L33.7065 40.3696ZM39.4087 34.728L39.3716 34.7505L39.3599 35.021C39.3383 35.5229 38.913 35.9397 38.3794 35.9399C38.1642 35.9399 37.9661 35.8713 37.8013 35.7524L37.5942 35.603L37.5698 35.6108L31.062 31.0493C33.1449 29.1694 35.7398 27.7771 38.7075 27.1108L38.7065 27.1099C39.0893 27.0258 39.473 26.9572 39.8569 26.8989L39.4087 34.728ZM45.1411 26.9009C48.4172 27.4137 51.4509 28.8781 53.8735 31.0562L47.4517 35.5581L47.4214 35.5435L47.1772 35.7192C46.7787 36.0064 46.2301 35.9572 45.8921 35.6147L45.8267 35.5425L45.8237 35.5376L45.7349 35.4106C45.6587 35.2794 45.6184 35.1356 45.6118 34.9878L45.5913 34.5093H45.5776L45.1411 26.9009Z" stroke="white"/>
<mask id="path-2-inside-1_216_270" fill="white">
<path d="M82.705 50.3921L75.7722 20.6443C75.5913 19.8727 75.2364 19.1514 74.7339 18.5344C74.2314 17.9173 73.5943 17.4204 72.8703 17.0808L44.8203 3.83771C44.0089 3.45639 43.1144 3.28049 42.2171 3.32584C41.5035 3.3605 40.8038 3.53447 40.1585 3.83771L12.1085 17.0808C11.3857 17.4221 10.7496 17.9195 10.2474 18.5363C9.74508 19.1531 9.3894 19.8735 9.2066 20.6443L2.2937 50.3986C2.13312 51.0842 2.11506 51.7948 2.24063 52.4874C2.36619 53.18 2.63276 53.8402 3.02417 54.428C3.11714 54.5724 3.22339 54.7102 3.32964 54.848L22.7468 78.7027C23.252 79.3216 23.8914 79.8205 24.6178 80.1624C25.3442 80.5043 26.1391 80.6805 26.9437 80.678L58.0816 80.6715C59.7152 80.6715 61.2558 79.943 62.2785 78.6962L81.689 54.8349C82.1859 54.2177 82.5354 53.4976 82.7113 52.7284C82.8873 51.9591 82.8851 51.1604 82.705 50.3921ZM72.0335 50.0311C71.8277 50.9171 70.8648 51.4552 69.8687 51.2452C69.8621 51.2452 69.8488 51.2452 69.8421 51.2387C69.8289 51.2387 69.8222 51.2321 69.8089 51.2255C69.6695 51.1927 69.4968 51.1665 69.3773 51.1336C68.8062 50.9827 68.3878 50.753 67.8699 50.5562C66.7609 50.1624 65.8378 49.8343 64.9414 49.703C64.4832 49.6702 64.2507 49.8802 63.9984 50.0443C63.8789 50.018 63.5003 49.9524 63.2812 49.9196C61.6742 54.9137 58.2476 59.2449 53.6058 61.9487C53.6855 62.139 53.825 62.5458 53.8847 62.618C53.7785 62.9002 53.6191 63.1627 53.7585 63.5958C54.0839 64.4293 54.6085 65.2496 55.246 66.2274C55.5515 66.6802 55.8703 67.028 56.1492 67.553C56.2156 67.6777 56.3019 67.868 56.3683 67.9993C56.8 68.9115 56.4812 69.9615 55.6511 70.3552C54.8144 70.7555 53.7785 70.3355 53.3269 69.4168C53.2605 69.2855 53.1742 69.1149 53.121 68.9902C52.882 68.4521 52.8023 67.9927 52.6363 67.4677C52.2578 66.3652 51.939 65.453 51.4874 64.6786C51.2285 64.3046 50.9164 64.2586 50.6308 64.1668C50.5777 64.0749 50.3785 63.714 50.2722 63.5302C49.3425 63.878 48.3863 64.1668 47.3902 64.3899C43.0339 65.3677 38.671 64.974 34.7796 63.4908L34.4011 64.1733C34.1156 64.2455 33.8433 64.3243 33.6773 64.5211C33.0664 65.243 32.8207 66.398 32.3757 67.5005C32.2097 68.019 32.13 68.4849 31.891 69.023C31.8378 69.1477 31.7449 69.3183 31.6851 69.443V69.4496L31.6785 69.4561C31.2335 70.3683 30.1976 70.7883 29.3609 70.3946C28.5308 70.0008 28.2187 68.9508 28.6437 68.0387C28.7101 67.9074 28.7898 67.7171 28.8562 67.5924C29.1351 67.074 29.4472 66.7196 29.7593 66.2668C30.3968 65.2824 30.9546 64.403 31.28 63.5696C31.3597 63.294 31.2402 62.9133 31.1339 62.6312L31.4394 61.9093C26.9703 59.2908 23.4441 55.1236 21.7574 49.959L21.0269 50.0836C20.8277 49.9721 20.4359 49.7161 20.064 49.749C19.1675 49.8802 18.2445 50.2083 17.1355 50.6021C16.6175 50.799 16.2058 51.0221 15.6281 51.173C15.5085 51.2058 15.3359 51.2386 15.1964 51.2715C15.1832 51.2715 15.1765 51.278 15.1632 51.2846C15.1566 51.2846 15.1433 51.2846 15.1367 51.2911C14.1406 51.5011 13.1777 50.963 12.9718 50.0771C12.766 49.1911 13.4035 48.2921 14.3929 48.0558C14.3996 48.0558 14.4128 48.0493 14.4195 48.0493C14.4261 48.0493 14.4261 48.0493 14.4328 48.0427C14.5722 48.0099 14.7515 47.964 14.8843 47.9377C15.4687 47.8261 15.9468 47.8524 16.498 47.813C17.6734 47.6883 18.6429 47.5899 19.5062 47.3208C19.7785 47.2093 20.0441 46.8352 20.23 46.599L20.9339 46.3955C20.1437 41.0011 21.4785 35.7118 24.3605 31.4265L23.8226 30.954C23.7894 30.744 23.7429 30.2715 23.4839 29.9958C22.8265 29.3855 21.9898 28.8736 20.9871 28.2633C20.5089 27.9877 20.0707 27.8105 19.5925 27.4562C19.4929 27.384 19.3535 27.2658 19.2472 27.1805C19.2406 27.174 19.2273 27.1674 19.2207 27.1608C18.4171 26.5243 18.2312 25.4283 18.8089 24.713C19.1343 24.3127 19.6324 24.1093 20.1437 24.129C20.5421 24.1421 20.9605 24.2865 21.3125 24.5621C21.4253 24.654 21.5847 24.7721 21.6843 24.8574C22.1359 25.238 22.4082 25.6186 22.7867 26.019C23.6168 26.8524 24.3007 27.5415 25.0511 28.0402C25.4429 28.2699 25.7484 28.178 26.0472 28.1386C26.1468 28.2108 26.4656 28.4405 26.6515 28.5652C29.507 25.5661 33.2656 23.348 37.6218 22.3702C38.6378 22.1405 39.6472 21.9896 40.6566 21.9108L40.6964 21.2086C40.9222 20.9921 41.1679 20.6902 41.241 20.349C41.314 19.4565 41.1945 18.4983 41.055 17.3368C40.9753 16.7986 40.8492 16.3458 40.8226 15.7618C40.816 15.6436 40.8226 15.473 40.8293 15.3352C40.8293 15.3221 40.8226 15.3024 40.8226 15.2893C40.8226 14.2721 41.573 13.4452 42.5027 13.4452C43.4324 13.4452 44.1828 14.2721 44.1828 15.2893C44.1828 15.4336 44.1894 15.6305 44.1894 15.7618C44.1695 16.3458 44.0367 16.7986 43.957 17.3368C43.8175 18.4918 43.6914 19.4565 43.7644 20.349C43.8308 20.7952 44.0964 20.9724 44.3156 21.1758C44.3222 21.294 44.3421 21.6943 44.3554 21.9174C49.6945 22.3833 54.6484 24.7983 58.2941 28.5718L58.9316 28.119C59.1507 28.1321 59.6222 28.1977 59.9476 28.0074C60.698 27.5086 61.382 26.813 62.2121 25.9861C62.5906 25.5858 62.8695 25.2118 63.321 24.8246C63.4207 24.7393 63.58 24.6211 63.6929 24.5293C64.4964 23.8927 65.6187 23.9649 66.1964 24.6802C66.7742 25.3955 66.5882 26.4915 65.7847 27.128C65.6718 27.2199 65.5257 27.3446 65.4128 27.4233C64.9347 27.7711 64.4964 27.9483 64.0183 28.2305C63.0156 28.8408 62.1789 29.3527 61.5214 29.963C61.2093 30.2911 61.2359 30.6061 61.2027 30.9015C61.1097 30.9868 60.7843 31.2755 60.605 31.4265C62.0907 33.6111 63.1576 36.0468 63.7527 38.6124C64.3636 41.2308 64.4566 43.8427 64.1046 46.3561L64.782 46.553C64.9015 46.7237 65.1539 47.1371 65.5058 47.2749C66.3691 47.544 67.3386 47.6424 68.514 47.7671C69.0652 47.813 69.5433 47.7868 70.1277 47.8918C70.2671 47.918 70.473 47.9705 70.6124 48.0033C71.6085 48.2462 72.2394 49.1452 72.0335 50.0311Z"/>
</mask>
<path d="M82.705 50.3921L75.7722 20.6443C75.5913 19.8727 75.2364 19.1514 74.7339 18.5344C74.2314 17.9173 73.5943 17.4204 72.8703 17.0808L44.8203 3.83771C44.0089 3.45639 43.1144 3.28049 42.2171 3.32584C41.5035 3.3605 40.8038 3.53447 40.1585 3.83771L12.1085 17.0808C11.3857 17.4221 10.7496 17.9195 10.2474 18.5363C9.74508 19.1531 9.3894 19.8735 9.2066 20.6443L2.2937 50.3986C2.13312 51.0842 2.11506 51.7948 2.24063 52.4874C2.36619 53.18 2.63276 53.8402 3.02417 54.428C3.11714 54.5724 3.22339 54.7102 3.32964 54.848L22.7468 78.7027C23.252 79.3216 23.8914 79.8205 24.6178 80.1624C25.3442 80.5043 26.1391 80.6805 26.9437 80.678L58.0816 80.6715C59.7152 80.6715 61.2558 79.943 62.2785 78.6962L81.689 54.8349C82.1859 54.2177 82.5354 53.4976 82.7113 52.7284C82.8873 51.9591 82.8851 51.1604 82.705 50.3921ZM72.0335 50.0311C71.8277 50.9171 70.8648 51.4552 69.8687 51.2452C69.8621 51.2452 69.8488 51.2452 69.8421 51.2387C69.8289 51.2387 69.8222 51.2321 69.8089 51.2255C69.6695 51.1927 69.4968 51.1665 69.3773 51.1336C68.8062 50.9827 68.3878 50.753 67.8699 50.5562C66.7609 50.1624 65.8378 49.8343 64.9414 49.703C64.4832 49.6702 64.2507 49.8802 63.9984 50.0443C63.8789 50.018 63.5003 49.9524 63.2812 49.9196C61.6742 54.9137 58.2476 59.2449 53.6058 61.9487C53.6855 62.139 53.825 62.5458 53.8847 62.618C53.7785 62.9002 53.6191 63.1627 53.7585 63.5958C54.0839 64.4293 54.6085 65.2496 55.246 66.2274C55.5515 66.6802 55.8703 67.028 56.1492 67.553C56.2156 67.6777 56.3019 67.868 56.3683 67.9993C56.8 68.9115 56.4812 69.9615 55.6511 70.3552C54.8144 70.7555 53.7785 70.3355 53.3269 69.4168C53.2605 69.2855 53.1742 69.1149 53.121 68.9902C52.882 68.4521 52.8023 67.9927 52.6363 67.4677C52.2578 66.3652 51.939 65.453 51.4874 64.6786C51.2285 64.3046 50.9164 64.2586 50.6308 64.1668C50.5777 64.0749 50.3785 63.714 50.2722 63.5302C49.3425 63.878 48.3863 64.1668 47.3902 64.3899C43.0339 65.3677 38.671 64.974 34.7796 63.4908L34.4011 64.1733C34.1156 64.2455 33.8433 64.3243 33.6773 64.5211C33.0664 65.243 32.8207 66.398 32.3757 67.5005C32.2097 68.019 32.13 68.4849 31.891 69.023C31.8378 69.1477 31.7449 69.3183 31.6851 69.443V69.4496L31.6785 69.4561C31.2335 70.3683 30.1976 70.7883 29.3609 70.3946C28.5308 70.0008 28.2187 68.9508 28.6437 68.0387C28.7101 67.9074 28.7898 67.7171 28.8562 67.5924C29.1351 67.074 29.4472 66.7196 29.7593 66.2668C30.3968 65.2824 30.9546 64.403 31.28 63.5696C31.3597 63.294 31.2402 62.9133 31.1339 62.6312L31.4394 61.9093C26.9703 59.2908 23.4441 55.1236 21.7574 49.959L21.0269 50.0836C20.8277 49.9721 20.4359 49.7161 20.064 49.749C19.1675 49.8802 18.2445 50.2083 17.1355 50.6021C16.6175 50.799 16.2058 51.0221 15.6281 51.173C15.5085 51.2058 15.3359 51.2386 15.1964 51.2715C15.1832 51.2715 15.1765 51.278 15.1632 51.2846C15.1566 51.2846 15.1433 51.2846 15.1367 51.2911C14.1406 51.5011 13.1777 50.963 12.9718 50.0771C12.766 49.1911 13.4035 48.2921 14.3929 48.0558C14.3996 48.0558 14.4128 48.0493 14.4195 48.0493C14.4261 48.0493 14.4261 48.0493 14.4328 48.0427C14.5722 48.0099 14.7515 47.964 14.8843 47.9377C15.4687 47.8261 15.9468 47.8524 16.498 47.813C17.6734 47.6883 18.6429 47.5899 19.5062 47.3208C19.7785 47.2093 20.0441 46.8352 20.23 46.599L20.9339 46.3955C20.1437 41.0011 21.4785 35.7118 24.3605 31.4265L23.8226 30.954C23.7894 30.744 23.7429 30.2715 23.4839 29.9958C22.8265 29.3855 21.9898 28.8736 20.9871 28.2633C20.5089 27.9877 20.0707 27.8105 19.5925 27.4562C19.4929 27.384 19.3535 27.2658 19.2472 27.1805C19.2406 27.174 19.2273 27.1674 19.2207 27.1608C18.4171 26.5243 18.2312 25.4283 18.8089 24.713C19.1343 24.3127 19.6324 24.1093 20.1437 24.129C20.5421 24.1421 20.9605 24.2865 21.3125 24.5621C21.4253 24.654 21.5847 24.7721 21.6843 24.8574C22.1359 25.238 22.4082 25.6186 22.7867 26.019C23.6168 26.8524 24.3007 27.5415 25.0511 28.0402C25.4429 28.2699 25.7484 28.178 26.0472 28.1386C26.1468 28.2108 26.4656 28.4405 26.6515 28.5652C29.507 25.5661 33.2656 23.348 37.6218 22.3702C38.6378 22.1405 39.6472 21.9896 40.6566 21.9108L40.6964 21.2086C40.9222 20.9921 41.1679 20.6902 41.241 20.349C41.314 19.4565 41.1945 18.4983 41.055 17.3368C40.9753 16.7986 40.8492 16.3458 40.8226 15.7618C40.816 15.6436 40.8226 15.473 40.8293 15.3352C40.8293 15.3221 40.8226 15.3024 40.8226 15.2893C40.8226 14.2721 41.573 13.4452 42.5027 13.4452C43.4324 13.4452 44.1828 14.2721 44.1828 15.2893C44.1828 15.4336 44.1894 15.6305 44.1894 15.7618C44.1695 16.3458 44.0367 16.7986 43.957 17.3368C43.8175 18.4918 43.6914 19.4565 43.7644 20.349C43.8308 20.7952 44.0964 20.9724 44.3156 21.1758C44.3222 21.294 44.3421 21.6943 44.3554 21.9174C49.6945 22.3833 54.6484 24.7983 58.2941 28.5718L58.9316 28.119C59.1507 28.1321 59.6222 28.1977 59.9476 28.0074C60.698 27.5086 61.382 26.813 62.2121 25.9861C62.5906 25.5858 62.8695 25.2118 63.321 24.8246C63.4207 24.7393 63.58 24.6211 63.6929 24.5293C64.4964 23.8927 65.6187 23.9649 66.1964 24.6802C66.7742 25.3955 66.5882 26.4915 65.7847 27.128C65.6718 27.2199 65.5257 27.3446 65.4128 27.4233C64.9347 27.7711 64.4964 27.9483 64.0183 28.2305C63.0156 28.8408 62.1789 29.3527 61.5214 29.963C61.2093 30.2911 61.2359 30.6061 61.2027 30.9015C61.1097 30.9868 60.7843 31.2755 60.605 31.4265C62.0907 33.6111 63.1576 36.0468 63.7527 38.6124C64.3636 41.2308 64.4566 43.8427 64.1046 46.3561L64.782 46.553C64.9015 46.7237 65.1539 47.1371 65.5058 47.2749C66.3691 47.544 67.3386 47.6424 68.514 47.7671C69.0652 47.813 69.5433 47.7868 70.1277 47.8918C70.2671 47.918 70.473 47.9705 70.6124 48.0033C71.6085 48.2462 72.2394 49.1452 72.0335 50.0311Z" stroke="white" stroke-width="2" mask="url(#path-2-inside-1_216_270)"/>
<path d="M57.1709 35.1333C57.8602 36.3274 58.4084 37.6231 58.7891 39.0054L58.9629 39.6899V39.6909C59.3402 41.3069 59.4615 42.9224 59.3633 44.4937L51.751 42.3296L51.7441 42.2944L51.4482 42.2124L51.3555 42.1821C50.9335 42.0201 50.6788 41.5962 50.7354 41.1616L50.7529 41.0688V41.0679C50.7999 40.8657 50.911 40.6929 51.0654 40.5581L51.3174 40.3374L51.3096 40.3149L57.1709 35.1333Z" stroke="white"/>
</svg>
