<svg width="50" height="60" viewBox="0 0 50 60" fill="none" xmlns="http://www.w3.org/2000/svg">
<mask id="path-1-inside-1_218_2757" fill="white">
<path d="M22.8178 14.1544C22.7672 14.2984 22.5324 14.2764 22.3988 14.3184C22.2794 14.3804 22.1822 14.4884 22.0445 14.4884C21.919 14.4884 21.7166 14.4384 21.7004 14.3184C21.6761 14.1544 21.9231 13.9863 22.0789 13.9863C22.1802 13.9383 22.2976 13.9123 22.4211 13.9123C22.5344 13.9123 22.6417 13.9343 22.7389 13.9763L22.7328 13.9743C22.7773 13.9923 22.8097 14.0343 22.8097 14.0843C22.8097 14.0903 22.8097 14.0943 22.8077 14.1004V14.1504H22.8158L22.8178 14.1544ZM24.2105 14.1544V14.1004C24.1943 14.0503 24.2429 13.9963 24.2834 13.9763C24.3765 13.9363 24.4858 13.9123 24.6012 13.9123C24.7247 13.9123 24.8421 13.9403 24.9453 13.9883L24.9413 13.9863C25.1012 13.9863 25.3462 14.1544 25.3198 14.3244C25.3057 14.4464 25.1053 14.4884 24.9777 14.4884C24.8381 14.4884 24.7449 14.3804 24.6215 14.3184C24.4899 14.2724 24.253 14.2984 24.2085 14.1564L24.2105 14.1544ZM26.9474 18.111C25.8704 18.7851 24.5972 19.2592 23.2328 19.4432L23.1842 19.4492C21.9575 19.3792 20.8421 18.9532 19.9312 18.273L19.9453 18.283C19.5567 17.949 19.2368 17.6129 19.002 17.4449C18.587 17.1109 18.6377 16.6128 18.8158 16.6128C19.0911 16.6528 19.1417 16.9468 19.3198 17.1129C19.5628 17.2769 19.8644 17.6129 20.2308 17.945C21.0344 18.6011 22.0506 19.0272 23.166 19.1112L23.1842 19.1132C24.5081 18.9992 25.7126 18.5791 26.753 17.929L26.7206 17.949C27.2146 17.6109 27.8462 17.1149 28.3603 16.7808C28.7551 16.4407 28.7368 16.1127 29.0668 16.1127C29.3907 16.1527 29.1538 16.4467 28.6943 16.9428C28.1964 17.3189 27.6275 17.705 27.0385 18.063L26.9494 18.113L26.9474 18.111ZM8.83806 40.7928H8.86235C9.00202 40.7928 9.13968 40.8068 9.27328 40.8308L9.25911 40.8288C10.3603 41.1089 11.2672 41.785 11.836 42.6911L11.8462 42.7091L14.1478 46.8678L14.1559 46.8758C15.081 48.4221 16.0749 49.7603 17.1862 50.9945L17.164 50.9685C18.1559 52.0087 18.8239 53.3609 19.004 54.8611L19.0081 54.8931V54.9091C18.9838 56.5434 17.7672 57.8916 16.1822 58.1417L16.164 58.1437C15.7591 58.2057 15.2895 58.2397 14.8138 58.2397C13.0789 58.2397 11.4555 57.7736 10.0628 56.9595L10.1053 56.9835C7.97368 56.1013 5.5 55.5553 2.90891 55.4792H2.87854C2.12551 55.4292 1.46964 55.0492 1.05466 54.4871L1.05061 54.4811C0.941296 54.133 0.878543 53.733 0.878543 53.3169C0.878543 52.6168 1.05668 51.9587 1.37247 51.3846L1.36235 51.4066V51.3966L1.36842 51.3886C1.45142 51.0125 1.5 50.5784 1.5 50.1344C1.5 49.5863 1.42713 49.0562 1.28947 48.5521L1.2996 48.5941C1.2166 48.294 1.16802 47.948 1.16802 47.5899C1.16802 47.1059 1.25506 46.6438 1.417 46.2157L1.40891 46.2437C1.81377 45.4096 2.41093 45.2435 3.15385 44.9115C4.04049 44.6454 4.81174 44.2434 5.48381 43.7253L5.46761 43.7373H5.47166V43.7313C6.11943 43.0612 6.59717 42.229 7.16194 41.6369C7.55668 41.1389 8.15789 40.8168 8.83603 40.7968H8.84008L8.83806 40.7928ZM36.1943 40.6708C36.1923 40.7048 36.1923 40.7468 36.1923 40.7888C36.1923 42.275 37.1012 43.5513 38.4008 44.1054L38.4251 44.1154C38.5223 44.1214 38.6356 44.1254 38.749 44.1254C40.4312 44.1254 41.9372 43.3832 42.9494 42.211L42.9555 42.203L43.4899 42.179C43.5972 42.163 43.7206 42.155 43.8462 42.155C44.5364 42.155 45.166 42.4191 45.6336 42.8511L45.6316 42.8491L45.6397 42.8571C46.1437 43.4592 46.4939 44.2034 46.6255 45.0215L46.6296 45.0475C46.7409 46.0577 47.1113 46.9678 47.6761 47.728L47.666 47.712C48.5081 48.4241 49.0931 49.4122 49.2713 50.5344L49.2753 50.5604L49.2834 50.5424V50.5864L49.2753 50.5564C49.2368 51.2105 48.8077 51.5466 48.0162 52.0447C45.6194 53.0388 43.5607 54.3611 41.7875 55.9813L41.8016 55.9693C40.5709 57.5536 38.7632 58.6478 36.6943 58.9418L36.6518 58.9458C36.502 58.9658 36.3279 58.9778 36.1518 58.9778C34.5972 58.9778 33.2611 58.0497 32.6781 56.7255L32.668 56.7015L32.6559 56.6934C32.4676 56.1214 32.3603 55.4632 32.3603 54.7811C32.3603 53.949 32.5202 53.1549 32.8138 52.4247L32.7976 52.4687C33.2713 51.1325 33.6781 49.5363 33.9474 47.892L33.9696 47.726C34.002 46.1017 34.1802 44.5394 34.4919 43.0252L34.4636 43.1912C34.6356 42.155 35.2348 41.2829 36.0709 40.7408L36.085 40.7328L36.1984 40.6788L36.1943 40.6708ZM30.666 18.279C31.8806 22.5738 33.3765 26.2844 35.2146 29.795L35.0547 29.4609C36.2956 31.6413 37.2611 34.1717 37.8138 36.8521L37.8421 37.0202C37.8603 37.0202 37.8826 37.0202 37.9049 37.0202C38.3441 37.0202 38.7692 37.0782 39.1741 37.1882L39.1397 37.1802C39.3623 36.3901 39.4899 35.4839 39.4899 34.5478C39.4899 31.6953 38.3016 29.1149 36.3866 27.2685L36.3846 27.2665C35.8279 26.7665 35.7976 26.4284 36.0729 26.4284C38.0385 28.2487 39.4919 30.5851 40.2126 33.2175L40.2368 33.3195C40.417 33.9777 40.5202 34.7338 40.5202 35.5139C40.5202 36.216 40.4372 36.9002 40.2794 37.5543L40.2915 37.4942C40.4413 37.5703 40.6154 37.6283 40.7996 37.6603L40.8117 37.6623C43.4231 38.9965 44.3866 40.0067 43.9231 41.5049V41.3969C43.7713 41.3889 43.6194 41.3969 43.4676 41.3969H43.4271C43.8097 40.2287 42.9676 39.3346 40.7328 38.3364C38.419 37.3362 36.5688 37.4963 36.2551 39.4986C36.2328 39.5966 36.2166 39.7106 36.2105 39.8286V39.8346C36.0628 39.8946 35.8866 39.9507 35.7045 39.9907L35.6822 39.9947C34.6538 40.6668 33.9211 41.7129 33.6802 42.9332L33.6761 42.9612C33.3765 44.3514 33.1883 45.9617 33.1579 47.6079V47.6319V47.6399C32.9737 48.9142 32.6923 50.0543 32.3117 51.1465L32.3522 51.0145C30.3623 52.6228 27.7955 53.5949 24.996 53.5949C22.7085 53.5949 20.5749 52.9448 18.7753 51.8206L18.8239 51.8486C18.5283 51.3426 18.1903 50.9045 17.8057 50.5144L17.8077 50.5164C17.6113 50.1964 17.3806 49.9223 17.1154 49.6863L17.1113 49.6843C17.5304 49.6843 17.9352 49.6223 18.3178 49.5083L18.2875 49.5163C18.6518 49.3462 18.9312 49.0522 19.0789 48.6921L19.083 48.6821C19.1194 48.4961 19.1417 48.284 19.1417 48.066C19.1417 47.1759 18.7874 46.3697 18.2085 45.7736L18.2105 45.7756C16.9575 44.2534 15.4595 42.9852 13.7652 42.015L13.6883 41.975C12.33 41.1989 11.3016 39.9847 10.7935 38.5304L10.7794 38.4864C10.5911 37.8503 10.4818 37.1182 10.4818 36.3621C10.4818 35.6559 10.5769 34.9718 10.753 34.3197L10.7409 34.3737C11.504 31.7453 12.6053 29.4509 14.0202 27.3806L13.9636 27.4666C14.2348 27.3046 14.0567 27.8046 12.9312 29.901C11.9717 31.3272 11.3988 33.0815 11.3988 34.9678C11.3988 36.6481 11.8522 38.2224 12.6457 39.5806L12.6215 39.5366C12.7267 36.9182 13.3198 34.4617 14.3097 32.2174L14.2591 32.3474C16.3947 28.5428 18.0121 24.124 18.8644 19.4412L18.9049 19.1792C19.0263 19.2692 19.4534 19.5173 19.6356 19.6833C20.1862 20.0153 20.5972 20.5154 21.1275 20.8455C21.668 21.3656 22.4089 21.6856 23.2227 21.6856C23.2652 21.6856 23.3077 21.6856 23.3502 21.6836H23.3441C23.4433 21.6916 23.5344 21.6996 23.6215 21.6996C24.5506 21.6816 25.417 21.4356 26.17 21.0155L26.1437 21.0295C26.8765 20.6954 27.4595 20.1954 28.0162 20.0293H28.0283C29.1113 19.7393 30.0182 19.1212 30.6599 18.291L30.668 18.279H30.666ZM23.583 12.9242C23.5891 12.9242 23.5951 12.9242 23.6012 12.9242C24.753 12.9242 25.8158 13.2982 26.6721 13.9303L26.6579 13.9203C27.4231 14.3884 28.3057 14.7865 29.2389 15.0685L29.3198 15.0885H29.3279C29.8259 15.3086 30.2368 15.6506 30.5304 16.0767L30.5364 16.0867V15.7586C30.6296 15.9427 30.6862 16.1607 30.6862 16.3907C30.6862 16.5868 30.6457 16.7728 30.5749 16.9428L30.5789 16.9328C29.996 17.947 29.0506 18.7011 27.9211 19.0292L27.8887 19.0372V19.0412C27.2105 19.3792 26.6215 19.8733 25.9291 20.2034C25.2206 20.6234 24.3684 20.8715 23.4555 20.8715C23.4251 20.8715 23.3947 20.8715 23.3644 20.8715H23.3684C23.3239 20.8735 23.2713 20.8755 23.2186 20.8755C22.8664 20.8755 22.5263 20.8135 22.2146 20.6974L22.2348 20.7035C21.913 20.5294 21.6478 20.3654 21.3907 20.1894L21.419 20.2094C20.9595 19.8113 20.4534 19.4292 19.9231 19.0792L19.8704 19.0472V19.0352H19.8583C19.0992 18.6371 18.502 18.027 18.1336 17.2829L18.1235 17.2589C18.0688 17.1249 18.0385 16.9688 18.0385 16.8068C18.0385 16.3707 18.2652 15.9867 18.6073 15.7626L18.6113 15.7606C19.1781 15.4226 19.5729 15.0825 19.834 14.9205C20.0972 14.7365 20.1964 14.6664 20.2794 14.5924H20.2834V14.5844C20.8259 13.9063 21.5445 13.3862 22.3725 13.0922L22.4049 13.0822C22.7571 12.9822 23.1619 12.9242 23.581 12.9202L23.583 12.9242ZM20.1174 8.65944H20.2085C20.5891 8.66745 20.9393 8.79346 21.2227 8.9995L21.2186 8.9955C21.581 9.31355 21.8765 9.69962 22.0789 10.1357L22.087 10.1577C22.3158 10.6478 22.4575 11.2179 22.4737 11.818V11.824V11.834C22.4818 11.926 22.4858 12.032 22.4858 12.138C22.4858 12.264 22.4798 12.3901 22.4676 12.5141L22.4696 12.4981V12.6981C22.3947 12.7161 22.3279 12.7421 22.2591 12.7581C21.8725 12.9162 21.5466 13.0842 21.2368 13.2742L21.2652 13.2582C21.2814 13.1482 21.2895 13.0222 21.2895 12.8941C21.2895 12.7881 21.2834 12.6821 21.2713 12.5781L21.2733 12.5901V12.5521C21.2368 12.244 21.164 11.962 21.0567 11.6959L21.0648 11.718C20.9818 11.4539 20.836 11.2299 20.6458 11.0518C20.5344 10.9518 20.3866 10.8898 20.2227 10.8898C20.2085 10.8898 20.1943 10.8898 20.1802 10.8918H20.1822H20.1296C19.9211 10.9138 19.747 11.0418 19.6599 11.2179L19.6579 11.2219C19.502 11.4079 19.3947 11.6379 19.3543 11.89V11.898C19.3077 12.07 19.2834 12.268 19.2834 12.4721C19.2834 12.5601 19.2874 12.6481 19.2976 12.7341V12.7241V12.7621C19.33 13.0702 19.4028 13.3542 19.5081 13.6183L19.5 13.5963C19.585 13.8603 19.7287 14.0863 19.919 14.2664C19.9433 14.2904 19.9717 14.3104 20.004 14.3264H20.0061C19.8381 14.4324 19.6923 14.5444 19.5587 14.6684L19.5607 14.6664C19.4696 14.7465 19.3583 14.8065 19.2348 14.8345L19.2287 14.8365C18.9798 14.5424 18.749 14.2124 18.5506 13.8643L18.5344 13.8323C18.3057 13.3422 18.164 12.7741 18.1417 12.172V12.164C18.1336 12.068 18.1296 11.956 18.1296 11.842C18.1296 11.3599 18.2085 10.8958 18.3522 10.4617L18.3441 10.4937C18.4939 9.97766 18.7389 9.53159 19.0648 9.15152L19.0607 9.15753C19.3178 8.85748 19.6943 8.66744 20.1174 8.65744H20.1194L20.1174 8.65944ZM27.6113 8.51142H27.6437C27.6457 8.51142 27.6478 8.51142 27.6518 8.51142C28.2085 8.51142 28.7186 8.69745 29.1275 9.0095L29.1215 9.0055C29.585 9.35956 29.9575 9.80563 30.2186 10.3157L30.2287 10.3377C30.4737 10.8698 30.6255 11.4879 30.6478 12.14V12.148C30.6478 12.098 30.6619 12.048 30.6619 11.998V12.26L30.6518 12.208L30.6417 12.148C30.6356 12.7881 30.498 13.3922 30.251 13.9423L30.2632 13.9143C30.1377 14.2404 29.9555 14.5204 29.7247 14.7525C29.664 14.7165 29.5891 14.6824 29.5142 14.6524L29.502 14.6484C29.2287 14.5644 28.9899 14.4504 28.7733 14.3104L28.7834 14.3164C28.6275 14.2524 28.4413 14.1964 28.249 14.1544L28.2267 14.1504C28.3907 13.9983 28.5425 13.8363 28.6822 13.6643L28.6903 13.6543C28.8178 13.3582 28.8968 13.0162 28.913 12.6561V12.6501V12.6001C28.913 12.5841 28.913 12.5681 28.913 12.5501C28.913 12.21 28.8563 11.884 28.751 11.5799L28.7571 11.6019C28.6296 11.2839 28.4737 11.0098 28.2874 10.7598L28.2955 10.7698C28.1194 10.5938 27.8866 10.4737 27.6255 10.4397H27.6194H27.5789C27.5769 10.4397 27.5729 10.4397 27.5709 10.4397C27.3036 10.4397 27.0648 10.5698 26.919 10.7678L26.917 10.7698C26.6822 10.9958 26.504 11.2759 26.4028 11.5899L26.3988 11.6039C26.2713 11.898 26.1883 12.24 26.1721 12.5961V12.6021V12.6501C26.1761 12.8901 26.1943 13.1222 26.2267 13.3482L26.2227 13.3182C25.7348 13.1502 25.1154 12.9802 24.6862 12.8141C24.6619 12.6681 24.6458 12.4961 24.6417 12.3201V12.3141V12.264C24.6397 12.224 24.6397 12.178 24.6397 12.132C24.6397 11.4839 24.7794 10.8698 25.0324 10.3157L25.0202 10.3437C25.2348 9.78563 25.6134 9.32755 26.0972 9.0175L26.1073 9.0115C26.5202 8.69945 27.0445 8.51142 27.6113 8.51142ZM26.2733 0C25.8806 0 25.4757 0.0200034 25.0587 0.0520087C14.3684 0.884147 17.2045 12.068 17.0405 15.7946C16.9393 18.6471 15.9595 21.2535 14.3583 23.3799L14.3846 23.3439C11.5364 26.5484 9.21255 30.293 7.60121 34.3917L7.51417 34.6458C6.9919 36.016 6.68826 37.5983 6.68826 39.2505C6.68826 39.8206 6.7247 40.3827 6.79352 40.9328L6.78745 40.8668C6.67409 40.9588 6.57895 41.0708 6.51215 41.1989L6.51012 41.2049C5.85223 41.875 5.37247 42.7051 4.83198 43.3012C4.25911 43.7353 3.58704 44.0773 2.8583 44.2894L2.81579 44.2994C1.87652 44.5774 1.11134 45.1835 0.639676 45.9817L0.629554 45.9997C0.419028 46.4237 0.295546 46.9218 0.295546 47.4499C0.295546 47.4699 0.295546 47.4879 0.295546 47.5079C0.299595 47.984 0.348178 48.4441 0.44332 48.8921L0.435223 48.8461C0.548583 49.2842 0.61336 49.7883 0.61336 50.3064C0.61336 50.6464 0.58502 50.9805 0.530365 51.3065L0.534413 51.2705C0.196356 51.8966 0 52.6408 0 53.4309C0 53.987 0.0971662 54.5191 0.277328 55.0132L0.267206 54.9812C0.819838 55.7573 1.65587 56.3054 2.62348 56.4794L2.64575 56.4834C5.2247 56.6974 7.60729 57.2295 9.85425 58.0437L9.66397 57.9837C11.0769 58.8138 12.7794 59.3039 14.5951 59.3039C15.1903 59.3039 15.7733 59.2519 16.3401 59.1499L16.2814 59.1579C17.6316 58.8558 18.7328 57.9857 19.3259 56.8195L19.3381 56.7935C20.8239 56.7855 22.4494 56.1214 25.0547 55.9593C26.8219 55.8153 29.0364 56.6274 31.5729 56.4594C31.6478 56.7775 31.747 57.0555 31.8725 57.3176L31.8603 57.2915L31.8684 57.2995C32.6457 58.9078 34.2773 60 36.168 60C36.332 60 36.4939 59.992 36.6538 59.976L36.6336 59.978C38.9636 59.6379 40.9636 58.4417 42.3279 56.7315L42.3421 56.7135C44.0486 55.1772 46.0405 53.911 48.2227 53.0068L48.3583 52.9568C49.2328 52.5748 49.8603 51.7866 49.998 50.8385L50 50.8245C49.8806 49.4362 49.2065 48.226 48.2024 47.3919L48.1943 47.3859V47.1439L48.1862 47.1359C47.753 46.4757 47.4494 45.6916 47.334 44.8515L47.33 44.8215C47.2227 43.7953 46.7672 42.8891 46.085 42.207H46.0769C45.9271 42.073 45.7652 42.039 45.6012 41.869C45.4676 41.775 45.3016 41.7169 45.1215 41.709C45.5162 40.5047 45.7429 39.1205 45.7429 37.6823C45.7429 35.802 45.3522 34.0117 44.6478 32.3874L44.6822 32.4754C43.2571 29.1309 41.4049 26.2524 39.1518 23.736L39.1802 23.77C36.9433 21.6056 35.4798 18.6671 35.2368 15.3946L35.2348 15.3526C35.3016 9.97366 35.832 0.0220038 26.2692 0.00800147L26.2733 0Z"/>
</mask>
<path d="M22.8178 14.1544C22.7672 14.2984 22.5324 14.2764 22.3988 14.3184C22.2794 14.3804 22.1822 14.4884 22.0445 14.4884C21.919 14.4884 21.7166 14.4384 21.7004 14.3184C21.6761 14.1544 21.9231 13.9863 22.0789 13.9863C22.1802 13.9383 22.2976 13.9123 22.4211 13.9123C22.5344 13.9123 22.6417 13.9343 22.7389 13.9763L22.7328 13.9743C22.7773 13.9923 22.8097 14.0343 22.8097 14.0843C22.8097 14.0903 22.8097 14.0943 22.8077 14.1004V14.1504H22.8158L22.8178 14.1544ZM24.2105 14.1544V14.1004C24.1943 14.0503 24.2429 13.9963 24.2834 13.9763C24.3765 13.9363 24.4858 13.9123 24.6012 13.9123C24.7247 13.9123 24.8421 13.9403 24.9453 13.9883L24.9413 13.9863C25.1012 13.9863 25.3462 14.1544 25.3198 14.3244C25.3057 14.4464 25.1053 14.4884 24.9777 14.4884C24.8381 14.4884 24.7449 14.3804 24.6215 14.3184C24.4899 14.2724 24.253 14.2984 24.2085 14.1564L24.2105 14.1544ZM26.9474 18.111C25.8704 18.7851 24.5972 19.2592 23.2328 19.4432L23.1842 19.4492C21.9575 19.3792 20.8421 18.9532 19.9312 18.273L19.9453 18.283C19.5567 17.949 19.2368 17.6129 19.002 17.4449C18.587 17.1109 18.6377 16.6128 18.8158 16.6128C19.0911 16.6528 19.1417 16.9468 19.3198 17.1129C19.5628 17.2769 19.8644 17.6129 20.2308 17.945C21.0344 18.6011 22.0506 19.0272 23.166 19.1112L23.1842 19.1132C24.5081 18.9992 25.7126 18.5791 26.753 17.929L26.7206 17.949C27.2146 17.6109 27.8462 17.1149 28.3603 16.7808C28.7551 16.4407 28.7368 16.1127 29.0668 16.1127C29.3907 16.1527 29.1538 16.4467 28.6943 16.9428C28.1964 17.3189 27.6275 17.705 27.0385 18.063L26.9494 18.113L26.9474 18.111ZM8.83806 40.7928H8.86235C9.00202 40.7928 9.13968 40.8068 9.27328 40.8308L9.25911 40.8288C10.3603 41.1089 11.2672 41.785 11.836 42.6911L11.8462 42.7091L14.1478 46.8678L14.1559 46.8758C15.081 48.4221 16.0749 49.7603 17.1862 50.9945L17.164 50.9685C18.1559 52.0087 18.8239 53.3609 19.004 54.8611L19.0081 54.8931V54.9091C18.9838 56.5434 17.7672 57.8916 16.1822 58.1417L16.164 58.1437C15.7591 58.2057 15.2895 58.2397 14.8138 58.2397C13.0789 58.2397 11.4555 57.7736 10.0628 56.9595L10.1053 56.9835C7.97368 56.1013 5.5 55.5553 2.90891 55.4792H2.87854C2.12551 55.4292 1.46964 55.0492 1.05466 54.4871L1.05061 54.4811C0.941296 54.133 0.878543 53.733 0.878543 53.3169C0.878543 52.6168 1.05668 51.9587 1.37247 51.3846L1.36235 51.4066V51.3966L1.36842 51.3886C1.45142 51.0125 1.5 50.5784 1.5 50.1344C1.5 49.5863 1.42713 49.0562 1.28947 48.5521L1.2996 48.5941C1.2166 48.294 1.16802 47.948 1.16802 47.5899C1.16802 47.1059 1.25506 46.6438 1.417 46.2157L1.40891 46.2437C1.81377 45.4096 2.41093 45.2435 3.15385 44.9115C4.04049 44.6454 4.81174 44.2434 5.48381 43.7253L5.46761 43.7373H5.47166V43.7313C6.11943 43.0612 6.59717 42.229 7.16194 41.6369C7.55668 41.1389 8.15789 40.8168 8.83603 40.7968H8.84008L8.83806 40.7928ZM36.1943 40.6708C36.1923 40.7048 36.1923 40.7468 36.1923 40.7888C36.1923 42.275 37.1012 43.5513 38.4008 44.1054L38.4251 44.1154C38.5223 44.1214 38.6356 44.1254 38.749 44.1254C40.4312 44.1254 41.9372 43.3832 42.9494 42.211L42.9555 42.203L43.4899 42.179C43.5972 42.163 43.7206 42.155 43.8462 42.155C44.5364 42.155 45.166 42.4191 45.6336 42.8511L45.6316 42.8491L45.6397 42.8571C46.1437 43.4592 46.4939 44.2034 46.6255 45.0215L46.6296 45.0475C46.7409 46.0577 47.1113 46.9678 47.6761 47.728L47.666 47.712C48.5081 48.4241 49.0931 49.4122 49.2713 50.5344L49.2753 50.5604L49.2834 50.5424V50.5864L49.2753 50.5564C49.2368 51.2105 48.8077 51.5466 48.0162 52.0447C45.6194 53.0388 43.5607 54.3611 41.7875 55.9813L41.8016 55.9693C40.5709 57.5536 38.7632 58.6478 36.6943 58.9418L36.6518 58.9458C36.502 58.9658 36.3279 58.9778 36.1518 58.9778C34.5972 58.9778 33.2611 58.0497 32.6781 56.7255L32.668 56.7015L32.6559 56.6934C32.4676 56.1214 32.3603 55.4632 32.3603 54.7811C32.3603 53.949 32.5202 53.1549 32.8138 52.4247L32.7976 52.4687C33.2713 51.1325 33.6781 49.5363 33.9474 47.892L33.9696 47.726C34.002 46.1017 34.1802 44.5394 34.4919 43.0252L34.4636 43.1912C34.6356 42.155 35.2348 41.2829 36.0709 40.7408L36.085 40.7328L36.1984 40.6788L36.1943 40.6708ZM30.666 18.279C31.8806 22.5738 33.3765 26.2844 35.2146 29.795L35.0547 29.4609C36.2956 31.6413 37.2611 34.1717 37.8138 36.8521L37.8421 37.0202C37.8603 37.0202 37.8826 37.0202 37.9049 37.0202C38.3441 37.0202 38.7692 37.0782 39.1741 37.1882L39.1397 37.1802C39.3623 36.3901 39.4899 35.4839 39.4899 34.5478C39.4899 31.6953 38.3016 29.1149 36.3866 27.2685L36.3846 27.2665C35.8279 26.7665 35.7976 26.4284 36.0729 26.4284C38.0385 28.2487 39.4919 30.5851 40.2126 33.2175L40.2368 33.3195C40.417 33.9777 40.5202 34.7338 40.5202 35.5139C40.5202 36.216 40.4372 36.9002 40.2794 37.5543L40.2915 37.4942C40.4413 37.5703 40.6154 37.6283 40.7996 37.6603L40.8117 37.6623C43.4231 38.9965 44.3866 40.0067 43.9231 41.5049V41.3969C43.7713 41.3889 43.6194 41.3969 43.4676 41.3969H43.4271C43.8097 40.2287 42.9676 39.3346 40.7328 38.3364C38.419 37.3362 36.5688 37.4963 36.2551 39.4986C36.2328 39.5966 36.2166 39.7106 36.2105 39.8286V39.8346C36.0628 39.8946 35.8866 39.9507 35.7045 39.9907L35.6822 39.9947C34.6538 40.6668 33.9211 41.7129 33.6802 42.9332L33.6761 42.9612C33.3765 44.3514 33.1883 45.9617 33.1579 47.6079V47.6319V47.6399C32.9737 48.9142 32.6923 50.0543 32.3117 51.1465L32.3522 51.0145C30.3623 52.6228 27.7955 53.5949 24.996 53.5949C22.7085 53.5949 20.5749 52.9448 18.7753 51.8206L18.8239 51.8486C18.5283 51.3426 18.1903 50.9045 17.8057 50.5144L17.8077 50.5164C17.6113 50.1964 17.3806 49.9223 17.1154 49.6863L17.1113 49.6843C17.5304 49.6843 17.9352 49.6223 18.3178 49.5083L18.2875 49.5163C18.6518 49.3462 18.9312 49.0522 19.0789 48.6921L19.083 48.6821C19.1194 48.4961 19.1417 48.284 19.1417 48.066C19.1417 47.1759 18.7874 46.3697 18.2085 45.7736L18.2105 45.7756C16.9575 44.2534 15.4595 42.9852 13.7652 42.015L13.6883 41.975C12.33 41.1989 11.3016 39.9847 10.7935 38.5304L10.7794 38.4864C10.5911 37.8503 10.4818 37.1182 10.4818 36.3621C10.4818 35.6559 10.5769 34.9718 10.753 34.3197L10.7409 34.3737C11.504 31.7453 12.6053 29.4509 14.0202 27.3806L13.9636 27.4666C14.2348 27.3046 14.0567 27.8046 12.9312 29.901C11.9717 31.3272 11.3988 33.0815 11.3988 34.9678C11.3988 36.6481 11.8522 38.2224 12.6457 39.5806L12.6215 39.5366C12.7267 36.9182 13.3198 34.4617 14.3097 32.2174L14.2591 32.3474C16.3947 28.5428 18.0121 24.124 18.8644 19.4412L18.9049 19.1792C19.0263 19.2692 19.4534 19.5173 19.6356 19.6833C20.1862 20.0153 20.5972 20.5154 21.1275 20.8455C21.668 21.3656 22.4089 21.6856 23.2227 21.6856C23.2652 21.6856 23.3077 21.6856 23.3502 21.6836H23.3441C23.4433 21.6916 23.5344 21.6996 23.6215 21.6996C24.5506 21.6816 25.417 21.4356 26.17 21.0155L26.1437 21.0295C26.8765 20.6954 27.4595 20.1954 28.0162 20.0293H28.0283C29.1113 19.7393 30.0182 19.1212 30.6599 18.291L30.668 18.279H30.666ZM23.583 12.9242C23.5891 12.9242 23.5951 12.9242 23.6012 12.9242C24.753 12.9242 25.8158 13.2982 26.6721 13.9303L26.6579 13.9203C27.4231 14.3884 28.3057 14.7865 29.2389 15.0685L29.3198 15.0885H29.3279C29.8259 15.3086 30.2368 15.6506 30.5304 16.0767L30.5364 16.0867V15.7586C30.6296 15.9427 30.6862 16.1607 30.6862 16.3907C30.6862 16.5868 30.6457 16.7728 30.5749 16.9428L30.5789 16.9328C29.996 17.947 29.0506 18.7011 27.9211 19.0292L27.8887 19.0372V19.0412C27.2105 19.3792 26.6215 19.8733 25.9291 20.2034C25.2206 20.6234 24.3684 20.8715 23.4555 20.8715C23.4251 20.8715 23.3947 20.8715 23.3644 20.8715H23.3684C23.3239 20.8735 23.2713 20.8755 23.2186 20.8755C22.8664 20.8755 22.5263 20.8135 22.2146 20.6974L22.2348 20.7035C21.913 20.5294 21.6478 20.3654 21.3907 20.1894L21.419 20.2094C20.9595 19.8113 20.4534 19.4292 19.9231 19.0792L19.8704 19.0472V19.0352H19.8583C19.0992 18.6371 18.502 18.027 18.1336 17.2829L18.1235 17.2589C18.0688 17.1249 18.0385 16.9688 18.0385 16.8068C18.0385 16.3707 18.2652 15.9867 18.6073 15.7626L18.6113 15.7606C19.1781 15.4226 19.5729 15.0825 19.834 14.9205C20.0972 14.7365 20.1964 14.6664 20.2794 14.5924H20.2834V14.5844C20.8259 13.9063 21.5445 13.3862 22.3725 13.0922L22.4049 13.0822C22.7571 12.9822 23.1619 12.9242 23.581 12.9202L23.583 12.9242ZM20.1174 8.65944H20.2085C20.5891 8.66745 20.9393 8.79346 21.2227 8.9995L21.2186 8.9955C21.581 9.31355 21.8765 9.69962 22.0789 10.1357L22.087 10.1577C22.3158 10.6478 22.4575 11.2179 22.4737 11.818V11.824V11.834C22.4818 11.926 22.4858 12.032 22.4858 12.138C22.4858 12.264 22.4798 12.3901 22.4676 12.5141L22.4696 12.4981V12.6981C22.3947 12.7161 22.3279 12.7421 22.2591 12.7581C21.8725 12.9162 21.5466 13.0842 21.2368 13.2742L21.2652 13.2582C21.2814 13.1482 21.2895 13.0222 21.2895 12.8941C21.2895 12.7881 21.2834 12.6821 21.2713 12.5781L21.2733 12.5901V12.5521C21.2368 12.244 21.164 11.962 21.0567 11.6959L21.0648 11.718C20.9818 11.4539 20.836 11.2299 20.6458 11.0518C20.5344 10.9518 20.3866 10.8898 20.2227 10.8898C20.2085 10.8898 20.1943 10.8898 20.1802 10.8918H20.1822H20.1296C19.9211 10.9138 19.747 11.0418 19.6599 11.2179L19.6579 11.2219C19.502 11.4079 19.3947 11.6379 19.3543 11.89V11.898C19.3077 12.07 19.2834 12.268 19.2834 12.4721C19.2834 12.5601 19.2874 12.6481 19.2976 12.7341V12.7241V12.7621C19.33 13.0702 19.4028 13.3542 19.5081 13.6183L19.5 13.5963C19.585 13.8603 19.7287 14.0863 19.919 14.2664C19.9433 14.2904 19.9717 14.3104 20.004 14.3264H20.0061C19.8381 14.4324 19.6923 14.5444 19.5587 14.6684L19.5607 14.6664C19.4696 14.7465 19.3583 14.8065 19.2348 14.8345L19.2287 14.8365C18.9798 14.5424 18.749 14.2124 18.5506 13.8643L18.5344 13.8323C18.3057 13.3422 18.164 12.7741 18.1417 12.172V12.164C18.1336 12.068 18.1296 11.956 18.1296 11.842C18.1296 11.3599 18.2085 10.8958 18.3522 10.4617L18.3441 10.4937C18.4939 9.97766 18.7389 9.53159 19.0648 9.15152L19.0607 9.15753C19.3178 8.85748 19.6943 8.66744 20.1174 8.65744H20.1194L20.1174 8.65944ZM27.6113 8.51142H27.6437C27.6457 8.51142 27.6478 8.51142 27.6518 8.51142C28.2085 8.51142 28.7186 8.69745 29.1275 9.0095L29.1215 9.0055C29.585 9.35956 29.9575 9.80563 30.2186 10.3157L30.2287 10.3377C30.4737 10.8698 30.6255 11.4879 30.6478 12.14V12.148C30.6478 12.098 30.6619 12.048 30.6619 11.998V12.26L30.6518 12.208L30.6417 12.148C30.6356 12.7881 30.498 13.3922 30.251 13.9423L30.2632 13.9143C30.1377 14.2404 29.9555 14.5204 29.7247 14.7525C29.664 14.7165 29.5891 14.6824 29.5142 14.6524L29.502 14.6484C29.2287 14.5644 28.9899 14.4504 28.7733 14.3104L28.7834 14.3164C28.6275 14.2524 28.4413 14.1964 28.249 14.1544L28.2267 14.1504C28.3907 13.9983 28.5425 13.8363 28.6822 13.6643L28.6903 13.6543C28.8178 13.3582 28.8968 13.0162 28.913 12.6561V12.6501V12.6001C28.913 12.5841 28.913 12.5681 28.913 12.5501C28.913 12.21 28.8563 11.884 28.751 11.5799L28.7571 11.6019C28.6296 11.2839 28.4737 11.0098 28.2874 10.7598L28.2955 10.7698C28.1194 10.5938 27.8866 10.4737 27.6255 10.4397H27.6194H27.5789C27.5769 10.4397 27.5729 10.4397 27.5709 10.4397C27.3036 10.4397 27.0648 10.5698 26.919 10.7678L26.917 10.7698C26.6822 10.9958 26.504 11.2759 26.4028 11.5899L26.3988 11.6039C26.2713 11.898 26.1883 12.24 26.1721 12.5961V12.6021V12.6501C26.1761 12.8901 26.1943 13.1222 26.2267 13.3482L26.2227 13.3182C25.7348 13.1502 25.1154 12.9802 24.6862 12.8141C24.6619 12.6681 24.6458 12.4961 24.6417 12.3201V12.3141V12.264C24.6397 12.224 24.6397 12.178 24.6397 12.132C24.6397 11.4839 24.7794 10.8698 25.0324 10.3157L25.0202 10.3437C25.2348 9.78563 25.6134 9.32755 26.0972 9.0175L26.1073 9.0115C26.5202 8.69945 27.0445 8.51142 27.6113 8.51142ZM26.2733 0C25.8806 0 25.4757 0.0200034 25.0587 0.0520087C14.3684 0.884147 17.2045 12.068 17.0405 15.7946C16.9393 18.6471 15.9595 21.2535 14.3583 23.3799L14.3846 23.3439C11.5364 26.5484 9.21255 30.293 7.60121 34.3917L7.51417 34.6458C6.9919 36.016 6.68826 37.5983 6.68826 39.2505C6.68826 39.8206 6.7247 40.3827 6.79352 40.9328L6.78745 40.8668C6.67409 40.9588 6.57895 41.0708 6.51215 41.1989L6.51012 41.2049C5.85223 41.875 5.37247 42.7051 4.83198 43.3012C4.25911 43.7353 3.58704 44.0773 2.8583 44.2894L2.81579 44.2994C1.87652 44.5774 1.11134 45.1835 0.639676 45.9817L0.629554 45.9997C0.419028 46.4237 0.295546 46.9218 0.295546 47.4499C0.295546 47.4699 0.295546 47.4879 0.295546 47.5079C0.299595 47.984 0.348178 48.4441 0.44332 48.8921L0.435223 48.8461C0.548583 49.2842 0.61336 49.7883 0.61336 50.3064C0.61336 50.6464 0.58502 50.9805 0.530365 51.3065L0.534413 51.2705C0.196356 51.8966 0 52.6408 0 53.4309C0 53.987 0.0971662 54.5191 0.277328 55.0132L0.267206 54.9812C0.819838 55.7573 1.65587 56.3054 2.62348 56.4794L2.64575 56.4834C5.2247 56.6974 7.60729 57.2295 9.85425 58.0437L9.66397 57.9837C11.0769 58.8138 12.7794 59.3039 14.5951 59.3039C15.1903 59.3039 15.7733 59.2519 16.3401 59.1499L16.2814 59.1579C17.6316 58.8558 18.7328 57.9857 19.3259 56.8195L19.3381 56.7935C20.8239 56.7855 22.4494 56.1214 25.0547 55.9593C26.8219 55.8153 29.0364 56.6274 31.5729 56.4594C31.6478 56.7775 31.747 57.0555 31.8725 57.3176L31.8603 57.2915L31.8684 57.2995C32.6457 58.9078 34.2773 60 36.168 60C36.332 60 36.4939 59.992 36.6538 59.976L36.6336 59.978C38.9636 59.6379 40.9636 58.4417 42.3279 56.7315L42.3421 56.7135C44.0486 55.1772 46.0405 53.911 48.2227 53.0068L48.3583 52.9568C49.2328 52.5748 49.8603 51.7866 49.998 50.8385L50 50.8245C49.8806 49.4362 49.2065 48.226 48.2024 47.3919L48.1943 47.3859V47.1439L48.1862 47.1359C47.753 46.4757 47.4494 45.6916 47.334 44.8515L47.33 44.8215C47.2227 43.7953 46.7672 42.8891 46.085 42.207H46.0769C45.9271 42.073 45.7652 42.039 45.6012 41.869C45.4676 41.775 45.3016 41.7169 45.1215 41.709C45.5162 40.5047 45.7429 39.1205 45.7429 37.6823C45.7429 35.802 45.3522 34.0117 44.6478 32.3874L44.6822 32.4754C43.2571 29.1309 41.4049 26.2524 39.1518 23.736L39.1802 23.77C36.9433 21.6056 35.4798 18.6671 35.2368 15.3946L35.2348 15.3526C35.3016 9.97366 35.832 0.0220038 26.2692 0.00800147L26.2733 0Z" stroke="white" stroke-width="2" mask="url(#path-1-inside-1_218_2757)"/>
</svg>
