<svg width="53" height="82" viewBox="0 0 53 82" fill="none" xmlns="http://www.w3.org/2000/svg">
<path d="M35.1396 11.6108C35.7464 12.5827 36.5764 13.9152 37.4707 15.356C38.5671 17.1221 39.7569 19.0497 40.75 20.6763L32.6504 12.2798L34.4736 10.5464C34.6412 10.8144 34.8684 11.1764 35.1396 11.6108Z" stroke="white"/>
<path d="M29.6365 7.26416C30.9943 7.36872 32.4896 8.06358 33.8933 9.71826L31.9548 11.561L31.0691 10.645H31.0681C30.2065 9.74142 28.7882 9.62846 27.8044 10.3726L27.613 10.5327C27.1382 10.9761 26.8631 11.5804 26.8425 12.229C26.8247 12.7931 27.0015 13.3358 27.3425 13.7769L27.4988 13.9595L27.5027 13.9644L36.3093 23.0571V23.0581C40.3081 27.2083 40.3706 33.7168 36.5066 37.9487L36.1199 38.3501V38.3511C35.369 39.0957 34.5368 39.71 33.6521 40.1948L33.2693 40.395L33.2654 40.397L30.9314 41.5864L30.6589 41.7261V67.186L27.8171 63.4868V43.1792L27.0916 43.5444L10.9949 51.6655C11.4234 49.9082 11.9756 48.1799 12.6511 46.4868L13.0076 45.6226C14.8803 41.2338 17.5099 37.2646 20.8328 33.811L21.5066 33.1274V33.1265C24.2347 30.4218 27.3053 28.1636 30.6589 26.3638V38.7769L31.3865 38.4067L32.5906 37.7925L32.6042 37.7856L32.6179 37.7769C33.1281 37.4742 33.6138 37.1143 34.0632 36.6958L34.2537 36.5122C37.3748 33.4183 37.5302 28.4978 34.7205 25.2222L34.4392 24.9097L34.4363 24.9058L25.5906 15.7729L25.5789 15.7603L25.574 15.7554L25.405 15.5679C24.6386 14.6776 24.2155 13.5703 24.1951 12.3999L24.197 12.1479C24.2399 10.8026 24.8061 9.5557 25.7957 8.63232L25.7947 8.63135C26.8086 7.71351 28.1785 7.15205 29.6365 7.26416ZM27.0144 31.772C25.8961 32.6239 24.8233 33.5419 23.7996 34.5239L23.364 34.9487H23.363C20.3286 37.9564 17.8759 41.4069 16.0574 45.2202L15.4226 46.5503L16.7361 45.8804L27.5447 40.3667L27.8171 40.2271V31.1606L27.0144 31.772Z" stroke="white"/>
<path d="M30.6589 45.7432L27.8171 47.1729V44.2969L30.6589 42.8477V45.7432Z" stroke="white"/>
</svg>
