<svg width="38" height="82" viewBox="0 0 38 82" fill="none" xmlns="http://www.w3.org/2000/svg">
<g clip-path="url(#clip0_216_1282)">
<path d="M18.8418 0.75C17.8491 2.13963 15.1689 5.81633 12.1074 9.44727V9.44824C4.76396 18.8069 1.40267 27.3746 0.466797 34.9492C-0.46903 42.5239 1.01642 49.1392 3.41797 54.5996C5.82102 60.0635 9.1406 64.3692 11.8652 67.3105C13.2268 68.7804 14.4382 69.9072 15.3076 70.665C15.7421 71.0438 16.0906 71.3308 16.3301 71.5215C16.4286 71.5999 16.5089 71.6615 16.5684 71.707H16.5732L16.709 71.8115L16.9951 72.0352L17.1729 72.1729L17.1875 72.3975C17.3145 74.3661 17.5373 76.752 17.7285 78.6484C17.824 79.5957 17.9109 80.4197 17.9746 81.0068C17.9953 81.1975 18.0142 81.3632 18.0293 81.5H19.6855C19.7007 81.3622 19.7185 81.1952 19.7393 81.0029C19.8029 80.4133 19.8908 79.5861 19.9863 78.6367C20.1775 76.7362 20.3994 74.3504 20.5264 72.3975L20.543 72.1504L20.748 72.0137L21.0254 71.8281C21.0281 71.8261 21.0315 71.824 21.0352 71.8213C21.0503 71.8098 21.0738 71.7922 21.1045 71.7686C21.1659 71.7212 21.2578 71.6493 21.377 71.5537C21.6151 71.3625 21.9625 71.0755 22.3955 70.6963C23.2621 69.9374 24.4707 68.8093 25.8301 67.3379C28.5503 64.3935 31.8674 60.084 34.2686 54.6162C36.6682 49.1517 38.1531 42.5319 37.2168 34.9541C36.2804 27.3765 32.9186 18.8069 25.5752 9.44824L25.5762 9.44727C22.5149 5.81662 19.8349 2.14011 18.8418 0.75ZM16.4121 69.6006L18.2617 28.5762H18.2646C18.2705 28.4168 18.335 28.2636 18.459 28.1533C18.5797 28.046 18.7269 28.0029 18.8574 28.0029C18.9878 28.003 19.1343 28.0462 19.2549 28.1533C19.3789 28.2636 19.4454 28.4167 19.4512 28.5762H19.4521L21.3018 69.6006L21.3027 69.6113V69.8281L21.2275 69.9492C20.9801 70.3491 20.4434 70.8875 20.0176 71.29C19.7956 71.4999 19.5872 71.6878 19.4346 71.8232C19.3581 71.8911 19.2958 71.9463 19.252 71.9844C19.2301 72.0033 19.213 72.0181 19.2012 72.0283C19.1954 72.0333 19.1907 72.0373 19.1875 72.04C19.186 72.0413 19.1844 72.0422 19.1836 72.043L19.1826 72.0439H19.1816L18.8574 72.3223L18.5322 72.0439L18.5312 72.043C18.5304 72.0423 18.5289 72.0413 18.5273 72.04C18.5242 72.0373 18.5195 72.0334 18.5137 72.0283C18.5019 72.0182 18.4847 72.0033 18.4629 71.9844C18.4191 71.9463 18.3557 71.8911 18.2793 71.8232C18.1266 71.6878 17.9183 71.4999 17.6963 71.29C17.2705 70.8875 16.7338 70.3491 16.4863 69.9492L16.4121 69.8281V69.6006Z" stroke="white"/>
</g>
<defs>
<clipPath id="clip0_216_1282">
<rect width="38" height="82" fill="white" transform="matrix(-1 0 0 1 38 0)"/>
</clipPath>
</defs>
</svg>
