<svg width="128" height="128" viewBox="0 0 128 128" fill="none" xmlns="http://www.w3.org/2000/svg">
<path d="M15.4724 37.7627L15.4705 37.7461C15.4395 37.2953 15.5443 36.8454 15.7703 36.4541C15.9963 36.0628 16.334 35.7473 16.74 35.5488L16.7546 35.542L16.7693 35.5332C31.2275 27.2188 45.6851 18.8983 60.1433 10.5732L60.1443 10.5742C61.4196 9.84548 62.6233 9.10411 63.905 8.5H63.9363C65.2178 9.11462 66.4672 9.79427 67.6785 10.5381L67.6843 10.542L67.6912 10.5459C82.1683 18.8711 96.6457 27.1987 111.123 35.5293L111.136 35.5371C111.608 35.7888 111.993 36.1763 112.242 36.6494C112.491 37.1227 112.591 37.6602 112.531 38.1914L112.528 38.2197V38.2471C112.496 55.7791 112.528 73.3141 112.509 90.8359C112.342 91.5257 111.917 92.1249 111.318 92.5078C95.9291 101.369 80.5389 110.224 65.1472 119.074L65.1189 119.091L65.0925 119.11C64.799 119.334 64.4454 119.465 64.0769 119.485C63.7542 119.504 63.4329 119.437 63.1453 119.293L63.0242 119.227L63.0164 119.223L51.4597 112.592C39.9055 105.958 28.3597 99.3149 16.822 92.6631L16.8044 92.6523L16.7859 92.6436L16.6345 92.5654C16.2907 92.3705 16.0022 92.0895 15.7976 91.749C15.5638 91.3597 15.45 90.9097 15.4714 90.4561L15.4724 90.4443V37.7627Z" stroke="white"/>
<path d="M85.5801 36.4626C87.0379 36.4627 88.4428 37.009 89.5176 37.9939C90.5881 38.975 91.2532 40.3205 91.3838 41.7664C91.4051 56.5212 91.4051 71.2774 91.3838 86.0349C91.2534 87.2494 90.7396 88.3911 89.916 89.2937C89.1391 90.145 88.1254 90.7416 87.0078 91.0085L86.7832 91.0574L86.7773 91.0583C85.0025 91.4321 83.1617 91.3542 81.4248 90.8318C79.6922 90.3106 78.1182 89.3638 76.8457 88.0779C67.2572 76.6771 57.6882 65.2606 48.1396 53.8279L47.2588 52.7722L47.2559 54.1472C47.2359 64.6276 47.2559 75.1092 47.2559 85.5876L47.2451 85.9392C47.1948 86.7562 46.9704 87.5544 46.5859 88.28C46.1479 89.1069 45.5152 89.8146 44.7422 90.3416C43.5773 91.1047 42.1855 91.4459 40.7998 91.3074C39.4174 91.1691 38.1236 90.5623 37.1338 89.5876H37.1348C36.6218 89.0604 36.2192 88.4354 35.9502 87.7507C35.7149 87.1516 35.5855 86.5168 35.5684 85.8748V42.1521C35.6295 40.7704 36.1816 39.4551 37.125 38.4431C38.073 37.4264 39.3538 36.7825 40.7354 36.6287L40.7461 36.6277L40.7559 36.6267C42.6488 36.336 44.5853 36.5546 46.3652 37.2615C48.145 37.9683 49.7042 39.1372 50.8818 40.6472L50.8877 40.655L50.8936 40.6619C60.2379 51.7615 69.5105 62.927 78.8945 73.991L79.7842 75.0408L79.7764 73.6648C79.7124 63.0311 79.7753 52.4091 79.7754 41.7654C79.9062 40.3199 80.5723 38.9748 81.6426 37.9939C82.7174 37.009 84.1223 36.4626 85.5801 36.4626Z" stroke="white"/>
</svg>
