<svg width="107" height="122" viewBox="0 0 107 122" fill="none" xmlns="http://www.w3.org/2000/svg">
<path d="M49.7148 2.16357C52.3644 0.666298 55.7964 0.665786 58.4229 2.15967V2.16064L102.52 27.7661H102.521C105.198 29.3141 106.5 32.2183 106.5 35.4067V86.5483C106.5 89.6364 105.278 92.4567 102.766 94.0493L102.519 94.1997L58.6348 119.781C57.295 120.556 55.7731 120.959 54.2178 120.959L53.9287 120.955C52.4861 120.907 51.0759 120.505 49.8232 119.782L35.0273 111.029L35.0176 111.023L34.6602 110.812C34.3458 110.614 34.1544 110.456 34.0459 110.336C34.0133 110.3 33.9926 110.272 33.9785 110.25C33.9965 110.237 34.0223 110.219 34.0586 110.199C34.1816 110.128 34.3437 110.066 34.5254 110.002L34.5264 110.003C37.505 108.971 38.1132 108.72 41.2832 106.923L41.2842 106.924C41.3972 106.861 41.6037 106.856 41.8623 107.006V107.005L53.1641 113.751L53.1797 113.761C53.736 114.066 54.3954 114.078 54.9385 113.751L54.9375 113.75L99.0176 88.1792L99.0166 88.1782C99.2018 88.0724 99.3414 87.9271 99.4287 87.7466C99.512 87.5743 99.5339 87.3999 99.5381 87.2573C99.5422 87.1175 99.5287 86.9742 99.5186 86.8628C99.5074 86.741 99.499 86.6433 99.499 86.5483V35.4067C99.499 35.3023 99.5067 35.2 99.5146 35.0728C99.5219 34.9556 99.53 34.8114 99.5195 34.6685C99.4993 34.3937 99.4061 34.0844 99.1201 33.853L98.9854 33.7593L98.9785 33.7554L55.0967 8.20068L55.0918 8.19775L54.9824 8.14111C54.4625 7.89477 53.7887 7.89497 53.2686 8.14111L53.1592 8.19775L53.1562 8.19873L8.73242 33.7603H8.73145C8.48289 33.904 8.19376 34.1183 7.95996 34.3765C7.73693 34.6228 7.5 34.9813 7.5 35.4067V86.5483C7.5 87.2345 7.91256 87.8592 8.48438 88.1694V88.1685L20.6406 95.1753L20.6533 95.1831L20.666 95.1899C24.0596 96.8867 26.7795 96.7868 28.6758 95.6245C30.5557 94.4722 31.5 92.3495 31.5 90.2622V39.7729C31.5 39.7729 31.501 39.7502 31.5234 39.7017C31.547 39.6508 31.5873 39.5855 31.6494 39.5083C31.7745 39.3528 31.9603 39.1834 32.1797 39.0239C32.3976 38.8656 32.6332 38.7283 32.8477 38.6333C33.0734 38.5332 33.231 38.4996 33.3057 38.4995H38.9287C38.9922 38.4995 39.13 38.5487 39.2812 38.8462C39.4226 39.1242 39.5 39.4891 39.5 39.7739V90.2632C39.5 94.5708 38.334 97.8899 36.2148 100.129C34.0995 102.365 30.9715 103.591 26.9072 103.591C25.629 103.591 24.5405 103.59 23.0791 103.257C21.6122 102.923 19.7491 102.249 16.958 100.875L5.20117 94.1968C2.46097 92.6104 0.5 89.6591 0.5 86.5483V35.4067C0.5 32.3871 2.29666 29.5253 4.89648 27.9185L5.15039 27.7671L49.7148 2.16357ZM66.1299 37.6313C73.1857 37.6313 78.3699 38.8579 81.8896 41.3247C85.2747 43.6971 87.1857 47.2641 87.6982 52.186L87.7441 52.6665V52.6685C87.7625 52.8796 87.6929 53.0825 87.542 53.2593C87.388 53.4128 87.1822 53.4995 86.9668 53.4995H81.2129C80.8906 53.4995 80.6108 53.3024 80.5 53.0298L80.4629 52.9087L80.4609 52.8989L80.3213 52.3198C79.5933 49.4842 78.3681 47.4962 76.2002 46.23C73.9279 44.9029 70.6963 44.4175 66.1309 44.4175C60.9989 44.4175 58.0183 45.3064 56.3164 46.6274C54.5768 47.9778 54.2568 49.7099 54.2568 51.1206C54.2568 51.9525 54.3444 52.7285 54.7637 53.4165C55.186 54.1096 55.8976 54.6387 56.9844 55.0903C58.86 55.8698 62.0524 56.4957 67.417 57.2476L69.8516 57.5786C76.6668 58.4806 81.5848 59.5513 84.8008 61.5376C86.3937 62.5215 87.5585 63.7243 88.3301 65.2407C89.104 66.7617 89.499 68.6305 89.499 70.9683C89.499 75.6342 87.5646 79.255 83.9375 81.73C80.2853 84.2221 74.877 85.5776 67.9111 85.5776C58.2832 85.5776 52.5636 83.3318 49.252 80.2554C45.9471 77.1853 44.9581 73.2109 44.958 69.5659C44.958 69.3352 45.0566 69.0477 45.2295 68.8208C45.4047 68.5909 45.5932 68.4995 45.7373 68.4995H51.4678C51.5854 68.4995 51.7517 68.5726 51.9248 68.7769C52.0517 68.9267 52.1494 69.1111 52.2051 69.2866L52.2461 69.4575C52.6849 72.4245 53.5805 74.8565 55.9658 76.5093C58.3163 78.1379 62.0252 78.9448 67.9102 78.9448C72.5916 78.9448 76.0233 78.4188 78.2979 77.2114C79.4465 76.6017 80.3106 75.8122 80.8838 74.8237C81.456 73.8368 81.7188 72.6846 81.7188 71.3784C81.7187 70.6377 81.6474 69.8712 81.2568 69.1401C80.863 68.4029 80.1786 67.7628 79.0684 67.1987C77.0164 66.1563 73.376 65.309 66.9561 64.6216L65.6348 64.4858C59.5763 63.8867 54.771 62.9232 51.4854 60.9536C49.8542 59.9758 48.6067 58.7549 47.7637 57.2114C46.9197 55.6661 46.4639 53.7661 46.4639 51.4067C46.4639 47.0967 48.2709 43.6811 51.5996 41.3247C54.9487 38.954 59.8755 37.6314 66.1299 37.6313Z" stroke="white"/>
</svg>
