<svg width="66" height="48" viewBox="0 0 66 48" fill="none" xmlns="http://www.w3.org/2000/svg">
<path d="M28.9976 5.17383C29.2206 5.06558 29.3106 5.08755 29.3608 5.11133C29.4346 5.14629 29.5641 5.25434 29.7329 5.56055L29.8081 5.7041C30.2692 6.64214 30.8131 7.95828 31.3843 9.64746H25.563V27.292C24.3671 27.1369 22.9892 27.1828 21.4341 27.5762L21.0669 27.6738C17.8068 28.5986 15.9246 30.4133 14.8618 32.0117C14.3328 32.8075 14.0091 33.5462 13.8169 34.0889C13.7208 34.3601 13.6576 34.5832 13.6177 34.7412C13.5977 34.8202 13.5831 34.8833 13.5737 34.9277C13.5691 34.9499 13.5654 34.9677 13.563 34.9805C13.5618 34.9869 13.5608 34.9921 13.5601 34.9961C13.5597 34.998 13.5593 34.9996 13.5591 35.001V35.0039L13.4243 35.7871L14.188 35.5703L25.563 32.3438V36.0059H26.063V36.5049H30.0405C28.5992 38.2051 26.6688 39.5621 24.0981 40.3672L23.4946 40.542C17.2566 42.222 12.4805 39.4736 8.9585 35.2666C5.64483 31.3083 3.49442 26.1084 2.39111 22.29L2.18506 21.5459L1.85205 20.2441C1.23505 17.7251 0.905594 15.7108 0.76416 14.2393L0.708496 13.5488L0.70166 13.3867C0.695643 13.0363 0.75489 12.8762 0.802246 12.8076C0.834981 12.7603 0.903069 12.6961 1.14893 12.6777C1.40803 12.6584 1.76642 12.6996 2.26221 12.7861C2.50499 12.8285 2.76879 12.879 3.05908 12.9346C3.34736 12.9897 3.65935 13.0481 3.9917 13.1055V13.1064C5.83831 13.4264 10.1302 13.8081 15.4614 12.4658L15.981 12.3301C21.2037 10.9229 24.7901 8.53942 26.4419 7.22461L26.7466 6.97656C27.0063 6.7593 27.2476 6.55051 27.4702 6.35742C27.6941 6.16323 27.8972 5.98601 28.0864 5.82715C28.4728 5.50291 28.7633 5.28753 28.9976 5.17383ZM15.7769 18.8691L6.55322 21.2988L5.86377 21.4805L6.27002 22.0664L6.68115 21.7822L6.27002 22.0674H6.271V22.0684C6.2716 22.0692 6.27307 22.071 6.27393 22.0723C6.2756 22.0746 6.27817 22.0774 6.28076 22.0811C6.28622 22.0887 6.29374 22.0995 6.30322 22.1123C6.32221 22.138 6.34942 22.1739 6.38428 22.2178C6.45423 22.3058 6.55622 22.4278 6.68896 22.5693C6.954 22.852 7.34615 23.2187 7.85693 23.5557C8.82007 24.191 10.2162 24.7252 11.9536 24.377L12.3052 24.2949C14.2065 23.7936 15.2384 22.5585 15.7847 21.4639C16.0561 20.9197 16.2096 20.4079 16.2954 20.0322C16.3384 19.8439 16.3646 19.688 16.3804 19.5771C16.3883 19.5217 16.3936 19.477 16.397 19.4453C16.3986 19.4298 16.4 19.4174 16.4009 19.4082C16.4013 19.4036 16.4016 19.3994 16.4019 19.3965C16.402 19.395 16.4027 19.3936 16.4028 19.3926V19.3906C16.4029 19.3904 16.4024 19.3903 15.9038 19.3525L16.4028 19.3896L16.4556 18.6895L15.7769 18.8691Z" stroke="white"/>
<path d="M27.9597 0.541016C28.0817 0.482843 28.248 0.470108 28.5574 0.620117C28.8785 0.77582 29.2664 1.066 29.7664 1.48633C30.0124 1.69316 30.276 1.92352 30.5652 2.1748L31.4988 2.97461C33.3511 4.52587 37.8963 7.73832 44.7205 9.68945L45.3875 9.87402C52.5806 11.802 58.4085 11.2746 60.8611 10.8447L60.8601 10.8438C61.2904 10.7684 61.6948 10.6918 62.0691 10.6191C62.4451 10.5462 62.7888 10.4789 63.1052 10.4229C63.7486 10.3089 64.2306 10.2507 64.5867 10.2764C64.9292 10.3012 65.0667 10.3957 65.1433 10.5068C65.2294 10.6319 65.3071 10.8758 65.2976 11.3467L65.2878 11.5625C65.1486 13.6702 64.6624 16.8922 63.573 21.1299L63.3474 21.9902C61.9978 27.0277 59.1055 34.3823 54.491 39.9043C49.9604 45.3257 43.8294 48.9254 35.863 46.9531L35.4822 46.8545C27.3277 44.6681 23.7231 38.3985 22.49 31.3271C21.331 24.6806 22.289 17.3972 23.5251 12.3623L23.7751 11.3857C24.8679 7.304 25.9892 4.25459 26.9197 2.20215L27.3064 1.38379V1.38281C27.5782 0.830047 27.803 0.615892 27.9597 0.541016ZM28.3503 28.7188L28.8406 28.624L28.3503 28.7197V28.7227C28.3506 28.7241 28.3518 28.7263 28.3523 28.7285C28.3532 28.7329 28.3537 28.7389 28.3552 28.7461C28.3584 28.7611 28.3637 28.7821 28.3699 28.8086C28.3822 28.8616 28.4003 28.9371 28.4265 29.0322C28.479 29.2227 28.5624 29.493 28.6873 29.8223C28.9369 30.4807 29.3548 31.3782 30.0281 32.3496C31.3789 34.2986 33.7506 36.5295 37.824 37.7227L38.4646 37.9102V37.8945C42.2001 38.8276 45.1329 38.16 47.1648 37.2119C48.2339 36.713 49.0492 36.1389 49.5994 35.6875C49.8746 35.4616 50.0848 35.2662 50.2273 35.125L50.2283 35.1221L50.574 35.2197V34.5605C50.4561 34.386 50.3046 34.2941 50.1609 34.248L50.2087 34.0791L28.9753 28.1426L28.196 27.9248L28.3503 28.7188ZM52.7478 20.9717C50.3154 20.2783 48.3748 21.0523 47.0662 21.9824C46.4145 22.4456 45.915 22.9502 45.5779 23.3379C45.4089 23.5322 45.2793 23.6988 45.1912 23.8184C45.1472 23.878 45.113 23.9258 45.0896 23.96L45.0544 24.0127C45.0535 24.0141 45.0531 24.0156 45.0525 24.0166L45.0515 24.0176V24.0186C45.0548 24.0209 45.0904 24.0442 45.4714 24.2891L45.0505 24.0186L44.5554 24.7891H45.4001L57.3201 28.1836L58.0066 28.3789L57.9558 27.667V27.6641C57.9557 27.663 57.955 27.6617 57.9548 27.6602C57.9546 27.6566 57.9544 27.6514 57.9539 27.6455C57.9529 27.6337 57.952 27.6173 57.95 27.5967C57.9458 27.555 57.9384 27.4955 57.9285 27.4209C57.9085 27.2713 57.8757 27.0588 57.821 26.8018C57.712 26.2889 57.5171 25.59 57.1726 24.8467C56.5256 23.4505 55.3367 21.8737 53.1902 21.1123L52.7478 20.9717ZM34.2751 15.4268C31.8424 14.7352 29.9009 15.5113 28.5916 16.4424C27.9395 16.9061 27.4387 17.4108 27.1013 17.7988C26.9323 17.9932 26.8028 18.1597 26.7146 18.2793C26.6705 18.3392 26.6365 18.3876 26.613 18.4219L26.5779 18.4746C26.5769 18.4761 26.5766 18.4775 26.5759 18.4785L26.575 18.4795V18.4805C26.5789 18.4833 26.6178 18.5086 26.9949 18.751L26.574 18.4805L26.2097 19.0479L26.8582 19.2324L38.8464 22.6367L39.532 22.8311L39.4822 22.1211L38.9832 22.1562C39.4818 22.1213 39.4822 22.1204 39.4822 22.1201H39.4812V22.1143C39.4809 22.1107 39.4807 22.1055 39.4802 22.0996C39.4792 22.0878 39.4774 22.0707 39.4753 22.0498C39.4712 22.008 39.4647 21.9486 39.4548 21.874C39.4351 21.7244 39.4018 21.5127 39.3474 21.2559C39.2388 20.7431 39.0449 20.044 38.7009 19.3008C38.0547 17.9045 36.8659 16.3278 34.7175 15.5674L34.2751 15.4268Z" fill="#1E1E1E" stroke="white"/>
</svg>
