<svg width="68" height="68" viewBox="0 0 68 68" fill="none" xmlns="http://www.w3.org/2000/svg">
<mask id="path-1-inside-1_216_1262" fill="white">
<path d="M40.3521 64.9755C35.9789 64.9755 34.5934 61.5123 34.0265 60.0959C33.1967 58.0204 33.0177 49.9655 33.2025 43.36C33.2053 43.2486 33.2301 43.1388 33.2754 43.037C33.3207 42.9353 33.3858 42.8435 33.4668 42.7669C33.5478 42.6904 33.6431 42.6306 33.7473 42.5911C33.8514 42.5515 33.9624 42.533 34.0738 42.5365C34.1851 42.5396 34.2946 42.5645 34.3963 42.6099C34.4979 42.6553 34.5895 42.7203 34.666 42.8012C34.7425 42.8821 34.8023 42.9772 34.842 43.0812C34.8816 43.1852 34.9004 43.296 34.8972 43.4073C34.6842 51.0259 34.9865 57.93 35.6006 59.4664C36.559 61.8618 38.0125 63.9571 42.1217 63.0768C46.0227 62.2401 47.4836 60.7611 48.1344 56.9887C48.6338 54.0939 49.6214 45.8584 49.743 44.2334C49.7511 44.1223 49.7811 44.0139 49.8312 43.9145C49.8813 43.815 49.9505 43.7264 50.0349 43.6538C50.1193 43.5812 50.2172 43.5259 50.323 43.4911C50.4288 43.4564 50.5404 43.4429 50.6515 43.4514C50.8755 43.4683 51.0837 43.5735 51.2303 43.7438C51.3769 43.9142 51.45 44.1357 51.4334 44.3598C51.3065 46.0518 50.3237 54.2713 49.8052 57.2771C49.037 61.7327 47.0506 63.7536 42.4771 64.7343C41.6999 64.9006 40.9939 64.9749 40.3521 64.9755ZM16.6392 48.0599C16.257 48.0586 15.8774 47.9959 15.5151 47.874C12.6745 46.9263 9.96886 42.3001 7.47304 34.1226C5.57329 27.8979 4.36948 21.4008 4.26376 19.289C3.95086 13.0288 5.56267 8.59976 9.05564 6.12573C15.9656 1.22973 27.5899 5.89198 28.0813 6.09279C28.2895 6.17782 28.4553 6.34207 28.5424 6.54939C28.6295 6.75672 28.6306 6.99015 28.5456 7.19832C28.4606 7.4065 28.2963 7.57236 28.089 7.65944C27.8817 7.74652 27.6482 7.74766 27.4401 7.66263C27.328 7.61695 16.1813 3.15126 10.0321 7.51123C7.04539 9.62879 5.67423 13.5632 5.95632 19.2046C6.04504 20.9837 7.1697 27.3247 9.09389 33.6275C11.3219 40.9279 13.8576 45.5344 16.0511 46.2659C16.3954 46.3807 17.443 46.7297 18.9406 44.9288C20.6871 42.8313 22.499 40.7892 24.3737 38.8056C24.5306 38.6491 24.7424 38.5603 24.964 38.558C25.1855 38.5558 25.3992 38.6404 25.5591 38.7937C25.7191 38.947 25.8127 39.1568 25.8199 39.3783C25.8271 39.5997 25.7473 39.8152 25.5977 39.9786C25.5722 40.0051 23.0227 42.6704 20.2443 46.013C18.9284 47.5956 17.6672 48.0599 16.6392 48.0599ZM53.5234 40.9173C53.3697 40.9171 53.219 40.8751 53.0873 40.7959C52.9556 40.7166 52.848 40.6031 52.7758 40.4674C52.7037 40.3317 52.6698 40.1789 52.6778 40.0255C52.6858 39.872 52.7353 39.7236 52.8211 39.5961C60.717 27.8794 63.4886 13.7221 61.1149 10.6886C58.1272 6.87107 53.9085 4.87729 48.5753 4.76201C44.6265 4.67701 41.4879 5.68532 40.9747 5.86116L40.8456 5.91376C40.3298 6.07579 39.934 5.79316 39.7847 5.46273C39.6996 5.27341 39.6867 5.05948 39.7485 4.86131C39.8102 4.66313 39.9424 4.4944 40.1199 4.38695C40.1444 4.3726 40.2219 4.33966 40.3479 4.29345C41.2196 3.97416 44.4061 3.01791 48.3527 3.06307C54.2539 3.12576 59.1286 5.4011 62.4489 9.6442C64.0198 11.6518 64.0235 16.2769 62.459 22.3342C60.8642 28.5099 57.8632 35.1469 54.2262 40.5438C54.0637 40.7866 53.7959 40.9173 53.5234 40.9173ZM53.9271 46.3414C52.5788 46.3414 51.3702 46.1512 50.6467 45.7177C49.9029 45.2719 49.7611 44.6663 49.7425 44.3449C49.5395 40.7802 51.5062 40.1597 52.5092 39.8766C52.3695 39.6651 52.1708 39.4165 51.9652 39.1599C51.3803 38.4289 50.5792 37.428 49.9619 35.931C49.8652 35.6972 49.5624 35.1538 49.2118 34.5242C47.3104 31.1147 43.3542 24.0198 45.8957 20.3866C47.0719 18.7052 49.4142 18.0433 52.8652 18.4125C51.8499 15.3195 47.0156 5.64441 35.5443 5.45635C32.0944 5.39898 29.2649 6.45988 27.1389 8.60666C22.3789 13.4139 22.551 22.1121 22.5536 22.1992C22.5566 22.3105 22.5375 22.4213 22.4977 22.5252C22.4578 22.6291 22.3978 22.7242 22.3212 22.8049C22.2446 22.8857 22.1529 22.9506 22.0512 22.9958C21.9495 23.0411 21.8399 23.066 21.7286 23.0689C21.6173 23.0718 21.5066 23.0528 21.4026 23.0129C21.2987 22.973 21.2037 22.9131 21.1229 22.8365C21.0422 22.7599 20.9773 22.6681 20.932 22.5664C20.8867 22.4647 20.8619 22.3551 20.8589 22.2439C20.8483 21.8576 20.6709 12.7297 25.9345 7.41348C28.3979 4.92563 31.6407 3.69738 35.5724 3.76166C42.9111 3.88226 47.635 7.61323 50.3051 10.7216C53.2158 14.1094 54.6427 17.8462 54.7601 19.0935C54.8478 20.0211 54.1821 20.2065 54.0477 20.2341L53.7417 20.241C50.355 19.6986 48.1822 20.0753 47.2839 21.3588C45.3506 24.1218 49.0933 30.8331 50.6913 33.6992C51.0993 34.4302 51.3936 34.9588 51.5285 35.285C52.0534 36.5578 52.7382 37.4132 53.288 38.1006C53.772 38.7052 54.1912 39.2295 54.341 39.8447C54.4106 39.9669 55.3982 41.4278 61.2584 40.2182C62.7273 39.9154 63.6081 40.1741 63.8774 40.9885C64.4071 42.5902 61.4353 44.4586 59.79 45.2225C58.3158 45.9079 55.9629 46.3414 53.9271 46.3414ZM51.4324 44.2052C51.6183 44.3927 52.5485 44.7163 54.4749 44.6334C56.1876 44.5601 57.9939 44.1877 59.0776 43.6846C60.4636 43.0407 61.3891 42.3209 61.8683 41.8294L61.6026 41.8783C57.8557 42.6518 55.2053 42.5488 53.7253 41.5718C53.6258 41.5061 53.5301 41.4349 53.4384 41.3588C53.2779 41.422 53.1297 41.4634 53.024 41.4932C52.1846 41.7285 51.3166 41.9724 51.4324 44.2052ZM27.2276 48.9413C26.2968 48.9413 25.3172 48.8143 24.3169 48.5641C23.2804 48.3049 21.5331 47.5244 21.5597 46.2425C21.5899 44.8044 23.6815 44.3731 24.4688 44.211C27.3131 43.6251 27.4985 43.3903 28.3873 42.2614C28.6465 41.9325 28.969 41.5229 29.4089 41.032C30.0618 40.301 30.7753 39.9308 31.5296 39.9308C32.055 39.9308 32.4859 40.1087 32.7706 40.2272C33.678 40.6033 34.435 41.5128 34.7464 42.6003C35.0274 43.5815 34.893 44.5261 34.3692 45.2597C32.6495 47.6679 30.1797 48.9413 27.2276 48.9413ZM23.3909 46.3153C23.6464 46.5129 24.1585 46.777 24.7286 46.9194C25.595 47.1361 26.4355 47.2461 27.2281 47.2461C29.6432 47.2461 31.5822 46.2463 32.9906 44.2743C33.2844 43.8631 33.1962 43.3409 33.1175 43.0662C32.9529 42.4909 32.5438 41.9676 32.1225 41.7928C31.8941 41.6982 31.7044 41.626 31.5302 41.626C31.4367 41.626 31.1519 41.626 30.6727 42.162C30.3421 42.5339 30.0242 42.917 29.7197 43.3106C28.6125 44.7163 28.1052 45.1933 24.8114 45.8717C24.0077 46.0364 23.5954 46.2043 23.3909 46.3153ZM29.9088 42.4053C29.7064 42.405 29.5109 42.3323 29.3574 42.2004C29.204 42.0685 29.1028 41.886 29.0721 41.686C29.051 41.5453 29.0368 41.4036 29.0296 41.2615C26.8706 41.2212 24.7875 40.2947 23.206 38.6446C21.2064 36.5584 20.2964 33.6679 20.7097 30.7146C21.1586 27.5075 20.9907 24.6764 20.9004 23.1555C20.8754 22.7326 20.8574 22.4271 20.8584 22.2157C20.86 21.9474 20.8653 21.2361 23.2432 20.0307C24.0889 19.6019 25.7847 18.8539 27.6372 18.6622C30.7062 18.345 32.7292 19.7119 33.3348 22.5116C34.9695 30.0702 33.4644 33.4134 32.3653 35.855C32.1608 36.3098 31.9674 36.739 31.8128 37.155L31.6763 37.5215C31.0956 39.0786 30.5936 40.4238 30.7476 41.4284C30.7646 41.5384 30.7596 41.6507 30.7331 41.7588C30.7066 41.8669 30.6591 41.9687 30.5932 42.0585C30.5274 42.1482 30.4445 42.2241 30.3493 42.2818C30.2541 42.3395 30.1485 42.3778 30.0384 42.3947L29.9088 42.4053ZM22.559 22.4505L22.5919 23.0556C22.6854 24.6355 22.8596 27.5755 22.3879 30.95C22.0474 33.3858 22.7911 35.7631 24.4295 37.4716C25.7241 38.822 27.4279 39.5674 29.1789 39.5674H29.215C29.411 38.7413 29.7367 37.869 30.0873 36.9292L30.2228 36.5648C30.3975 36.0951 30.6021 35.6404 30.8188 35.1591C31.8765 32.8088 33.1935 29.8832 31.6768 22.8702C31.3766 21.481 30.6483 20.6772 29.4514 20.4121C26.9928 19.8692 23.3287 21.7184 22.559 22.4505ZM27.6749 22.0909C27.6324 22.3905 28.2237 23.1905 28.995 23.2973C29.7648 23.4052 30.4236 22.7794 30.4655 22.4797C30.5075 22.1801 29.9168 21.8497 29.1454 21.7424C28.3745 21.635 27.7158 21.7912 27.6749 22.0909ZM29.1719 23.5922L28.9557 23.5773C28.4776 23.5109 27.9942 23.2097 27.6632 22.7709C27.5469 22.6168 27.3572 22.3182 27.3949 22.0515C27.4486 21.6605 27.9256 21.4263 28.6699 21.4263C28.8362 21.4263 29.0094 21.4385 29.1836 21.4629C29.5906 21.5192 29.9683 21.6366 30.2472 21.7923C30.7306 22.0622 30.7662 22.3634 30.7444 22.519C30.6849 22.9509 29.998 23.5922 29.1719 23.5922ZM27.9559 22.1408C27.9798 22.3257 28.4378 22.9355 29.0338 23.0179L29.1725 23.0274C29.7229 23.0274 30.134 22.5945 30.1824 22.4526C30.1314 22.3559 29.7776 22.1158 29.1066 22.0223C28.9621 22.0016 28.8164 21.9911 28.6704 21.991C28.2391 21.991 28.0101 22.0882 27.9559 22.1408ZM51.1211 21.4794C51.163 21.779 50.5723 22.5791 49.8015 22.6864C49.0311 22.7937 48.3719 22.1684 48.3294 21.8688C48.289 21.5692 48.8797 21.2382 49.65 21.1314C50.4204 21.0236 51.0786 21.1803 51.1211 21.4794ZM49.6235 22.8394C48.8819 22.8394 48.2417 22.2624 48.1891 21.8879C48.128 21.4385 48.868 21.0969 49.6299 20.9912C49.7977 20.9678 49.964 20.9561 50.1239 20.9561C50.7816 20.9561 51.2172 21.1489 51.2608 21.4603C51.2889 21.6616 51.1344 21.9724 50.8682 22.2529C50.6924 22.4372 50.3231 22.7565 49.82 22.8261L49.6235 22.8394ZM50.1244 21.2387C49.9778 21.2387 49.8248 21.2499 49.6697 21.2711C48.9042 21.3779 48.4473 21.685 48.4696 21.8497C48.4951 22.0308 48.9839 22.5573 49.624 22.5573L49.7818 22.5461C50.1999 22.4882 50.5139 22.2152 50.6637 22.0579C50.899 21.8109 50.9925 21.5782 50.9814 21.499C50.9665 21.3939 50.6839 21.2387 50.1244 21.2387ZM52.2309 38.6866C52.0773 38.6867 51.9266 38.645 51.7949 38.566C51.6632 38.487 51.5554 38.3737 51.4831 38.2382C51.4109 38.1027 51.3768 37.9501 51.3846 37.7967C51.3925 37.6433 51.4418 37.4949 51.5275 37.3675C53.3327 34.6714 53.0022 31.9222 52.6829 29.2633C52.5464 28.1306 52.4062 26.9592 52.4423 25.8351C52.4795 24.6786 52.6266 23.7244 52.7685 22.8017C52.9369 21.7084 53.0963 20.6756 53.0304 19.4495C53.0244 19.3383 53.0403 19.2271 53.0773 19.1221C53.1143 19.0172 53.1716 18.9205 53.246 18.8377C53.3203 18.7549 53.4102 18.6875 53.5106 18.6394C53.611 18.5913 53.7198 18.5635 53.831 18.5575C53.9421 18.5515 54.0533 18.5675 54.1583 18.6044C54.2633 18.6414 54.3599 18.6987 54.4428 18.7731C54.5256 18.8474 54.593 18.9373 54.641 19.0377C54.6891 19.1381 54.7169 19.247 54.7229 19.3581C54.7984 20.7595 54.6183 21.9283 54.444 23.0593C54.3096 23.9322 54.1704 24.8348 54.137 25.8893C54.1046 26.8849 54.2315 27.942 54.3659 29.0609C54.7059 31.8882 55.0911 35.0927 52.9364 38.3104C52.8588 38.4263 52.7538 38.5213 52.6307 38.5869C52.5077 38.6525 52.3703 38.6867 52.2309 38.6866Z"/>
</mask>
<path d="M40.3479 4.29345L40.2379 3.90884L40.2268 3.91203L40.3367 4.29663L40.4466 4.68124L40.4578 4.67805L40.3479 4.29345ZM40.3521 64.9755V65.7755H40.3528L40.3521 64.9755ZM34.0265 60.0959L33.2837 60.3929L33.2838 60.3932L34.0265 60.0959ZM33.2025 43.36L34.0022 43.3824L34.0023 43.3797L33.2025 43.36ZM34.0738 42.5365L34.0484 43.3361L34.052 43.3362L34.0738 42.5365ZM34.8972 43.4073L34.0976 43.3844L34.0975 43.3849L34.8972 43.4073ZM35.6006 59.4664L34.8578 59.7634L34.8578 59.7636L35.6006 59.4664ZM42.1217 63.0768L42.2893 63.859L42.2895 63.859L42.1217 63.0768ZM48.1344 56.9887L48.9227 57.1247V57.1247L48.1344 56.9887ZM49.743 44.2334L50.5408 44.2931L50.5409 44.2918L49.743 44.2334ZM50.6515 43.4514L50.5906 44.249L50.591 44.2491L50.6515 43.4514ZM51.4334 44.3598L52.2312 44.4197L52.2313 44.4187L51.4334 44.3598ZM49.8052 57.2771L49.0168 57.1411L49.0168 57.1412L49.8052 57.2771ZM42.4771 64.7343L42.6445 65.5166L42.6448 65.5165L42.4771 64.7343ZM16.6392 48.0599L16.6365 48.86H16.6392V48.0599ZM15.5151 47.874L15.7701 47.1157L15.7683 47.1151L15.5151 47.874ZM7.47304 34.1226L6.70789 34.3561L6.70789 34.3561L7.47304 34.1226ZM4.26376 19.289L3.46476 19.329L3.46476 19.329L4.26376 19.289ZM9.05564 6.12573L9.51803 6.77856L9.51814 6.77848L9.05564 6.12573ZM28.0813 6.09279L27.7787 6.83334L27.7788 6.83339L28.0813 6.09279ZM27.4401 7.66263L27.7426 6.92203L27.742 6.9218L27.4401 7.66263ZM10.0321 7.51123L10.4948 8.16384L10.4948 8.16383L10.0321 7.51123ZM5.95632 19.2046L6.75533 19.1647L6.75533 19.1646L5.95632 19.2046ZM9.09389 33.6275L9.85905 33.394L9.85902 33.3939L9.09389 33.6275ZM16.0511 46.2659L15.798 47.0248L15.7982 47.0249L16.0511 46.2659ZM18.9406 44.9288L18.3258 44.4169L18.3255 44.4173L18.9406 44.9288ZM24.3737 38.8056L23.8087 38.2392L23.8004 38.2475L23.7923 38.2561L24.3737 38.8056ZM25.5977 39.9786L26.1748 40.5326L26.1813 40.5258L26.1876 40.5189L25.5977 39.9786ZM20.2443 46.013L20.8594 46.5245L20.8595 46.5244L20.2443 46.013ZM53.5234 40.9173L53.5223 41.7173H53.5234V40.9173ZM52.8211 39.5961L52.1577 39.149L52.1573 39.1495L52.8211 39.5961ZM61.1149 10.6886L61.745 10.1956L61.7449 10.1956L61.1149 10.6886ZM48.5753 4.76201L48.5926 3.96219L48.5925 3.96219L48.5753 4.76201ZM40.9747 5.86116L40.7154 5.10436L40.6939 5.11172L40.6729 5.12029L40.9747 5.86116ZM40.8456 5.91376L41.0854 6.67699L41.1169 6.66709L41.1475 6.65463L40.8456 5.91376ZM39.7847 5.46273L39.0551 5.79077L39.0557 5.79209L39.7847 5.46273ZM40.1199 4.38695L39.715 3.69695L39.7058 3.70249L40.1199 4.38695ZM40.3479 4.29345L40.0727 3.54224L40.0722 3.54245L40.3479 4.29345ZM48.3527 3.06307L48.3436 3.86302L48.3442 3.86303L48.3527 3.06307ZM62.4489 9.6442L63.079 9.1512L63.0789 9.15118L62.4489 9.6442ZM62.459 22.3342L61.6844 22.1341L61.6844 22.1341L62.459 22.3342ZM54.2262 40.5438L53.5628 40.0968L53.5615 40.0987L54.2262 40.5438ZM50.6467 45.7177L50.2354 46.4039L50.2355 46.4039L50.6467 45.7177ZM49.7425 44.3449L48.9438 44.3904L48.9438 44.3911L49.7425 44.3449ZM52.5092 39.8766L52.7266 40.6465L53.7803 40.349L53.1767 39.4355L52.5092 39.8766ZM51.9652 39.1599L51.3406 39.6597L51.3409 39.6601L51.9652 39.1599ZM49.9619 35.931L50.7015 35.626L50.7011 35.6252L49.9619 35.931ZM49.2118 34.5242L49.9107 34.135L49.9105 34.1346L49.2118 34.5242ZM45.8957 20.3866L45.2402 19.928V19.928L45.8957 20.3866ZM52.8652 18.4125L52.7801 19.2079L54.0115 19.3397L53.6253 18.163L52.8652 18.4125ZM35.5443 5.45635L35.531 6.25624L35.5312 6.25624L35.5443 5.45635ZM27.1389 8.60666L26.5704 8.04373L26.5704 8.04378L27.1389 8.60666ZM22.5536 22.1992L23.3534 22.1782L23.3533 22.1748L22.5536 22.1992ZM20.8589 22.2439L21.6587 22.2228L21.6586 22.2219L20.8589 22.2439ZM25.9345 7.41348L25.366 6.85059L25.366 6.85061L25.9345 7.41348ZM35.5724 3.76166L35.5856 2.96177L35.5855 2.96177L35.5724 3.76166ZM50.3051 10.7216L49.6982 11.2429L49.6983 11.2429L50.3051 10.7216ZM54.7601 19.0935L53.9637 19.1685L53.9637 19.1688L54.7601 19.0935ZM54.0477 20.2341L54.0658 21.0339L54.138 21.0323L54.2088 21.0178L54.0477 20.2341ZM53.7417 20.241L53.6152 21.031L53.6871 21.0425L53.7598 21.0408L53.7417 20.241ZM47.2839 21.3588L46.6284 20.9001L46.6284 20.9002L47.2839 21.3588ZM50.6913 33.6992L49.9926 34.0888L49.9927 34.0891L50.6913 33.6992ZM51.5285 35.285L52.2681 34.98L52.2678 34.9792L51.5285 35.285ZM53.288 38.1006L52.6633 38.6003L52.6635 38.6006L53.288 38.1006ZM54.341 39.8447L53.5637 40.034L53.5903 40.1431L53.6458 40.2406L54.341 39.8447ZM61.2584 40.2182L61.0969 39.4346L61.0967 39.4347L61.2584 40.2182ZM63.8774 40.9885L64.637 40.7373L64.637 40.7373L63.8774 40.9885ZM59.79 45.2225L59.4531 44.4969L59.4528 44.4971L59.79 45.2225ZM51.4324 44.2052L50.6335 44.2466L50.6493 44.5516L50.8643 44.7685L51.4324 44.2052ZM54.4749 44.6334L54.4406 43.8341L54.4405 43.8341L54.4749 44.6334ZM59.0776 43.6846L59.4145 44.4102L59.4146 44.4101L59.0776 43.6846ZM61.8683 41.8294L62.441 42.388L64.1966 40.5876L61.7235 41.0427L61.8683 41.8294ZM61.6026 41.8783L61.4579 41.0915L61.4494 41.0931L61.4409 41.0948L61.6026 41.8783ZM53.7253 41.5718L53.2841 42.2391L53.2845 42.2395L53.7253 41.5718ZM53.4384 41.3588L53.9497 40.7435L53.5856 40.4409L53.1451 40.6145L53.4384 41.3588ZM53.024 41.4932L53.24 42.2635L53.2407 42.2633L53.024 41.4932ZM24.3169 48.5641L24.511 47.788H24.511L24.3169 48.5641ZM21.5597 46.2425L20.7598 46.2257L20.7598 46.226L21.5597 46.2425ZM24.4688 44.211L24.6301 44.9946L24.6302 44.9946L24.4688 44.211ZM28.3873 42.2614L27.7591 41.7661L27.7587 41.7665L28.3873 42.2614ZM29.4089 41.032L30.0047 41.5659L30.0055 41.565L29.4089 41.032ZM32.7706 40.2272L32.4633 40.9658L32.4643 40.9662L32.7706 40.2272ZM34.7464 42.6003L33.9772 42.8205L33.9773 42.8206L34.7464 42.6003ZM34.3692 45.2597L35.0202 45.7246L35.0203 45.7246L34.3692 45.2597ZM23.3909 46.3153L23.0092 45.6122L21.931 46.1976L22.9015 46.9481L23.3909 46.3153ZM24.7286 46.9194L24.9227 46.1433L24.9224 46.1432L24.7286 46.9194ZM32.9906 44.2743L32.3396 43.8092L32.3396 43.8093L32.9906 44.2743ZM33.1175 43.0662L32.3484 43.2864L32.3484 43.2864L33.1175 43.0662ZM32.1225 41.7928L32.4291 41.0539L32.4285 41.0536L32.1225 41.7928ZM30.6727 42.162L30.0763 41.6288L30.0749 41.6304L30.6727 42.162ZM29.7197 43.3106L30.3482 43.8056L30.3524 43.8001L29.7197 43.3106ZM24.8114 45.8717L24.972 46.6554L24.9728 46.6553L24.8114 45.8717ZM29.9088 42.4053L29.9075 43.2053L29.9409 43.2054L29.9741 43.2026L29.9088 42.4053ZM29.0721 41.686L28.2809 41.8045L28.2813 41.8073L29.0721 41.686ZM29.0296 41.2615L29.8285 41.2208L29.7906 40.4756L29.0445 40.4617L29.0296 41.2615ZM23.206 38.6446L23.7836 38.091L23.7836 38.091L23.206 38.6446ZM20.7097 30.7146L19.9174 30.6037L19.9174 30.6038L20.7097 30.7146ZM20.9004 23.1555L20.1018 23.2026L20.1018 23.2029L20.9004 23.1555ZM20.8584 22.2157L20.0584 22.2109L20.0584 22.2117L20.8584 22.2157ZM23.2432 20.0307L22.8815 19.3171L22.8815 19.3171L23.2432 20.0307ZM27.6372 18.6622L27.5549 17.8664L27.5548 17.8664L27.6372 18.6622ZM33.3348 22.5116L34.1167 22.3425L34.1167 22.3425L33.3348 22.5116ZM32.3653 35.855L31.6358 35.5266L31.6357 35.5269L32.3653 35.855ZM31.8128 37.155L32.5625 37.4342L32.5627 37.4337L31.8128 37.155ZM31.6763 37.5215L32.4258 37.8011L32.4259 37.8008L31.6763 37.5215ZM30.7476 41.4284L29.9569 41.5496L29.9569 41.5499L30.7476 41.4284ZM30.0384 42.3947L30.1038 43.192L30.1318 43.1897L30.1595 43.1855L30.0384 42.3947ZM22.559 22.4505L22.0076 21.8708L21.7401 22.1253L21.7601 22.494L22.559 22.4505ZM22.5919 23.0556L21.7931 23.0991L21.7933 23.1029L22.5919 23.0556ZM22.3879 30.95L23.1802 31.0607V31.0607L22.3879 30.95ZM24.4295 37.4716L25.007 36.918L25.0069 36.9179L24.4295 37.4716ZM29.215 39.5674V40.3674H29.8474L29.9934 39.7521L29.215 39.5674ZM30.0873 36.9292L30.8368 37.2088L30.8372 37.2079L30.0873 36.9292ZM30.2228 36.5648L29.473 36.2857L29.4729 36.286L30.2228 36.5648ZM30.8188 35.1591L31.5483 35.4876L31.5483 35.4874L30.8188 35.1591ZM31.6768 22.8702L30.8948 23.0391L30.8949 23.0393L31.6768 22.8702ZM29.4514 20.4121L29.6244 19.631L29.6239 19.6309L29.4514 20.4121ZM27.6749 22.0909L28.467 22.2032L28.4675 22.1991L27.6749 22.0909ZM28.995 23.2973L29.106 22.5051L29.1047 22.5049L28.995 23.2973ZM29.1454 21.7424L29.0351 22.5347L29.0352 22.5347L29.1454 21.7424ZM29.1719 23.5922L29.117 24.3903L29.1445 24.3922H29.1719V23.5922ZM28.9557 23.5773L28.8457 24.3697L28.8732 24.3735L28.9008 24.3754L28.9557 23.5773ZM27.6632 22.7709L28.3019 22.2891L28.3016 22.2887L27.6632 22.7709ZM27.3949 22.0515L28.187 22.1636L28.1875 22.1603L27.3949 22.0515ZM29.1836 21.4629L29.0725 22.2552L29.074 22.2554L29.1836 21.4629ZM30.2472 21.7923L30.6371 21.0938L30.6371 21.0937L30.2472 21.7923ZM30.7444 22.519L29.9522 22.4082L29.9519 22.4099L30.7444 22.519ZM27.9559 22.1408L27.3987 21.5667L27.1111 21.8459L27.1625 22.2434L27.9559 22.1408ZM29.0338 23.0179L28.9243 23.8104L28.9515 23.8141L28.9788 23.816L29.0338 23.0179ZM29.1725 23.0274L29.1174 23.8256L29.1449 23.8274H29.1725V23.0274ZM30.1824 22.4526L30.9396 22.7107L31.0508 22.3844L30.89 22.0794L30.1824 22.4526ZM29.1066 22.0223L28.993 22.8142L28.9962 22.8147L29.1066 22.0223ZM28.6704 21.991L28.6713 21.191H28.6704V21.991ZM51.1211 21.4794L51.9133 21.3684L51.9131 21.3668L51.1211 21.4794ZM49.8015 22.6864L49.6911 21.894L49.6911 21.894L49.8015 22.6864ZM48.3294 21.8688L47.5365 21.9756L47.5373 21.9811L48.3294 21.8688ZM49.65 21.1314L49.7599 21.9238L49.761 21.9237L49.65 21.1314ZM49.6235 22.8394V23.6394H49.6505L49.6774 23.6376L49.6235 22.8394ZM48.1891 21.8879L47.3964 21.9957L47.3969 21.9992L48.1891 21.8879ZM49.6299 20.9912L49.7398 21.7836L49.7402 21.7835L49.6299 20.9912ZM51.2608 21.4603L52.0531 21.3495L52.0531 21.3494L51.2608 21.4603ZM50.8682 22.2529L51.4471 22.8051L51.4485 22.8035L50.8682 22.2529ZM49.82 22.8261L49.874 23.6243L49.9019 23.6224L49.9297 23.6186L49.82 22.8261ZM49.6697 21.2711L49.5611 20.4785L49.5592 20.4788L49.6697 21.2711ZM48.4696 21.8497L47.6768 21.9571L47.6774 21.9612L48.4696 21.8497ZM49.624 22.5573V23.3573H49.6523L49.6804 23.3553L49.624 22.5573ZM49.7818 22.5461L49.8382 23.3441L49.865 23.3422L49.8915 23.3386L49.7818 22.5461ZM50.6637 22.0579L51.2429 22.6097L51.2429 22.6097L50.6637 22.0579ZM50.9814 21.499L51.7735 21.3874L51.7735 21.387L50.9814 21.499ZM52.2309 38.6866L52.2318 37.8866H52.2304L52.2309 38.6866ZM51.5275 37.3675L52.1915 37.8137L52.1922 37.8126L51.5275 37.3675ZM52.6829 29.2633L53.4772 29.1679L53.4772 29.1675L52.6829 29.2633ZM52.4423 25.8351L51.6427 25.8094V25.8094L52.4423 25.8351ZM52.7685 22.8017L51.9778 22.6799L51.9778 22.6801L52.7685 22.8017ZM53.0304 19.4495L53.8292 19.4066L53.8292 19.4064L53.0304 19.4495ZM54.7229 19.3581L55.5218 19.3151L55.5218 19.315L54.7229 19.3581ZM54.444 23.0593L53.6534 22.9375L53.6534 22.9376L54.444 23.0593ZM54.137 25.8893L54.9366 25.9153L54.9366 25.9147L54.137 25.8893ZM54.3659 29.0609L53.5717 29.1563L53.5717 29.1564L54.3659 29.0609ZM52.9364 38.3104L52.2716 37.8653L52.2716 37.8653L52.9364 38.3104ZM40.3521 64.9755V64.1755C38.4101 64.1755 37.1771 63.4193 36.3494 62.5238C35.496 61.6006 35.053 60.5077 34.7692 59.7987L34.0265 60.0959L33.2838 60.3932C33.5669 61.1005 34.1 62.4474 35.1744 63.6098C36.2745 64.8 37.9209 65.7755 40.3521 65.7755V64.9755ZM34.0265 60.0959L34.7693 59.799C34.6058 59.3898 34.4471 58.5936 34.3166 57.444C34.189 56.3202 34.0956 54.9334 34.0334 53.3944C33.9089 50.3178 33.9102 46.6715 34.0022 43.3824L33.2025 43.36L32.4029 43.3376C32.31 46.6541 32.3084 50.3379 32.4347 53.459C32.4978 55.0189 32.5932 56.4478 32.7268 57.6245C32.8575 58.7753 33.0323 59.7643 33.2837 60.3929L34.0265 60.0959ZM33.2025 43.36L34.0023 43.3797C34.0024 43.3738 34.0038 43.368 34.0062 43.3626L33.2754 43.037L32.5446 42.7115C32.4563 42.9097 32.4081 43.1234 32.4028 43.3403L33.2025 43.36ZM33.2754 43.037L34.0062 43.3626C34.0086 43.3572 34.012 43.3524 34.0163 43.3483L33.4668 42.7669L32.9173 42.1855C32.7596 42.3345 32.6329 42.5133 32.5446 42.7115L33.2754 43.037ZM33.4668 42.7669L34.0163 43.3483C34.0206 43.3443 34.0256 43.3411 34.0311 43.339L33.7473 42.5911L33.4634 41.8431C33.2606 41.9201 33.075 42.0365 32.9173 42.1855L33.4668 42.7669ZM33.7473 42.5911L34.0311 43.339C34.0366 43.3369 34.0425 43.336 34.0484 43.3361L34.0738 42.5365L34.0992 41.7369C33.8823 41.7301 33.6663 41.7661 33.4634 41.8431L33.7473 42.5911ZM34.0738 42.5365L34.052 43.3362C34.0582 43.3364 34.0643 43.3378 34.0699 43.3403L34.3963 42.6099L34.7226 41.8795C34.525 41.7912 34.3119 41.7427 34.0955 41.7368L34.0738 42.5365ZM34.3963 42.6099L34.0699 43.3403C34.0755 43.3428 34.0805 43.3464 34.0848 43.3509L34.666 42.8012L35.2473 42.2515C35.0985 42.0942 34.9203 41.9678 34.7226 41.8795L34.3963 42.6099ZM34.666 42.8012L34.0848 43.3509C34.089 43.3553 34.0923 43.3606 34.0945 43.3664L34.842 43.0812L35.5894 42.7961C35.5123 42.5938 35.396 42.4088 35.2473 42.2515L34.666 42.8012ZM34.842 43.0812L34.0945 43.3664C34.0967 43.3721 34.0977 43.3782 34.0976 43.3844L34.8972 43.4073L35.6969 43.4301C35.7031 43.2138 35.6666 42.9983 35.5894 42.7961L34.842 43.0812ZM34.8972 43.4073L34.0975 43.3849C33.9906 47.2096 34.0128 50.8598 34.1395 53.7527C34.2028 55.1983 34.2926 56.4633 34.4068 57.4705C34.5175 58.4472 34.6594 59.267 34.8578 59.7634L35.6006 59.4664L36.3435 59.1695C36.2348 58.8976 36.1086 58.2783 35.9966 57.2903C35.888 56.3327 35.8004 55.1074 35.738 53.6827C35.6132 50.8348 35.5908 47.2235 35.6969 43.4296L34.8972 43.4073ZM35.6006 59.4664L34.8578 59.7636C35.3498 60.9933 36.0229 62.2984 37.2141 63.1506C38.443 64.0299 40.0813 64.332 42.2893 63.859L42.1217 63.0768L41.9541 62.2945C40.0529 62.7018 38.9098 62.3965 38.1451 61.8494C37.3426 61.2752 36.8097 60.3349 36.3434 59.1692L35.6006 59.4664ZM42.1217 63.0768L42.2895 63.859C44.2992 63.4279 45.8205 62.805 46.9161 61.6958C48.0162 60.5818 48.5852 59.0812 48.9227 57.1247L48.1344 56.9887L47.346 56.8527C47.0328 58.6685 46.5459 59.7936 45.7777 60.5715C45.0048 61.354 43.8452 61.8889 41.9539 62.2946L42.1217 63.0768ZM48.1344 56.9887L48.9227 57.1247C49.4264 54.2049 50.4172 45.944 50.5408 44.2931L49.743 44.2334L48.9452 44.1736C48.8255 45.7729 47.8411 53.9828 47.346 56.8527L48.1344 56.9887ZM49.743 44.2334L50.5409 44.2918C50.5413 44.2857 50.543 44.2798 50.5457 44.2744L49.8312 43.9145L49.1167 43.5546C49.0193 43.7481 48.961 43.9589 48.9452 44.1749L49.743 44.2334ZM49.8312 43.9145L50.5457 44.2744C50.5484 44.2689 50.5522 44.2641 50.5568 44.2601L50.0349 43.6538L49.513 43.0475C49.3489 43.1888 49.2142 43.3611 49.1167 43.5546L49.8312 43.9145ZM50.0349 43.6538L50.5568 44.2601C50.5615 44.2561 50.5668 44.2531 50.5726 44.2512L50.323 43.4911L50.0734 42.7311C49.8676 42.7986 49.6772 42.9062 49.513 43.0475L50.0349 43.6538ZM50.323 43.4911L50.5726 44.2512C50.5784 44.2493 50.5845 44.2486 50.5906 44.249L50.6515 43.4514L50.7123 42.6537C50.4964 42.6372 50.2792 42.6635 50.0734 42.7311L50.323 43.4911ZM50.6515 43.4514L50.591 44.2491C50.6038 44.25 50.6157 44.256 50.624 44.2658L51.2303 43.7438L51.8366 43.2219C51.5518 42.891 51.1473 42.6866 50.7119 42.6536L50.6515 43.4514ZM51.2303 43.7438L50.624 44.2658C50.6324 44.2755 50.6366 44.2881 50.6356 44.3009L51.4334 44.3598L52.2313 44.4187C52.2634 43.9832 52.1215 43.5528 51.8366 43.2219L51.2303 43.7438ZM51.4334 44.3598L50.6357 44.2999C50.5106 45.9664 49.531 54.1605 49.0168 57.1411L49.8052 57.2771L50.5935 57.4131C51.1164 54.3822 52.1023 46.1373 52.2312 44.4197L51.4334 44.3598ZM49.8052 57.2771L49.0168 57.1412C48.6481 59.28 48.0057 60.7222 46.9976 61.7481C45.9862 62.7772 44.5173 63.4786 42.3094 63.9521L42.4771 64.7343L42.6448 65.5165C45.0105 65.0093 46.8215 64.21 48.1387 62.8695C49.4592 61.5259 50.1941 59.7299 50.5935 57.4131L49.8052 57.2771ZM42.4771 64.7343L42.3097 63.952C41.5817 64.1077 40.9317 64.175 40.3514 64.1755L40.3521 64.9755L40.3528 65.7755C41.056 65.7749 41.8181 65.6934 42.6445 65.5166L42.4771 64.7343ZM16.6392 48.0599L16.642 47.26C16.3455 47.2589 16.0511 47.2102 15.7701 47.1157L15.5151 47.874L15.2601 48.6323C15.7037 48.7815 16.1685 48.8583 16.6365 48.8599L16.6392 48.0599ZM15.5151 47.874L15.7683 47.1151C14.6299 46.7353 13.37 45.5535 12.0554 43.3056C10.7562 41.0843 9.4774 37.9493 8.2382 33.8891L7.47304 34.1226L6.70789 34.3561C7.9645 38.4734 9.28639 41.7403 10.6742 44.1133C12.0465 46.4599 13.5598 48.065 15.2619 48.6329L15.5151 47.874ZM7.47304 34.1226L8.2382 33.8891C6.34674 27.6916 5.16374 21.2661 5.06276 19.249L4.26376 19.289L3.46476 19.329C3.57522 21.5354 4.79985 28.1043 6.70789 34.3561L7.47304 34.1226ZM4.26376 19.289L5.06276 19.2491C4.75667 13.1252 6.34104 9.02879 9.51803 6.77856L9.05564 6.12573L8.59324 5.47289C4.78429 8.17073 3.14504 12.9324 3.46476 19.329L4.26376 19.289ZM9.05564 6.12573L9.51814 6.77848C12.7128 4.51495 17.0818 4.41895 20.856 4.98898C24.5974 5.55408 27.5596 6.74383 27.7787 6.83334L28.0813 6.09279L28.3839 5.35224C28.1116 5.24094 25.0159 3.99915 21.0949 3.40693C17.2065 2.81963 12.3085 2.8405 8.59313 5.47297L9.05564 6.12573ZM28.0813 6.09279L27.7788 6.83339C27.7905 6.83819 27.7999 6.84747 27.8048 6.85917L28.5424 6.54939L29.28 6.23961C29.1108 5.83667 28.7884 5.51745 28.3838 5.35219L28.0813 6.09279ZM28.5424 6.54939L27.8048 6.85917C27.8097 6.87088 27.8098 6.88406 27.805 6.89581L28.5456 7.19832L29.2862 7.50083C29.4515 7.09623 29.4492 6.64256 29.28 6.23961L28.5424 6.54939ZM28.5456 7.19832L27.805 6.89581C27.8002 6.90757 27.7909 6.91693 27.7792 6.92185L28.089 7.65944L28.3988 8.39703C28.8017 8.22779 29.1209 7.90542 29.2862 7.50083L28.5456 7.19832ZM28.089 7.65944L27.7792 6.92185C27.7675 6.92677 27.7543 6.92683 27.7426 6.92203L27.4401 7.66263L27.1376 8.40323C27.5422 8.56849 27.9958 8.56626 28.3988 8.39703L28.089 7.65944ZM27.4401 7.66263L27.742 6.9218C27.6583 6.88767 24.7809 5.73576 21.1277 5.14507C17.518 4.5614 12.9159 4.48584 9.56936 6.85862L10.0321 7.51123L10.4948 8.16383C13.2975 6.17665 17.3433 6.15394 20.8723 6.72455C22.6108 7.00566 24.1696 7.4217 25.3016 7.77102C25.8669 7.94543 26.3237 8.10257 26.641 8.21685C26.7996 8.27398 26.9232 8.32034 27.0079 8.35272C27.0502 8.36891 27.0828 8.38159 27.1051 8.39035C27.1281 8.39942 27.139 8.40381 27.1381 8.40346L27.4401 7.66263ZM10.0321 7.51123L9.56937 6.85861C6.25631 9.20757 4.8694 13.4865 5.15732 19.2445L5.95632 19.2046L6.75533 19.1646C6.47906 13.6399 7.83446 10.05 10.4948 8.16384L10.0321 7.51123ZM5.95632 19.2046L5.15732 19.2444C5.2507 21.1171 6.39566 27.5292 8.32875 33.8611L9.09389 33.6275L9.85902 33.3939C7.94374 27.1203 6.83939 20.8503 6.75533 19.1647L5.95632 19.2046ZM9.09389 33.6275L8.32873 33.861C9.45174 37.5406 10.6617 40.5743 11.8846 42.7958C12.4959 43.9063 13.1215 44.8343 13.756 45.5429C14.3836 46.2437 15.0648 46.7803 15.798 47.0248L16.0511 46.2659L16.3042 45.507C15.9407 45.3858 15.4824 45.0722 14.948 44.4755C14.4205 43.8864 13.8616 43.0694 13.2863 42.0242C12.136 39.9346 10.9641 37.0148 9.85905 33.394L9.09389 33.6275ZM16.0511 46.2659L15.7982 47.0249C16.0146 47.097 16.5413 47.2716 17.2581 47.0917C17.962 46.915 18.7343 46.4281 19.5557 45.4403L18.9406 44.9288L18.3255 44.4173C17.6494 45.2303 17.149 45.4694 16.8686 45.5398C16.6012 45.6069 16.4319 45.5496 16.3041 45.507L16.0511 46.2659ZM18.9406 44.9288L19.5554 45.4407C21.2911 43.3561 23.0919 41.3265 24.9551 39.3551L24.3737 38.8056L23.7923 38.2561C21.906 40.2519 20.083 42.3065 18.3258 44.4169L18.9406 44.9288ZM24.3737 38.8056L24.9387 39.372C24.9475 39.3632 24.9595 39.3581 24.972 39.358L24.964 38.558L24.956 37.7581C24.5254 37.7624 24.1136 37.9351 23.8087 38.2392L24.3737 38.8056ZM24.964 38.558L24.972 39.358C24.9845 39.3579 24.9966 39.3627 25.0056 39.3713L25.5591 38.7937L26.1126 38.2161C25.8017 37.9182 25.3866 37.7538 24.956 37.7581L24.964 38.558ZM25.5591 38.7937L25.0056 39.3713C25.0146 39.38 25.0199 39.3918 25.0203 39.4043L25.8199 39.3783L26.6195 39.3522C26.6055 38.9219 26.4235 38.5141 26.1126 38.2161L25.5591 38.7937ZM25.8199 39.3783L25.0203 39.4043C25.0207 39.4168 25.0162 39.429 25.0078 39.4382L25.5977 39.9786L26.1876 40.5189C26.4785 40.2014 26.6335 39.7826 26.6195 39.3522L25.8199 39.3783ZM25.5977 39.9786L25.0206 39.4245C24.9886 39.4578 22.4247 42.1384 19.6291 45.5017L20.2443 46.013L20.8595 46.5244C22.2392 44.8646 23.563 43.3717 24.5455 42.2902C25.0365 41.7497 25.4418 41.3124 25.7255 41.009C25.8673 40.8574 25.9788 40.7392 26.0553 40.6584C26.0935 40.618 26.1231 40.5869 26.1433 40.5656C26.1534 40.555 26.1612 40.5468 26.1666 40.5412C26.1722 40.5353 26.1748 40.5326 26.1748 40.5326L25.5977 39.9786ZM20.2443 46.013L19.6292 45.5016C18.4356 46.937 17.3867 47.2599 16.6392 47.2599V48.0599V48.86C17.9477 48.86 19.4212 48.2543 20.8594 46.5245L20.2443 46.013ZM53.5234 40.9173L53.5245 40.1173C53.5158 40.1173 53.5073 40.1149 53.4998 40.1104L53.0873 40.7959L52.6748 41.4813C52.9307 41.6353 53.2236 41.7169 53.5223 41.7173L53.5234 40.9173ZM53.0873 40.7959L53.4998 40.1104C53.4924 40.106 53.4863 40.0996 53.4822 40.0919L52.7758 40.4674L52.0694 40.8429C52.2096 41.1066 52.4189 41.3273 52.6748 41.4813L53.0873 40.7959ZM52.7758 40.4674L53.4822 40.0919C53.4782 40.0842 53.4763 40.0756 53.4767 40.0669L52.6778 40.0255L51.8789 39.984C51.8634 40.2823 51.9293 40.5792 52.0694 40.8429L52.7758 40.4674ZM52.6778 40.0255L53.4767 40.0669C53.4772 40.0583 53.48 40.0499 53.4848 40.0427L52.8211 39.5961L52.1573 39.1495C51.9906 39.3973 51.8943 39.6857 51.8789 39.984L52.6778 40.0255ZM52.8211 39.5961L53.4845 40.0432C57.4875 34.1031 60.1899 27.5494 61.5939 22.0852C62.2957 19.354 62.6791 16.8718 62.7305 14.8579C62.7562 13.8512 62.6995 12.9425 62.5493 12.1686C62.4009 11.4047 62.1504 10.7137 61.745 10.1956L61.1149 10.6886L60.4849 11.1816C60.6729 11.4219 60.855 11.8369 60.9786 12.4736C61.1003 13.1004 61.1548 13.8868 61.131 14.8171C61.0836 16.677 60.7257 19.0352 60.0443 21.687C58.6819 26.989 56.0506 33.3723 52.1577 39.149L52.8211 39.5961ZM61.1149 10.6886L61.7449 10.1956C58.5932 6.16848 54.1384 4.08207 48.5926 3.96219L48.5753 4.76201L48.558 5.56182C53.6787 5.67251 57.6612 7.57366 60.485 11.1817L61.1149 10.6886ZM48.5753 4.76201L48.5925 3.96219C44.5118 3.87435 41.2726 4.91344 40.7154 5.10436L40.9747 5.86116L41.234 6.61797C41.7033 6.4572 44.7413 5.47966 48.5581 5.56182L48.5753 4.76201ZM40.9747 5.86116L40.6729 5.12029L40.5438 5.17289L40.8456 5.91376L41.1475 6.65463L41.2766 6.60204L40.9747 5.86116ZM40.8456 5.91376L40.6059 5.15052C40.5698 5.16187 40.5511 5.16098 40.5464 5.16061C40.5414 5.16021 40.5394 5.15932 40.5376 5.15842C40.5348 5.15702 40.5298 5.15379 40.524 5.14768C40.5179 5.14115 40.5146 5.13523 40.5138 5.13336L39.7847 5.46273L39.0557 5.79209C39.3442 6.43082 40.1231 6.97926 41.0854 6.67699L40.8456 5.91376ZM39.7847 5.46273L40.5144 5.13468C40.5094 5.12355 40.5086 5.11096 40.5122 5.09931L39.7485 4.86131L38.9847 4.62331C38.8648 5.00801 38.8899 5.42327 39.0551 5.79077L39.7847 5.46273ZM39.7485 4.86131L40.5122 5.09931C40.5159 5.08765 40.5237 5.07772 40.5341 5.0714L40.1199 4.38695L39.7058 3.70249C39.3611 3.91109 39.1046 4.23862 38.9847 4.62331L39.7485 4.86131ZM40.1199 4.38695L40.5249 5.07688C40.5078 5.08689 40.4952 5.09334 40.4907 5.09558C40.4878 5.09705 40.4856 5.09809 40.4844 5.09869C40.4831 5.0993 40.4824 5.09963 40.4823 5.09965C40.4823 5.09966 40.4839 5.09892 40.4875 5.09738C40.4909 5.09588 40.4957 5.09387 40.5018 5.09133C40.5273 5.08079 40.5676 5.06499 40.6235 5.04444L40.3479 4.29345L40.0722 3.54245C39.9639 3.58219 39.8134 3.63923 39.715 3.69701L40.1199 4.38695ZM40.3479 4.29345L40.623 5.04465C41.4288 4.74953 44.5174 3.81924 48.3436 3.86302L48.3527 3.06307L48.3619 2.26312C44.2948 2.21659 41.0105 3.1988 40.0727 3.54224L40.3479 4.29345ZM48.3527 3.06307L48.3442 3.86303C54.0289 3.92341 58.664 6.10552 61.8189 10.1372L62.4489 9.6442L63.0789 9.15118C59.5932 4.69669 54.4788 2.3281 48.3612 2.26312L48.3527 3.06307ZM62.4489 9.6442L61.8189 10.1372C62.4379 10.9283 62.8281 12.3647 62.8298 14.4712C62.8314 16.547 62.4559 19.1472 61.6844 22.1341L62.459 22.3342L63.2336 22.5342C64.0266 19.4638 64.4316 16.7228 64.4298 14.4699C64.428 12.2477 64.0308 10.3677 63.079 9.1512L62.4489 9.6442ZM62.459 22.3342L61.6844 22.1341C60.1128 28.22 57.15 34.7736 53.5628 40.0968L54.2262 40.5438L54.8897 40.9909C58.5763 35.5201 61.6156 28.7999 63.2336 22.5342L62.459 22.3342ZM54.2262 40.5438L53.5615 40.0987C53.5572 40.1051 53.5527 40.1088 53.5473 40.1117C53.5408 40.115 53.5323 40.1173 53.5234 40.1173V40.9173V41.7173C54.049 41.7173 54.5724 41.4647 54.891 40.9889L54.2262 40.5438ZM53.9271 46.3414V45.5414C52.6072 45.5414 51.5854 45.3475 51.0578 45.0314L50.6467 45.7177L50.2355 46.4039C51.1551 46.9549 52.5504 47.1414 53.9271 47.1414V46.3414ZM50.6467 45.7177L51.0579 45.0315C50.8106 44.8832 50.6919 44.7281 50.6299 44.6107C50.5645 44.4872 50.5455 44.3731 50.5411 44.2987L49.7425 44.3449L48.9438 44.3911C48.9734 44.9032 49.2079 45.7881 50.2354 46.4039L50.6467 45.7177ZM49.7425 44.3449L50.5412 44.2994C50.4486 42.6722 50.8539 41.8609 51.2594 41.425C51.6878 40.9645 52.2359 40.785 52.7266 40.6465L52.5092 39.8766L52.2919 39.1067C51.7795 39.2513 50.8429 39.5236 50.0879 40.3353C49.31 41.1716 48.8335 42.4529 48.9438 44.3904L49.7425 44.3449ZM52.5092 39.8766L53.1767 39.4355C53.0125 39.1871 52.788 38.9074 52.5895 38.6597L51.9652 39.1599L51.3409 39.6601C51.5536 39.9256 51.7265 40.1432 51.8418 40.3176L52.5092 39.8766ZM51.9652 39.1599L52.5899 38.6601C52.0105 37.936 51.2723 37.0103 50.7015 35.626L49.9619 35.931L49.2223 36.2359C49.8861 37.8457 50.7502 38.9218 51.3406 39.6597L51.9652 39.1599ZM49.9619 35.931L50.7011 35.6252C50.5814 35.3357 50.244 34.7335 49.9107 34.135L49.2118 34.5242L48.5129 34.9135C48.8808 35.5741 49.149 36.0588 49.2226 36.2368L49.9619 35.931ZM49.2118 34.5242L49.9105 34.1346C48.9553 32.4218 47.5268 29.856 46.6445 27.2801C46.2038 25.9935 45.9132 24.7421 45.8738 23.6208C45.8344 22.5013 46.0466 21.5666 46.5512 20.8452L45.8957 20.3866L45.2402 19.928C44.474 21.0233 44.2277 22.3378 44.2748 23.677C44.3218 25.0144 44.6624 26.431 45.1308 27.7985C46.0666 30.5307 47.5669 33.2171 48.5131 34.9139L49.2118 34.5242ZM45.8957 20.3866L46.5512 20.8452C47.4672 19.5358 49.4098 18.8474 52.7801 19.2079L52.8652 18.4125L52.9503 17.617C49.4185 17.2392 46.6766 17.8746 45.2402 19.928L45.8957 20.3866ZM52.8652 18.4125L53.6253 18.163C53.0877 16.5253 51.5694 13.2191 48.6974 10.2854C45.8096 7.33559 41.5416 4.75457 35.5574 4.65646L35.5443 5.45635L35.5312 6.25624C41.0183 6.3462 44.9031 8.69677 47.5541 11.4047C50.221 14.1289 51.6274 17.2068 52.1051 18.662L52.8652 18.4125ZM35.5443 5.45635L35.5576 4.65646C31.9233 4.59602 28.8722 5.7195 26.5704 8.04373L27.1389 8.60666L27.7073 9.1696C29.6576 7.20026 32.2654 6.20193 35.531 6.25624L35.5443 5.45635ZM27.1389 8.60666L26.5704 8.04378C24.0281 10.6113 22.8393 14.1699 22.2755 17.0176C21.7086 19.881 21.7515 22.1412 21.754 22.2236L22.5536 22.1992L23.3533 22.1748C23.3534 22.1785 23.3417 21.6437 23.3979 20.7658C23.4541 19.8894 23.5775 18.6796 23.845 17.3284C24.3845 14.6034 25.4896 11.4093 27.7073 9.16955L27.1389 8.60666ZM22.5536 22.1992L21.7539 22.2203C21.7541 22.2265 21.753 22.2328 21.7508 22.2386L22.4977 22.5252L23.2446 22.8118C23.3221 22.6098 23.3591 22.3945 23.3534 22.1782L22.5536 22.1992ZM22.4977 22.5252L21.7508 22.2386C21.7485 22.2444 21.7452 22.2498 21.7409 22.2543L22.3212 22.8049L22.9016 23.3555C23.0505 23.1986 23.1671 23.0138 23.2446 22.8118L22.4977 22.5252ZM22.3212 22.8049L21.7409 22.2543C21.7365 22.2589 21.7314 22.2625 21.7257 22.2651L22.0512 22.9958L22.3767 23.7266C22.5743 23.6386 22.7527 23.5125 22.9016 23.3555L22.3212 22.8049ZM22.0512 22.9958L21.7257 22.2651C21.72 22.2676 21.7138 22.269 21.7075 22.2692L21.7286 23.0689L21.7497 23.8686C21.966 23.8629 22.179 23.8147 22.3767 23.7266L22.0512 22.9958ZM21.7286 23.0689L21.7075 22.2692C21.7013 22.2693 21.6951 22.2683 21.6892 22.266L21.4026 23.0129L21.1161 23.7598C21.3181 23.8373 21.5334 23.8743 21.7497 23.8686L21.7286 23.0689ZM21.4026 23.0129L21.6892 22.266C21.6834 22.2638 21.678 22.2604 21.6735 22.2561L21.1229 22.8365L20.5723 23.4169C20.7293 23.5658 20.914 23.6823 21.1161 23.7598L21.4026 23.0129ZM21.1229 22.8365L21.6735 22.2561C21.669 22.2518 21.6653 22.2466 21.6628 22.2409L20.932 22.5664L20.2012 22.8919C20.2892 23.0896 20.4153 23.2679 20.5723 23.4169L21.1229 22.8365ZM20.932 22.5664L21.6628 22.2409C21.6602 22.2352 21.6588 22.229 21.6587 22.2228L20.8589 22.2439L20.0592 22.2649C20.0649 22.4812 20.1132 22.6943 20.2012 22.8919L20.932 22.5664ZM20.8589 22.2439L21.6586 22.2219C21.6543 22.0632 21.607 19.7511 22.2027 16.8377C22.8009 13.9118 24.028 10.476 26.503 7.97634L25.9345 7.41348L25.366 6.85061C22.5774 9.66714 21.2614 13.4535 20.6351 16.5172C20.0062 19.5933 20.053 22.0382 20.0593 22.2659L20.8589 22.2439ZM25.9345 7.41348L26.503 7.97636C28.7933 5.66335 31.816 4.50036 35.5594 4.56156L35.5724 3.76166L35.5855 2.96177C31.4653 2.89441 28.0026 4.18791 25.366 6.85059L25.9345 7.41348ZM35.5724 3.76166L35.5593 4.56156C42.6002 4.67726 47.1252 8.24751 49.6982 11.2429L50.3051 10.7216L50.9119 10.2003C48.1448 6.97894 43.222 3.08726 35.5856 2.96177L35.5724 3.76166ZM50.3051 10.7216L49.6983 11.2429C51.1028 12.8776 52.151 14.5991 52.8605 16.0598C53.5828 17.5466 53.9185 18.6892 53.9637 19.1685L54.7601 19.0935L55.5566 19.0186C55.4843 18.2505 55.0479 16.901 54.2997 15.3607C53.5387 13.7941 52.4181 11.9533 50.9119 10.2002L50.3051 10.7216ZM54.7601 19.0935L53.9637 19.1688C53.9763 19.3025 53.9585 19.3697 53.9501 19.3936C53.9423 19.4157 53.9352 19.4222 53.9325 19.4248C53.9267 19.4305 53.9164 19.4377 53.9014 19.4444C53.8862 19.4512 53.8773 19.4524 53.8867 19.4505L54.0477 20.2341L54.2088 21.0178C54.3472 20.9893 54.7153 20.8921 55.0419 20.5778C55.4039 20.2294 55.6215 19.7046 55.5566 19.0183L54.7601 19.0935ZM54.0477 20.2341L54.0297 19.4343L53.7237 19.4412L53.7417 20.241L53.7598 21.0408L54.0658 21.0339L54.0477 20.2341ZM53.7417 20.241L53.8682 19.4511C52.1309 19.1729 50.6436 19.1191 49.4432 19.3269C48.2401 19.5352 47.242 20.0234 46.6284 20.9001L47.2839 21.3588L47.9393 21.8175C48.224 21.4106 48.7615 21.0688 49.7161 20.9035C50.6734 20.7377 51.9659 20.7668 53.6152 21.031L53.7417 20.241ZM47.2839 21.3588L46.6284 20.9002C45.9878 21.8157 45.8674 22.9792 45.9798 24.1275C46.0934 25.2882 46.4557 26.5493 46.9144 27.7714C47.8323 30.2174 49.197 32.6619 49.9926 34.0888L50.6913 33.6992L51.39 33.3096C50.5876 31.8704 49.2819 29.5262 48.4124 27.2092C47.9773 26.0499 47.6665 24.936 47.5722 23.9717C47.4766 22.9949 47.6133 22.2834 47.9393 21.8174L47.2839 21.3588ZM50.6913 33.6992L49.9927 34.0891C50.4141 34.8441 50.6771 35.3196 50.7893 35.5908L51.5285 35.285L52.2678 34.9792C52.1101 34.598 51.7844 34.0163 51.3899 33.3093L50.6913 33.6992ZM51.5285 35.285L50.789 35.5899C51.3608 36.9768 52.1099 37.9084 52.6633 38.6003L53.288 38.1006L53.9128 37.6009C53.3665 36.918 52.746 36.1389 52.2681 34.98L51.5285 35.285ZM53.288 38.1006L52.6635 38.6006C53.177 39.242 53.4639 39.6242 53.5637 40.034L54.341 39.8447L55.1183 39.6554C54.9184 38.8348 54.367 38.1683 53.9126 37.6006L53.288 38.1006ZM54.341 39.8447L53.6458 40.2406C53.9972 40.8575 55.5071 42.2222 61.4201 41.0016L61.2584 40.2182L61.0967 39.4347C55.2892 40.6335 54.824 39.0763 55.0361 39.4488L54.341 39.8447ZM61.2584 40.2182L61.4199 41.0017C62.0988 40.8617 62.5364 40.8767 62.7921 40.9519C62.9976 41.0123 63.072 41.1009 63.1179 41.2397L63.8774 40.9885L64.637 40.7373C64.4136 40.0617 63.9129 39.6137 63.2434 39.4169C62.6241 39.2348 61.8868 39.2718 61.0969 39.4346L61.2584 40.2182ZM63.8774 40.9885L63.1179 41.2396C63.157 41.358 63.1572 41.5375 62.9948 41.8289C62.8288 42.1268 62.5322 42.4635 62.1261 42.8145C61.3176 43.5134 60.2335 44.1346 59.4531 44.4969L59.79 45.2225L60.1269 45.9481C60.9918 45.5466 62.2162 44.8516 63.1725 44.0249C63.6489 43.6131 64.0988 43.1346 64.3924 42.6078C64.6897 42.0745 64.8627 41.4198 64.637 40.7373L63.8774 40.9885ZM59.79 45.2225L59.4528 44.4971C58.1126 45.1201 55.8824 45.5414 53.9271 45.5414V46.3414V47.1414C56.0434 47.1414 58.519 46.6956 60.1272 45.948L59.79 45.2225ZM51.4324 44.2052L50.8643 44.7685C51.0316 44.9372 51.2527 45.0418 51.4271 45.1091C51.6259 45.1859 51.8684 45.253 52.1522 45.3067C52.7214 45.4144 53.4986 45.4761 54.5092 45.4326L54.4749 44.6334L54.4405 43.8341C53.5248 43.8735 52.8738 43.8149 52.4497 43.7346C52.237 43.6944 52.0917 43.6506 52.0036 43.6166C51.891 43.5731 51.9261 43.5669 52.0005 43.6419L51.4324 44.2052ZM54.4749 44.6334L54.5091 45.4327C56.2847 45.3567 58.2038 44.9722 59.4145 44.4102L59.0776 43.6846L58.7408 42.9589C57.7839 43.4031 56.0905 43.7635 54.4406 43.8341L54.4749 44.6334ZM59.0776 43.6846L59.4146 44.4101C60.8781 43.7303 61.8863 42.9568 62.441 42.388L61.8683 41.8294L61.2955 41.2709C60.8918 41.6849 60.0491 42.3511 58.7406 42.959L59.0776 43.6846ZM61.8683 41.8294L61.7235 41.0427L61.4579 41.0915L61.6026 41.8783L61.7474 42.6651L62.013 42.6162L61.8683 41.8294ZM61.6026 41.8783L61.4409 41.0948C59.6053 41.4738 58.0745 41.6299 56.845 41.5821C55.6083 41.534 54.7383 41.2819 54.166 40.9041L53.7253 41.5718L53.2845 42.2395C54.1923 42.8386 55.3875 43.1266 56.7828 43.1809C58.1852 43.2354 59.8531 43.0564 61.7644 42.6618L61.6026 41.8783ZM53.7253 41.5718L54.1664 40.9044C54.0913 40.8548 54.0189 40.801 53.9497 40.7435L53.4384 41.3588L52.9271 41.974C53.0412 42.0688 53.1603 42.1573 53.2841 42.2391L53.7253 41.5718ZM53.4384 41.3588L53.1451 40.6145C53.0268 40.6611 52.9144 40.6929 52.8073 40.7231L53.024 41.4932L53.2407 42.2633C53.345 42.2339 53.5291 42.1829 53.7317 42.1031L53.4384 41.3588ZM53.024 41.4932L52.808 40.7229C52.4226 40.8309 51.7451 40.9995 51.2551 41.5884C50.7576 42.1862 50.5715 43.0514 50.6335 44.2466L51.4324 44.2052L52.2313 44.1638C52.1775 43.1261 52.3674 42.753 52.4849 42.6118C52.6099 42.4617 52.786 42.3907 53.24 42.2635L53.024 41.4932ZM27.2276 48.9413V48.1413C26.3689 48.1413 25.4546 48.024 24.511 47.788L24.3169 48.5641L24.1227 49.3402C25.1798 49.6046 26.2248 49.7413 27.2276 49.7413V48.9413ZM24.3169 48.5641L24.511 47.788C24.0551 47.674 23.4553 47.446 22.9934 47.1279C22.5109 46.7957 22.3546 46.4959 22.3595 46.2591L21.5597 46.2425L20.7598 46.226C20.7382 47.2711 21.4423 48.0025 22.0859 48.4457C22.7501 48.9031 23.5421 49.195 24.1227 49.3402L24.3169 48.5641ZM21.5597 46.2425L22.3595 46.2594C22.365 45.9999 22.5424 45.7326 23.0838 45.4659C23.6045 45.2095 24.2276 45.0774 24.6301 44.9946L24.4688 44.211L24.3075 43.4275C23.9226 43.5067 23.1064 43.6713 22.3769 44.0306C21.6681 44.3797 20.7847 45.0471 20.7598 46.2257L21.5597 46.2425ZM24.4688 44.211L24.6302 44.9946C26.0349 44.7052 26.9063 44.4818 27.5373 44.146C28.22 43.7826 28.5833 43.3056 29.0159 42.7562L28.3873 42.2614L27.7587 41.7665C27.3025 42.346 27.1287 42.5509 26.7855 42.7336C26.3904 42.9439 25.747 43.1309 24.3074 43.4275L24.4688 44.211ZM28.3873 42.2614L29.0155 42.7566C29.274 42.4287 29.5831 42.0364 30.0047 41.5659L29.4089 41.032L28.8131 40.4982C28.355 41.0094 28.019 41.4363 27.7591 41.7661L28.3873 42.2614ZM29.4089 41.032L30.0055 41.565C30.5547 40.9501 31.0665 40.7308 31.5296 40.7308V39.9308V39.1308C30.484 39.1308 29.5688 39.652 28.8122 40.4991L29.4089 41.032ZM31.5296 39.9308V40.7308C31.8805 40.7308 32.1805 40.8482 32.4633 40.9658L32.7706 40.2272L33.0779 39.4886C32.7912 39.3693 32.2296 39.1308 31.5296 39.1308V39.9308ZM32.7706 40.2272L32.4643 40.9662C33.1104 41.2341 33.7216 41.9273 33.9772 42.8205L34.7464 42.6003L35.5155 42.3801C35.1485 41.0984 34.2456 39.9726 33.077 39.4882L32.7706 40.2272ZM34.7464 42.6003L33.9773 42.8206C34.2011 43.602 34.0805 44.2873 33.7181 44.7949L34.3692 45.2597L35.0203 45.7246C35.7055 44.7649 35.8537 43.561 35.5154 42.38L34.7464 42.6003ZM34.3692 45.2597L33.7181 44.7948C32.1482 46.9933 29.9205 48.1413 27.2276 48.1413V48.9413V49.7413C30.4389 49.7413 33.1509 48.3424 35.0202 45.7246L34.3692 45.2597ZM23.3909 46.3153L22.9015 46.9481C23.2552 47.2217 23.8712 47.5298 24.5347 47.6955L24.7286 46.9194L24.9224 46.1432C24.4459 46.0242 24.0376 45.8042 23.8803 45.6825L23.3909 46.3153ZM24.7286 46.9194L24.5344 47.6954C25.4564 47.9261 26.3623 48.0461 27.2281 48.0461V47.2461V46.4461C26.5087 46.4461 25.7337 46.3461 24.9227 46.1433L24.7286 46.9194ZM27.2281 47.2461V48.0461C29.9025 48.0461 32.0837 46.9207 33.6416 44.7392L32.9906 44.2743L32.3396 43.8093C31.0808 45.5718 29.3838 46.4461 27.2281 46.4461V47.2461ZM32.9906 44.2743L33.6415 44.7393C34.1632 44.0092 33.9768 43.1609 33.8867 42.846L33.1175 43.0662L32.3484 43.2864C32.3744 43.3771 32.3964 43.492 32.3939 43.6011C32.3915 43.7073 32.3675 43.7702 32.3396 43.8092L32.9906 44.2743ZM33.1175 43.0662L33.8867 42.846C33.6774 42.115 33.1416 41.3495 32.4291 41.0539L32.1225 41.7928L31.8159 42.5317C31.946 42.5857 32.2283 42.8667 32.3484 43.2864L33.1175 43.0662ZM32.1225 41.7928L32.4285 41.0536C32.2293 40.9712 31.8909 40.826 31.5302 40.826V41.626V42.426C31.5092 42.426 31.5165 42.422 31.5721 42.439C31.6294 42.4565 31.7024 42.4847 31.8165 42.532L32.1225 41.7928ZM31.5302 41.626V40.826C31.4191 40.826 31.1948 40.8334 30.9062 40.9688C30.6403 41.0936 30.366 41.3047 30.0763 41.6288L30.6727 42.162L31.2692 42.6952C31.4586 42.4833 31.5663 42.4264 31.586 42.4172C31.5941 42.4134 31.5861 42.4181 31.5635 42.4221C31.5397 42.4263 31.5182 42.426 31.5302 42.426V41.626ZM30.6727 42.162L30.0749 41.6304C29.7321 42.0159 29.4026 42.413 29.0869 42.821L29.7197 43.3106L30.3524 43.8001C30.6458 43.4209 30.952 43.0519 31.2706 42.6936L30.6727 42.162ZM29.7197 43.3106L29.0912 42.8156C28.5431 43.5115 28.2221 43.87 27.6941 44.1662C27.1342 44.4803 26.291 44.7502 24.6501 45.0882L24.8114 45.8717L24.9728 46.6553C26.6256 46.3149 27.683 46.007 28.477 45.5616C29.3029 45.0982 29.7892 44.5153 30.3481 43.8056L29.7197 43.3106ZM24.8114 45.8717L24.6509 45.088C23.8018 45.262 23.3069 45.4507 23.0092 45.6122L23.3909 46.3153L23.7726 47.0184C23.884 46.9579 24.2135 46.8109 24.972 46.6554L24.8114 45.8717ZM29.9088 42.4053L29.9101 41.6053C29.8986 41.6053 29.8876 41.6012 29.8789 41.5938L29.3574 42.2004L28.8359 42.807C29.1341 43.0634 29.5142 43.2047 29.9075 43.2053L29.9088 42.4053ZM29.3574 42.2004L29.8789 41.5938C29.8703 41.5863 29.8646 41.576 29.8628 41.5647L29.0721 41.686L28.2813 41.8073C28.341 42.1961 28.5377 42.5507 28.8359 42.807L29.3574 42.2004ZM29.0721 41.686L29.8632 41.5675C29.846 41.4526 29.8345 41.3369 29.8285 41.2208L29.0296 41.2615L28.2306 41.3023C28.2392 41.4704 28.256 41.638 28.2809 41.8045L29.0721 41.686ZM29.0296 41.2615L29.0445 40.4617C27.1083 40.4255 25.2248 39.5947 23.7836 38.091L23.206 38.6446L22.6285 39.1982C24.3503 40.9946 26.6329 42.0169 29.0146 42.0614L29.0296 41.2615ZM23.206 38.6446L23.7836 38.091C21.9597 36.1882 21.1213 33.545 21.5019 30.8255L20.7097 30.7146L19.9174 30.6038C19.4714 33.7907 20.4531 36.9286 22.6285 39.1982L23.206 38.6446ZM20.7097 30.7146L21.5019 30.8255C21.9627 27.5335 21.7896 24.6339 21.699 23.1081L20.9004 23.1555L20.1018 23.2029C20.1918 24.719 20.3544 27.4814 19.9174 30.6037L20.7097 30.7146ZM20.9004 23.1555L21.699 23.1083C21.6733 22.6724 21.6575 22.399 21.6584 22.2197L20.8584 22.2157L20.0584 22.2117C20.0572 22.4553 20.0776 22.7928 20.1018 23.2026L20.9004 23.1555ZM20.8584 22.2157L21.6584 22.2204C21.6587 22.1708 21.6599 22.1726 21.662 22.1656C21.6651 22.1555 21.6849 22.0951 21.7767 21.9838C21.9736 21.7453 22.4569 21.3262 23.6049 20.7442L23.2432 20.0307L22.8815 19.3171C21.6516 19.9405 20.9434 20.4799 20.5427 20.9654C20.3358 21.2161 20.2053 21.4592 20.1326 21.6956C20.059 21.9351 20.0589 22.1265 20.0584 22.2109L20.8584 22.2157ZM23.2432 20.0307L23.6049 20.7442C24.4162 20.333 26.0098 19.6349 27.7195 19.4579L27.6372 18.6622L27.5548 17.8664C25.5596 18.073 23.7617 18.8709 22.8815 19.3171L23.2432 20.0307ZM27.6372 18.6622L27.7194 19.4579C29.1229 19.3129 30.1933 19.5617 30.9619 20.081C31.7229 20.5951 32.2844 21.4394 32.5529 22.6807L33.3348 22.5116L34.1167 22.3425C33.7796 20.7842 33.0268 19.5451 31.8576 18.7552C30.6961 17.9704 29.2205 17.6943 27.5549 17.8664L27.6372 18.6622ZM33.3348 22.5116L32.5529 22.6807C33.3541 26.3855 33.3764 29.0123 33.0839 30.9848C32.7919 32.9539 32.1814 34.3146 31.6358 35.5266L32.3653 35.855L33.0948 36.1834C33.6483 34.9538 34.34 33.4221 34.6666 31.2195C34.9927 29.0204 34.9502 26.1963 34.1167 22.3425L33.3348 22.5116ZM32.3653 35.855L31.6357 35.5269C31.4338 35.9757 31.2286 36.4305 31.0629 36.8763L31.8128 37.155L32.5627 37.4337C32.7062 37.0476 32.8877 36.6439 33.0949 36.1832L32.3653 35.855ZM31.8128 37.155L31.0631 36.8757L30.9266 37.2423L31.6763 37.5215L32.4259 37.8008L32.5625 37.4342L31.8128 37.155ZM31.6763 37.5215L30.9267 37.242C30.64 38.0109 30.3549 38.7731 30.1646 39.4719C29.9762 40.1633 29.8543 40.8807 29.9569 41.5496L30.7476 41.4284L31.5384 41.3071C31.4869 40.9715 31.539 40.5139 31.7083 39.8924C31.8756 39.2782 32.1319 38.5893 32.4258 37.8011L31.6763 37.5215ZM30.7476 41.4284L29.9569 41.5499C29.9579 41.5561 29.9576 41.5624 29.9561 41.5684L30.7331 41.7588L31.5101 41.9492C31.5617 41.739 31.5712 41.5207 31.5383 41.3068L30.7476 41.4284ZM30.7331 41.7588L29.9561 41.5684C29.9546 41.5744 29.952 41.5801 29.9483 41.5851L30.5932 42.0585L31.2382 42.5318C31.3662 42.3573 31.4586 42.1594 31.5101 41.9492L30.7331 41.7588ZM30.5932 42.0585L29.9483 41.5851C29.9446 41.5902 29.94 41.5944 29.9347 41.5976L30.3493 42.2818L30.7639 42.966C30.949 42.8538 31.1101 42.7063 31.2382 42.5318L30.5932 42.0585ZM30.3493 42.2818L29.9347 41.5976C29.9294 41.6008 29.9235 41.603 29.9173 41.6039L30.0384 42.3947L30.1595 43.1855C30.3734 43.1527 30.5788 43.0781 30.7639 42.966L30.3493 42.2818ZM30.0384 42.3947L29.9731 41.5974L29.8434 41.608L29.9088 42.4053L29.9741 43.2026L30.1038 43.192L30.0384 42.3947ZM22.559 22.4505L21.7601 22.494L21.7931 23.0991L22.5919 23.0556L23.3907 23.0121L23.3578 22.407L22.559 22.4505ZM22.5919 23.0556L21.7933 23.1029C21.8865 24.6772 22.0555 27.5491 21.5956 30.8392L22.3879 30.95L23.1802 31.0607C23.6637 27.6018 23.4843 24.5939 23.3905 23.0083L22.5919 23.0556ZM22.3879 30.95L21.5956 30.8392C21.2227 33.5065 22.0364 36.1319 23.8521 38.0253L24.4295 37.4716L25.0069 36.9179C23.5458 35.3943 22.872 33.265 23.1802 31.0607L22.3879 30.95ZM24.4295 37.4716L23.852 38.0252C25.2882 39.5233 27.1967 40.3674 29.1789 40.3674V39.5674V38.7674C27.659 38.7674 26.1601 38.1208 25.007 36.918L24.4295 37.4716ZM29.1789 39.5674V40.3674H29.215V39.5674V38.7674H29.1789V39.5674ZM29.215 39.5674L29.9934 39.7521C30.1757 38.9838 30.4817 38.1607 30.8368 37.2088L30.0873 36.9292L29.3378 36.6496C28.9916 37.5773 28.6463 38.4988 28.4366 39.3827L29.215 39.5674ZM30.0873 36.9292L30.8372 37.2079L30.9726 36.8435L30.2228 36.5648L29.4729 36.286L29.3374 36.6505L30.0873 36.9292ZM30.2228 36.5648L30.9725 36.8438C31.1364 36.4034 31.3297 35.9729 31.5483 35.4876L30.8188 35.1591L30.0894 34.8306C29.8744 35.3079 29.6587 35.7869 29.473 36.2857L30.2228 36.5648ZM30.8188 35.1591L31.5483 35.4874C32.0806 34.3048 32.7162 32.8979 33.0052 30.8764C33.2935 28.8595 33.2321 26.2769 32.4587 22.7011L31.6768 22.8702L30.8949 23.0393C31.6382 26.4765 31.6767 28.8633 31.4213 30.65C31.1665 32.432 30.6148 33.6631 30.0893 34.8308L30.8188 35.1591ZM31.6768 22.8702L32.4587 22.7012C32.2877 21.9097 31.981 21.2211 31.4934 20.6826C30.9994 20.1371 30.364 19.7948 29.6244 19.631L29.4514 20.4121L29.2784 21.1932C29.7356 21.2944 30.0629 21.4866 30.3074 21.7566C30.5582 22.0336 30.7657 22.4415 30.8948 23.0391L31.6768 22.8702ZM29.4514 20.4121L29.6239 19.6309C28.1658 19.3089 26.4563 19.7013 25.0954 20.2025C24.3979 20.4593 23.7552 20.7585 23.2313 21.0448C22.7242 21.3219 22.2771 21.6146 22.0076 21.8708L22.559 22.4505L23.1103 23.0302C23.2257 22.9204 23.5253 22.7074 23.9985 22.4489C24.455 22.1994 25.0262 21.933 25.6483 21.7039C26.9265 21.2332 28.2784 20.9723 29.2789 21.1933L29.4514 20.4121ZM27.6749 22.0909L26.8828 21.9785C26.8363 22.3064 26.9615 22.5985 27.0443 22.7586C27.1453 22.9535 27.2863 23.1458 27.4505 23.3182C27.7707 23.6543 28.2665 24.0041 28.8853 24.0898L28.995 23.2973L29.1047 22.5049C28.9522 22.4838 28.7667 22.3802 28.609 22.2146C28.5343 22.1362 28.4873 22.0656 28.4652 22.0229C28.4542 22.0018 28.4558 21.9998 28.4605 22.0172C28.4634 22.0282 28.4819 22.0977 28.467 22.2032L27.6749 22.0909ZM28.995 23.2973L28.884 24.0896C29.5151 24.178 30.069 23.9633 30.4521 23.7035C30.6462 23.5719 30.8167 23.4159 30.9498 23.2503C31.0666 23.105 31.2181 22.8742 31.2578 22.5907L30.4655 22.4797L29.6733 22.3688C29.6843 22.2901 29.7078 22.2446 29.711 22.2383C29.7165 22.2278 29.7157 22.2318 29.7028 22.2478C29.6766 22.2804 29.6264 22.3303 29.5543 22.3791C29.4052 22.4802 29.2448 22.5245 29.106 22.5051L28.995 23.2973ZM30.4655 22.4797L31.2578 22.5907C31.3099 22.2191 31.1505 21.9239 31.0032 21.7449C30.8565 21.5666 30.6711 21.4358 30.5007 21.3406C30.1552 21.1475 29.7141 21.0138 29.2556 20.95L29.1454 21.7424L29.0352 22.5347C29.348 22.5782 29.588 22.6634 29.7202 22.7373C29.7887 22.7756 29.7913 22.7902 29.7677 22.7615C29.7435 22.7321 29.6422 22.5905 29.6733 22.3688L30.4655 22.4797ZM29.1454 21.7424L29.2557 20.95C28.7975 20.8862 28.3369 20.8943 27.9519 20.9856C27.7621 21.0306 27.5479 21.1057 27.358 21.2372C27.1673 21.3693 26.9331 21.6102 26.8822 21.9826L27.6749 22.0909L28.4675 22.1991C28.4371 22.4217 28.3006 22.5307 28.269 22.5526C28.2383 22.5739 28.2446 22.5605 28.3209 22.5424C28.4683 22.5075 28.7224 22.4912 29.0351 22.5347L29.1454 21.7424ZM29.1719 23.5922L29.2269 22.7941L29.0106 22.7792L28.9557 23.5773L28.9008 24.3754L29.117 24.3903L29.1719 23.5922ZM28.9557 23.5773L29.0658 22.7849C28.8273 22.7518 28.5238 22.5834 28.3019 22.2891L27.6632 22.7709L27.0245 23.2526C27.4645 23.836 28.1279 24.27 28.8457 24.3697L28.9557 23.5773ZM27.6632 22.7709L28.3016 22.2887C28.2841 22.2655 28.2645 22.2377 28.2458 22.2078C28.2268 22.1774 28.2117 22.1493 28.2009 22.1252C28.1897 22.1003 28.1871 22.0887 28.1874 22.09C28.1877 22.0913 28.1934 22.1184 28.187 22.1636L27.3949 22.0515L26.6028 21.9395C26.5536 22.2871 26.6561 22.5914 26.7417 22.7817C26.8325 22.9834 26.9467 23.1496 27.0248 23.253L27.6632 22.7709ZM27.3949 22.0515L28.1875 22.1603C28.1796 22.2176 28.1545 22.2676 28.1276 22.3C28.1046 22.3276 28.0946 22.3258 28.1258 22.3105C28.1965 22.2758 28.3681 22.2263 28.6699 22.2263V21.4263V20.6263C28.2275 20.6263 27.7883 20.6939 27.4211 20.8741C27.0409 21.0606 26.6757 21.4079 26.6023 21.9428L27.3949 22.0515ZM28.6699 21.4263V22.2263C28.7976 22.2263 28.9336 22.2357 29.0725 22.2552L29.1836 21.4629L29.2947 20.6707C29.0851 20.6413 28.8748 20.6263 28.6699 20.6263V21.4263ZM29.1836 21.4629L29.074 22.2554C29.4083 22.3016 29.6854 22.3949 29.8573 22.4909L30.2472 21.7923L30.6371 21.0937C30.2512 20.8784 29.7728 20.7368 29.2933 20.6705L29.1836 21.4629ZM30.2472 21.7923L29.8573 22.4908C29.9953 22.5679 29.9962 22.6075 29.975 22.5667C29.9655 22.5482 29.9565 22.5226 29.9521 22.4918C29.9478 22.4622 29.9486 22.4339 29.9522 22.4082L30.7444 22.519L31.5367 22.6299C31.5663 22.4184 31.5516 22.1314 31.3955 21.8303C31.2411 21.5325 30.9825 21.2866 30.6371 21.0938L30.2472 21.7923ZM30.7444 22.519L29.9519 22.4099C29.9602 22.3502 29.9763 22.3511 29.9372 22.4063C29.9033 22.454 29.8452 22.5172 29.7621 22.5803C29.5922 22.7091 29.3797 22.7922 29.1719 22.7922V23.5922V24.3922C29.7903 24.3922 30.3343 24.1546 30.7292 23.8549C31.0918 23.5798 31.466 23.1435 31.537 22.6282L30.7444 22.519ZM27.9559 22.1408L27.1625 22.2434C27.1932 22.4803 27.3147 22.6814 27.3824 22.7842C27.4716 22.9197 27.5877 23.0607 27.7238 23.1925C27.9852 23.4456 28.3975 23.7376 28.9243 23.8104L29.0338 23.0179L29.1433 22.2254C29.0741 22.2158 28.9594 22.1617 28.8368 22.043C28.7809 21.989 28.7408 21.9377 28.7188 21.9043C28.7078 21.8876 28.7065 21.8832 28.7107 21.8923C28.713 21.8972 28.7188 21.9101 28.7254 21.9304C28.7315 21.949 28.7426 21.9864 28.7493 22.0382L27.9559 22.1408ZM29.0338 23.0179L28.9788 23.816L29.1174 23.8256L29.1725 23.0274L29.2275 22.2293L29.0889 22.2198L29.0338 23.0179ZM29.1725 23.0274V23.8274C29.6585 23.8274 30.0576 23.6379 30.3285 23.4458C30.4661 23.3482 30.5844 23.2405 30.6789 23.1345C30.7542 23.05 30.8752 22.8999 30.9396 22.7107L30.1824 22.4526L29.4252 22.1946C29.4392 22.1535 29.4537 22.124 29.462 22.1083C29.471 22.0913 29.4783 22.0799 29.4821 22.0743C29.4893 22.0634 29.491 22.0625 29.4843 22.07C29.4708 22.0852 29.4429 22.1123 29.4029 22.1407C29.3185 22.2006 29.2368 22.2274 29.1725 22.2274V23.0274ZM30.1824 22.4526L30.89 22.0794C30.7905 21.8907 30.6377 21.7699 30.5627 21.7144C30.4617 21.6398 30.3444 21.5719 30.2167 21.512C29.9591 21.3912 29.6248 21.2868 29.217 21.23L29.1066 22.0223L28.9962 22.8147C29.2594 22.8513 29.4374 22.9137 29.5373 22.9606C29.5618 22.9721 29.5803 22.982 29.5933 22.9896C29.6065 22.9973 29.6122 23.0015 29.6116 23.0011C29.6112 23.0008 29.6084 22.9987 29.6036 22.9946C29.5989 22.9907 29.5911 22.9837 29.5809 22.9735C29.5674 22.9599 29.5194 22.9104 29.4748 22.8259L30.1824 22.4526ZM29.1066 22.0223L29.2202 21.2304C29.0384 21.2043 28.8549 21.1912 28.6713 21.191L28.6704 21.991L28.6696 22.791C28.7779 22.7911 28.8859 22.7988 28.993 22.8142L29.1066 22.0223ZM28.6704 21.991V21.191C28.3962 21.191 28.1621 21.2217 27.9691 21.2722C27.8731 21.2974 27.7805 21.3292 27.6949 21.3686C27.6231 21.4017 27.5058 21.4628 27.3987 21.5667L27.9559 22.1408L28.5131 22.7149C28.4673 22.7593 28.4276 22.7857 28.4089 22.7974C28.3874 22.8109 28.3717 22.8185 28.3646 22.8218C28.3507 22.8282 28.3524 22.8258 28.3744 22.8201C28.4173 22.8088 28.5133 22.791 28.6704 22.791V21.991ZM51.1211 21.4794L50.3288 21.5904C50.3141 21.4852 50.3326 21.416 50.3354 21.4052C50.3401 21.3881 50.3416 21.3902 50.3306 21.4114C50.3084 21.4542 50.2613 21.525 50.1866 21.6034C50.0289 21.7692 49.8435 21.8728 49.6911 21.894L49.8015 22.6864L49.9118 23.4787C50.5303 23.3926 51.0257 23.0426 51.3455 22.7066C51.5096 22.5341 51.6505 22.342 51.7514 22.1471C51.8342 21.9872 51.9592 21.6957 51.9133 21.3684L51.1211 21.4794ZM49.8015 22.6864L49.6911 21.894C49.5515 21.9135 49.3905 21.8689 49.2409 21.7677C49.1687 21.7188 49.1183 21.6689 49.092 21.6361C49.079 21.6201 49.0782 21.616 49.0836 21.6264C49.0868 21.6327 49.1103 21.6779 49.1214 21.7564L48.3294 21.8688L47.5373 21.9811C47.5774 22.2643 47.7291 22.4948 47.846 22.6399C47.9793 22.8053 48.1499 22.9612 48.344 23.0927C48.7273 23.3521 49.281 23.5666 49.9118 23.4787L49.8015 22.6864ZM48.3294 21.8688L49.1222 21.762C49.152 21.9829 49.0508 22.1229 49.0274 22.1513C49.0043 22.1793 49.0075 22.1644 49.076 22.1261C49.2084 22.0521 49.4481 21.9671 49.7599 21.9238L49.65 21.1314L49.5402 20.339C49.0817 20.4025 48.6409 20.5364 48.2954 20.7295C48.125 20.8247 47.9399 20.9554 47.7933 21.1331C47.6464 21.3111 47.4866 21.6049 47.5365 21.9756L48.3294 21.8688ZM49.65 21.1314L49.761 21.9237C50.0729 21.88 50.3267 21.8963 50.474 21.9312C50.5503 21.9493 50.5571 21.9627 50.5269 21.9419C50.4963 21.9207 50.3605 21.8131 50.329 21.5919L51.1211 21.4794L51.9131 21.3668C51.8604 20.9961 51.6264 20.7567 51.4363 20.6254C51.2467 20.4945 51.0329 20.4194 50.843 20.3744C50.458 20.2831 49.9975 20.275 49.5391 20.3391L49.65 21.1314ZM49.6235 22.8394V22.0394C49.4563 22.0394 49.2733 21.9712 49.1224 21.86C49.0493 21.8061 49.0003 21.754 48.9742 21.7187C48.9412 21.6741 48.9694 21.692 48.9813 21.7767L48.1891 21.8879L47.3969 21.9992C47.4351 22.2711 47.5631 22.5016 47.688 22.6705C47.8199 22.8487 47.9872 23.011 48.1734 23.1482C48.5411 23.4191 49.049 23.6394 49.6235 23.6394V22.8394ZM48.1891 21.8879L48.9818 21.7802C49.0006 21.9187 48.9465 22.0195 48.9212 22.0532C48.9054 22.0743 48.9159 22.0517 48.9959 22.0063C49.155 21.916 49.4254 21.8272 49.7398 21.7836L49.6299 20.9912L49.5199 20.1988C49.0725 20.2608 48.592 20.3957 48.2059 20.615C47.882 20.7989 47.2944 21.2453 47.3964 21.9957L48.1891 21.8879ZM49.6299 20.9912L49.7402 21.7835C49.8731 21.765 50.0025 21.7561 50.1239 21.7561V20.9561V20.1561C49.9255 20.1561 49.7223 20.1706 49.5195 20.1988L49.6299 20.9912ZM50.1239 20.9561V21.7561C50.3876 21.7561 50.5393 21.7966 50.5985 21.8228C50.6251 21.8346 50.6051 21.8313 50.5701 21.7935C50.5297 21.7498 50.4828 21.6733 50.4685 21.5711L51.2608 21.4603L52.0531 21.3494C51.9776 20.8098 51.5743 20.5052 51.2468 20.3601C50.9129 20.212 50.5179 20.1561 50.1239 20.1561V20.9561ZM51.2608 21.4603L50.4685 21.5711C50.4582 21.4975 50.4688 21.4513 50.4704 21.4447C50.4725 21.4358 50.4714 21.4448 50.4581 21.4715C50.4311 21.5261 50.3759 21.6095 50.2879 21.7022L50.8682 22.2529L51.4485 22.8035C51.6267 22.6158 51.7819 22.4036 51.8916 22.1823C51.9913 21.9812 52.0994 21.6804 52.0531 21.3495L51.2608 21.4603ZM50.8682 22.2529L50.2893 21.7007C50.1604 21.8359 49.9479 22.0008 49.7104 22.0336L49.82 22.8261L49.9297 23.6186C50.6984 23.5122 51.2243 23.0386 51.4471 22.8051L50.8682 22.2529ZM49.82 22.8261L49.7661 22.0279L49.5695 22.0412L49.6235 22.8394L49.6774 23.6376L49.874 23.6243L49.82 22.8261ZM50.1244 21.2387V20.4387C49.9379 20.4387 49.7484 20.4529 49.5611 20.4785L49.6697 21.2711L49.7783 22.0637C49.9012 22.0469 50.0178 22.0387 50.1244 22.0387V21.2387ZM49.6697 21.2711L49.5592 20.4788C49.1001 20.5428 48.7011 20.6707 48.3971 20.8331C48.2487 20.9125 48.0927 21.0161 47.9639 21.1497C47.8705 21.2467 47.6198 21.5362 47.6768 21.9571L48.4696 21.8497L49.2624 21.7423C49.2866 21.9212 49.238 22.0594 49.2028 22.1318C49.1675 22.2044 49.1293 22.2463 49.1162 22.2599C49.0907 22.2863 49.0926 22.2756 49.1513 22.2442C49.2615 22.1853 49.4738 22.1062 49.7802 22.0635L49.6697 21.2711ZM48.4696 21.8497L47.6774 21.9612C47.715 22.228 47.8661 22.4358 47.9442 22.5341C48.0489 22.666 48.1825 22.7959 48.3359 22.9111C48.638 23.138 49.0847 23.3573 49.624 23.3573V22.5573V21.7573C49.5231 21.7573 49.4055 21.7134 49.2967 21.6317C49.2448 21.5927 49.2113 21.5569 49.1973 21.5392C49.1902 21.5303 49.1948 21.5345 49.2049 21.5534C49.2102 21.5632 49.2196 21.5818 49.2295 21.6085C49.2389 21.6338 49.2534 21.6783 49.2618 21.7382L48.4696 21.8497ZM49.624 22.5573L49.6804 23.3553L49.8382 23.3441L49.7818 22.5461L49.7254 21.7481L49.5676 21.7593L49.624 22.5573ZM49.7818 22.5461L49.8915 23.3386C50.5791 23.2433 51.0506 22.8116 51.2429 22.6097L50.6637 22.0579L50.0844 21.5061C50.0402 21.5525 49.9737 21.6135 49.8937 21.6644C49.8138 21.7153 49.739 21.7444 49.672 21.7537L49.7818 22.5461ZM50.6637 22.0579L51.2429 22.6097C51.4089 22.4354 51.5364 22.2546 51.6249 22.0843C51.6687 21.9999 51.7084 21.9077 51.7367 21.8117C51.7586 21.7376 51.8002 21.5768 51.7735 21.3874L50.9814 21.499L50.1892 21.6107C50.1828 21.5652 50.1818 21.5269 50.1824 21.4987C50.183 21.4701 50.1854 21.4463 50.1878 21.4285C50.1924 21.3939 50.1989 21.3698 50.2023 21.3583C50.2089 21.3359 50.2126 21.3322 50.205 21.3467C50.1907 21.3743 50.1538 21.4333 50.0844 21.5061L50.6637 22.0579ZM50.9814 21.499L51.7735 21.387C51.7269 21.058 51.5137 20.8632 51.4142 20.785C51.291 20.6882 51.1547 20.6229 51.0311 20.5778C50.7795 20.4861 50.4718 20.4387 50.1244 20.4387V21.2387V22.0387C50.3365 22.0387 50.4498 22.0689 50.4831 22.081C50.5019 22.0879 50.4741 22.0811 50.4255 22.043C50.4005 22.0233 50.3569 21.9851 50.3127 21.9234C50.2693 21.8627 50.2099 21.7574 50.1892 21.6111L50.9814 21.499ZM52.2309 38.6866L52.2304 37.8866C52.2219 37.8866 52.2136 37.8843 52.2063 37.8799L51.7949 38.566L51.3834 39.2521C51.6396 39.4057 51.9327 39.4867 52.2313 39.4866L52.2309 38.6866ZM51.7949 38.566L52.2063 37.8799C52.199 37.8755 52.1931 37.8693 52.1891 37.8618L51.4831 38.2382L50.7772 38.6146C50.9178 38.8781 51.1273 39.0985 51.3834 39.2521L51.7949 38.566ZM51.4831 38.2382L52.1891 37.8618C52.1851 37.8543 52.1832 37.8459 52.1836 37.8374L51.3846 37.7967L50.5857 37.756C50.5705 38.0543 50.6367 38.3511 50.7772 38.6146L51.4831 38.2382ZM51.3846 37.7967L52.1836 37.8374C52.184 37.8289 52.1868 37.8207 52.1915 37.8137L51.5275 37.3675L50.8635 36.9213C50.6969 37.1692 50.6009 37.4577 50.5857 37.756L51.3846 37.7967ZM51.5275 37.3675L52.1922 37.8126C54.1826 34.8399 53.7932 31.7988 53.4772 29.1679L52.6829 29.2633L51.8887 29.3586C52.2113 32.0456 52.4827 34.5028 50.8627 36.9224L51.5275 37.3675ZM52.6829 29.2633L53.4772 29.1675C53.3393 28.0236 53.208 26.9135 53.2419 25.8608L52.4423 25.8351L51.6427 25.8094C51.6043 27.005 51.7535 28.2376 51.8887 29.359L52.6829 29.2633ZM52.4423 25.8351L53.2419 25.8608C53.2773 24.758 53.4171 23.8474 53.5592 22.9232L52.7685 22.8017L51.9778 22.6801C51.8361 23.6015 51.6816 24.5991 51.6427 25.8094L52.4423 25.8351ZM52.7685 22.8017L53.5592 22.9235C53.7267 21.8355 53.9001 20.7262 53.8292 19.4066L53.0304 19.4495L52.2315 19.4924C52.2924 20.6251 52.147 21.5812 51.9778 22.6799L52.7685 22.8017ZM53.0304 19.4495L53.8292 19.4064C53.8289 19.4001 53.8298 19.3939 53.8319 19.388L53.0773 19.1221L52.3228 18.8563C52.2509 19.0603 52.2199 19.2766 52.2315 19.4926L53.0304 19.4495ZM53.0773 19.1221L53.8319 19.388C53.8339 19.3821 53.8371 19.3767 53.8413 19.3721L53.246 18.8377L52.6506 18.3033C52.5061 18.4643 52.3947 18.6522 52.3228 18.8563L53.0773 19.1221ZM53.246 18.8377L53.8413 19.3721C53.8455 19.3674 53.8505 19.3636 53.8561 19.3609L53.5106 18.6394L53.1651 17.9179C52.9699 18.0113 52.7951 18.1423 52.6506 18.3033L53.246 18.8377ZM53.5106 18.6394L53.8561 19.3609C53.8618 19.3582 53.8679 19.3567 53.8741 19.3563L53.831 18.5575L53.7879 17.7587C53.5718 17.7703 53.3602 17.8244 53.1651 17.9179L53.5106 18.6394ZM53.831 18.5575L53.8741 19.3563C53.8803 19.356 53.8866 19.3569 53.8925 19.359L54.1583 18.6044L54.4242 17.8499C54.2201 17.778 54.0039 17.747 53.7879 17.7587L53.831 18.5575ZM54.1583 18.6044L53.8925 19.359C53.8983 19.361 53.9038 19.3643 53.9084 19.3684L54.4428 18.7731L54.9771 18.1777C54.8161 18.0332 54.6282 17.9218 54.4242 17.8499L54.1583 18.6044ZM54.4428 18.7731L53.9084 19.3684C53.913 19.3726 53.9168 19.3776 53.9195 19.3833L54.641 19.0377L55.3626 18.6922C55.2691 18.4971 55.1382 18.3222 54.9771 18.1777L54.4428 18.7731ZM54.641 19.0377L53.9195 19.3833C53.9222 19.3889 53.9238 19.395 53.9241 19.4012L54.7229 19.3581L55.5218 19.315C55.5101 19.0989 55.456 18.8873 55.3626 18.6922L54.641 19.0377ZM54.7229 19.3581L53.9241 19.4011C53.9946 20.7101 53.828 21.8038 53.6534 22.9375L54.444 23.0593L55.2347 23.1811C55.4086 22.0528 55.6022 20.809 55.5218 19.3151L54.7229 19.3581ZM54.444 23.0593L53.6534 22.9376C53.5193 23.8079 53.3726 24.7549 53.3374 25.8639L54.137 25.8893L54.9366 25.9147C54.9683 24.9147 55.0999 24.0565 55.2347 23.1811L54.444 23.0593ZM54.137 25.8893L53.3374 25.8633C53.3026 26.9311 53.4389 28.0515 53.5717 29.1563L54.3659 29.0609L55.1602 28.9654C55.0241 27.8325 54.9065 26.8386 54.9366 25.9153L54.137 25.8893ZM54.3659 29.0609L53.5717 29.1564C53.9135 31.9992 54.244 34.9199 52.2716 37.8653L52.9364 38.3104L53.6011 38.7556C55.9382 35.2654 55.4984 31.7772 55.1602 28.9653L54.3659 29.0609ZM52.9364 38.3104L52.2716 37.8653C52.2672 37.8719 52.2613 37.8772 52.2544 37.8809L52.6307 38.5869L53.0071 39.2928C53.2463 39.1653 53.4503 38.9808 53.6011 38.7556L52.9364 38.3104ZM52.6307 38.5869L52.2544 37.8809C52.2474 37.8846 52.2397 37.8866 52.2318 37.8866L52.2309 38.6866L52.2299 39.4866C52.501 39.4869 52.7679 39.4203 53.0071 39.2928L52.6307 38.5869Z" fill="white" mask="url(#path-1-inside-1_216_1262)"/>
</svg>
