<svg width="83" height="82" viewBox="0 0 83 82" fill="none" xmlns="http://www.w3.org/2000/svg">
<rect x="1" y="0.5" width="81" height="81" stroke="white"/>
<path d="M41.1121 8.3468C43.4555 8.33626 45.8854 8.49072 48.2576 8.82922L49.2703 8.98547C53.3991 9.67401 56.7615 12.7442 56.7615 16.7159V31.7784C56.7615 35.9286 53.4648 39.3174 49.3523 39.3175H33.5505C27.9083 39.3178 23.1687 44.148 23.1687 49.6447V56.3722H18.2292C16.0652 56.3722 14.3735 55.592 13.0808 54.2687C11.8583 53.0172 10.9728 51.2582 10.4148 49.1593L10.3074 48.7355V48.7345C9.55472 45.6129 9.19993 43.1416 9.20776 40.715C9.21464 38.5915 9.49922 36.4847 10.0535 33.9874L10.3074 32.8917H10.3083C11.5123 27.8652 15.331 25.254 19.7039 25.254H41.9597V22.2443H26.1414V16.715C26.1414 14.4589 26.4465 12.8545 27.4656 11.6593C28.4268 10.5322 30.098 9.68097 33.033 9.0968L33.6375 8.98352C35.5997 8.63621 37.7999 8.41898 40.114 8.36145L41.1121 8.3468ZM32.5544 12.1954C30.6295 12.1957 29.0859 13.7846 29.0867 15.7198L29.0916 15.8995C29.184 17.7478 30.6929 19.2235 32.5544 19.2238C34.4696 19.2238 36.0231 17.6521 36.0232 15.7198C36.0232 13.7839 34.4725 12.1954 32.5544 12.1954Z" stroke="white"/>
<path d="M65.1707 25.2531C67.3279 25.2531 68.8857 26.0511 70.0515 27.3771C71.1611 28.6391 71.9343 30.4022 72.488 32.4757L72.5964 32.8947C74.1127 38.9929 74.2152 43.5611 72.7537 48.2404L72.6072 48.6935C71.8084 51.0981 71.0043 53.0188 69.8708 54.3409C68.766 55.6296 67.3283 56.3712 65.1707 56.3712H40.9607V59.382H56.7605V64.9113C56.7605 67.0277 55.8586 68.6183 54.4705 69.8331C53.2432 70.9071 51.6351 71.6857 49.9421 72.2433L49.2126 72.4689C43.6879 74.0714 39.2072 73.9415 34.6121 72.7267L33.6912 72.4698C29.5506 71.2526 26.1414 68.8377 26.1414 64.9113V49.8468C26.1415 45.7782 29.5089 42.3077 33.5505 42.3077H49.3513C54.8958 42.3077 59.7341 37.4962 59.7341 31.7784V25.2531H65.1707ZM50.3464 62.4005C48.4318 62.4005 46.8789 63.9731 46.8787 65.9064C46.8787 67.841 48.4284 69.4298 50.3464 69.4298C52.2714 69.4298 53.8152 67.8405 53.8152 65.9064C53.815 63.9738 52.2688 62.4005 50.3464 62.4005Z" stroke="white"/>
</svg>
