<svg width="65" height="58" viewBox="0 0 65 58" fill="none" xmlns="http://www.w3.org/2000/svg">
<path d="M32.4998 23.6218C35.4699 23.6218 37.8776 26.0296 37.8777 28.9998C37.8777 31.97 35.47 34.3777 32.4998 34.3777C29.5296 34.3776 27.1218 31.9699 27.1218 28.9998C27.1219 26.0297 29.5297 23.6219 32.4998 23.6218Z" stroke="white"/>
<path d="M45.3391 0.676514C46.3576 0.676514 47.2455 0.861539 48.0491 1.25366L48.3889 1.43433L48.3938 1.43726C49.8928 2.28043 50.9492 3.80798 51.4993 5.99585C52.0164 8.05269 52.0772 10.6664 51.6418 13.7566L51.5481 14.3806C51.344 15.5531 51.0891 16.7762 50.7834 17.9988L50.6672 18.4656L51.1292 18.6003C52.0459 18.8677 52.9356 19.1645 53.8 19.4695L54.6555 19.7761C57.8367 20.9985 60.2546 22.4362 61.8704 24.0085C63.4822 25.5772 64.2785 27.2598 64.2786 28.9998C64.2786 30.7397 63.4823 32.4223 61.8704 33.991C60.3543 35.4663 58.1321 36.8232 55.2356 37.9949L54.6477 38.2273L54.637 38.2312C53.5293 38.6843 52.3656 39.0385 51.1292 39.3992L50.6672 39.5339L50.7834 40.0007C51.0891 41.2232 51.344 42.4464 51.5481 43.6189V43.6199C52.083 46.9568 52.0509 49.7715 51.4993 51.9656C50.9835 54.0167 50.0219 55.5007 48.6653 56.3943L48.3889 56.5652C47.497 57.0816 46.5031 57.323 45.3391 57.323C43.6523 57.323 41.6889 56.6946 39.552 55.4871C37.42 54.2823 35.1467 52.5188 32.8479 50.2966L32.4983 49.9587L32.1506 50.2986C29.8781 52.52 27.6178 54.2827 25.4866 55.4871C23.3511 56.6938 21.3749 57.3229 19.6614 57.323C18.6428 57.323 17.7541 57.139 16.9504 56.7468L16.6116 56.5652L16.6057 56.5623L16.3303 56.3962C14.9771 55.5256 14.0169 54.0549 13.5012 52.0037C12.9501 49.8114 12.9166 46.9868 13.4504 43.6267C13.6547 42.452 13.9098 41.2258 14.2161 40.0007L14.3333 39.5339L13.8713 39.3992C12.9547 39.1318 12.0648 38.8359 11.2004 38.531L10.344 38.2234C7.18896 37.001 4.77017 35.5639 3.14771 33.991C1.52816 32.4209 0.721924 30.7377 0.721924 28.9998C0.721982 27.2599 1.51736 25.5771 3.12915 24.0085C4.64526 22.5331 6.86817 21.1764 9.76489 20.0046L10.3528 19.7732L10.3625 19.7693C11.4705 19.316 12.6345 18.9611 13.8713 18.6003L14.3333 18.4656L14.2161 17.9988C13.9864 17.0801 13.7859 16.161 13.6135 15.2634L13.4504 14.3738C12.9166 11.0396 12.95 8.22754 13.5012 6.03491C14.0169 3.98366 14.9777 2.49885 16.3342 1.60522L16.6116 1.43433C17.5035 0.917937 18.4974 0.676514 19.6614 0.676514C21.3481 0.67661 23.3108 1.30601 25.4475 2.51343C27.5795 3.7182 29.8538 5.4807 32.1526 7.70288L32.5002 8.03882L32.8479 7.70288C35.1465 5.4809 37.4202 3.71816 39.552 2.51343C41.6889 1.30587 43.6523 0.676516 45.3391 0.676514ZM16.0833 40.4236C15.8107 41.4685 15.5751 42.4836 15.4143 43.4646L15.3518 43.8728C14.9081 46.6133 14.8627 48.9838 15.2122 50.8455C15.5594 52.6946 16.3144 54.124 17.5471 54.8484V54.8494C18.152 55.2123 18.8632 55.3845 19.6096 55.3845C21.3117 55.3845 23.1571 54.6903 25.0315 53.5525C26.9123 52.4108 28.8636 50.7969 30.7883 48.8982L31.1282 48.5632L30.8098 48.2078C29.0166 46.2096 27.2235 44.0072 25.4827 41.5496L25.3489 41.3611L25.1184 41.3406L24.011 41.2371C21.4452 40.9787 19.0019 40.599 16.6799 40.0632L16.2063 39.9539L16.0833 40.4236ZM48.3293 40.0603C45.6639 40.6241 42.8485 41.0849 39.8821 41.3406L39.6506 41.3611L39.5168 41.5496C37.7735 44.0107 35.9821 46.2631 34.1946 48.2039L33.8674 48.5583L34.2112 48.8982C36.1623 50.8233 38.127 52.4368 40.0081 53.572C41.8827 54.7034 43.7153 55.3845 45.3909 55.3845C46.1371 55.3845 46.8476 55.2121 47.4524 54.8494L47.4514 54.8484C48.6849 54.1242 49.441 52.6953 49.7883 50.8455C50.116 49.1001 50.0961 46.9079 49.7268 44.3826L49.6487 43.8728L49.6458 43.8591L49.3225 42.1902C49.2051 41.6165 49.0736 41.0266 48.9163 40.4236L48.7961 39.9617L48.3293 40.0603ZM36.0364 41.6492C34.8487 41.7008 33.6734 41.7517 32.5002 41.7517C31.327 41.7517 30.1518 41.7008 28.9641 41.6492L27.9006 41.6023L28.5442 42.4509C29.686 43.956 30.8826 45.4126 32.1331 46.7673L32.5002 47.1648L32.8674 46.7673C34.118 45.4126 35.3144 43.9561 36.4563 42.4509L37.0999 41.6023L36.0364 41.6492ZM32.552 18.1873C30.5843 18.1873 28.6619 18.2392 26.7366 18.3953L26.4993 18.4148L26.3645 18.6101C25.2279 20.2634 24.136 21.9265 23.1975 23.5945C22.2121 25.306 21.2787 27.0697 20.4485 28.782L20.343 28.9998L20.4485 29.2185C21.2787 30.9308 22.2121 32.6945 23.1975 34.406V34.405C24.1328 36.0675 25.1712 37.729 26.3127 39.3894L26.4475 39.5847L26.6838 39.6042C28.5586 39.7605 30.4814 39.8123 32.5002 39.8123C34.468 39.8123 36.3903 39.7604 38.3157 39.6042L38.552 39.5857L38.6868 39.3894C39.6821 37.9416 40.6436 36.4866 41.4973 35.0271L41.8557 34.4011L41.8567 34.4001C42.8411 32.6385 43.7219 30.9298 44.5979 29.2292L44.7122 29.0066L44.6028 28.782C43.9801 27.4978 43.2995 26.1847 42.5823 24.8865L41.8538 23.5945C40.9185 21.9321 39.88 20.2704 38.7385 18.6101L38.6047 18.4148L38.3684 18.3953L37.6624 18.3416C36.0109 18.227 34.3183 18.1873 32.552 18.1873ZM45.262 32.2136C44.6876 33.2579 44.1297 34.3238 43.5129 35.4031L43.5081 35.4119L43.5042 35.4197C42.9488 36.4799 42.2924 37.4901 41.6682 38.4783L41.0979 39.3806L42.1555 39.241C44.1248 38.9819 45.999 38.6702 47.7737 38.2527L48.302 38.1277L48.135 37.6121C47.5651 35.8506 46.941 34.0813 46.1594 32.2576L45.7561 31.3152L45.262 32.2136ZM18.8401 32.2058C18.0579 34.0309 17.434 35.8527 16.8665 37.5554L16.6936 38.075L17.2258 38.2009C19.0005 38.6185 20.8747 38.9301 22.844 39.1892L23.8713 39.325L23.3381 38.4363C22.7124 37.3935 22.1045 36.4315 21.4924 35.3093L21.4875 35.2996L21.4817 35.2908L21.0315 34.5183C20.5895 33.7394 20.1689 32.9443 19.7385 32.1619L19.2444 31.2644L18.8401 32.2058ZM14.3733 20.5251C13.231 20.8367 12.082 21.2023 11.0315 21.6218C8.41943 22.5883 6.33677 23.7352 4.89771 24.9724C3.46719 26.2024 2.6097 27.5792 2.60962 28.9998C2.60962 30.694 3.85184 32.3201 5.84888 33.739C7.86923 35.1745 10.7754 36.4836 14.3655 37.5242L14.8411 37.6619L14.9836 37.1873C15.7482 34.6389 16.8212 31.9799 18.054 29.2576L18.1477 29.0515L18.054 28.8455C16.8249 26.1313 15.8002 23.4162 14.9807 20.8552L14.8352 20.3992L14.3733 20.5251ZM50.0168 20.8123C49.2523 23.3606 48.1793 26.0197 46.9465 28.7419L46.8528 28.948L46.9465 29.155C48.1754 31.8689 49.1993 34.5835 50.0188 37.1443L50.1653 37.6003L50.6272 37.4744C51.7737 37.1617 52.927 36.7952 53.9807 36.3738L53.9797 36.3728C56.561 35.4072 58.6394 34.2628 60.0823 33.0281C61.5172 31.8001 62.3909 30.423 62.3909 28.9998C62.3908 27.3055 61.1476 25.6804 59.1506 24.2615C57.1304 22.826 54.2249 21.5169 50.635 20.4763L50.1584 20.3376L50.0168 20.8123ZM41.6624 19.5632L43.5178 22.657C44.1279 23.6737 44.6887 24.7437 45.2571 25.8289L45.7454 26.7605L46.1594 25.7937C46.9417 23.9685 47.5664 22.147 48.134 20.4441L48.3069 19.9246L47.7737 19.7996C45.999 19.382 44.1249 19.0694 42.1555 18.8103L41.1292 18.6755L41.6624 19.5632ZM22.844 18.7585C20.8746 19.0177 19.0005 19.3302 17.2258 19.7478L16.6975 19.8718L16.8645 20.3884C17.3632 21.9299 17.904 23.4767 18.5549 25.0613L18.8401 25.7419L19.2444 26.6843L19.7385 25.7859C20.3128 24.7417 20.8708 23.6757 21.4875 22.5964L21.4915 22.5886L21.4963 22.5808C22.0517 21.5205 22.7081 20.5095 23.3323 19.5212L23.9016 18.6199L22.844 18.7585ZM45.3909 2.61597C43.6888 2.61597 41.8435 3.31018 39.969 4.448C38.0881 5.58975 36.136 7.20352 34.2112 9.10229L33.8723 9.43628L34.1907 9.79175C35.9839 11.7899 37.776 13.9923 39.5168 16.45L39.6506 16.6394L39.8821 16.6589C42.8546 16.9152 45.6668 17.3249 48.3206 17.9373L48.7942 18.0466L48.9163 17.5759C49.2269 16.3853 49.49 15.2335 49.6487 14.1267C50.0923 11.3864 50.1378 9.01666 49.7883 7.15503C49.4624 5.41877 48.7769 4.05187 47.6741 3.29175L47.4475 3.14819C46.8437 2.78731 46.1352 2.616 45.3909 2.61597ZM19.6096 2.61597C18.865 2.61597 18.1559 2.7871 17.552 3.14819C16.3162 3.87169 15.5598 5.30316 15.2122 7.15503C14.8846 8.90027 14.9044 11.0919 15.2737 13.6169L15.3518 14.1267L15.3538 14.1404C15.5589 15.2171 15.7687 16.3702 16.0833 17.5759L16.2043 18.0378L16.6711 17.9392C19.3365 17.3754 22.1521 16.9146 25.1184 16.6589L25.3489 16.6394L25.4827 16.45C27.2259 13.9889 29.0175 11.7373 30.8049 9.79663L31.1331 9.44116L30.7883 9.10229C28.8371 7.17711 26.8726 5.56277 24.9915 4.42749C23.117 3.29629 21.2851 2.61602 19.6096 2.61597ZM32.1331 11.2332C30.8825 12.588 29.6861 14.0443 28.5442 15.5496L27.9006 16.3972L28.9641 16.3513C30.1518 16.2997 31.327 16.2488 32.5002 16.2488C33.6734 16.2488 34.8487 16.2997 36.0364 16.3513L37.0999 16.3972L36.4563 15.5496C35.3145 14.0444 34.118 12.5879 32.8674 11.2332L32.5002 10.8347L32.1331 11.2332Z" stroke="white"/>
</svg>
