<svg width="128" height="128" viewBox="0 0 128 128" fill="none" xmlns="http://www.w3.org/2000/svg">
<path d="M66.0657 63.0994C68.4191 63.0274 70.6468 63.5767 73.929 64.7703C75.6169 65.3841 79.3601 66.2849 84.0813 67.323C88.8179 68.3645 94.5811 69.5527 100.336 70.74C106.093 71.9277 111.843 73.1143 116.56 74.1541C120.992 75.1311 124.474 75.9699 126.2 76.5535V88.7C126.2 89.1443 125.945 89.6951 125.19 90.3796C124.533 90.9747 123.549 91.6243 122.185 92.3416L121.576 92.6531L121.569 92.657C118.241 94.3954 107.918 98.8093 97.4651 103.291C87.0415 107.76 76.4898 112.295 72.7668 114.258C69.0971 116.192 66.2981 117.105 63.7288 117.213C61.1674 117.32 58.7774 116.631 55.9172 115.25C52.9997 113.841 42.3034 109.433 31.5286 104.988C21.4053 100.812 11.2087 96.6029 7.22681 94.781L6.51587 94.449C4.87683 93.6542 3.67059 92.9503 2.88013 92.3015C2.07609 91.6415 1.80005 91.1192 1.80005 90.7V78.4021C1.84562 78.3921 1.89535 78.3815 1.94849 78.3699C2.30206 78.2923 2.82177 78.1782 3.4856 78.032C4.81357 77.7395 6.71939 77.3187 9.03052 76.8054C13.6529 75.7787 19.8974 74.3816 26.386 72.9001C38.5338 70.1265 51.5869 67.0455 56.4114 65.5496L57.2639 65.2722L57.2688 65.2703C61.1651 63.8716 63.7011 63.1718 66.0657 63.0994Z" fill="black" stroke="white"/>
<path d="M65.9651 52.8994C68.3186 52.8274 70.547 53.3767 73.8293 54.5703C77.1221 55.7677 87.3879 59.7888 97.6545 63.8154C106.63 67.3358 115.606 70.8597 119.891 72.4912L121.427 73.0693L121.431 73.0703C123.095 73.6662 124.316 74.2248 125.119 74.7686C125.938 75.3224 126.21 75.7844 126.225 76.1582C126.24 76.5412 125.998 77.0596 125.208 77.751C124.435 78.4285 123.233 79.1873 121.569 80.0566C118.241 81.7951 107.918 86.2089 97.4651 90.6904C87.0414 95.1595 76.4898 99.6961 72.7668 101.658C69.0972 103.592 66.2981 104.505 63.7288 104.613C61.1673 104.721 58.7775 104.03 55.9172 102.649C53.0003 101.241 42.3039 96.8079 31.5286 92.3379C20.7329 87.8595 9.85328 83.3433 6.51685 81.75H6.51782C4.8805 80.9561 3.67216 80.239 2.87231 79.5811C2.05734 78.9107 1.75708 78.3767 1.73657 77.9629C1.71737 77.5751 1.93965 77.1049 2.68091 76.5361C3.32399 76.0427 4.28708 75.5319 5.59692 74.9971L6.17896 74.7666L6.18579 74.7646C12.2833 72.3256 44.909 59.5208 55.3792 55.709L57.1633 55.0723L57.1692 55.0703C61.0652 53.6718 63.6006 52.9718 65.9651 52.8994Z" fill="black" stroke="white"/>
<path d="M66.0657 42.3994C68.4191 42.3274 70.6468 42.8768 73.929 44.0703C75.6169 44.6841 79.3601 45.585 84.0813 46.623C88.8179 47.6645 94.5811 48.8528 100.336 50.04C106.093 51.2277 111.843 52.4144 116.56 53.4541C120.992 54.4311 124.474 55.27 126.2 55.8535V68C126.2 68.4448 125.944 68.9963 125.186 69.6953C124.527 70.3025 123.541 70.9724 122.175 71.7285L121.569 72.0566C118.241 73.7951 107.918 78.2089 97.4651 82.6904C87.6928 86.8802 77.8081 91.1294 73.5432 93.2607L72.7717 93.6553C69.0997 95.5409 66.2988 96.455 63.7268 96.5752C61.1644 96.6949 58.7744 96.0287 55.9172 94.6494C53.0001 93.2412 42.3047 88.8078 31.5295 84.3379C21.4071 80.1388 11.2106 75.9061 7.22778 74.0811L6.51587 73.749C4.87683 72.9542 3.67059 72.2503 2.88013 71.6016C2.07609 70.9415 1.80005 70.4192 1.80005 70V57.7021C1.84562 57.6922 1.89535 57.6816 1.94849 57.6699C2.30206 57.5923 2.82177 57.4782 3.4856 57.332C4.81357 57.0396 6.71939 56.6188 9.03052 56.1055C13.6529 55.0788 19.8974 53.6817 26.386 52.2002C38.5338 49.4266 51.5869 46.3456 56.4114 44.8496L57.2639 44.5723L57.2688 44.5703C61.1651 43.1716 63.7011 42.4718 66.0657 42.3994Z" fill="black" stroke="white"/>
<path d="M65.9656 32.1995C68.319 32.1274 70.5467 32.6769 73.8289 33.8704C77.1212 35.0676 87.3879 39.0887 97.655 43.1155C106.631 46.6359 115.606 50.1598 119.891 51.7913L121.427 52.3694L121.431 52.3704C123.095 52.9663 124.317 53.5248 125.12 54.0686C125.938 54.6225 126.21 55.0844 126.225 55.4583C126.241 55.8413 125.997 56.3597 125.208 57.051C124.434 57.7284 123.233 58.4875 121.569 59.3567C118.241 61.0951 107.918 65.509 97.4656 69.9905C87.6934 74.1802 77.8088 78.4293 73.5437 80.5608L72.7712 80.9553C69.0994 82.8408 66.2983 83.7551 63.7263 83.8752C61.1641 83.9949 58.7747 83.3287 55.9177 81.9495C53.001 80.5414 42.3046 76.108 31.5291 71.6379C20.7315 67.1588 9.84991 62.6417 6.51538 61.0491C4.85315 60.2552 3.63269 59.5377 2.82886 58.8801C2.00999 58.2102 1.71621 57.6781 1.69995 57.2678C1.68461 56.8804 1.91358 56.4079 2.66479 55.8372C3.31532 55.3429 4.28507 54.8321 5.59644 54.2971L6.17944 54.0667L6.18628 54.0647C12.2844 51.6254 44.9099 38.8207 55.3796 35.009L57.1638 34.3723L57.1687 34.3704C61.065 32.9717 63.601 32.2718 65.9656 32.1995Z" fill="black" stroke="white"/>
<path d="M65.9656 20.9993C68.319 20.9273 70.5467 21.4767 73.8289 22.6702C75.5168 23.284 79.26 24.1848 83.9812 25.2229C88.7178 26.2644 94.481 27.4526 100.236 28.6399C105.993 29.8276 111.743 31.0142 116.46 32.054C120.892 33.031 124.374 33.8698 126.1 34.4534V46.6194L126.101 46.6379C126.134 47.0583 125.92 47.5684 125.177 48.2415C124.437 48.9102 123.259 49.6616 121.568 50.5569C118.24 52.2954 107.918 56.7093 97.4656 61.1907C87.6937 65.3803 77.809 69.6285 73.5437 71.76L72.7664 72.1575C69.0968 74.0414 66.2972 74.9553 63.7263 75.0754C61.3242 75.1876 59.074 74.6088 56.448 73.3997L55.9177 73.1497L55.9109 73.1467L55.2751 72.8577C51.6607 71.2398 41.6328 67.1047 31.5291 62.925C20.7341 58.4594 9.854 53.9432 6.51733 52.3499H6.51831C4.87597 51.5536 3.6416 50.8483 2.82397 50.1965C1.98788 49.5301 1.69995 49.0093 1.69995 48.5999V36.302C1.74552 36.292 1.79525 36.2814 1.84839 36.2698C2.20196 36.1922 2.72167 36.0781 3.3855 35.9319C4.71347 35.6394 6.61929 35.2186 8.93042 34.7053C13.5528 33.6787 19.7973 32.2815 26.2859 30.8C38.4337 28.0264 51.4868 24.9454 56.3113 23.4495L57.1638 23.1721L57.1687 23.1702C61.065 21.7715 63.601 21.0717 65.9656 20.9993Z" fill="black" stroke="white"/>
<path d="M65.9656 10.7993C68.319 10.7273 70.5467 11.2767 73.8289 12.4702C77.1212 13.6674 87.3879 17.6885 97.655 21.7153C106.631 25.2357 115.606 28.7597 119.891 30.3911L121.427 30.9692L121.431 30.9702C123.095 31.5661 124.316 32.125 125.12 32.6675C125.939 33.2208 126.21 33.6791 126.225 34.0454C126.241 34.419 126.001 34.9271 125.212 35.605C124.536 36.1856 123.532 36.8259 122.177 37.5425L121.574 37.854L121.569 37.8569C118.241 39.5953 107.918 44.0092 97.4656 48.4907C87.0458 52.9581 76.4979 57.4923 72.7712 59.4556C69.0994 61.341 66.2983 62.2553 63.7263 62.3755C61.1641 62.4951 58.7746 61.8289 55.9177 60.4497C53.0004 59.0413 42.3032 54.6329 31.5281 50.188C20.7301 45.7337 9.84934 41.2413 6.51538 39.6489C4.85315 38.855 3.63269 38.1375 2.82886 37.48C2.00999 36.8101 1.71621 36.2779 1.69995 35.8677C1.68461 35.4802 1.91358 35.0078 2.66479 34.437C3.31532 33.9428 4.28507 33.4319 5.59644 32.897L6.17944 32.6665L6.18628 32.6646C12.2844 30.2253 44.9099 17.4206 55.3796 13.6089L57.1638 12.9722L57.1687 12.9702C61.065 11.5715 63.601 10.8717 65.9656 10.7993Z" fill="black" stroke="white"/>
<path d="M66.3162 53.8823L48.0515 46.3247L74.2341 42.3657L66.3162 53.8823ZM65.8201 20.7661L65.9861 20.8306L66.156 20.7749L73.3289 18.4126L71.5369 22.811L71.3416 23.2896L71.8269 23.4692L78.2419 25.8364L69.5447 26.8032L69.2556 26.8354L69.1404 27.1021L67.0261 32.0044L63.6287 26.3423L63.4978 26.1245L63.2439 26.1021L52.9802 25.1978L60.1716 22.5698L60.7136 22.3716L60.4402 21.8628L58.282 17.854L65.8201 20.7661Z" stroke="white"/>
<path d="M38.3999 29.8999C42.6343 29.8999 46.4451 30.5653 49.1792 31.6235C50.5478 32.1533 51.6216 32.7718 52.3442 33.4331C53.0666 34.0942 53.3999 34.7596 53.3999 35.3999C53.3999 36.0402 53.0666 36.7056 52.3442 37.3667C51.6216 38.028 50.5478 38.6465 49.1792 39.1763C46.4451 40.2345 42.6343 40.8999 38.3999 40.8999C34.1655 40.8999 30.3547 40.2345 27.6206 39.1763C26.252 38.6465 25.1782 38.028 24.4556 37.3667C23.7332 36.7056 23.3999 36.0402 23.3999 35.3999C23.3999 34.7596 23.7332 34.0942 24.4556 33.4331C25.1782 32.7718 26.252 32.1533 27.6206 31.6235C30.3547 30.5653 34.1655 29.8999 38.3999 29.8999Z" stroke="white"/>
<path d="M109.14 34.4998L93.8 40.5642V28.4343L109.14 34.4998Z" stroke="white"/>
<path d="M92.8 40.9675L91.3948 41.5593L75.6487 35.2986L92.8 28.4373V40.9675Z" stroke="white"/>
</svg>
