<svg width="57" height="56" viewBox="0 0 57 56" fill="none" xmlns="http://www.w3.org/2000/svg">
<mask id="path-1-inside-1_211_13" fill="white">
<path d="M11.7713 23.8583C11.8111 21.7806 12.6645 19.8015 14.148 18.3463C15.6315 16.8911 17.6268 16.0759 19.705 16.0759C21.7832 16.0759 23.7785 16.8911 25.262 18.3463C26.7456 19.8015 27.5989 21.7806 27.6387 23.8583C27.6387 24.6222 27.3352 25.3549 26.795 25.895C26.2547 26.4352 25.522 26.7387 24.758 26.7387C23.9939 26.7387 23.2612 26.4352 22.721 25.895C22.1807 25.3549 21.8772 24.6222 21.8772 23.8583C21.8772 23.2826 21.6485 22.7305 21.2414 22.3235C20.8343 21.9164 20.2822 21.6877 19.7065 21.6877C19.1308 21.6877 18.5786 21.9164 18.1715 22.3235C17.7644 22.7305 17.5357 23.2826 17.5357 23.8583C17.5357 24.6222 17.2322 25.3549 16.692 25.895C16.1517 26.4352 15.419 26.7387 14.655 26.7387C13.891 26.7387 13.1582 26.4352 12.618 25.895C12.0777 25.3549 11.7713 24.6222 11.7713 23.8583ZM44.6555 37.2014C44.6559 37.5806 44.5815 37.956 44.4365 38.3064C44.2916 38.6568 44.079 38.9751 43.8109 39.2432C43.5428 39.5113 43.2244 39.7239 42.874 39.8688C42.5236 40.0137 42.1481 40.0881 41.7689 40.0877H15.0333C14.2677 40.0877 13.5335 39.7836 12.9921 39.2423C12.4508 38.701 12.1467 37.9669 12.1467 37.2014C12.1467 36.4359 12.4508 35.7018 12.9921 35.1605C13.5335 34.6192 14.2677 34.3152 15.0333 34.3152H41.7573C42.5224 34.3167 43.2557 34.6213 43.7967 35.1622C44.3377 35.7032 44.6423 36.4364 44.6438 37.2014M32.1519 25.4876C31.7264 24.8526 31.5701 24.0749 31.7174 23.3249C31.8647 22.5749 32.3035 21.9139 32.9375 21.487L39.6098 16.9743C39.9222 16.7502 40.2763 16.591 40.6512 16.506C41.0261 16.421 41.4143 16.412 41.7928 16.4795C42.1712 16.547 42.5323 16.6896 42.8548 16.899C43.1772 17.1083 43.4544 17.3801 43.67 17.6984C43.8856 18.0166 44.0353 18.3748 44.1102 18.7519C44.185 19.1289 44.1836 19.5171 44.1059 19.8936C44.0283 20.2701 43.876 20.6272 43.658 20.9438C43.44 21.2605 43.1608 21.5302 42.8368 21.7372L36.1442 26.2499C35.6733 26.5764 35.1138 26.751 34.5409 26.7503C34.0685 26.7517 33.6029 26.6372 33.1849 26.4171C32.767 26.197 32.4093 25.8779 32.1431 25.4876M50.4432 43.2184C50.4432 43.4885 50.3901 43.756 50.2867 44.0057C50.1834 44.2553 50.0318 44.4821 49.8408 44.6731L44.8737 49.6397C44.6826 49.8307 44.4558 49.9822 44.2062 50.0856C43.9565 50.1889 43.689 50.2421 43.4188 50.242H12.9731C12.7029 50.2421 12.4354 50.1889 12.1857 50.0856C11.9361 49.9822 11.7092 49.8307 11.5182 49.6397L6.57143 44.6731C6.38041 44.4821 6.2289 44.2553 6.12555 44.0057C6.0222 43.756 5.96904 43.4885 5.96909 43.2184V12.802C5.96904 12.5318 6.0222 12.2643 6.12555 12.0147C6.2289 11.7651 6.38041 11.5383 6.57143 11.3472L11.5182 6.38354C11.7092 6.19254 11.9361 6.04104 12.1857 5.9377C12.4354 5.83436 12.7029 5.78121 12.9731 5.78126H43.4275C43.6977 5.78121 43.9653 5.83436 44.2149 5.9377C44.4645 6.04104 44.6914 6.19254 44.8824 6.38354L49.8495 11.3472C50.0406 11.5383 50.1921 11.7651 50.2954 12.0147C50.3988 12.2643 50.4519 12.5318 50.4519 12.802L50.4432 43.2184ZM54.6683 8.03034L48.1822 1.54206C47.2013 0.560077 45.8718 0.00575979 44.4838 0H11.9197C10.5309 0.00190711 9.19927 0.553131 8.21549 1.53333L1.73527 8.03034C0.755219 9.01061 0.203774 10.3394 0.201782 11.7255V44.2862C0.201624 44.974 0.336968 45.6551 0.600086 46.2906C0.863203 46.9261 1.24894 47.5036 1.73527 47.99L8.21549 54.4783C9.20169 55.4534 10.5328 56.0002 11.9197 56H44.4838C45.8714 56.0034 47.2036 55.4561 48.188 54.4783L54.6683 47.99C55.1567 47.5051 55.5438 46.9279 55.807 46.2921C56.0703 45.6562 56.2045 44.9744 56.2017 44.2862V11.7371C56.2045 11.0489 56.0703 10.367 55.807 9.73118C55.5438 9.09532 55.1567 8.51815 54.6683 8.03325"/>
</mask>
<path d="M11.7713 23.8583L10.9715 23.8429L10.9713 23.8506V23.8583H11.7713ZM19.705 16.0759V16.8759V16.0759ZM27.6387 23.8583H28.4387V23.8506L28.4386 23.8429L27.6387 23.8583ZM21.8772 23.8583H21.0772H21.8772ZM41.7689 40.0877L41.7697 39.2877H41.7689V40.0877ZM15.0333 40.0877L15.0333 40.8877H15.0333V40.0877ZM15.0333 34.3152L15.0333 33.5152H15.0333L15.0333 34.3152ZM41.7573 34.3152L41.7589 33.5152H41.7573V34.3152ZM32.9375 21.487L33.3844 22.1506L33.3857 22.1496L32.9375 21.487ZM39.6098 16.9743L40.058 17.6369L40.0672 17.6308L40.0761 17.6243L39.6098 16.9743ZM42.8368 21.7372L42.4061 21.063L42.3978 21.0684L42.3896 21.0739L42.8368 21.7372ZM36.1442 26.2499L35.6969 25.5865L35.6884 25.5925L36.1442 26.2499ZM34.5409 26.7503L34.5418 25.9503L34.5386 25.9503L34.5409 26.7503ZM50.4432 43.2184L49.6432 43.2181L49.6432 43.2185L50.4432 43.2184ZM49.8408 44.6731L50.4065 45.2388L50.4066 45.2388L49.8408 44.6731ZM44.8737 49.6397L45.4393 50.2055L45.4394 50.2054L44.8737 49.6397ZM43.4188 50.242L43.419 49.442H43.4188V50.242ZM12.9731 50.242L12.9731 49.442L12.9729 49.442L12.9731 50.242ZM11.5182 49.6397L10.9513 50.2043L10.9526 50.2055L11.5182 49.6397ZM6.57143 44.6731L7.13825 44.1086L7.13718 44.1075L6.57143 44.6731ZM5.96909 43.2184L6.76909 43.2185V43.2184H5.96909ZM5.96909 12.802L6.76909 12.802L6.76909 12.8018L5.96909 12.802ZM6.57143 11.3472L7.13718 11.9129L7.13809 11.9119L6.57143 11.3472ZM11.5182 6.38354L10.9526 5.81774L10.9515 5.81882L11.5182 6.38354ZM12.9731 5.78126L12.9729 6.58126H12.9731V5.78126ZM43.4275 5.78126L43.4275 6.58126L43.4277 6.58126L43.4275 5.78126ZM44.8824 6.38354L44.3169 6.94934L44.317 6.94942L44.8824 6.38354ZM49.8495 11.3472L50.4153 10.7816L50.415 10.7813L49.8495 11.3472ZM50.4519 12.802L51.2519 12.8022L51.2519 12.8022L50.4519 12.802ZM48.1822 1.54206L47.6162 2.10744L47.6164 2.10765L48.1822 1.54206ZM44.4838 0L44.4871 -0.8H44.4838V0ZM11.9197 0L11.9197 -0.800001L11.9186 -0.799999L11.9197 0ZM8.21549 1.53333L7.65084 0.966613L7.64908 0.968376L8.21549 1.53333ZM1.73527 8.03034L2.30102 8.59596L2.30169 8.59529L1.73527 8.03034ZM0.201782 11.7255L-0.598218 11.7243V11.7255H0.201782ZM0.201782 44.2862L1.00178 44.2863V44.2862H0.201782ZM1.73527 47.99L2.30131 47.4247L2.30102 47.4244L1.73527 47.99ZM8.21549 54.4783L7.64945 55.0436L7.65301 55.0472L8.21549 54.4783ZM11.9197 56L11.9197 55.2L11.9196 55.2L11.9197 56ZM44.4838 56L44.4858 55.2H44.4838V56ZM48.188 54.4783L48.7518 55.0459L48.7541 55.0436L48.188 54.4783ZM54.6683 47.99L54.1046 47.4223L54.1022 47.4247L54.6683 47.99ZM56.2017 44.2862L55.4017 44.2862L55.4017 44.2893L56.2017 44.2862ZM56.2017 11.7371L55.4017 11.7339V11.7371H56.2017ZM11.7713 23.8583L12.5712 23.8736C12.607 22.0055 13.3743 20.2259 14.7082 18.9174L14.148 18.3463L13.5878 17.7752C11.9547 19.3772 11.0153 21.5558 10.9715 23.8429L11.7713 23.8583ZM14.148 18.3463L14.7082 18.9174C16.0422 17.6089 17.8363 16.8759 19.705 16.8759V16.0759V15.2759C17.4173 15.2759 15.2209 16.1733 13.5878 17.7752L14.148 18.3463ZM19.705 16.0759V16.8759C21.5737 16.8759 23.3679 17.6089 24.7018 18.9174L25.262 18.3463L25.8222 17.7752C24.1891 16.1733 21.9927 15.2759 19.705 15.2759V16.0759ZM25.262 18.3463L24.7018 18.9174C26.0358 20.2259 26.8031 22.0055 26.8389 23.8736L27.6387 23.8583L28.4386 23.8429C28.3948 21.5558 27.4553 19.3772 25.8222 17.7752L25.262 18.3463ZM27.6387 23.8583H26.8387C26.8387 24.41 26.6195 24.9392 26.2293 25.3293L26.795 25.895L27.3606 26.4608C28.0509 25.7705 28.4387 24.8344 28.4387 23.8583H27.6387ZM26.795 25.895L26.2293 25.3293C25.8391 25.7195 25.3098 25.9387 24.758 25.9387V26.7387V27.5387C25.7341 27.5387 26.6703 27.151 27.3606 26.4608L26.795 25.895ZM24.758 26.7387V25.9387C24.2061 25.9387 23.6768 25.7195 23.2866 25.3293L22.721 25.895L22.1553 26.4608C22.8456 27.151 23.7818 27.5387 24.758 27.5387V26.7387ZM22.721 25.895L23.2866 25.3293C22.8964 24.9392 22.6772 24.41 22.6772 23.8583H21.8772H21.0772C21.0772 24.8344 21.465 25.7705 22.1553 26.4608L22.721 25.895ZM21.8772 23.8583L22.6772 23.8583C22.6772 23.0704 22.3642 22.3148 21.8071 21.7578L21.2414 22.3235L20.6758 22.8892C20.9328 23.1462 21.0772 23.4948 21.0772 23.8583L21.8772 23.8583ZM21.2414 22.3235L21.8071 21.7578C21.2499 21.2007 20.4943 20.8877 19.7065 20.8877V21.6877V22.4877C20.07 22.4877 20.4187 22.6321 20.6758 22.8892L21.2414 22.3235ZM19.7065 21.6877V20.8877C18.9186 20.8877 18.163 21.2007 17.6059 21.7578L18.1715 22.3235L18.7372 22.8892C18.9942 22.6322 19.3429 22.4877 19.7065 22.4877V21.6877ZM18.1715 22.3235L17.6059 21.7578C17.0487 22.3148 16.7357 23.0704 16.7357 23.8583H17.5357H18.3357C18.3357 23.4948 18.4801 23.1462 18.7372 22.8892L18.1715 22.3235ZM17.5357 23.8583H16.7357C16.7357 24.41 16.5165 24.9392 16.1263 25.3293L16.692 25.895L17.2576 26.4608C17.9479 25.7705 18.3357 24.8344 18.3357 23.8583H17.5357ZM16.692 25.895L16.1263 25.3293C15.7361 25.7195 15.2069 25.9387 14.655 25.9387V26.7387V27.5387C15.6311 27.5387 16.5674 27.151 17.2576 26.4608L16.692 25.895ZM14.655 26.7387V25.9387C14.1031 25.9387 13.5739 25.7195 13.1836 25.3293L12.618 25.895L12.0523 26.4608C12.7426 27.151 13.6788 27.5387 14.655 27.5387V26.7387ZM12.618 25.895L13.1836 25.3293C12.792 24.9377 12.5713 24.4079 12.5713 23.8583H11.7713H10.9713C10.9713 24.8365 11.3635 25.772 12.0523 26.4608L12.618 25.895ZM44.6555 37.2014L43.8555 37.2022C43.8558 37.4762 43.802 37.7475 43.6973 38.0006L44.4365 38.3064L45.1758 38.6122C45.3609 38.1646 45.456 37.685 45.4555 37.2006L44.6555 37.2014ZM44.4365 38.3064L43.6973 38.0006C43.5926 38.2537 43.439 38.4837 43.2452 38.6775L43.8109 39.2432L44.3765 39.8089C44.719 39.4664 44.9906 39.0598 45.1758 38.6122L44.4365 38.3064ZM43.8109 39.2432L43.2452 38.6775C43.0515 38.8712 42.8214 39.0248 42.5683 39.1295L42.874 39.8688L43.1798 40.608C43.6273 40.4229 44.034 40.1514 44.3765 39.8089L43.8109 39.2432ZM42.874 39.8688L42.5683 39.1295C42.3151 39.2342 42.0437 39.288 41.7697 39.2877L41.7689 40.0877L41.7681 40.8877C42.2525 40.8882 42.7322 40.7932 43.1798 40.608L42.874 39.8688ZM41.7689 40.0877V39.2877H15.0333V40.0877V40.8877H41.7689V40.0877ZM15.0333 40.0877L15.0333 39.2877C14.4798 39.2877 13.9491 39.0679 13.5578 38.6766L12.9921 39.2423L12.4265 39.808C13.1179 40.4993 14.0556 40.8877 15.0333 40.8877L15.0333 40.0877ZM12.9921 39.2423L13.5578 38.6766C13.1665 38.2853 12.9467 37.7547 12.9467 37.2014H12.1467H11.3467C11.3467 38.1791 11.7351 39.1167 12.4265 39.808L12.9921 39.2423ZM12.1467 37.2014H12.9467C12.9467 36.6481 13.1665 36.1175 13.5578 35.7262L12.9921 35.1605L12.4265 34.5948C11.7351 35.2861 11.3467 36.2237 11.3467 37.2014H12.1467ZM12.9921 35.1605L13.5578 35.7262C13.9491 35.335 14.4798 35.1152 15.0333 35.1152L15.0333 34.3152L15.0333 33.5152C14.0556 33.5152 13.1179 33.9035 12.4265 34.5948L12.9921 35.1605ZM15.0333 34.3152V35.1152H41.7573V34.3152V33.5152H15.0333V34.3152ZM41.7573 34.3152L41.7557 35.1152C42.3092 35.1163 42.8397 35.3366 43.231 35.7279L43.7967 35.1622L44.3623 34.5965C43.6717 33.9059 42.7356 33.5171 41.7589 33.5152L41.7573 34.3152ZM43.7967 35.1622L43.231 35.7279C43.6224 36.1193 43.8427 36.6497 43.8438 37.203L44.6438 37.2014L45.4438 37.1998C45.4419 36.2232 45.053 35.2871 44.3623 34.5965L43.7967 35.1622ZM32.1519 25.4876L32.8165 25.0423C32.5089 24.5833 32.396 24.0211 32.5024 23.479L31.7174 23.3249L30.9324 23.1707C30.7443 24.1286 30.9439 25.122 31.4873 25.9329L32.1519 25.4876ZM31.7174 23.3249L32.5024 23.479C32.6089 22.9369 32.9261 22.4592 33.3844 22.1506L32.9375 21.487L32.4907 20.8234C31.681 21.3686 31.1205 22.2128 30.9324 23.1707L31.7174 23.3249ZM32.9375 21.487L33.3857 22.1496L40.058 17.6369L39.6098 16.9743L39.1616 16.3116L32.4893 20.8243L32.9375 21.487ZM39.6098 16.9743L40.0761 17.6243C40.3017 17.4625 40.5573 17.3475 40.8281 17.2862L40.6512 16.506L40.4744 15.7258C39.9952 15.8344 39.5427 16.0379 39.1435 16.3242L39.6098 16.9743ZM40.6512 16.506L40.8281 17.2862C41.0988 17.2248 41.379 17.2183 41.6523 17.267L41.7928 16.4795L41.9332 15.6919C41.4495 15.6056 40.9535 15.6172 40.4744 15.7258L40.6512 16.506ZM41.7928 16.4795L41.6523 17.267C41.9256 17.3158 42.1863 17.4188 42.4191 17.5699L42.8548 16.899L43.2904 16.228C42.8784 15.9604 42.4169 15.7782 41.9332 15.6919L41.7928 16.4795ZM42.8548 16.899L42.4191 17.5699C42.6519 17.7211 42.852 17.9173 43.0077 18.1471L43.67 17.6984L44.3323 17.2496C44.0567 16.8429 43.7025 16.4955 43.2904 16.228L42.8548 16.899ZM43.67 17.6984L43.0077 18.1471C43.1634 18.3769 43.2714 18.6355 43.3255 18.9077L44.1102 18.7519L44.8948 18.5961C44.7992 18.1142 44.6079 17.6564 44.3323 17.2496L43.67 17.6984ZM44.1102 18.7519L43.3255 18.9077C43.3795 19.1799 43.3785 19.4602 43.3224 19.732L44.1059 19.8936L44.8894 20.0553C44.9887 19.5741 44.9905 19.0779 44.8948 18.5961L44.1102 18.7519ZM44.1059 19.8936L43.3224 19.732C43.2664 20.0038 43.1564 20.2616 42.999 20.4902L43.658 20.9438L44.3169 21.3975C44.5955 20.9928 44.7902 20.5364 44.8894 20.0553L44.1059 19.8936ZM43.658 20.9438L42.999 20.4902C42.8417 20.7188 42.6401 20.9136 42.4061 21.063L42.8368 21.7372L43.2675 22.4114C43.6815 22.1469 44.0384 21.8021 44.3169 21.3975L43.658 20.9438ZM42.8368 21.7372L42.3896 21.0739L35.6969 25.5866L36.1442 26.2499L36.5914 26.9132L43.2841 22.4005L42.8368 21.7372ZM36.1442 26.2499L35.6884 25.5925C35.3516 25.8259 34.9515 25.9508 34.5418 25.9503L34.5409 26.7503L34.5399 27.5503C35.2762 27.5512 35.995 27.3268 36.6 26.9073L36.1442 26.2499ZM34.5409 26.7503L34.5386 25.9503C34.1969 25.9513 33.8601 25.8685 33.5577 25.7093L33.1849 26.4171L32.8122 27.125C33.3457 27.406 33.94 27.552 34.5431 27.5503L34.5409 26.7503ZM33.1849 26.4171L33.5577 25.7093C33.2554 25.55 32.9966 25.3192 32.8041 25.0369L32.1431 25.4876L31.4822 25.9383C31.822 26.4365 32.2786 26.844 32.8122 27.125L33.1849 26.4171ZM50.4432 43.2184L49.6432 43.2185C49.6432 43.3836 49.6107 43.5471 49.5476 43.6996L50.2867 44.0057L51.0259 44.3117C51.1694 43.965 51.2432 43.5934 51.2432 43.2182L50.4432 43.2184ZM50.2867 44.0057L49.5476 43.6996C49.4844 43.8521 49.3918 43.9907 49.2751 44.1075L49.8408 44.6731L50.4066 45.2388C50.6719 44.9734 50.8823 44.6584 51.0259 44.3117L50.2867 44.0057ZM49.8408 44.6731L49.2752 44.1074L44.3081 49.074L44.8737 49.6397L45.4394 50.2054L50.4065 45.2388L49.8408 44.6731ZM44.8737 49.6397L44.3081 49.0739C44.1914 49.1906 44.0528 49.2832 43.9002 49.3464L44.2062 50.0856L44.5121 50.8247C44.8588 50.6812 45.1739 50.4708 45.4393 50.2055L44.8737 49.6397ZM44.2062 50.0856L43.9002 49.3464C43.7476 49.4095 43.5841 49.442 43.419 49.442L43.4188 50.242L43.4186 51.042C43.7939 51.0421 44.1654 50.9683 44.5121 50.8247L44.2062 50.0856ZM43.4188 50.242V49.442H12.9731V50.242V51.042H43.4188V50.242ZM12.9731 50.242L12.9729 49.442C12.8078 49.442 12.6443 49.4095 12.4917 49.3464L12.1857 50.0856L11.8797 50.8247C12.2264 50.9683 12.598 51.0421 12.9733 51.042L12.9731 50.242ZM12.1857 50.0856L12.4917 49.3464C12.3391 49.2832 12.2005 49.1906 12.0837 49.0739L11.5182 49.6397L10.9526 50.2055C11.218 50.4708 11.533 50.6812 11.8797 50.8247L12.1857 50.0856ZM11.5182 49.6397L12.085 49.0752L7.13825 44.1086L6.57143 44.6731L6.00462 45.2377L10.9514 50.2043L11.5182 49.6397ZM6.57143 44.6731L7.13718 44.1075C7.02043 43.9907 6.92785 43.8521 6.8647 43.6996L6.12555 44.0057L5.3864 44.3117C5.52995 44.6584 5.74039 44.9734 6.00569 45.2388L6.57143 44.6731ZM6.12555 44.0057L6.8647 43.6996C6.80154 43.5471 6.76906 43.3836 6.76909 43.2185L5.96909 43.2184L5.16909 43.2182C5.16901 43.5934 5.24286 43.965 5.3864 44.3117L6.12555 44.0057ZM5.96909 43.2184H6.76909V12.802H5.96909H5.16909V43.2184H5.96909ZM5.96909 12.802L6.76909 12.8018C6.76906 12.6367 6.80154 12.4733 6.8647 12.3207L6.12555 12.0147L5.3864 11.7087C5.24286 12.0554 5.16901 12.4269 5.16909 12.8022L5.96909 12.802ZM6.12555 12.0147L6.8647 12.3207C6.92785 12.1682 7.02044 12.0296 7.13718 11.9128L6.57143 11.3472L6.00569 10.7816C5.74039 11.0469 5.52995 11.362 5.3864 11.7087L6.12555 12.0147ZM6.57143 11.3472L7.13809 11.9119L12.0848 6.94826L11.5182 6.38354L10.9515 5.81882L6.00478 10.7825L6.57143 11.3472ZM11.5182 6.38354L12.0837 6.94934C12.2005 6.83262 12.3391 6.74003 12.4917 6.67687L12.1857 5.9377L11.8797 5.19853C11.533 5.34205 11.218 5.55246 10.9526 5.81774L11.5182 6.38354ZM12.1857 5.9377L12.4917 6.67687C12.6443 6.61372 12.8078 6.58123 12.9729 6.58126L12.9731 5.78126L12.9733 4.98126C12.598 4.98118 12.2264 5.05501 11.8797 5.19853L12.1857 5.9377ZM12.9731 5.78126V6.58126H43.4275V5.78126V4.98126H12.9731V5.78126ZM43.4275 5.78126L43.4277 6.58126C43.5928 6.58123 43.7563 6.61372 43.9089 6.67687L44.2149 5.9377L44.5209 5.19853C44.1742 5.05501 43.8026 4.98118 43.4274 4.98126L43.4275 5.78126ZM44.2149 5.9377L43.9089 6.67687C44.0615 6.74003 44.2001 6.83262 44.3169 6.94934L44.8824 6.38354L45.448 5.81774C45.1826 5.55245 44.8676 5.34205 44.5209 5.19853L44.2149 5.9377ZM44.8824 6.38354L44.317 6.94942L49.2841 11.9131L49.8495 11.3472L50.415 10.7813L45.4479 5.81766L44.8824 6.38354ZM49.8495 11.3472L49.2838 11.9128C49.4005 12.0296 49.4931 12.1682 49.5563 12.3207L50.2954 12.0147L51.0346 11.7087C50.891 11.362 50.6806 11.0469 50.4153 10.7816L49.8495 11.3472ZM50.2954 12.0147L49.5563 12.3207C49.6194 12.4733 49.6519 12.6367 49.6519 12.8018L50.4519 12.802L51.2519 12.8022C51.252 12.4269 51.1781 12.0554 51.0346 11.7087L50.2954 12.0147ZM50.4519 12.802L49.6519 12.8018L49.6432 43.2181L50.4432 43.2184L51.2432 43.2186L51.2519 12.8022L50.4519 12.802ZM54.6683 8.03034L55.234 7.46475L48.748 0.97647L48.1822 1.54206L47.6164 2.10765L54.1025 8.59593L54.6683 8.03034ZM48.1822 1.54206L48.7482 0.976678C47.618 -0.154714 46.0863 -0.793357 44.4871 -0.799993L44.4838 0L44.4805 0.799993C45.6574 0.804877 46.7846 1.27487 47.6162 2.10744L48.1822 1.54206ZM44.4838 0V-0.8H11.9197V0V0.8H44.4838V0ZM11.9197 0L11.9186 -0.799999C10.3185 -0.797802 8.78429 -0.162723 7.65084 0.966616L8.21549 1.53333L8.78015 2.10004C9.61424 1.26898 10.7433 0.801616 11.9208 0.799999L11.9197 0ZM8.21549 1.53333L7.64908 0.968376L1.16886 7.46539L1.73527 8.03034L2.30169 8.59529L8.78191 2.09828L8.21549 1.53333ZM1.73527 8.03034L1.16952 7.46472C0.0397705 8.59472 -0.595921 10.1265 -0.598217 11.7243L0.201782 11.7255L1.00178 11.7266C1.00347 10.5523 1.47067 9.4265 2.30102 8.59596L1.73527 8.03034ZM0.201782 11.7255H-0.598218V44.2862H0.201782H1.00178V11.7255H0.201782ZM0.201782 44.2862L-0.598218 44.286C-0.598401 45.0789 -0.442379 45.864 -0.139067 46.5966L0.600086 46.2906L1.33924 45.9846C1.11632 45.4461 1.00165 44.8691 1.00178 44.2863L0.201782 44.2862ZM0.600086 46.2906L-0.139067 46.5966C0.164246 47.3292 0.608909 47.9949 1.16952 48.5556L1.73527 47.99L2.30102 47.4244C1.88897 47.0122 1.56216 46.523 1.33924 45.9846L0.600086 46.2906ZM1.73527 47.99L1.16923 48.5553L7.64946 55.0436L8.21549 54.4783L8.78153 53.913L2.30131 47.4247L1.73527 47.99ZM8.21549 54.4783L7.65301 55.0472C8.78901 56.1704 10.3223 56.8003 11.9199 56.8L11.9197 56L11.9196 55.2C10.7433 55.2002 9.61437 54.7364 8.77798 53.9094L8.21549 54.4783ZM11.9197 56V56.8H44.4838V56V55.2H11.9197V56ZM44.4838 56L44.4818 56.8C46.0813 56.8039 47.617 56.1731 48.7518 55.0459L48.188 54.4783L47.6242 53.9107C46.7902 54.7392 45.6614 55.2029 44.4858 55.2L44.4838 56ZM48.188 54.4783L48.7541 55.0436L55.2343 48.5553L54.6683 47.99L54.1022 47.4247L47.622 53.913L48.188 54.4783ZM54.6683 47.99L55.2319 48.5577C55.7956 47.9981 56.2423 47.332 56.5462 46.5981L55.807 46.2921L55.0679 45.9861C54.8452 46.5239 54.5177 47.0121 54.1046 47.4223L54.6683 47.99ZM55.807 46.2921L56.5462 46.5981C56.85 45.8642 57.0049 45.0773 57.0017 44.283L56.2017 44.2862L55.4017 44.2893C55.404 44.8714 55.2906 45.4482 55.0679 45.9861L55.807 46.2921ZM56.2017 44.2862H57.0017V11.7371H56.2017H55.4017V44.2862H56.2017ZM56.2017 11.7371L57.0017 11.7403C57.0049 10.946 56.85 10.159 56.5462 9.42515L55.807 9.73118L55.0679 10.0372C55.2906 10.5751 55.404 11.1518 55.4017 11.7339L56.2017 11.7371ZM55.807 9.73118L56.5462 9.42515C56.2423 8.69128 55.7956 8.02515 55.2319 7.46553L54.6683 8.03325L54.1046 8.60097C54.5177 9.01114 54.8452 9.49935 55.0679 10.0372L55.807 9.73118Z" fill="white" mask="url(#path-1-inside-1_211_13)"/>
</svg>
