<svg width="68" height="68" viewBox="0 0 68 68" fill="none" xmlns="http://www.w3.org/2000/svg">
<g clip-path="url(#clip0_216_339)">
<path d="M17.2522 34.5005C21.3182 34.5005 24.257 35.4564 26.5764 36.812C28.6163 38.0043 30.1929 39.5138 31.6575 41.0083L32.2795 41.647C34.2772 43.7028 36.1942 45.6963 38.9045 46.3823V46.3833C41.2356 46.9748 43.4439 46.8306 45.5081 45.9331C46.9587 45.3023 48.3198 44.3061 49.5969 42.9624C48.4573 46.2821 46.7778 48.8222 44.5735 50.6118C41.891 52.7894 38.3824 53.8989 34.0022 53.8989C29.9376 53.8989 26.9995 52.9421 24.6799 51.5864C22.64 50.3942 21.0623 48.8855 19.5969 47.3911L18.9749 46.7524C17.0415 44.7602 15.1801 42.8264 12.6008 42.0835L12.3489 42.0151C10.0179 41.4238 7.80947 41.5684 5.74536 42.4663C4.29481 43.0974 2.93343 44.0936 1.65649 45.438C2.79609 42.1177 4.47664 39.5774 6.68091 37.7876C9.36335 35.6096 12.8721 34.5005 17.2522 34.5005ZM34.0022 14.1011C38.0682 14.1011 41.007 15.0579 43.3264 16.4136C45.3661 17.6058 46.943 19.1145 48.4075 20.6089L49.0295 21.2476C50.9652 23.2396 52.8246 25.1736 55.4036 25.9165L55.6545 25.9849C57.9856 26.5763 60.1938 26.4316 62.2581 25.5337C63.7088 24.9026 65.0697 23.9056 66.3469 22.561C65.2073 25.8817 63.5279 28.4225 61.3235 30.2124C58.641 32.3904 55.1323 33.5005 50.7522 33.5005C46.6877 33.5005 43.7495 32.5436 41.4299 31.188C39.3899 29.9957 37.8124 28.4862 36.3469 26.9917L35.7249 26.353C33.7916 24.3608 31.9302 22.4266 29.3508 21.6841L29.0989 21.6167C26.7682 21.0253 24.5604 21.1695 22.4963 22.0669C21.0458 22.6976 19.6835 23.693 18.4065 25.0366C19.5461 21.7172 21.2268 19.1776 23.4309 17.3882C26.1133 15.2106 29.6218 14.1011 34.0022 14.1011Z" stroke="white"/>
</g>
<defs>
<clipPath id="clip0_216_339">
<rect width="67" height="68" fill="white" transform="translate(0.5)"/>
</clipPath>
</defs>
</svg>
