<svg width="83" height="82" viewBox="0 0 83 82" fill="none" xmlns="http://www.w3.org/2000/svg">
<path d="M81.0391 1.40332V80.4814H1.96094V1.40332H81.0391ZM73.4229 43.0508L73.3564 42.9355C72.8714 42.0918 72.2975 41.3026 71.6455 40.5811L71.3613 40.2754C69.9458 38.7711 68.1167 37.719 66.1045 37.252L65.4912 37.1104V37.165C63.6239 36.8843 61.7264 36.8568 59.8506 37.0889L59.834 37.0908L59.8184 37.0938C55.2725 37.9537 52.1084 40.8772 51.21 45.085L51.2061 45.1045L51.2031 45.123C50.9675 46.8811 51.0167 48.6658 51.3486 50.4082L51.3525 50.4316L51.3594 50.4551C51.7831 51.9071 52.5004 53.2555 53.4648 54.418L53.6611 54.6484L53.6699 54.6582C55.2631 56.3768 56.9967 57.4825 60.627 59.0879L61.3789 59.416C63.1669 60.1965 64.359 60.7641 65.1797 61.2422C65.9938 61.7165 66.407 62.0837 66.6699 62.4473C67.0092 62.9507 67.1858 63.5435 67.1787 64.1465L67.1641 64.4072C67.0951 65.0976 66.7873 65.7419 66.2939 66.2295C65.5399 66.9027 64.3608 67.3121 63.0293 67.3809C61.7069 67.4491 60.2914 67.1777 59.1016 66.5586C57.9698 65.8351 56.9914 64.896 56.2217 63.7949H56.2207L55.7451 63.0908L55.4844 62.7041L55.0801 62.9385L52.7891 64.2656L49.8232 65.9053C49.5471 66.0538 49.2821 66.2223 49.0303 66.4092L48.9482 66.4707L48.8965 66.5586C48.829 66.6743 48.8236 66.785 48.8242 66.8369C48.825 66.8955 48.8351 66.9451 48.8428 66.9775C48.8583 67.0427 48.8826 67.1043 48.9033 67.1523C48.9464 67.2522 49.0082 67.37 49.0781 67.4922C49.2201 67.7403 49.4223 68.0562 49.6455 68.3867C50.0892 69.0438 50.6477 69.8011 51.04 70.2344L51.0459 70.2412L51.0527 70.248C53.3211 72.5724 56.273 74.1114 59.4775 74.6396L59.4854 74.6406L59.4922 74.6416C61.5556 74.9219 63.646 74.944 65.7148 74.707L65.7285 74.7051L65.7412 74.7031C70.1617 73.9568 73.415 71.7317 74.8516 68.376L74.9844 68.0469L74.9854 68.0439C76.1897 64.8457 75.8063 60.5376 74.0059 57.8291H74.0068C72.3933 55.3817 69.8113 53.7072 64.0742 51.2393H64.0752C60.9321 49.8811 60.128 49.283 59.6895 48.3691L59.6846 48.3584L59.6797 48.3486L59.6074 48.2031C59.4518 47.8596 59.3781 47.4838 59.3926 47.1055V47.083C59.387 46.1689 59.7207 45.4783 60.2812 45.0254C60.851 44.565 61.713 44.3048 62.8369 44.3818H62.8447L62.8525 44.3828C63.4495 44.4051 64.033 44.5591 64.5615 44.833L64.7852 44.958C65.3702 45.3099 65.8569 45.8039 66.1992 46.3945L66.207 46.4092L66.4805 46.792C66.5661 46.9038 66.6487 47.0034 66.7246 47.0859C66.7976 47.1653 66.8809 47.2478 66.9678 47.3096C67.0091 47.3389 67.0784 47.3825 67.166 47.4102C67.2452 47.4351 67.431 47.4732 67.6182 47.3564L67.6191 47.3574C68.6802 46.6995 70.0776 45.7843 71.209 45.0215C71.7746 44.6401 72.2766 44.2946 72.6387 44.0371C72.8189 43.9089 72.9695 43.7993 73.0762 43.7168C73.128 43.6767 73.1768 43.6373 73.2158 43.6025C73.234 43.5863 73.2613 43.5614 73.2871 43.5322C73.2994 43.5184 73.3223 43.4911 73.3447 43.4551C73.3562 43.4368 73.4229 43.3333 73.4229 43.1846V43.0508ZM47.6953 41.0898L47.6562 37.791L47.6514 37.2969H33.1719C29.3284 37.2969 25.8167 37.2965 23.2598 37.3037C21.9816 37.3073 20.9401 37.3132 20.2148 37.3213C19.853 37.3253 19.5672 37.3303 19.3691 37.3359C19.271 37.3387 19.1896 37.342 19.1299 37.3457C19.1013 37.3475 19.069 37.35 19.04 37.3535C19.027 37.3551 19.0023 37.358 18.9746 37.3643C18.9614 37.3672 18.9349 37.3738 18.9033 37.3857C18.8914 37.3903 18.7903 37.4255 18.7041 37.5225L18.5928 37.6484L18.5791 37.8164C18.4945 38.931 18.4696 40.0496 18.502 41.167H18.501V44.8701H28.9238V74.4922H37.2979V44.876H47.6953V41.0898Z" stroke="white"/>
</svg>
